<?xml version="1.0" encoding="utf-8"?>
<!-- Generator: Adobe Illustrator 16.0.0, SVG Export Plug-In . SVG Version: 6.00 Build 0)  -->
<!DOCTYPE svg PUBLIC "-//W3C//DTD SVG 1.1//EN" "http://www.w3.org/Graphics/SVG/1.1/DTD/svg11.dtd">
<svg version="1.1" id="图层_3" xmlns="http://www.w3.org/2000/svg" xmlns:xlink="http://www.w3.org/1999/xlink" x="0px" y="0px"
	 width="192px" height="192px" viewBox="0 0 192 192" enable-background="new 0 0 192 192" xml:space="preserve">
<path fill="#4285F4" d="M141.525,35.717l15.176,30.35h-22.764l-15.174-30.35h-15.176l15.176,30.35H96l-15.174-30.35H65.65
	l15.176,30.35H58.062l-15.174-30.35H35.3c-8.347,0-15.101,6.828-15.101,15.175l-0.074,91.05c0,8.344,6.828,15.175,15.175,15.175
	h121.401c8.344,0,15.174-6.831,15.174-15.175V35.717H141.525z"/>
<path fill="#FFFFFF" d="M96.75,96.5c-8.97,0-16.25,7.279-16.25,16.25c0,8.97,7.28,16.25,16.25,16.25c8.97,0,16.25-7.28,16.25-16.25
	C113,103.779,105.72,96.5,96.75,96.5z M93.5,120.063v-14.625l9.75,7.313L93.5,120.063z"/>
</svg>
