<?xml version="1.0" encoding="utf-8"?>
<!-- Generator: Adobe Illustrator 16.0.0, SVG Export Plug-In . SVG Version: 6.00 Build 0)  -->
<!DOCTYPE svg PUBLIC "-//W3C//DTD SVG 1.1//EN" "http://www.w3.org/Graphics/SVG/1.1/DTD/svg11.dtd">
<svg version="1.1" id="图层_3" xmlns="http://www.w3.org/2000/svg" xmlns:xlink="http://www.w3.org/1999/xlink" x="0px" y="0px"
	 width="192px" height="192px" viewBox="0 0 192 192" enable-background="new 0 0 192 192" xml:space="preserve">
<path fill="#4285F4" d="M160.75,20H31.25C25.034,20,20,25.035,20,31.25v129.5c0,6.216,5.034,11.25,11.25,11.25h129.5
	c6.215,0,11.25-5.034,11.25-11.25V31.25C172,25.035,166.965,20,160.75,20z"/>
<path fill="#FFFFFF" d="M68.143,130.428h55.716V136H68.143V130.428z M132.215,58H59.786c-4.614,0.006-8.352,3.745-8.357,8.358
	v50.143c0.003,4.615,3.743,8.355,8.357,8.36h72.429c4.614-0.007,8.353-3.747,8.356-8.36V66.357
	C140.564,61.745,136.827,58.007,132.215,58z M108.89,95.734L87.349,107.38c-4.416,2.386-7.8,0.611-7.8-3.939V79.539
	c0-4.541,3.394-6.323,7.826-3.963l21.55,11.539C113.355,89.477,113.29,93.355,108.89,95.734L108.89,95.734z"/>
</svg>
