<?xml version="1.0" standalone="no"?><!DOCTYPE svg PUBLIC "-//W3C//DTD SVG 1.1//EN" "http://www.w3.org/Graphics/SVG/1.1/DTD/svg11.dtd"><svg t="1528439002294" class="icon" style="" viewBox="0 0 1024 1024" version="1.1" xmlns="http://www.w3.org/2000/svg" p-id="1835" xmlns:xlink="http://www.w3.org/1999/xlink" width="64" height="64"><defs><style type="text/css"></style></defs><path d="M532.48 512l33.28 0 0 110.08-33.28 0 0-110.08Z" p-id="1836"></path><path d="M389.12 512l33.28 0 0 110.08-33.28 0 0-110.08Z" p-id="1837"></path><path d="M675.84 512l33.28 0 0 110.08-33.28 0 0-110.08Z" p-id="1838"></path><path d="M604.16 512l33.28 0 0 110.08-33.28 0 0-110.08Z" p-id="1839"></path><path d="M512 0C230.4 0 0 230.4 0 512c0 281.6 230.4 512 512 512s512-230.4 512-512C1024 230.4 793.6 0 512 0zM760.32 614.4c0 23.04-20.48 43.52-43.52 43.52L307.2 657.92c-23.04 0-43.52-20.48-43.52-43.52l0-102.4 496.64 0L760.32 614.4zM760.32 504.32 263.68 504.32l0-102.4c0-23.04 20.48-43.52 43.52-43.52l409.6 0c23.04 0 43.52 20.48 43.52 43.52L760.32 504.32z" p-id="1840"></path><path d="M317.44 512l33.28 0 0 110.08-33.28 0 0-110.08Z" p-id="1841"></path></svg>