<?xml version="1.0" standalone="no"?><!DOCTYPE svg PUBLIC "-//W3C//DTD SVG 1.1//EN" "http://www.w3.org/Graphics/SVG/1.1/DTD/svg11.dtd"><svg t="1528439011549" class="icon" style="" viewBox="0 0 1024 1024" version="1.1" xmlns="http://www.w3.org/2000/svg" p-id="1962" xmlns:xlink="http://www.w3.org/1999/xlink" width="64" height="64"><defs><style type="text/css"></style></defs><path d="M510.204098 99.168604l0-0.057305c0-0.282433-0.229221-0.511653-0.511653-0.511653l-14.727423 0c-0.282433 0-0.511653 0.229221-0.511653 0.511653l0 0.057305c-26.714432 3.823072-47.25321 26.78811-47.25321 54.559617 0 30.446429 24.682146 55.128575 55.128575 55.128575s55.128575-24.682146 55.128575-55.128575C557.457308 125.956713 536.918529 102.991676 510.204098 99.168604zM502.328733 193.106066c-21.712511 0-39.377846-17.665335-39.377846-39.377846 0-19.016099 13.550621-34.926464 31.502481-38.584784l0 45.949518c0 0.282433 0.229221 0.511653 0.511653 0.511653l14.727423 0c0.282433 0 0.511653-0.229221 0.511653-0.511653L510.204098 115.143437c17.951861 3.65832 31.502481 19.568684 31.502481 38.584784C541.706579 175.440731 524.041244 193.106066 502.328733 193.106066zM321.191256 161.604608 132.177392 161.604608c-17.398252 0-31.502481 14.104229-31.502481 31.502481l0 126.008902c0 17.398252 14.104229 31.502481 31.502481 31.502481l189.012841 0c17.398252 0 31.502481-14.104229 31.502481-31.502481L352.692714 193.106066C352.692714 175.708837 338.588485 161.604608 321.191256 161.604608zM336.941985 319.114968c0 8.6848-7.065929 15.750729-15.750729 15.750729L132.177392 334.865697c-8.6848 0-15.750729-7.065929-15.750729-15.750729L116.426663 193.106066c0-8.6848 7.065929-15.750729 15.750729-15.750729l189.012841 0c8.6848 0 15.750729 7.065929 15.750729 15.750729L336.940962 319.114968zM644.088364 98.599645c-30.446429 0-55.128575 24.682146-55.128575 55.128575 0 27.771507 20.538779 50.736545 47.25321 54.559617l0 0.057305c0 0.282433 0.229221 0.511653 0.511653 0.511653l14.727423 0c0.282433 0 0.511653-0.229221 0.511653-0.511653l0-0.057305c26.714432-3.823072 47.25321-26.78811 47.25321-54.559617C699.216939 123.281791 674.534793 98.599645 644.088364 98.599645zM651.963729 192.314027l0-45.949518c0-0.282433-0.229221-0.511653-0.511653-0.511653l-14.727423 0c-0.282433 0-0.511653 0.229221-0.511653 0.511653l0 45.949518c-17.951861-3.65832-31.502481-19.568684-31.502481-38.584784 0-21.712511 17.665335-39.377846 39.377846-39.377846s39.377846 17.665335 39.377846 39.377846C683.46621 172.744319 669.915589 188.654684 651.963729 192.314027zM919.732262 99.111299c0-0.282433-0.229221-0.511653-0.511653-0.511653l-14.727423 0c-0.282433 0-0.511653 0.229221-0.511653 0.511653l0 109.74652-15.750729 0 0 31.502481 15.750729 0 0 109.74652c0 0.282433 0.229221 0.511653 0.511653 0.511653l14.727423 0c0.282433 0 0.511653-0.229221 0.511653-0.511653L919.732262 240.359276l15.750729 0 0-31.502481-15.750729 0L919.732262 99.111299zM825.225841 99.111299c0-0.282433-0.229221-0.511653-0.511653-0.511653l-14.727423 0c-0.282433 0-0.511653 0.229221-0.511653 0.511653l0 109.74652-15.750729 0 0 31.502481 15.750729 0 0 109.74652c0 0.282433 0.229221 0.511653 0.511653 0.511653l14.727423 0c0.282433 0 0.511653-0.229221 0.511653-0.511653L825.225841 240.359276l15.750729 0 0-31.502481-15.750729 0L825.225841 99.111299zM556.945655 287.612487l-0.057305 0c-3.823072-26.714432-26.78811-47.25321-54.559617-47.25321-30.446429 0-55.128575 24.682146-55.128575 55.128575s24.682146 55.128575 55.128575 55.128575c27.771507 0 50.736545-20.538779 54.559617-47.25321l0.057305 0c0.282433 0 0.511653-0.229221 0.511653-0.511653l0-14.727423C557.457308 287.841707 557.228087 287.612487 556.945655 287.612487zM494.965022 303.364239l45.949518 0c-3.65832 17.951861-19.568684 31.502481-38.584784 31.502481-21.712511 0-39.377846-17.665335-39.377846-39.377846 0-21.712511 17.665335-39.377846 39.377846-39.377846 19.016099 0 34.926464 13.550621 38.584784 31.502481l-45.949518 0c-0.282433 0-0.511653 0.229221-0.511653 0.511653l0 14.727423C494.453369 303.135018 494.681566 303.364239 494.965022 303.364239zM698.705286 287.612487l-0.057305 0c-3.823072-26.714432-26.78811-47.25321-54.559617-47.25321-30.446429 0-55.128575 24.682146-55.128575 55.128575s24.682146 55.128575 55.128575 55.128575c27.771507 0 50.736545-20.538779 54.559617-47.25321l0.057305 0c0.282433 0 0.511653-0.229221 0.511653-0.511653l0-14.727423C699.216939 287.841707 698.987718 287.612487 698.705286 287.612487zM636.724653 303.364239l45.949518 0c-3.65832 17.951861-19.568684 31.502481-38.584784 31.502481-21.712511 0-39.377846-17.665335-39.377846-39.377846 0-21.712511 17.665335-39.377846 39.377846-39.377846 19.016099 0 34.926464 13.550621 38.584784 31.502481l-45.949518 0c-0.282433 0-0.511653 0.229221-0.511653 0.511653l0 14.727423C636.213 303.135018 636.44222 303.364239 636.724653 303.364239zM116.426663 130.102127c8.699126 0 15.750729-7.051603 15.750729-15.750729s-7.051603-15.750729-15.750729-15.750729-15.750729 7.051603-15.750729 15.750729S107.727537 130.102127 116.426663 130.102127zM179.430602 130.102127c8.699126 0 15.750729-7.051603 15.750729-15.750729s-7.051603-15.750729-15.750729-15.750729-15.750729 7.051603-15.750729 15.750729S170.731476 130.102127 179.430602 130.102127zM227.707119 130.102127l60.957327 0c0.562818 0 1.023306-0.460488 1.023306-1.023306L289.687752 99.622952c0-0.562818-0.460488-1.023306-1.023306-1.023306l-60.957327 0c-0.562818 0-1.023306 0.460488-1.023306 1.023306l0 29.455869C226.683812 129.641639 227.1443 130.102127 227.707119 130.102127zM935.484014 4.093225 84.924181 4.093225c-43.49563 0-78.755692 35.260062-78.755692 78.755692l0 330.773496 0 504.034585 0 15.750729c0 43.49563 35.260062 78.755692 78.755692 78.755692l15.750729 0 47.25321 0 15.750729 0 126.008902 0 15.750729 0 126.008902 0 15.750729 0 126.008902 0 15.750729 0 126.008902 0 15.750729 0 126.008902 0 15.750729 0 47.25321 0 15.750729 0c43.49563 0 78.755692-35.260062 78.755692-78.755692l0-15.750729L1014.236636 413.621389 1014.236636 82.848916C1014.238682 39.353286 978.97862 4.093225 935.484014 4.093225zM147.929144 980.660936 84.924181 980.660936c-26.055422 0-47.25321-21.197788-47.25321-47.25321L37.670971 429.373141l78.755692 0L116.426663 759.122307c0 0.562818 0.460488 1.023306 1.023306 1.023306l30.479175 0L147.929144 980.660936zM289.688775 980.660936 163.679873 980.660936 163.679873 760.145613l30.479175 0c0.562818 0 1.023306-0.460488 1.023306-1.023306l0-329.750189 63.003939 0L258.186294 759.122307c0 0.562818 0.460488 1.023306 1.023306 1.023306l30.479175 0L289.688775 980.660936zM431.448406 980.660936 305.439504 980.660936 305.439504 760.145613l30.479175 0c0.562818 0 1.023306-0.460488 1.023306-1.023306l0-329.750189 94.506421 0L431.448406 980.660936zM573.208037 980.660936 447.199135 980.660936 447.199135 429.373141l94.506421 0L541.705556 759.122307c0 0.562818 0.460488 1.023306 1.023306 1.023306l30.479175 0L573.208037 980.660936zM714.968691 980.660936 588.959789 980.660936 588.959789 760.145613l30.479175 0c0.562818 0 1.023306-0.460488 1.023306-1.023306l0-329.750189 63.003939 0L683.46621 759.122307c0 0.562818 0.460488 1.023306 1.023306 1.023306l30.479175 0L714.968691 980.660936zM856.728322 980.660936 730.71942 980.660936 730.71942 760.145613l30.479175 0c0.562818 0 1.023306-0.460488 1.023306-1.023306l0-329.750189 63.003939 0L825.225841 759.122307c0 0.562818 0.460488 1.023306 1.023306 1.023306l30.479175 0L856.728322 980.660936zM982.737224 933.407726c0 26.055422-21.197788 47.25321-47.25321 47.25321l-63.003939 0L872.480075 760.145613l30.479175 0c0.562818 0 1.023306-0.460488 1.023306-1.023306l0-329.750189 78.755692 0L982.738247 933.407726zM982.737224 413.621389l-78.755692 0-31.502481 0-15.750729 0-31.502481 0-63.003939 0-31.502481 0-15.750729 0-31.502481 0-63.003939 0-31.502481 0-15.750729 0-31.502481 0L447.199135 413.621389l-15.750729 0-94.506421 0-31.502481 0-15.750729 0-31.502481 0-63.003939 0-31.502481 0-15.750729 0-31.502481 0L37.670971 413.621389 37.670971 82.848916c0-26.055422 21.197788-47.25321 47.25321-47.25321l850.558809 0c26.055422 0 47.25321 21.197788 47.25321 47.25321L982.736201 413.621389z" p-id="1963"></path></svg>