<?xml version="1.0" encoding="utf-8"?>
<!-- Generator: Adobe Illustrator 16.0.0, SVG Export Plug-In . SVG Version: 6.00 Build 0)  -->
<!DOCTYPE svg PUBLIC "-//W3C//DTD SVG 1.1//EN" "http://www.w3.org/Graphics/SVG/1.1/DTD/svg11.dtd">
<svg version="1.1" id="图层_3" xmlns="http://www.w3.org/2000/svg" xmlns:xlink="http://www.w3.org/1999/xlink" x="0px" y="0px"
	 width="192px" height="192px" viewBox="0 0 192 192" enable-background="new 0 0 192 192" xml:space="preserve">
<path fill="none" d="M107,81h24v24h-24V81z"/>
<path fill="none" d="M24,8.667h89.667v89.667H24V8.667z"/>
<g>
	<path fill="#3C8CEA" d="M117.625,8.125h-74c-6.216,0-11.25,5.034-11.25,11.25v153.25c0,6.215,5.034,11.25,11.25,11.25h104.75
		c6.215,0,11.25-5.035,11.25-11.25v-122.5L117.625,8.125z"/>
	<path opacity="0.5" fill="#FFFFFF" enable-background="new    " d="M117.625,8.125v35c0,3.866,3.134,7,7,7h35L117.625,8.125z"/>
	<path fill="#2D6FE4" d="M124.625,50.125c-1.656,0-3.176-0.579-4.375-1.54L159.166,84l0.459-33.875H124.625z"/>
</g>
<g>
	<path fill="#FFFFFF" d="M87.966,115.271H77.853l-2.1,6.729h-6.535l10.52-31.196h6.406L96.621,122h-6.534L87.966,115.271z
		 M79.396,110.365h7.049l-3.45-10.99h-0.128L79.396,110.365z"/>
	<path fill="#FFFFFF" d="M117.211,110.387h3.514v4.842h-3.514V122h-6.256v-6.771H98.25l-0.301-3.749l12.941-20.675h6.32V110.387z
		 M103.627,110.387h7.328V99.053l-0.129-0.021l-0.643,1.393L103.627,110.387z"/>
</g>
</svg>
