<?xml version="1.0" encoding="utf-8"?>
<!-- Generator: Adobe Illustrator 16.0.0, SVG Export Plug-In . SVG Version: 6.00 Build 0)  -->
<!DOCTYPE svg PUBLIC "-//W3C//DTD SVG 1.1//EN" "http://www.w3.org/Graphics/SVG/1.1/DTD/svg11.dtd">
<svg version="1.1" id="图层_3" xmlns="http://www.w3.org/2000/svg" xmlns:xlink="http://www.w3.org/1999/xlink" x="0px" y="0px"
	 width="192px" height="192px" viewBox="0 0 192 192" enable-background="new 0 0 192 192" xml:space="preserve">
<line fill="none" x1="18.797" y1="72.809" x2="178.266" y2="72.809"/>
<path fill="none" d="M47.532,75.53h51v51h-51V75.53z"/>
<path fill="#3385FF" d="M133.756,45.146c0-5.512-4.527-10.043-10.044-10.043h-12.609V20H80.897v15.103H68.288
	c-5.513,0-10.044,4.531-10.044,10.043v57.918h75.512V45.146z"/>
<path fill="#3385FF" d="M57.841,103.064v58.534c0,5.575,4.58,10.151,10.151,10.151h55.94c5.649,0,10.226-4.576,10.226-10.151
	v-58.534H57.841z"/>
<path opacity="0.1" enable-background="new    " d="M57.841,103.064v58.534c0,5.575,4.58,10.151,10.151,10.151h55.94
	c5.649,0,10.226-4.576,10.226-10.151v-58.534H57.841z"/>
<polygon fill="#FF0C00" fill-opacity="0.3" points="88.413,156.575 88.413,114.844 73.237,114.844 77.254,107.256 103.588,57.938 
	103.588,99.669 118.763,99.669 114.746,107.256 "/>
<polygon fill="#FFFFFF" points="103.588,99.669 103.588,57.938 73.237,114.844 88.413,114.844 88.413,156.575 118.763,99.669 "/>
</svg>
