<?xml version="1.0" encoding="utf-8"?>
<!-- Generator: Adobe Illustrator 16.0.0, SVG Export Plug-In . SVG Version: 6.00 Build 0)  -->
<!DOCTYPE svg PUBLIC "-//W3C//DTD SVG 1.1//EN" "http://www.w3.org/Graphics/SVG/1.1/DTD/svg11.dtd">
<svg version="1.1" id="图层_3" xmlns="http://www.w3.org/2000/svg" xmlns:xlink="http://www.w3.org/1999/xlink" x="0px" y="0px"
	 width="192px" height="192px" viewBox="0 0 192 192" enable-background="new 0 0 192 192" xml:space="preserve">
<path fill="#4285F4" d="M125.175,20H28.407C23.762,20,20,23.763,20,28.406v96.769c0,4.646,3.762,8.407,8.406,8.407h96.768
	c4.646,0,8.407-3.762,8.407-8.407V28.406C133.582,23.763,129.82,20,125.175,20z"/>
<circle fill="#FBBC05" cx="133.875" cy="133.875" r="49.625"/>
<g>
	<rect x="113.475" y="121.164" fill="#FFFFFF" width="43.047" height="8.314"/>
	<rect x="113.475" y="138.329" fill="#FFFFFF" width="43.047" height="8.315"/>
</g>
<path fill="#FFFFFF" d="M76.791,114.248L53.712,81.113l23.079,13.728l23.079-13.728L76.791,114.248z M76.791,91.197L53.712,77.181
	l23.079-37.847L99.869,77.18L76.791,91.197z"/>
</svg>
