<?xml version="1.0" encoding="utf-8"?>
<!-- Generator: Adobe Illustrator 19.0.0, SVG Export Plug-In . SVG Version: 6.00 Build 0)  -->
<svg version="1.1" id="Layer_1" xmlns="http://www.w3.org/2000/svg" xmlns:xlink="http://www.w3.org/1999/xlink" x="0px" y="0px"
	 viewBox="0 0 500 500" style="enable-background:new 0 0 500 500;" xml:space="preserve">
<style type="text/css">
	.st0{fill:#4F8BF5;}
	.st1{fill:#4352B8;}
	.st2{fill:#FBBC05;}
</style>
<g>
	<path class="st0" d="M373.2,425H126.8c-14.8,0-26.8-12-26.8-26.8V101.8C100,87,112,75,126.8,75h246.3C388,75,400,87,400,101.8
		v296.3C400,413,388,425,373.2,425z"/>
	<path class="st1" d="M127.2,75c-15,0-27.2,12.3-27.2,27.6v294.8c0,15.2,12.2,27.6,27.2,27.6h42.7V75H127.2z"/>
	<polygon class="st2" points="315.4,166.8 277.8,196.7 277.8,75 351.8,75 351.8,196.7 	"/>
</g>
</svg>
