<?xml version="1.0" encoding="utf-8"?>
<!-- Generator: Adobe Illustrator 16.0.0, SVG Export Plug-In . SVG Version: 6.00 Build 0)  -->
<!DOCTYPE svg PUBLIC "-//W3C//DTD SVG 1.1//EN" "http://www.w3.org/Graphics/SVG/1.1/DTD/svg11.dtd">
<svg version="1.1" id="图层_3" xmlns="http://www.w3.org/2000/svg" xmlns:xlink="http://www.w3.org/1999/xlink" x="0px" y="0px"
	 width="192px" height="192px" viewBox="0 0 192 192" enable-background="new 0 0 192 192" xml:space="preserve">
<line fill="none" x1="18.797" y1="72.809" x2="178.266" y2="72.809"/>
<path fill="none" d="M47.532,75.53h51v51h-51V75.53z"/>
<path fill="#FBBC05" d="M8.125,43.625v104.75c0,6.216,5.034,11.25,11.25,11.25h153.25c6.215,0,11.25-5.034,11.25-11.25V43.625
	c0-6.215-5.035-11.25-11.25-11.25H19.375C13.159,32.375,8.125,37.41,8.125,43.625z"/>
<g>
	<rect x="42.98" y="128.813" fill="#FFFFFF" width="95.437" height="10.601"/>
	<rect x="42.98" y="107.604" fill="#FFFFFF" width="106.042" height="10.606"/>
	<path fill="#FFFFFF" d="M96.002,89.815l14.229,8.59l-3.775-16.188l12.572-10.89l-16.555-1.405l-6.471-15.267L89.53,69.922
		l-16.555,1.405l12.572,10.89l-3.776,16.188L96.002,89.815z"/>
</g>
</svg>
