<?xml version="1.0" standalone="no"?><!DOCTYPE svg PUBLIC "-//W3C//DTD SVG 1.1//EN" "http://www.w3.org/Graphics/SVG/1.1/DTD/svg11.dtd"><svg t="1530530161987" class="icon" style="" viewBox="0 0 1024 1024" version="1.1" xmlns="http://www.w3.org/2000/svg" p-id="3019" xmlns:xlink="http://www.w3.org/1999/xlink" width="1024" height="1024"><defs><style type="text/css"></style></defs><path d="M724.10112 945.02912c0 35.34848 26.51136 53.02272 53.0176 53.02272h123.7248c35.34848 0 53.02272-26.51136 53.02272-53.02272V78.96576c0-35.34848-26.51136-53.02272-53.02272-53.02272h-123.7248c-35.34336 0-53.0176 26.51136-53.0176 53.02272v866.06336z" fill="#1898E1" p-id="3020"></path><path d="M397.11744 962.70848c0 17.66912 26.51136 35.34336 53.02272 35.34336h123.71968c35.34848 0 53.02784-17.67424 53.02784-35.34336V441.29792c0-17.67424-26.51648-35.34848-53.02784-35.34848H450.14016c-26.51136 0-53.02272 17.67424-53.02272 35.34848v521.41056z" fill="#59C1EF" p-id="3021"></path><path d="M61.29152 962.70848c0 8.83712 26.51136 26.51136 53.02272 26.51136h132.56192c35.34848 0 53.02272-8.84224 53.02272-26.51136v-353.50016c0-17.66912-26.51136-26.51136-53.02272-26.51136h-132.5568c-35.34848 0-53.02272 8.84224-53.02272 26.51136v353.50016z" fill="#A7E2FC" p-id="3022"></path></svg>