<?xml version="1.0" encoding="utf-8"?>
<!-- Generator: Adobe Illustrator 16.0.0, SVG Export Plug-In . SVG Version: 6.00 Build 0)  -->
<!DOCTYPE svg PUBLIC "-//W3C//DTD SVG 1.1//EN" "http://www.w3.org/Graphics/SVG/1.1/DTD/svg11.dtd">
<svg version="1.1" id="图层_3" xmlns="http://www.w3.org/2000/svg" xmlns:xlink="http://www.w3.org/1999/xlink" x="0px" y="0px"
	 width="192px" height="192px" viewBox="0 0 192 192" enable-background="new 0 0 192 192" xml:space="preserve">
<line fill="none" x1="18.435" y1="73.155" x2="177.904" y2="73.155"/>
<path fill="#34A853" d="M96.129,11.719L31.955,40.241v42.782c0,39.573,27.381,76.586,64.174,85.567
	c36.795-8.981,64.177-45.994,64.177-85.567V40.241L96.129,11.719z"/>
<g>
	<path fill="#FFFFFF" d="M85.672,79.921l0.032,0.096c0.042,2.493-0.717,4.445-2.278,5.856c-1.562,1.412-3.718,2.118-6.467,2.118
		c-2.803,0-5.065-0.901-6.787-2.704c-1.722-1.802-2.583-4.132-2.583-6.988v-4.637c0-2.845,0.84-5.175,2.52-6.988
		c1.679-1.813,3.883-2.72,6.61-2.72c2.846,0,5.071,0.695,6.675,2.086s2.385,3.348,2.343,5.873l-0.032,0.096h-4.557
		c0-1.498-0.361-2.613-1.083-3.346c-0.722-0.732-1.837-1.099-3.346-1.099c-1.401,0-2.495,0.564-3.281,1.693
		c-0.786,1.129-1.179,2.586-1.179,4.373V78.3c0,1.797,0.415,3.263,1.244,4.396c0.829,1.134,1.981,1.701,3.458,1.701
		c1.401,0,2.447-0.366,3.137-1.099c0.69-0.732,1.035-1.858,1.035-3.377H85.672z"/>
	<path fill="#FFFFFF" d="M101.236,82.617h-7.574l-1.573,5.038h-4.894l7.878-23.362h4.798l7.847,23.362h-4.895L101.236,82.617z
		 M94.818,78.942h5.279l-2.583-8.231h-0.097L94.818,78.942z"/>
	<path fill="#FFFFFF" d="M122.144,82.617h-7.574l-1.572,5.038h-4.894l7.878-23.362h4.798l7.847,23.362h-4.895L122.144,82.617z
		 M115.725,78.942h5.279l-2.583-8.231h-0.097L115.725,78.942z"/>
</g>
<path fill="#FFFFFF" d="M91.697,137.9l-8.496-8.495l-2.831,2.832l11.327,11.326l24.272-24.271l-2.832-2.832L91.697,137.9z"/>
</svg>
