<?xml version="1.0" encoding="utf-8"?>
<!-- Generator: Adobe Illustrator 16.0.0, SVG Export Plug-In . SVG Version: 6.00 Build 0)  -->
<!DOCTYPE svg PUBLIC "-//W3C//DTD SVG 1.1//EN" "http://www.w3.org/Graphics/SVG/1.1/DTD/svg11.dtd">
<svg version="1.1" id="图层_3" xmlns="http://www.w3.org/2000/svg" xmlns:xlink="http://www.w3.org/1999/xlink" x="0px" y="0px"
	 width="192px" height="192px" viewBox="0 0 192 192" enable-background="new 0 0 192 192" xml:space="preserve">
<path fill="none" d="M107,81h24v24h-24V81z"/>
<path fill="none" d="M24,8.667h89.667v89.667H24V8.667z"/>
<path fill="#4285F4" d="M125.176,20H28.407C23.762,20,20,23.763,20,28.406v96.768c0,4.646,3.762,8.408,8.406,8.408h96.768
	c4.646,0,8.408-3.762,8.408-8.408V28.406C133.582,23.763,129.82,20,125.176,20z"/>
<circle fill="#34A853" cx="133.875" cy="133.875" r="49.625"/>
<path fill="#FFFFFF" d="M99.114,69.568c-1.676,0.876-5.066,2.628-6.705,3.466c-0.647,0.343-1.143,0.229-1.371-0.343
	c-0.876-1.638-2.742-5.142-2.742-5.142s0,22.095,0,27.694c0,0.762-0.571,1.257-1.562,1.257c-2.209,0-6.324,0-9.333,0
	c0,0-1.562,0-3.657,0c-3.009,0-7.161,0-9.371,0c-0.99,0-1.562-0.495-1.562-1.257c0-5.561,0-27.694,0-27.694
	s-1.866,3.504-2.743,5.142c-0.229,0.572-0.723,0.724-1.371,0.343c-1.676-0.838-5.066-2.589-6.743-3.466
	c-0.648-0.381-0.838-0.99-0.343-1.829c1.6-3.429,5.829-12.19,6.856-13.104c1.333-1.105,4.038-1.372,11.01-3.467
	c1.333,2.438,5.828,2.743,6.095,2.781c0.267-0.038,4.723-0.342,6.057-2.781c6.934,2.095,9.676,2.361,10.971,3.467
	c1.028,0.876,5.256,9.675,6.856,13.104C99.952,68.578,99.762,69.225,99.114,69.568z"/>
<path fill="#FEFFFD" d="M147.125,112.125l-10.372,10.373l-2.415,2.415l-3.689,3.69l-1.67,1.67l-18.611,18.609l11.188,11.188
	l36.758-36.758L147.125,112.125z M121.555,156.874l-7.99-7.99l3.995-3.995l4.794,4.794c0.442,0.442,1.157,0.441,1.599,0
	c0.441-0.442,0.441-1.157,0-1.599l-4.794-4.794l2.397-2.397l2.396,2.397c0.441,0.441,1.157,0.441,1.599,0s0.441-1.157,0-1.598
	l-2.397-2.397l2.397-2.397l4.794,4.795c0.441,0.44,1.156,0.44,1.599,0c0.441-0.441,0.441-1.157-0.001-1.599l-4.794-4.795
	l2.397-2.397l2.397,2.397c0.442,0.441,1.157,0.441,1.598,0c0.441-0.44,0.441-1.155,0-1.598l-2.397-2.397l0.628-0.627l1.77-1.77
	l4.794,4.794c0.442,0.442,1.158,0.441,1.6,0c0.44-0.441,0.44-1.157,0-1.599l-4.795-4.793l0.809-0.811l1.589-1.588l2.397,2.397
	c0.44,0.441,1.156,0.441,1.598,0s0.441-1.157,0-1.599l-2.397-2.396l2.397-2.397l4.794,4.794c0.441,0.441,1.157,0.441,1.599,0
	s0.442-1.156,0-1.599l-4.794-4.794l3.995-3.995l7.99,7.99L121.555,156.874z"/>
</svg>
