<?xml version="1.0" encoding="utf-8"?>
<!-- Generator: Adobe Illustrator 16.0.0, SVG Export Plug-In . SVG Version: 6.00 Build 0)  -->
<!DOCTYPE svg PUBLIC "-//W3C//DTD SVG 1.1//EN" "http://www.w3.org/Graphics/SVG/1.1/DTD/svg11.dtd">
<svg version="1.1" id="图层_3" xmlns="http://www.w3.org/2000/svg" xmlns:xlink="http://www.w3.org/1999/xlink" x="0px" y="0px"
	 width="192px" height="192px" viewBox="0 0 192 192" enable-background="new 0 0 192 192" xml:space="preserve">
<line fill="none" x1="17.705" y1="74.155" x2="177.174" y2="74.155"/>
<path fill="#3385FF" d="M144.366,20.333H47.637c-7.596,0-13.75,6.218-13.75,13.818l-0.067,89.333c0,4.771,2.416,8.986,6.08,11.471
	l56.102,37.379l56.029-37.379c3.668-2.482,6.085-6.7,6.085-11.471l0.065-89.333C158.183,26.551,151.963,20.333,144.366,20.333z"/>
<g>
	<path fill="#FFFFFF" d="M87.366,95.262h-5.149v-10.67H71.757v10.67h-5.15V69.583h5.15v11.04h10.458v-11.04h5.15V95.262
		L87.366,95.262z"/>
	<path fill="#FFFFFF" d="M106.767,83.973h-9.524v7.338h11.323v3.951H92.092v-25.68h16.438v3.969H97.242v6.455h9.524V83.973z"/>
	<path fill="#FFFFFF" d="M121.263,78.682l4.814-9.1h5.998l-7.619,12.733l8.059,12.944h-6.225L121.333,86l-4.955,9.26h-6.016
		l7.814-12.944l-7.619-12.733h5.961L121.263,78.682z"/>
</g>
</svg>
