<?xml version="1.0" encoding="utf-8"?>
<!-- Generator: Adobe Illustrator 16.0.0, SVG Export Plug-In . SVG Version: 6.00 Build 0)  -->
<!DOCTYPE svg PUBLIC "-//W3C//DTD SVG 1.1//EN" "http://www.w3.org/Graphics/SVG/1.1/DTD/svg11.dtd">
<svg version="1.1" id="图层_3" xmlns="http://www.w3.org/2000/svg" xmlns:xlink="http://www.w3.org/1999/xlink" x="0px" y="0px"
	 width="192px" height="192px" viewBox="0 0 192 192" enable-background="new 0 0 192 192" xml:space="preserve">
<path fill="#4285F4" d="M160.75,20H31.25C25.034,20,20,25.035,20,31.25v129.5c0,6.216,5.034,11.25,11.25,11.25h129.5
	c6.215,0,11.25-5.034,11.25-11.25V31.25C172,25.035,166.965,20,160.75,20z"/>
<polygon fill="#FFFFFF" points="80.164,81.681 91.107,94.854 106.426,75.115 126.122,101.377 64.845,101.377 "/>
<path fill="#BAD7F4" d="M172,160.77V132H20v28.75c0,6.216,5.034,11.25,11.25,11.25h129.501C166.959,172,171.989,166.977,172,160.77z
	"/>
<rect x="20" y="128" opacity="0.1" fill="#FFFFFF" width="152" height="4"/>
<rect x="95.983" y="132" fill="#98C2F4" width="37.517" height="40"/>
<path fill="#4285F4" d="M20,132v28.75c0,6.216,5.034,11.25,11.25,11.25H60v-40H20z"/>
<rect x="58" y="132" fill="#67A1F4" width="37.983" height="40"/>
</svg>
