<?xml version="1.0" encoding="utf-8"?>
<!-- Generator: Adobe Illustrator 16.0.0, SVG Export Plug-In . SVG Version: 6.00 Build 0)  -->
<!DOCTYPE svg PUBLIC "-//W3C//DTD SVG 1.1//EN" "http://www.w3.org/Graphics/SVG/1.1/DTD/svg11.dtd">
<svg version="1.1" id="图层_3" xmlns="http://www.w3.org/2000/svg" xmlns:xlink="http://www.w3.org/1999/xlink" x="0px" y="0px"
	 width="192px" height="192px" viewBox="0 0 192 192" enable-background="new 0 0 192 192" xml:space="preserve">
<path fill="#34A853" d="M148.375,8.125H43.625c-6.216,0-11.25,5.034-11.25,11.25v153.25c0,6.215,5.034,11.25,11.25,11.25h104.75
	c6.215,0,11.25-5.035,11.25-11.25V19.375C159.625,13.159,154.59,8.125,148.375,8.125z"/>
<path fill="#1B8734" d="M56,8.125H43.625c-6.216,0-11.25,5.034-11.25,11.25v153.25c0,6.215,5.034,11.25,11.25,11.25H56V8.125z"/>
<g>
	<path fill="#FFFFFF" d="M88.488,74.858c11.227-0.09,22.183-0.767,32.824-2.074l1.217,3.381c-9.784,0.857-20.019,1.443-30.795,1.714
		v7.168h28.856v3.111c-2.3,6.222-5.772,11.453-10.416,15.691c4.148,2.795,9.152,4.644,15.104,5.682
		c-1.037,1.306-1.894,2.568-2.66,3.742c-5.952-1.715-11.001-4.104-15.149-7.126c-4.328,3.293-9.468,5.817-15.509,7.666
		c-0.631-0.992-1.443-2.075-2.345-3.247c5.861-1.578,10.866-3.831,14.968-6.717c-4.599-4.194-7.801-9.378-9.604-15.646h-3.336v2.39
		c0,10.008-2.164,17.675-6.447,23.038c-0.722-0.901-1.534-1.803-2.39-2.704c3.697-4.554,5.545-11.361,5.545-20.334V74.858H88.488z
		 M116.667,88.204h-18.17c1.939,5.545,4.915,10.055,8.882,13.525C111.663,98.077,114.774,93.568,116.667,88.204z"/>
</g>
</svg>
