<?xml version="1.0" encoding="utf-8"?>
<!-- Generator: Adobe Illustrator 16.0.0, SVG Export Plug-In . SVG Version: 6.00 Build 0)  -->
<!DOCTYPE svg PUBLIC "-//W3C//DTD SVG 1.1//EN" "http://www.w3.org/Graphics/SVG/1.1/DTD/svg11.dtd">
<svg version="1.1" id="图层_3" xmlns="http://www.w3.org/2000/svg" xmlns:xlink="http://www.w3.org/1999/xlink" x="0px" y="0px"
	 width="192px" height="192px" viewBox="0 0 192 192" enable-background="new 0 0 192 192" xml:space="preserve">
<path fill="#3385FF" d="M160.75,20H31.25C25.034,20,20,25.035,20,31.25v129.5c0,6.216,5.034,11.25,11.25,11.25h129.5
	c6.215,0,11.25-5.034,11.25-11.25V31.25C172,25.035,166.965,20,160.75,20z"/>
<g>
	<path fill="#FFFFFF" d="M55.54,108.594V77.398h10.884c3.814,0,6.956,1.218,9.427,3.653c2.471,2.435,3.707,5.56,3.707,9.373v5.164
		c0,3.828-1.235,6.952-3.707,9.373s-5.613,3.632-9.427,3.632H55.54z M61.796,82.219v21.576h4.628c2.057,0,3.714-0.768,4.971-2.304
		c1.257-1.535,1.886-3.503,1.886-5.902v-5.207c0-2.385-0.629-4.341-1.886-5.87c-1.257-1.528-2.914-2.292-4.971-2.292H61.796z"/>
	<path fill="#FFFFFF" d="M109.789,108.594h-6.257l-12.576-21.04l-0.129,0.021v21.018h-6.256V77.398h6.256l12.577,21.019l0.128-0.021
		V77.398h6.257V108.594z"/>
	<path fill="#FFFFFF" d="M131.793,100.452c0-1.2-0.418-2.164-1.254-2.893c-0.835-0.729-2.303-1.414-4.402-2.057
		c-3.6-1.085-6.331-2.364-8.195-3.835s-2.796-3.478-2.796-6.021c0-2.557,1.05-4.646,3.149-6.267s4.778-2.432,8.034-2.432
		c3.457,0,6.238,0.871,8.346,2.614c2.106,1.743,3.124,4.028,3.053,6.856l-0.043,0.129h-6.063c0-1.557-0.471-2.753-1.414-3.589
		c-0.942-0.835-2.264-1.253-3.963-1.253c-1.543,0-2.735,0.372-3.578,1.114s-1.265,1.692-1.265,2.85c0,1.057,0.457,1.925,1.371,2.603
		c0.914,0.679,2.493,1.396,4.735,2.153c3.428,0.972,6.042,2.239,7.842,3.804c1.8,1.563,2.699,3.624,2.699,6.181
		c0,2.671-1.043,4.778-3.128,6.32c-2.086,1.543-4.842,2.314-8.271,2.314c-3.356,0-6.238-0.836-8.645-2.507
		c-2.407-1.671-3.575-4.164-3.503-7.478l0.043-0.129h6.063c0,1.843,0.542,3.2,1.628,4.071c1.085,0.871,2.557,1.307,4.413,1.307
		c1.672,0,2.946-0.35,3.825-1.05C131.354,102.56,131.793,101.623,131.793,100.452z"/>
</g>
</svg>
