<?xml version="1.0" encoding="utf-8"?>
<!-- Generator: Adobe Illustrator 16.0.0, SVG Export Plug-In . SVG Version: 6.00 Build 0)  -->
<!DOCTYPE svg PUBLIC "-//W3C//DTD SVG 1.1//EN" "http://www.w3.org/Graphics/SVG/1.1/DTD/svg11.dtd">
<svg version="1.1" id="图层_3" xmlns="http://www.w3.org/2000/svg" xmlns:xlink="http://www.w3.org/1999/xlink" x="0px" y="0px"
	 width="192px" height="192px" viewBox="0 0 192 192" enable-background="new 0 0 192 192" xml:space="preserve">
<line fill="none" x1="18.435" y1="73.155" x2="177.904" y2="73.155"/>
<path fill="#34A853" d="M95.875,10.581c-22.035,0-39.922,17.885-39.922,39.922V66h15.17V50.503
	c0-13.653,11.099-24.752,24.752-24.752c13.653,0,24.752,11.099,24.752,24.752V66h15.17V50.503
	C135.797,28.466,117.91,10.581,95.875,10.581z"/>
<path fill="#4285F4" d="M143.781,66.472h-7.984v-0.139h-15.17v0.139H71.123v-0.139h-15.17v0.139h-7.984
	C39.146,66.472,32,73.617,32,82.44v79.844c0,8.823,7.146,15.969,15.969,15.969h95.813c8.823,0,15.969-7.146,15.969-15.969V82.44
	C159.75,73.617,152.604,66.472,143.781,66.472z"/>
<g>
	<path fill="#FFFFFF" d="M59.6,120.792c1.384,0,2.413-0.359,3.085-1.078s1.009-1.73,1.009-3.035c0-1.091-0.353-1.997-1.059-2.716
		s-1.691-1.078-2.956-1.078c-1.065,0-1.96,0.326-2.686,0.979s-1.088,1.484-1.088,2.496h-5.631l-0.04-0.12
		c-0.08-2.276,0.798-4.153,2.636-5.631c1.837-1.478,4.106-2.217,6.809-2.217c3.009,0,5.398,0.709,7.169,2.127
		s2.656,3.451,2.656,6.101c0,1.331-0.383,2.553-1.148,3.664c-0.766,1.111-1.814,1.987-3.145,2.626
		c1.518,0.572,2.689,1.441,3.514,2.605c0.826,1.165,1.238,2.573,1.238,4.224c0,2.663-0.962,4.756-2.886,6.28
		s-4.39,2.286-7.398,2.286c-2.649,0-4.965-0.719-6.949-2.156c-1.984-1.438-2.942-3.454-2.875-6.051l0.04-0.119h5.671
		c0,1.092,0.382,2.007,1.148,2.745c0.766,0.739,1.754,1.108,2.965,1.108c1.331,0,2.41-0.393,3.235-1.178
		c0.825-0.786,1.238-1.777,1.238-2.976c0-1.531-0.386-2.666-1.158-3.405c-0.772-0.738-1.904-1.107-3.395-1.107h-3.215v-4.374H59.6z"
		/>
	<path fill="#FFFFFF" d="M74.177,137.886v-29.074h10.144c3.555,0,6.483,1.135,8.786,3.404c2.304,2.27,3.455,5.182,3.455,8.736v4.813
		c0,3.568-1.151,6.479-3.455,8.736c-2.303,2.257-5.231,3.385-8.786,3.385H74.177z M80.008,113.304v20.109h4.313
		c1.917,0,3.461-0.716,4.633-2.147c1.171-1.431,1.757-3.265,1.757-5.501v-4.853c0-2.223-0.586-4.047-1.757-5.472
		c-1.171-1.424-2.716-2.137-4.633-2.137H80.008z"/>
	<path fill="#FFFFFF" d="M117.85,125.105h-10.783v8.308h12.82v4.473h-18.651v-29.074h18.611v4.492h-12.78v7.309h10.783V125.105z"/>
	<path fill="#FFFFFF" d="M139.136,130.298c0-1.118-0.39-2.018-1.168-2.696c-0.779-0.679-2.146-1.317-4.104-1.917
		c-3.354-1.012-5.901-2.203-7.639-3.574s-2.605-3.241-2.605-5.611c0-2.383,0.979-4.33,2.936-5.841s4.453-2.267,7.488-2.267
		c3.222,0,5.813,0.813,7.777,2.437s2.912,3.754,2.846,6.39l-0.04,0.12h-5.65c0-1.451-0.439-2.566-1.318-3.345
		c-0.879-0.779-2.11-1.168-3.694-1.168c-1.438,0-2.55,0.346-3.335,1.038s-1.178,1.577-1.178,2.656c0,0.985,0.426,1.794,1.277,2.426
		c0.853,0.633,2.323,1.302,4.413,2.007c3.195,0.905,5.632,2.087,7.309,3.545c1.678,1.457,2.517,3.378,2.517,5.761
		c0,2.489-0.972,4.453-2.915,5.891c-1.944,1.438-4.514,2.156-7.708,2.156c-3.129,0-5.814-0.778-8.058-2.336
		s-3.332-3.881-3.265-6.969l0.039-0.12h5.651c0,1.717,0.506,2.982,1.518,3.794c1.012,0.813,2.383,1.218,4.114,1.218
		c1.558,0,2.745-0.325,3.564-0.979C138.727,132.262,139.136,131.39,139.136,130.298z"/>
</g>
</svg>
