<?xml version="1.0" encoding="utf-8"?>
<!-- Generator: Adobe Illustrator 16.0.0, SVG Export Plug-In . SVG Version: 6.00 Build 0)  -->
<!DOCTYPE svg PUBLIC "-//W3C//DTD SVG 1.1//EN" "http://www.w3.org/Graphics/SVG/1.1/DTD/svg11.dtd">
<svg version="1.1" id="图层_3" xmlns="http://www.w3.org/2000/svg" xmlns:xlink="http://www.w3.org/1999/xlink" x="0px" y="0px"
	 width="192px" height="192px" viewBox="0 0 192 192" enable-background="new 0 0 192 192" xml:space="preserve">
<line fill="none" x1="18.435" y1="73.155" x2="177.904" y2="73.155"/>
<path fill="#34A853" d="M95.875,10.581c-22.035,0-39.922,17.885-39.922,39.922V66h15.17V50.503
	c0-13.653,11.099-24.752,24.752-24.752c13.653,0,24.752,11.099,24.752,24.752V66h15.17V50.503
	C135.797,28.466,117.91,10.581,95.875,10.581z"/>
<path fill="#4285F4" d="M143.781,66.472h-7.984v-0.139h-15.17v0.139H71.123v-0.139h-15.17v0.139h-7.984
	C39.146,66.472,32,73.617,32,82.44v79.844c0,8.823,7.146,15.969,15.969,15.969h95.813c8.823,0,15.969-7.146,15.969-15.969V82.44
	C159.75,73.617,152.604,66.472,143.781,66.472z"/>
<g>
	<path fill="#FFFFFF" d="M59.831,137.244v-30.758h10.731c3.76,0,6.858,1.201,9.295,3.602c2.437,2.401,3.655,5.482,3.655,9.242v5.091
		c0,3.774-1.218,6.855-3.655,9.242c-2.437,2.388-5.535,3.581-9.295,3.581H59.831z M65.999,111.239v21.272h4.563
		c2.028,0,3.662-0.757,4.901-2.271s1.859-3.454,1.859-5.82v-5.133c0-2.352-0.62-4.281-1.859-5.788s-2.873-2.261-4.901-2.261H65.999z
		"/>
	<path fill="#FFFFFF" d="M106.03,123.725H94.623v8.787h13.563v4.732H88.455v-30.758h19.689v4.753H94.623v7.731h11.407V123.725z"/>
	<path fill="#FFFFFF" d="M128.55,129.217c0-1.183-0.412-2.134-1.235-2.852c-0.824-0.719-2.271-1.395-4.342-2.028
		c-3.549-1.07-6.242-2.331-8.08-3.781s-2.757-3.43-2.757-5.937c0-2.521,1.035-4.58,3.105-6.179s4.711-2.397,7.922-2.397
		c3.408,0,6.15,0.859,8.229,2.577c2.077,1.718,3.08,3.972,3.01,6.76l-0.042,0.127h-5.979c0-1.535-0.465-2.715-1.395-3.538
		c-0.929-0.824-2.231-1.236-3.907-1.236c-1.521,0-2.697,0.366-3.528,1.099s-1.246,1.669-1.246,2.81c0,1.042,0.45,1.897,1.352,2.566
		s2.458,1.377,4.669,2.123c3.38,0.958,5.957,2.208,7.731,3.75s2.662,3.573,2.662,6.095c0,2.634-1.028,4.711-3.085,6.231
		c-2.056,1.521-4.773,2.281-8.153,2.281c-3.311,0-6.151-0.823-8.524-2.472c-2.373-1.647-3.524-4.104-3.454-7.372l0.043-0.127h5.978
		c0,1.816,0.535,3.155,1.605,4.014c1.07,0.859,2.521,1.289,4.353,1.289c1.647,0,2.904-0.346,3.771-1.035
		C128.117,131.294,128.55,130.372,128.55,129.217z"/>
</g>
</svg>
