<?xml version="1.0" encoding="utf-8"?>
<!-- Generator: Adobe Illustrator 16.0.0, SVG Export Plug-In . SVG Version: 6.00 Build 0)  -->
<!DOCTYPE svg PUBLIC "-//W3C//DTD SVG 1.1//EN" "http://www.w3.org/Graphics/SVG/1.1/DTD/svg11.dtd">
<svg version="1.1" id="图层_3" xmlns="http://www.w3.org/2000/svg" xmlns:xlink="http://www.w3.org/1999/xlink" x="0px" y="0px"
	 width="192px" height="192px" viewBox="0 0 192 192" enable-background="new 0 0 192 192" xml:space="preserve">
<line fill="none" x1="17.705" y1="74.155" x2="177.174" y2="74.155"/>
<path fill="#34A853" d="M95.145,11.581c-22.035,0-39.922,17.885-39.922,39.922V67h15.17V51.503c0-13.653,11.1-24.752,24.752-24.752
	s24.752,11.099,24.752,24.752V67h15.17V51.503C135.066,29.466,117.18,11.581,95.145,11.581z"/>
<path fill="#4285F4" d="M144.051,67.473h-7.984v-0.14h-15.17v0.14H71.393v-0.14h-15.17v0.14h-7.984
	c-8.822,0-15.969,7.145-15.969,15.967v79.845c0,8.823,7.146,15.969,15.969,15.969h95.813c8.823,0,15.969-7.146,15.969-15.969V83.439
	C160.02,74.617,152.873,67.473,144.051,67.473z"/>
<polygon fill="#FFFFFF" points="110.604,121.424 101.047,111.843 101.047,119.028 84.256,119.028 84.256,123.818 101.044,123.818 
	101.044,131.005 "/>
<g>
	<path fill="#FFFFFF" d="M70.678,129.693h-8.11l-1.684,5.395h-5.241l8.437-25.017h5.137l8.401,25.017h-5.24L70.678,129.693z
		 M63.806,125.759h5.652l-2.766-8.814h-0.103L63.806,125.759z"/>
</g>
<g>
	<path fill="#FFFFFF" d="M119.529,135.088v-25.017h8.195c2.943,0,5.24,0.576,6.89,1.728c1.649,1.15,2.474,2.86,2.474,5.128
		c0,1.146-0.298,2.171-0.893,3.076c-0.596,0.904-1.467,1.586-2.612,2.044c1.558,0.287,2.732,0.963,3.522,2.027
		c0.79,1.065,1.186,2.309,1.186,3.729c0,2.395-0.79,4.207-2.371,5.438s-3.82,1.847-6.718,1.847H119.529z M124.546,120.553h3.351
		c1.34,0,2.371-0.275,3.093-0.825s1.082-1.352,1.082-2.405c0-1.157-0.363-2.01-1.091-2.56s-1.813-0.825-3.256-0.825h-3.179V120.553z
		 M124.546,124.023v7.216h4.656c1.328,0,2.342-0.289,3.041-0.868c0.698-0.578,1.048-1.435,1.048-2.568
		c0-1.214-0.344-2.147-1.03-2.801c-0.688-0.652-1.725-0.979-3.11-0.979H124.546z"/>
</g>
</svg>
