<?xml version="1.0" encoding="utf-8"?>
<!-- Generator: Adobe Illustrator 16.0.0, SVG Export Plug-In . SVG Version: 6.00 Build 0)  -->
<!DOCTYPE svg PUBLIC "-//W3C//DTD SVG 1.1//EN" "http://www.w3.org/Graphics/SVG/1.1/DTD/svg11.dtd">
<svg version="1.1" id="图层_3" xmlns="http://www.w3.org/2000/svg" xmlns:xlink="http://www.w3.org/1999/xlink" x="0px" y="0px"
	 width="192px" height="192px" viewBox="0 0 192 192" enable-background="new 0 0 192 192" xml:space="preserve">
<line fill="none" x1="17.705" y1="74.155" x2="177.174" y2="74.155"/>
<path fill="#34A853" d="M95.145,11.581c-22.035,0-39.922,17.885-39.922,39.922V67h15.17V51.503c0-13.653,11.1-24.752,24.752-24.752
	s24.752,11.099,24.752,24.752V67h15.17V51.503C135.066,29.466,117.18,11.581,95.145,11.581z"/>
<path fill="#4285F4" d="M144.051,67.473h-7.984v-0.14h-15.17v0.14H71.393v-0.14h-15.17v0.14h-7.984
	c-8.822,0-15.969,7.145-15.969,15.967v79.845c0,8.823,7.146,15.969,15.969,15.969h95.813c8.823,0,15.969-7.146,15.969-15.969V83.439
	C160.02,74.617,152.873,67.473,144.051,67.473z"/>
<g>
	<rect x="67.27" y="109.076" fill="#FFFFFF" width="55.75" height="5.342"/>
	<rect x="67.27" y="132.168" fill="#FFFFFF" width="55.75" height="5.342"/>
</g>
<g>
	<rect x="104.875" y="95.418" fill="#FFFFFF" width="5.342" height="55.75"/>
	<rect x="81.783" y="95.418" fill="#FFFFFF" width="5.342" height="55.75"/>
</g>
</svg>
