<?xml version="1.0" encoding="utf-8"?>
<!-- Generator: Adobe Illustrator 16.0.0, SVG Export Plug-In . SVG Version: 6.00 Build 0)  -->
<!DOCTYPE svg PUBLIC "-//W3C//DTD SVG 1.1//EN" "http://www.w3.org/Graphics/SVG/1.1/DTD/svg11.dtd">
<svg version="1.1" id="图层_3" xmlns="http://www.w3.org/2000/svg" xmlns:xlink="http://www.w3.org/1999/xlink" x="0px" y="0px"
	 width="192px" height="192px" viewBox="0 0 192 192" enable-background="new 0 0 192 192" xml:space="preserve">
<line fill="none" x1="19" y1="73.362" x2="178.469" y2="73.362"/>
<path fill="none" d="M47.735,76.083h51v51h-51V76.083z"/>
<path fill="#34A853" d="M96,11.747c-22.035,0-39.922,17.885-39.922,39.922v15.497h15.17V51.669
	c0-13.653,11.099-24.752,24.752-24.752s24.752,11.099,24.752,24.752v15.497h15.17V51.669C135.922,29.632,118.035,11.747,96,11.747z"
	/>
<path fill="#4285F4" d="M143.906,67.638h-7.984v-0.139h-15.17v0.139H71.248v-0.139h-15.17v0.139h-7.984
	c-8.823,0-15.969,7.145-15.969,15.968v79.844c0,8.823,7.146,15.969,15.969,15.969h95.813c8.824,0,15.969-7.146,15.969-15.969V83.606
	C159.875,74.783,152.729,67.638,143.906,67.638z"/>
<g>
	<path fill="#FFFFFF" d="M90.03,129.169v16.213h-8.134v-40.56h14.04c4.624,0,8.241,1.054,10.851,3.161
		c2.608,2.108,3.914,5.047,3.914,8.817c0,2.08-0.554,3.877-1.658,5.39c-1.104,1.515-2.716,2.735-4.833,3.663
		c2.396,0.706,4.118,1.886,5.168,3.538c1.049,1.653,1.573,3.696,1.573,6.129v2.98c0,1.133,0.153,2.317,0.46,3.552
		c0.307,1.235,0.831,2.15,1.574,2.744v0.585h-8.386c-0.742-0.594-1.221-1.578-1.435-2.953c-0.214-1.374-0.32-2.702-0.32-3.983
		v-2.869c0-2.024-0.553-3.598-1.657-4.722c-1.105-1.124-2.67-1.686-4.694-1.686H90.03z M90.03,122.901h5.767
		c2.284,0,3.983-0.483,5.097-1.449c1.115-0.965,1.672-2.396,1.672-4.29c0-1.856-0.562-3.333-1.686-4.429s-2.771-1.644-4.944-1.644
		H90.03V122.901z"/>
</g>
</svg>
