<?xml version="1.0" encoding="utf-8"?>
<!-- Generator: Adobe Illustrator 16.0.0, SVG Export Plug-In . SVG Version: 6.00 Build 0)  -->
<!DOCTYPE svg PUBLIC "-//W3C//DTD SVG 1.1//EN" "http://www.w3.org/Graphics/SVG/1.1/DTD/svg11.dtd">
<svg version="1.1" id="图层_3" xmlns="http://www.w3.org/2000/svg" xmlns:xlink="http://www.w3.org/1999/xlink" x="0px" y="0px"
	 width="192px" height="192px" viewBox="0 0 192 192" enable-background="new 0 0 192 192" xml:space="preserve">
<line fill="none" x1="17.705" y1="74.155" x2="177.174" y2="74.155"/>
<line fill="none" x1="17.705" y1="73.822" x2="177.174" y2="73.822"/>
<path fill="#34A853" d="M95.144,11.248c-22.035,0-39.922,17.885-39.922,39.922v15.497h15.17V51.169
	c0-13.653,11.101-24.752,24.752-24.752c13.653,0,24.752,11.099,24.752,24.752v15.497h15.17V51.169
	C135.066,29.132,117.18,11.248,95.144,11.248z"/>
<path fill="#4285F4" d="M144.051,67.14h-7.984V67h-15.17v0.14H71.392V67h-15.17v0.14h-7.983c-8.822,0-15.969,7.145-15.969,15.966
	v79.845c0,8.822,7.146,15.969,15.969,15.969h95.812c8.824,0,15.971-7.146,15.971-15.969V83.106
	C160.02,74.284,152.873,67.14,144.051,67.14z"/>
<g>
	<path fill="#FFFFFF" d="M80.359,126.821c0-0.942-0.328-1.699-0.984-2.271s-1.809-1.11-3.458-1.615
		c-2.827-0.853-4.973-1.856-6.437-3.013c-1.464-1.155-2.196-2.731-2.196-4.729c0-2.008,0.824-3.648,2.474-4.922
		c1.649-1.272,3.752-1.909,6.31-1.909c2.715,0,4.899,0.684,6.554,2.053c1.655,1.368,2.454,3.163,2.398,5.385l-0.034,0.101h-4.762
		c0-1.223-0.37-2.162-1.11-2.818c-0.741-0.656-1.778-0.984-3.113-0.984c-1.211,0-2.148,0.292-2.81,0.875
		c-0.662,0.583-0.993,1.329-0.993,2.238c0,0.83,0.359,1.512,1.077,2.044c0.718,0.533,1.958,1.097,3.719,1.691
		c2.692,0.763,4.746,1.759,6.159,2.986c1.413,1.229,2.12,2.848,2.12,4.855c0,2.098-0.819,3.752-2.457,4.964
		c-1.638,1.212-3.803,1.817-6.495,1.817c-2.636,0-4.9-0.656-6.79-1.969s-2.807-3.271-2.751-5.873l0.034-0.101h4.762
		c0,1.447,0.426,2.513,1.279,3.197c0.852,0.684,2.008,1.026,3.466,1.026c1.313,0,2.313-0.275,3.003-0.825
		C80.014,128.477,80.359,127.741,80.359,126.821z"/>
	<path fill="#FFFFFF" d="M105.044,133.216H88.604v-3.214l7.589-8.582c1.133-1.335,1.938-2.465,2.414-3.391
		c0.478-0.926,0.716-1.775,0.716-2.55c0-1.01-0.253-1.817-0.758-2.423s-1.262-0.908-2.271-0.908c-1.065,0-1.891,0.387-2.474,1.161
		c-0.583,0.773-0.875,1.755-0.875,2.944h-4.778l-0.034-0.101c-0.057-2.177,0.662-4.02,2.154-5.528
		c1.491-1.509,3.494-2.263,6.007-2.263s4.465,0.642,5.856,1.927c1.391,1.284,2.086,3.009,2.086,5.174c0,1.47-0.39,2.811-1.169,4.021
		c-0.78,1.212-2.123,2.889-4.03,5.031l-4.039,4.847l0.034,0.084h10.012V133.216z"/>
	<path fill="#FFFFFF" d="M124.581,124.348c0,2.872-0.755,5.127-2.264,6.765s-3.509,2.457-5.999,2.457
		c-2.513,0-4.526-0.819-6.041-2.457s-2.271-3.893-2.271-6.765V117.6c0-2.86,0.754-5.115,2.264-6.764
		c1.508-1.649,3.514-2.474,6.016-2.474c2.49,0,4.495,0.824,6.016,2.474c1.52,1.648,2.28,3.903,2.28,6.764V124.348z M119.684,117.096
		c0-1.571-0.3-2.788-0.899-3.652c-0.601-0.863-1.434-1.295-2.499-1.295c-1.077,0-1.91,0.432-2.499,1.295
		c-0.589,0.864-0.884,2.081-0.884,3.652v7.724c0,1.604,0.297,2.835,0.892,3.693s1.437,1.287,2.524,1.287
		c1.065,0,1.894-0.429,2.482-1.287s0.883-2.089,0.883-3.693V117.096z"/>
</g>
</svg>
