<?xml version="1.0" encoding="utf-8"?>
<!-- Generator: Adobe Illustrator 16.0.0, SVG Export Plug-In . SVG Version: 6.00 Build 0)  -->
<!DOCTYPE svg PUBLIC "-//W3C//DTD SVG 1.1//EN" "http://www.w3.org/Graphics/SVG/1.1/DTD/svg11.dtd">
<svg version="1.1" id="图层_3" xmlns="http://www.w3.org/2000/svg" xmlns:xlink="http://www.w3.org/1999/xlink" x="0px" y="0px"
	 width="192px" height="192px" viewBox="0 0 192 192" enable-background="new 0 0 192 192" xml:space="preserve">
<line fill="none" x1="12.005" y1="73.714" x2="179.097" y2="73.714"/>
<path fill="#34A853" d="M93.146,8.148c-23.088,0-41.83,18.74-41.83,41.83v16.238h15.895V49.979
	c0-14.306,11.631-25.935,25.935-25.935c14.305,0,25.935,11.629,25.935,25.935v16.238h15.896V49.979
	C134.977,26.888,116.234,8.148,93.146,8.148z"/>
<path fill="#4285F4" d="M144.391,66.712h-8.366v-0.147h-15.896v0.147h-51.87v-0.147H52.364v0.147h-8.366
	c-9.244,0-16.732,7.486-16.732,16.73v83.661c0,9.244,7.487,16.732,16.732,16.732h100.393c9.245,0,16.732-7.488,16.732-16.732V83.441
	C161.122,74.198,153.634,66.712,144.391,66.712z"/>
<rect x="63.528" y="97" fill="#D6D7D8" width="27.334" height="27.334"/>
<rect x="97.528" y="97" fill="#FFFFFF" width="27.334" height="27.334"/>
<rect x="63.528" y="130.668" fill="#FFFFFF" width="27.334" height="27.333"/>
<rect x="97.527" y="130.668" fill="#FFFFFF" width="27.334" height="27.333"/>
</svg>
