<?xml version="1.0" encoding="utf-8"?>
<!-- Generator: Adobe Illustrator 16.0.0, SVG Export Plug-In . SVG Version: 6.00 Build 0)  -->
<!DOCTYPE svg PUBLIC "-//W3C//DTD SVG 1.1//EN" "http://www.w3.org/Graphics/SVG/1.1/DTD/svg11.dtd">
<svg version="1.1" id="图层_3" xmlns="http://www.w3.org/2000/svg" xmlns:xlink="http://www.w3.org/1999/xlink" x="0px" y="0px"
	 width="192px" height="192px" viewBox="0 0 192 192" enable-background="new 0 0 192 192" xml:space="preserve">
<g>
	<path fill="#3C8CEA" d="M117.625,8.125h-74c-6.216,0-11.25,5.034-11.25,11.25v153.25c0,6.215,5.034,11.25,11.25,11.25h104.75
		c6.215,0,11.25-5.035,11.25-11.25v-122.5L117.625,8.125z"/>
	<polygon fill="#2D6FE4" points="119.607,48 159.167,84 159.625,50.125 	"/>
	<path fill="#A5C5F9" d="M117.625,8.125v35c0,3.866,3.134,7,7,7h35L117.625,8.125z"/>
</g>
<line fill="none" x1="18.435" y1="73.155" x2="177.904" y2="73.155"/>
<g>
	<path fill="#FFFFFF" d="M61.257,99.515l9.35,23.37l9.348-23.37h4.884v28.624h-3.781v-11.136l0.368-12.026l-9.401,23.162h-2.888
		l-9.402-23.11l0.368,11.975v11.136h-3.782V99.515H61.257L61.257,99.515z"/>
	<path fill="#FFFFFF" d="M91.562,128.139V99.515h8.089c1.889,0,3.622,0.315,5.146,0.944c1.523,0.631,2.888,1.523,3.992,2.679
		c1.103,1.156,1.942,2.575,2.573,4.255c0.63,1.682,0.893,3.52,0.893,5.62v1.681c0,2.048-0.315,3.939-0.893,5.619
		c-0.631,1.68-1.471,3.1-2.573,4.255c-1.104,1.154-2.469,2.048-4.098,2.678c-1.575,0.629-3.413,0.946-5.356,0.946h-7.773V128.139z
		 M95.344,102.613v22.428h3.991c1.523,0,2.836-0.265,3.991-0.736c1.155-0.474,2.102-1.211,2.889-2.101
		c0.789-0.894,1.366-1.998,1.734-3.257c0.366-1.261,0.578-2.678,0.578-4.254v-1.733c0-1.629-0.212-3.099-0.578-4.358
		c-0.368-1.262-0.945-2.364-1.734-3.258c-0.734-0.893-1.68-1.574-2.785-1.995c-1.102-0.473-2.362-0.683-3.778-0.683h-4.308V102.613z
		"/>
	<path fill="#FFFFFF" d="M118.663,113.8l1.471-14.285h14.653v3.361H123.23l-0.84,7.825c0.527-0.316,1.155-0.578,1.998-0.84
		c0.787-0.263,1.732-0.367,2.781-0.367c1.314,0,2.47,0.209,3.571,0.682c1.052,0.473,1.945,1.104,2.679,1.943
		c0.736,0.841,1.314,1.84,1.683,2.992c0.365,1.158,0.577,2.522,0.577,3.939c0,1.367-0.212,2.628-0.577,3.783
		c-0.368,1.155-0.946,2.151-1.683,2.991c-0.733,0.843-1.68,1.523-2.835,1.998c-1.155,0.472-2.469,0.736-3.992,0.736
		c-1.155,0-2.26-0.159-3.256-0.475c-1.052-0.315-1.942-0.787-2.731-1.47c-0.787-0.631-1.471-1.471-1.942-2.47
		c-0.524-0.996-0.842-2.153-0.945-3.518h3.465c0.212,1.629,0.79,2.888,1.735,3.728c0.945,0.842,2.204,1.261,3.728,1.261
		c0.84,0,1.63-0.156,2.311-0.472c0.684-0.315,1.261-0.736,1.68-1.313c0.474-0.578,0.842-1.262,1.052-2.049
		c0.263-0.786,0.368-1.732,0.368-2.678c0-0.894-0.105-1.733-0.368-2.522c-0.263-0.787-0.631-1.471-1.103-1.995
		c-0.474-0.577-1.104-0.997-1.785-1.364c-0.736-0.316-1.523-0.474-2.47-0.474c-0.63,0-1.154,0.054-1.573,0.106
		c-0.424,0.104-0.843,0.209-1.211,0.367s-0.681,0.367-0.996,0.577s-0.633,0.472-0.945,0.734L118.663,113.8z"/>
</g>
</svg>
