<?xml version="1.0" encoding="utf-8"?>
<!-- Generator: Adobe Illustrator 16.0.0, SVG Export Plug-In . SVG Version: 6.00 Build 0)  -->
<!DOCTYPE svg PUBLIC "-//W3C//DTD SVG 1.1//EN" "http://www.w3.org/Graphics/SVG/1.1/DTD/svg11.dtd">
<svg version="1.1" id="图层_3" xmlns="http://www.w3.org/2000/svg" xmlns:xlink="http://www.w3.org/1999/xlink" x="0px" y="0px"
	 width="192px" height="192px" viewBox="0 0 192 192" enable-background="new 0 0 192 192" xml:space="preserve">
<g>
	<path fill="#3C8CEA" d="M118.189,8.125h-74c-6.216,0-11.25,5.034-11.25,11.25v153.25c0,6.215,5.034,11.25,11.25,11.25h104.75
		c6.215,0,11.25-5.035,11.25-11.25v-122.5L118.189,8.125z"/>
	<path opacity="0.5" fill="#FFFFFF" d="M118.189,8.125v35c0,3.866,3.134,7,7,7h35L118.189,8.125z"/>
	<path fill="#2D6FE4" d="M125.189,50.125c-1.656,0-3.176-0.579-4.375-1.54L159.731,84l0.458-33.875H125.189z"/>
</g>
<g>
	<path fill="#FFFFFF" d="M84.974,128.141h-6.256v-12.963H66.012v12.963h-6.256V96.945h6.256v13.412h12.706V96.945h6.256V128.141z"/>
	<path fill="#FFFFFF" d="M100.293,128.59c-3.457,0-6.156-1.061-8.099-3.182c-1.943-2.121-2.914-4.853-2.914-8.195v-0.856
		c0-3.472,0.942-6.313,2.828-8.527s4.478-3.313,7.777-3.3c3.113,0,5.503,0.953,7.167,2.86c1.663,1.907,2.496,4.475,2.496,7.702
		v3.235H95.729l-0.064,0.129c0.1,1.585,0.582,2.87,1.446,3.856c0.864,0.985,2.146,1.479,3.846,1.479
		c1.399,0,2.589-0.143,3.567-0.429s1.988-0.722,3.031-1.308l1.693,3.857c-0.929,0.757-2.186,1.393-3.771,1.906
		C103.893,128.333,102.164,128.59,100.293,128.59z M99.886,109.35c-1.257,0-2.225,0.433-2.903,1.297s-1.089,2.011-1.231,3.438
		l0.043,0.107h7.627v-0.472c0-1.356-0.278-2.424-0.836-3.203C102.028,109.74,101.128,109.35,99.886,109.35z"/>
	<path fill="#FFFFFF" d="M121.911,112.328h0.128l3.557-7.37h7.07l-6.984,11.462l7.221,11.721h-7.05l-3.792-7.692l-3.792,7.692h-7.07
		l7.22-11.721l-7.006-11.462h7.027L121.911,112.328z"/>
</g>
</svg>
