<?xml version="1.0" encoding="utf-8"?>
<!-- Generator: Adobe Illustrator 19.0.0, SVG Export Plug-In . SVG Version: 6.00 Build 0)  -->
<svg version="1.1" id="Layer_1" xmlns="http://www.w3.org/2000/svg" xmlns:xlink="http://www.w3.org/1999/xlink" x="0px" y="0px"
	 viewBox="0 0 500 500" style="enable-background:new 0 0 500 500;" xml:space="preserve">
<style type="text/css">
	.st0{fill:#3C8CEA;}
	.st1{fill:#2D6FE4;}
	.st2{fill:#FFFFFF;}
	.st3{fill:none;}
</style>
<g>
	<path class="st0" d="M298.3,50H126.8c-15,0-27.3,12.3-27.3,27.3v201.3v87v57.1c0,15,12.3,27.3,27.3,27.3h245.4
		c15,0,27.3-12.3,27.3-27.3v-57.1v-79.9V158.8L298.3,50z"/>
	<path class="st1" d="M399.5,159.3v5.4h-68.6c0,0-34.3-7-33.2-35.9c0,0,1.1,30.5,32.1,30.5L399.5,159.3L399.5,159.3z"/>
	<path class="st2" d="M298.3,50v78.2c0,8.6,5.9,31.1,32.7,31.1h68.5L298.3,50z"/>
	<line class="st3" x1="62.5" y1="204.3" x2="440.5" y2="204.3"/>
</g>
<g>
	<path class="st2" d="M185.3,221.2l17.8,44.5l17.8-44.5h9.3v54.5h-7.2v-21.2l0.7-22.9l-17.9,44.1h-5.5l-17.9-44l0.7,22.8v21.2h-7.2
		v-54.5H185.3z"/>
	<path class="st2" d="M243,275.7v-54.5h15.4c3.6,0,6.9,0.6,9.8,1.8c2.9,1.2,5.5,2.9,7.6,5.1c2.1,2.2,3.7,4.9,4.9,8.1
		c1.2,3.2,1.7,6.7,1.7,10.7v3.2c0,3.9-0.6,7.5-1.7,10.7c-1.2,3.2-2.8,5.9-4.9,8.1c-2.1,2.2-4.7,3.9-7.8,5.1c-3,1.2-6.5,1.8-10.2,1.8
		H243z M250.2,227.1v42.7h7.6c2.9,0,5.4-0.5,7.6-1.4c2.2-0.9,4-2.3,5.5-4c1.5-1.7,2.6-3.8,3.3-6.2c0.7-2.4,1.1-5.1,1.1-8.1v-3.3
		c0-3.1-0.4-5.9-1.1-8.3c-0.7-2.4-1.8-4.5-3.3-6.2c-1.4-1.7-3.2-3-5.3-3.8c-2.1-0.9-4.5-1.3-7.2-1.3H250.2z"/>
	<path class="st2" d="M294.6,248.4l2.8-27.2h27.9v6.4h-22l-1.6,14.9c1-0.6,2.2-1.1,3.8-1.6c1.5-0.5,3.3-0.7,5.3-0.7
		c2.5,0,4.7,0.4,6.8,1.3c2,0.9,3.7,2.1,5.1,3.7c1.4,1.6,2.5,3.5,3.2,5.7c0.7,2.2,1.1,4.8,1.1,7.5c0,2.6-0.4,5-1.1,7.2
		s-1.8,4.1-3.2,5.7c-1.4,1.6-3.2,2.9-5.4,3.8c-2.2,0.9-4.7,1.4-7.6,1.4c-2.2,0-4.3-0.3-6.2-0.9c-2-0.6-3.7-1.5-5.2-2.8
		c-1.5-1.2-2.8-2.8-3.7-4.7c-1-1.9-1.6-4.1-1.8-6.7h6.6c0.4,3.1,1.5,5.5,3.3,7.1c1.8,1.6,4.2,2.4,7.1,2.4c1.6,0,3.1-0.3,4.4-0.9
		c1.3-0.6,2.4-1.4,3.2-2.5c0.9-1.1,1.6-2.4,2-3.9c0.5-1.5,0.7-3.3,0.7-5.1c0-1.7-0.2-3.3-0.7-4.8c-0.5-1.5-1.2-2.8-2.1-3.8
		c-0.9-1.1-2.1-1.9-3.4-2.6c-1.4-0.6-2.9-0.9-4.7-0.9c-1.2,0-2.2,0.1-3,0.2c-0.8,0.2-1.6,0.4-2.3,0.7c-0.7,0.3-1.3,0.7-1.9,1.1
		c-0.6,0.4-1.2,0.9-1.8,1.4L294.6,248.4z"/>
</g>
</svg>
