<?xml version="1.0" encoding="utf-8"?>
<!-- Generator: Adobe Illustrator 19.0.0, SVG Export Plug-In . SVG Version: 6.00 Build 0)  -->
<svg version="1.1" id="Layer_1" xmlns="http://www.w3.org/2000/svg" xmlns:xlink="http://www.w3.org/1999/xlink" x="0px" y="0px"
	 viewBox="0 0 500 500" style="enable-background:new 0 0 500 500;" xml:space="preserve">
<style type="text/css">
	.st0{fill:#3C8CEA;}
	.st1{fill:#2D6FE4;}
	.st2{fill:#FFFFFF;}
	.st3{fill:none;}
</style>
<g>
	<path class="st0" d="M298.3,50H126.8c-15,0-27.3,12.3-27.3,27.3v201.3v87v57.1c0,15,12.3,27.3,27.3,27.3h245.4
		c15,0,27.3-12.3,27.3-27.3v-57.1v-79.9V158.8L298.3,50z"/>
	<path class="st1" d="M399.5,159.3v5.4h-68.6c0,0-34.3-7-33.2-35.9c0,0,1.1,30.5,32.1,30.5L399.5,159.3L399.5,159.3z"/>
	<path class="st2" d="M298.3,50v78.2c0,8.6,5.9,31.1,32.7,31.1h68.5L298.3,50z"/>
	<line class="st3" x1="62.5" y1="204.3" x2="440.5" y2="204.3"/>
</g>
<path class="st2" d="M296.2,228.9c-4.2-21.4-23.1-37.5-45.7-37.5c-17.9,0-33.5,10.2-41.3,25.1c-18.7,2-33.2,17.8-33.2,37
	c0,20.6,16.7,37.3,37.3,37.3H294c17.1,0,31-13.9,31-31C325,243.3,312.2,230,296.2,228.9z"/>
</svg>
