<?xml version="1.0" encoding="utf-8"?>
<!-- Generator: Adobe Illustrator 16.0.0, SVG Export Plug-In . SVG Version: 6.00 Build 0)  -->
<!DOCTYPE svg PUBLIC "-//W3C//DTD SVG 1.1//EN" "http://www.w3.org/Graphics/SVG/1.1/DTD/svg11.dtd">
<svg version="1.1" id="图层_3" xmlns="http://www.w3.org/2000/svg" xmlns:xlink="http://www.w3.org/1999/xlink" x="0px" y="0px"
	 width="192px" height="192px" viewBox="0 0 192 192" enable-background="new 0 0 192 192" xml:space="preserve">
<path display="none" fill="#4285F4" d="M160.75,20H31.25C25.034,20,20,25.035,20,31.25v129.5c0,6.216,5.034,11.25,11.25,11.25h129.5
	c6.215,0,11.25-5.034,11.25-11.25V31.25C172,25.035,166.965,20,160.75,20z"/>
<rect x="20" y="96" fill="#FFFFFF" width="152" height="38"/>
<rect x="19.75" y="58" fill="#FFFFFF" width="152.25" height="38"/>
<rect x="58" y="20" fill="#4E4E4E" width="38" height="38"/>
<path fill="#EFEFEF" d="M31.25,20C25.037,20,20.005,25.03,20,31.24V58h38V20H31.25z"/>
<rect x="95.875" y="20" fill="#EFEFEF" width="38" height="38"/>
<path fill="#4E4E4E" d="M172,31.25c0-6.213-5.03-11.245-11.24-11.25H134v38h38V31.25z"/>
<rect x="20" y="58" fill="#4E4E4E" width="38" height="38"/>
<rect x="58" y="58" fill="#EFEFEF" width="38" height="38"/>
<rect x="95.875" y="96" fill="#EFEFEF" width="38" height="38"/>
<rect x="20" y="96" fill="#EFEFEF" width="38" height="38"/>
<rect x="58" y="96" fill="#4E4E4E" width="38" height="38"/>
<rect x="134" y="96" fill="#4E4E4E" width="38" height="38"/>
<rect x="95.875" y="58" fill="#4E4E4E" width="38" height="38"/>
<rect x="134" y="58" fill="#EFEFEF" width="38" height="38"/>
<rect x="95.875" y="134" fill="#4E4E4E" width="38" height="38"/>
<rect x="57.875" y="134" fill="#EFEFEF" width="38" height="38"/>
<path fill="#EFEFEF" d="M160.75,172c6.213,0,11.244-5.03,11.25-11.24V134h-38v38H160.75z"/>
<path fill="#4E4E4E" d="M20,160.75c0,6.213,5.03,11.244,11.24,11.25H58v-38H20V160.75z"/>
</svg>
