<?xml version="1.0" encoding="utf-8"?>
<!-- Generator: Adobe Illustrator 19.0.0, SVG Export Plug-In . SVG Version: 6.00 Build 0)  -->
<svg version="1.1" id="Layer_1" xmlns="http://www.w3.org/2000/svg" xmlns:xlink="http://www.w3.org/1999/xlink" x="0px" y="0px"
	 viewBox="0 0 500 500" style="enable-background:new 0 0 500 500;" xml:space="preserve">
<style type="text/css">
	.st0{fill:#34A853;}
</style>
<g>
	<g>
		<path class="st0" d="M146.6,212.4l30.3,45.7c7.9,11.9,14.5,22.8,21.5,34.7h1.3c7-12.7,14.1-23.7,21.1-35.1l29.9-45.2h41.7
			l-72.5,102.8L294.6,425h-43.9l-31.2-47.9c-8.3-12.3-15.4-24.2-22.8-36.9h-0.9c-7,12.7-14.5,24.2-22.4,36.9L142.6,425H100
			l75.6-108.5l-72-104.1H146.6z"/>
	</g>
	<g>
		<g>
			<path class="st0" d="M365.1,216.8l19.9,53.7c2.1,6,4.3,13.1,5.8,18.6h0.4c1.7-5.4,3.6-12.4,5.8-19l18-53.3h17.5l-24.8,64.7
				c-11.8,31.1-19.9,47.1-31.1,56.9c-8.1,7.1-16.1,9.9-20.3,10.7l-4.1-13.9c4.1-1.3,9.6-3.9,14.4-8.1c4.5-3.6,10.1-9.9,13.9-18.4
				c0.8-1.7,1.3-3,1.3-3.9c0-0.9-0.4-2.3-1.1-4.3l-33.6-83.7H365.1z"/>
		</g>
		<g>
			<path class="st0" d="M353.6,156.2l41.1-53.5c3.9-4.9,7.7-9.2,11.8-14.1v-0.4h-49.2V75h69.2l-0.2,10.3L385.9,138
				c-3.8,5.1-7.5,9.6-11.6,14.3v0.4h53.1v13.1h-73.7V156.2z"/>
		</g>
		<g>
			<path class="st0" d="M439.8,187.3v12.2H335.3v-12.2H439.8z"/>
		</g>
	</g>
</g>
</svg>
