<?xml version="1.0" encoding="utf-8"?>
<!-- Generator: Adobe Illustrator 16.0.0, SVG Export Plug-In . SVG Version: 6.00 Build 0)  -->
<!DOCTYPE svg PUBLIC "-//W3C//DTD SVG 1.1//EN" "http://www.w3.org/Graphics/SVG/1.1/DTD/svg11.dtd">
<svg version="1.1" id="图层_3" xmlns="http://www.w3.org/2000/svg" xmlns:xlink="http://www.w3.org/1999/xlink" x="0px" y="0px"
	 width="192px" height="192px" viewBox="0 0 192 192" enable-background="new 0 0 192 192" xml:space="preserve">
<path fill="#4285F4" d="M125.175,20.366H28.407c-4.645,0-8.407,3.763-8.407,8.406v96.769c0,4.646,3.762,8.407,8.406,8.407h96.768
	c4.646,0,8.407-3.762,8.407-8.407V28.772C133.582,24.129,129.82,20.366,125.175,20.366z"/>
<circle fill="#34A853" cx="133.875" cy="134.241" r="49.625"/>
<path fill="#FFFFFF" d="M74.814,63.667h5.929v23.714h-5.929V63.667z M64.934,63.667H53.076c-2.37,0-3.952,1.976-3.952,3.952v15.81
	c0,1.977,1.582,3.952,3.952,3.952h11.857c2.37,0,3.952-1.976,3.952-3.952v-7.904h-5.929v5.928h-7.904V69.596h13.833v-1.977
	C68.886,65.643,67.304,63.667,64.934,63.667z M104.457,69.596v-5.929H86.672v23.714H92.6v-7.904h7.905v-5.929H92.6v-3.952H104.457z"
	/>
<path fill="none" d="M115.807,114.881h40.75v40.75h-40.75V114.881z"/>
<path fill="#FFFFFF" d="M153.437,146.813l-16.844-16.844c1.667-4.256,0.741-9.253-2.776-12.77
	c-3.701-3.703-9.254-4.441-13.695-2.406l7.959,7.958l-5.553,5.553l-8.145-7.958c-2.22,4.44-1.295,9.994,2.408,13.695
	c3.515,3.517,8.513,4.442,12.77,2.775l16.843,16.844c0.739,0.74,1.851,0.74,2.591,0l4.256-4.257
	C154.176,148.662,154.176,147.367,153.437,146.813z"/>
</svg>
