<?xml version="1.0" encoding="utf-8"?>
<!-- Generator: Adobe Illustrator 16.0.0, SVG Export Plug-In . SVG Version: 6.00 Build 0)  -->
<!DOCTYPE svg PUBLIC "-//W3C//DTD SVG 1.1//EN" "http://www.w3.org/Graphics/SVG/1.1/DTD/svg11.dtd">
<svg version="1.1" id="图层_3" xmlns="http://www.w3.org/2000/svg" xmlns:xlink="http://www.w3.org/1999/xlink" x="0px" y="0px"
	 width="192px" height="192px" viewBox="0 0 192 192" enable-background="new 0 0 192 192" xml:space="preserve">
<path display="none" fill="#FBBC05" d="M160.536,20H31.463c-6.195,0-11.213,5.02-11.213,11.213v129.073
	c0,6.195,5.018,11.213,11.213,11.213h129.073c6.196,0,11.213-5.018,11.213-11.213V31.213C171.749,25.02,166.732,20,160.536,20z"/>
<circle fill="#4285F4" cx="44.667" cy="44.667" r="24.667"/>
<circle fill="#4285F4" cx="83.584" cy="117.916" r="19"/>
<circle fill="#34A853" cx="90.833" cy="41.5" r="17.167"/>
<circle fill="#EA4335" cx="150" cy="94" r="21.833"/>
<circle fill="#EA4335" cx="45.417" cy="146.332" r="25.167"/>
<circle fill="#34A853" cx="42.417" cy="95.749" r="22.167"/>
<circle fill="#EA4335" cx="78" cy="75.916" r="14.667"/>
<circle fill="#EA4335" cx="116" cy="28" r="8"/>
<circle fill="#34A853" cx="114.667" cy="104.416" r="10.833"/>
<circle fill="#34A853" cx="148" cy="44.667" r="24"/>
<circle fill="#4285F4" cx="112" cy="72.667" r="16"/>
<circle fill="#4285F4" cx="159.333" cy="130.75" r="11.333"/>
<circle fill="#34A853" cx="87.417" cy="157.666" r="13.75"/>
<circle fill="#FBBC05" cx="124" cy="135.416" r="17.5"/>
<circle fill="#34A853" cx="158.585" cy="159.752" r="11.749"/>
<circle fill="#EA4335" cx="111" cy="164.833" r="7.167"/>
<circle fill="#4285F4" cx="135.024" cy="162.231" r="9.482"/>
</svg>
