<?xml version="1.0" encoding="utf-8"?>
<!-- Generator: Adobe Illustrator 16.0.0, SVG Export Plug-In . SVG Version: 6.00 Build 0)  -->
<!DOCTYPE svg PUBLIC "-//W3C//DTD SVG 1.1//EN" "http://www.w3.org/Graphics/SVG/1.1/DTD/svg11.dtd">
<svg version="1.1" id="图层_3" xmlns="http://www.w3.org/2000/svg" xmlns:xlink="http://www.w3.org/1999/xlink" x="0px" y="0px"
	 width="192px" height="192px" viewBox="0 0 192 192" enable-background="new 0 0 192 192" xml:space="preserve">
<path fill="#EA4335" d="M152.776,114.558c0-41.259-48.07-89.708-49.964-91.979c-1.893-1.515-4.542-2.65-6.813-2.65
	c-2.271,0-4.921,0.757-6.813,2.65c-1.893,2.271-49.964,50.72-49.964,91.979c0,31.416,25.361,56.776,56.777,56.776
	C127.416,171.334,152.776,145.974,152.776,114.558z"/>
<path fill="#FFFFFF" d="M131.58,134.997c-7.949,12.112-21.954,17.033-31.796,10.598c-9.84-6.057-11.354-21.196-3.406-33.309
	c7.949-12.112,21.954-17.034,31.795-10.6C138.015,108.122,139.528,122.884,131.58,134.997z"/>
</svg>
