<?xml version="1.0" encoding="utf-8"?>
<!-- Generator: Adobe Illustrator 16.0.0, SVG Export Plug-In . SVG Version: 6.00 Build 0)  -->
<!DOCTYPE svg PUBLIC "-//W3C//DTD SVG 1.1//EN" "http://www.w3.org/Graphics/SVG/1.1/DTD/svg11.dtd">
<svg version="1.1" id="图层_3" xmlns="http://www.w3.org/2000/svg" xmlns:xlink="http://www.w3.org/1999/xlink" x="0px" y="0px"
	 width="192px" height="192px" viewBox="0 0 192 192" enable-background="new 0 0 192 192" xml:space="preserve">
<path fill="none" d="M107,81h24v24h-24V81z"/>
<path fill="none" d="M24,8.667h89.667v89.667H24V8.667z"/>
<rect x="121" y="72" fill="none" width="74.5" height="74.5"/>
<rect x="85.667" y="101.001" fill="#FBBC05" width="20.43" height="69.999"/>
<path fill="#FBBC05" d="M31.825,123.748h53.521V124h21.306v-0.252h53.521c6.371,0,11.576-5.236,11.576-11.644V31.642
	c0-6.405-5.207-11.642-11.576-11.642H31.825c-6.368,0-11.575,5.237-11.575,11.642v80.463
	C20.25,118.512,25.457,123.748,31.825,123.748z"/>
<rect x="31.25" y="32" fill="#4285F4" width="127" height="80"/>
<path fill="#FFFFFF" d="M92.757,45.75L73.57,94.5h6.009l5.186-13.656h22.398l5.188,13.656h6.078L99.241,45.75H92.757z
	 M95.898,51.758h0.271l9.216,24.378H86.544L95.898,51.758z"/>
</svg>
