<?xml version="1.0" encoding="utf-8"?>
<!-- Generator: Adobe Illustrator 16.0.0, SVG Export Plug-In . SVG Version: 6.00 Build 0)  -->
<!DOCTYPE svg PUBLIC "-//W3C//DTD SVG 1.1//EN" "http://www.w3.org/Graphics/SVG/1.1/DTD/svg11.dtd">
<svg version="1.1" id="图层_3" xmlns="http://www.w3.org/2000/svg" xmlns:xlink="http://www.w3.org/1999/xlink" x="0px" y="0px"
	 width="192px" height="192px" viewBox="0 0 192 192" enable-background="new 0 0 192 192" xml:space="preserve">
<path fill="#EA4335" d="M160.75,20H31.25C25.034,20,20,25.035,20,31.25v129.5c0,6.216,5.034,11.25,11.25,11.25h129.5
	c6.216,0,11.25-5.034,11.25-11.25V31.25C172,25.035,166.966,20,160.75,20z"/>
<g>
	<rect x="20" y="20" fill="#4285F4" width="152" height="152"/>
	<path fill="#FFFFFF" d="M146.333,157.417h-101c-6.112,0-11.083-4.972-11.083-11.084v-101c0-6.112,4.972-11.083,11.083-11.083h101
		c6.112,0,11.084,4.972,11.084,11.083v101C157.417,152.445,152.445,157.417,146.333,157.417z M45.333,37.417
		c-4.366,0-7.917,3.551-7.917,7.917v101c0,4.366,3.551,7.917,7.917,7.917h101c4.366,0,7.917-3.551,7.917-7.917v-101
		c0-4.366-3.551-7.917-7.917-7.917H45.333z"/>
	<path fill="#FFFFFF" d="M96.396,130.042c-18.552,0-33.646-15.094-33.646-33.646c0-18.552,15.094-33.646,33.646-33.646
		c18.553,0,33.646,15.094,33.646,33.646C130.042,114.948,114.948,130.042,96.396,130.042z M96.396,65.917
		c-16.805,0-30.479,13.673-30.479,30.479c0,16.807,13.673,30.479,30.479,30.479c16.807,0,30.479-13.673,30.479-30.479
		C126.875,79.59,113.202,65.917,96.396,65.917z"/>
	<path fill="#FFFFFF" d="M96,167.25c-39.287,0-71.25-31.963-71.25-71.25S56.713,24.75,96,24.75S167.25,56.713,167.25,96
		S135.287,167.25,96,167.25z M96,27.917c-37.541,0-68.083,30.542-68.083,68.083c0,37.542,30.542,68.083,68.083,68.083
		c37.542,0,68.083-30.541,68.083-68.083C164.083,58.459,133.542,27.917,96,27.917z"/>
</g>
<path opacity="0.5" fill="#FFFFFF" d="M146.167,35.333H44.833c-5.247,0-9.5,4.253-9.5,9.5v101.333c0,5.246,4.253,9.5,9.5,9.5
	h101.333c5.246,0,9.5-4.254,9.5-9.5V44.833C155.667,39.587,151.413,35.333,146.167,35.333z M95.418,127.001
	c-17.443,0-31.584-14.14-31.584-31.583s14.141-31.584,31.584-31.584s31.583,14.141,31.583,31.584S112.861,127.001,95.418,127.001z"
	/>
</svg>
