<?xml version="1.0" encoding="utf-8"?>
<!-- Generator: Adobe Illustrator 16.0.0, SVG Export Plug-In . SVG Version: 6.00 Build 0)  -->
<!DOCTYPE svg PUBLIC "-//W3C//DTD SVG 1.1//EN" "http://www.w3.org/Graphics/SVG/1.1/DTD/svg11.dtd">
<svg version="1.1" id="图层_3" xmlns="http://www.w3.org/2000/svg" xmlns:xlink="http://www.w3.org/1999/xlink" x="0px" y="0px"
	 width="192px" height="192px" viewBox="0 0 192 192" enable-background="new 0 0 192 192" xml:space="preserve">
<path fill="none" stroke="#000000" stroke-width="12" stroke-miterlimit="10" d="M27.998,50.975"/>
<g>
	<path fill="#FBBC05" d="M74.97,163.339h42.059v8.411H74.97V163.339z M145.237,36.652l5.945,5.939l-11.895,11.903l-5.947-5.947
		L145.237,36.652z M46.764,36.652L58.65,48.53l-5.948,5.948L40.799,42.584L46.764,36.652z M150.678,87.631h16.826v8.412h-16.826
		V87.631z M24.497,87.631h16.824v8.412H24.497V87.631z M91.794,20.333h8.413v16.824h-8.413V20.333z M96,45.57
		c-25.236,0-46.267,21.03-46.267,46.267c0,17.664,8.412,33.646,25.237,41.219v21.871h42.059v-21.871
		c16.824-7.572,25.237-23.555,25.237-41.219C142.267,66.6,121.236,45.57,96,45.57L96,45.57z M112.824,125.483l-4.207,2.525v18.507
		H83.381v-18.507l-4.206-2.525c-13.459-6.727-21.031-19.347-21.031-33.646c0-21.03,16.825-37.855,37.855-37.855
		c21.029,0,37.854,16.825,37.854,37.855C133.854,106.137,126.283,118.757,112.824,125.483L112.824,125.483z"/>
	<path fill="#FBBC05" d="M74.97,96.043h16.824v42.06h8.413v-42.06h16.822v-8.412H74.97V96.043z"/>
</g>
</svg>
