<?xml version="1.0" encoding="utf-8"?>
<!-- Generator: Adobe Illustrator 16.0.0, SVG Export Plug-In . SVG Version: 6.00 Build 0)  -->
<!DOCTYPE svg PUBLIC "-//W3C//DTD SVG 1.1//EN" "http://www.w3.org/Graphics/SVG/1.1/DTD/svg11.dtd">
<svg version="1.1" id="图层_3" xmlns="http://www.w3.org/2000/svg" xmlns:xlink="http://www.w3.org/1999/xlink" x="0px" y="0px"
	 width="192px" height="192px" viewBox="0 0 192 192" enable-background="new 0 0 192 192" xml:space="preserve">
<path fill="none" stroke="#000000" stroke-width="12" stroke-miterlimit="10" d="M27.998,50.975"/>
<path fill="#FBBC05" d="M148.375,8.125H43.625c-6.216,0-11.25,5.034-11.25,11.25v153.25c0,6.215,5.034,11.25,11.25,11.25h104.75
	c6.215,0,11.25-5.035,11.25-11.25V19.375C159.625,13.159,154.59,8.125,148.375,8.125z M136.201,43.875
	c-6.547,0-11.857-5.313-11.857-11.857c0-6.545,5.313-11.858,11.857-11.858s11.859,5.313,11.859,11.858
	C148.061,38.562,142.746,43.875,136.201,43.875z"/>
<g>
	<path fill="#FFFFFF" d="M83.23,150.502h25.539v5.107H83.23V150.502z M125.897,73.576l3.61,3.606l-7.223,7.228l-3.611-3.611
		L125.897,73.576z M66.104,73.576l7.217,7.212L69.709,84.4l-7.228-7.222L66.104,73.576z M129.201,104.531h10.217v5.107h-10.217
		V104.531z M52.583,104.531h10.216v5.107H52.583V104.531z M93.446,63.667h5.108v10.216h-5.108V63.667z M96,78.991
		c-15.324,0-28.094,12.77-28.094,28.094c0,10.726,5.108,20.431,15.324,25.028v13.281h25.539v-13.281
		c10.216-4.598,15.324-14.303,15.324-25.028C124.094,91.761,111.324,78.991,96,78.991L96,78.991z M106.216,127.516l-2.555,1.533
		v11.237H88.338v-11.237l-2.554-1.533c-8.173-4.085-12.77-11.748-12.77-20.431c0-12.77,10.216-22.986,22.986-22.986
		s22.985,10.216,22.985,22.986C118.985,115.768,114.389,123.431,106.216,127.516L106.216,127.516z"/>
	<path fill="#FFFFFF" d="M83.23,109.639h10.216v25.539h5.108v-25.539h10.215v-5.107H83.23V109.639z"/>
</g>
</svg>
