<?xml version="1.0" encoding="utf-8"?>
<!-- Generator: Adobe Illustrator 16.0.0, SVG Export Plug-In . SVG Version: 6.00 Build 0)  -->
<!DOCTYPE svg PUBLIC "-//W3C//DTD SVG 1.1//EN" "http://www.w3.org/Graphics/SVG/1.1/DTD/svg11.dtd">
<svg version="1.1" id="图层_3" xmlns="http://www.w3.org/2000/svg" xmlns:xlink="http://www.w3.org/1999/xlink" x="0px" y="0px"
	 width="192px" height="192px" viewBox="0 0 192 192" enable-background="new 0 0 192 192" xml:space="preserve">
<path fill="#4285F4" d="M160.75,20H31.25C25.034,20,20,25.035,20,31.25v129.5c0,6.216,5.034,11.25,11.25,11.25h129.5
	c6.215,0,11.25-5.034,11.25-11.25V31.25C172,25.035,166.965,20,160.75,20z"/>
<rect x="31.75" y="32.25" fill="#4285F4" width="128.25" height="127.75"/>
<polygon fill="#FFFFFF" points="74.54,111.057 91.107,131.002 114.301,101.115 144.122,140.877 51.346,140.877 "/>
<g>
	<path fill="#FFFFFF" d="M73.275,78.711h-5.418V51.695h5.418V78.711z"/>
	<path fill="#FFFFFF" d="M98.9,69.768l0.037,0.111c0.049,2.882-0.829,5.14-2.635,6.772c-1.807,1.633-4.299,2.449-7.478,2.449
		c-3.241,0-5.857-1.042-7.849-3.126s-2.987-4.778-2.987-8.081v-5.362c0-3.29,0.971-5.984,2.913-8.081s4.49-3.145,7.645-3.145
		c3.29,0,5.863,0.804,7.719,2.412c1.855,1.608,2.758,3.872,2.709,6.791l-0.037,0.111h-5.27c0-1.731-0.417-3.021-1.252-3.869
		c-0.835-0.847-2.125-1.271-3.869-1.271c-1.621,0-2.886,0.652-3.795,1.958s-1.364,2.991-1.364,5.056v5.399
		c0,2.079,0.479,3.773,1.438,5.084s2.292,1.967,3.999,1.967c1.62,0,2.83-0.424,3.627-1.271s1.197-2.149,1.197-3.906H98.9z"/>
	<path fill="#FFFFFF" d="M124.674,67.633c0,3.328-1.046,6.071-3.137,8.229c-2.09,2.159-4.812,3.238-8.164,3.238
		c-3.34,0-6.049-1.083-8.127-3.247s-3.117-4.905-3.117-8.22v-4.861c0-3.303,1.036-6.04,3.108-8.21
		c2.071-2.171,4.771-3.256,8.099-3.256c3.353,0,6.08,1.085,8.183,3.256c2.104,2.171,3.155,4.908,3.155,8.21V67.633z M119.273,62.735
		c0-2.103-0.525-3.828-1.577-5.177c-1.051-1.348-2.505-2.022-4.36-2.022c-1.831,0-3.256,0.674-4.276,2.022
		c-1.021,1.349-1.531,3.074-1.531,5.177v4.898c0,2.141,0.514,3.885,1.54,5.233s2.462,2.022,4.305,2.022
		c1.855,0,3.303-0.674,4.342-2.022s1.559-3.092,1.559-5.233V62.735z"/>
</g>
</svg>
