<?xml version="1.0" encoding="utf-8"?>
<!-- Generator: Adobe Illustrator 16.0.0, SVG Export Plug-In . SVG Version: 6.00 Build 0)  -->
<!DOCTYPE svg PUBLIC "-//W3C//DTD SVG 1.1//EN" "http://www.w3.org/Graphics/SVG/1.1/DTD/svg11.dtd">
<svg version="1.1" id="图层_3" xmlns="http://www.w3.org/2000/svg" xmlns:xlink="http://www.w3.org/1999/xlink" x="0px" y="0px"
	 width="192px" height="192px" viewBox="0 0 192 192" enable-background="new 0 0 192 192" xml:space="preserve">
<path fill="#4285F4" d="M125.175,20H28.407C23.762,20,20,23.763,20,28.406v96.769c0,4.646,3.762,8.407,8.406,8.407h96.768
	c4.646,0,8.407-3.762,8.407-8.407V28.406C133.582,23.763,129.82,20,125.175,20z"/>
<polygon fill="#FFFFFF" points="60.848,65.881 72.236,79.569 88.18,59.046 108.682,86.38 44.901,86.38 "/>
<circle fill="#34A853" cx="133.875" cy="133.875" r="49.625"/>
<path fill="#FFFFFF" d="M111.543,147.681v10.298h9.903l29.183-30.334l-9.903-10.298L111.543,147.681z M158.229,119.715
	c1.021-1.086,1.021-2.797,0-3.882l-6.152-6.415c-1.02-1.086-2.698-1.086-3.718,0l-4.836,5.034l9.901,10.297
	C153.394,124.716,158.229,119.715,158.229,119.715z"/>
</svg>
