<?xml version="1.0" encoding="utf-8"?>
<!-- Generator: Adobe Illustrator 16.0.0, SVG Export Plug-In . SVG Version: 6.00 Build 0)  -->
<!DOCTYPE svg PUBLIC "-//W3C//DTD SVG 1.1//EN" "http://www.w3.org/Graphics/SVG/1.1/DTD/svg11.dtd">
<svg version="1.1" id="图层_3" xmlns="http://www.w3.org/2000/svg" xmlns:xlink="http://www.w3.org/1999/xlink" x="0px" y="0px"
	 width="192px" height="192px" viewBox="0 0 192 192" enable-background="new 0 0 192 192" xml:space="preserve">
<path fill="#FBBC05" d="M160.75,20H31.25C25.034,20,20,25.035,20,31.25v129.5c0,6.216,5.034,11.25,11.25,11.25h129.5
	c6.216,0,11.25-5.034,11.25-11.25V31.25C172,25.035,166.966,20,160.75,20z"/>
<path fill="#FFFFFF" d="M159.545,135.753c-1.101-6.931-5.626-12.76-19.012-18.197c-4.662-2.187-9.845-3.711-11.388-7.22
	c-0.575-2.084-0.662-3.237-0.289-4.473c0.949-4.084,5.796-5.322,9.593-4.187c2.474,0.763,4.744,2.66,6.185,5.692
	c6.541-4.286,6.541-4.286,11.116-7.116c-1.713-2.66-2.56-3.812-3.711-4.947c-3.983-4.458-9.304-6.746-17.944-6.542l-4.476,0.56
	c-4.287,1.049-8.353,3.32-10.828,6.371c-7.219,8.184-5.135,22.418,3.608,28.315c8.644,6.457,21.285,7.879,22.912,13.963
	c1.524,7.406-5.509,9.777-12.455,8.931c-5.135-1.136-7.981-3.711-11.116-8.455l-11.591,6.659c1.322,3.033,2.847,4.371,5.134,7.015
	c11.014,11.117,38.569,10.558,43.516-6.354c0.187-0.575,1.524-4.473,0.476-10.455L159.545,135.753L159.545,135.753z"/>
<path fill="#FFFFFF" d="M102.659,89.866H88.426c0,12.268-0.05,24.47-0.05,36.771c0,7.795,0.405,14.964-0.882,17.166
	c-2.084,4.373-7.472,3.813-9.914,3.033c-2.507-1.235-3.777-2.949-5.251-5.422c-0.407-0.662-0.696-1.238-0.796-1.238l-11.558,7.117
	c1.932,3.982,4.744,7.422,8.389,9.608c5.422,3.237,12.691,4.271,20.318,2.56c4.964-1.424,9.233-4.373,11.472-8.931
	c3.235-5.896,2.541-13.116,2.507-21.198c0.068-13.014,0-26.028,0-39.127V89.866L102.659,89.866z"/>
</svg>
