<?xml version="1.0" encoding="utf-8"?>
<!-- Generator: Adobe Illustrator 16.0.0, SVG Export Plug-In . SVG Version: 6.00 Build 0)  -->
<!DOCTYPE svg PUBLIC "-//W3C//DTD SVG 1.1//EN" "http://www.w3.org/Graphics/SVG/1.1/DTD/svg11.dtd">
<svg version="1.1" id="图层_3" xmlns="http://www.w3.org/2000/svg" xmlns:xlink="http://www.w3.org/1999/xlink" x="0px" y="0px"
	 width="192px" height="192px" viewBox="0 0 192 192" enable-background="new 0 0 192 192" xml:space="preserve">
<path fill="#34A853" d="M82.204,91.388c-16.069,5.659-27.59,20.976-27.59,38.978c0,22.835,18.552,41.384,41.385,41.384
	c22.838,0,41.388-18.549,41.388-41.384c0-18.002-11.521-33.319-27.59-38.978V61.387h27.59V33.796h-27.59V20H82.204V91.388z
	 M109.797,130.366c0,7.579-6.211,13.794-13.798,13.794c-7.587,0-13.795-6.215-13.795-13.794c0-7.592,6.208-13.797,13.795-13.797
	C103.586,116.569,109.797,122.774,109.797,130.366z"/>
</svg>
