<?xml version="1.0" encoding="utf-8"?>
<!-- Generator: Adobe Illustrator 16.0.0, SVG Export Plug-In . SVG Version: 6.00 Build 0)  -->
<!DOCTYPE svg PUBLIC "-//W3C//DTD SVG 1.1//EN" "http://www.w3.org/Graphics/SVG/1.1/DTD/svg11.dtd">
<svg version="1.1" id="图层_3" xmlns="http://www.w3.org/2000/svg" xmlns:xlink="http://www.w3.org/1999/xlink" x="0px" y="0px"
	 width="192px" height="192px" viewBox="0 0 192 192" enable-background="new 0 0 192 192" xml:space="preserve">
<path fill="#4E4E4E" d="M36.973,142.955l-5.585-4.453l43.111-54.045l41.039,22.048l40.072-59.364l5.919,4.001l-43.688,64.72
	L76.369,93.576L36.973,142.955z"/>
<path fill="#4285F4" d="M48.48,140.728c0,7.917-6.42,14.312-14.3,14.312c-7.908,0-14.302-6.395-14.302-14.312
	c0-7.87,6.394-14.292,14.302-14.292C42.06,126.436,48.48,132.857,48.48,140.728"/>
<path fill="#34A853" d="M89.732,89.01c0,7.898-6.41,14.306-14.3,14.306c-7.892,0-14.302-6.408-14.302-14.306
	c0-7.872,6.41-14.296,14.302-14.296C83.323,74.714,89.732,81.138,89.732,89.01"/>
<path fill="#EA4335" d="M130.993,111.183c0,7.903-6.402,14.302-14.306,14.302c-7.88,0-14.304-6.396-14.304-14.302
	c0-7.876,6.424-14.302,14.304-14.302C124.591,96.881,130.993,103.307,130.993,111.183"/>
<path fill="#FBBC05" d="M172.264,49.757c0,7.905-6.435,14.303-14.304,14.303c-7.899,0-14.302-6.397-14.302-14.303
	c0-7.876,6.402-14.303,14.302-14.303C165.829,35.454,172.264,41.88,172.264,49.757"/>
</svg>
