<?xml version="1.0" encoding="utf-8"?>
<!-- Generator: Adobe Illustrator 19.0.0, SVG Export Plug-In . SVG Version: 6.00 Build 0)  -->
<svg version="1.1" id="Layer_1" xmlns="http://www.w3.org/2000/svg" xmlns:xlink="http://www.w3.org/1999/xlink" x="0px" y="0px"
	 viewBox="-47 170.9 500 500" style="enable-background:new -47 170.9 500 500;" xml:space="preserve">
<style type="text/css">
	.st0{fill:#F2F0EB;}
	.st1{fill:#AFE881;}
	.st2{fill:#FFFFFF;}
	.st3{fill:#FFDE48;}
	.st4{fill:#A3C9FF;}
	.st5{fill:#FFCF68;}
	.st6{fill:#EA4335;}
</style>
<g>
	<rect x="-46" y="171.4" class="st0" width="499.5" height="499.5"/>
	<rect x="-46" y="171.4" class="st1" width="303.3" height="154.3"/>
	<rect x="253.3" y="171.4" class="st2" width="37.9" height="499.5"/>
	<rect x="-46" y="327.7" class="st2" width="499.5" height="36.9"/>
	<rect x="-46" y="496.4" class="st3" width="499.5" height="58.9"/>
	<rect x="285.3" y="555.3" class="st4" width="168.2" height="115.6"/>
	<rect x="60.6" y="171.4" class="st5" width="70.9" height="499.5"/>
</g>
<path class="st6" d="M267.3,364.6c-43.7,0-79.2,35.5-79.2,79.2c0,59.4,79.2,147.1,79.2,147.1s79.2-87.7,79.2-147.1
	C346.5,400.1,311,364.6,267.3,364.6z M267.3,472.1c-15.6,0-28.3-12.7-28.3-28.3c0-15.6,12.7-28.3,28.3-28.3s28.3,12.7,28.3,28.3
	C295.6,459.4,282.9,472.1,267.3,472.1z"/>
</svg>
