<?xml version="1.0" encoding="utf-8"?>
<!-- Generator: Adobe Illustrator 16.0.0, SVG Export Plug-In . SVG Version: 6.00 Build 0)  -->
<!DOCTYPE svg PUBLIC "-//W3C//DTD SVG 1.1//EN" "http://www.w3.org/Graphics/SVG/1.1/DTD/svg11.dtd">
<svg version="1.1" id="图层_3" xmlns="http://www.w3.org/2000/svg" xmlns:xlink="http://www.w3.org/1999/xlink" x="0px" y="0px"
	 width="192px" height="192px" viewBox="0 0 192 192" enable-background="new 0 0 192 192" xml:space="preserve">
<path fill="#FBBC05" d="M8.125,42.875v104.75c0,6.215,5.034,11.25,11.25,11.25h153.25c6.215,0,11.25-5.035,11.25-11.25V42.875
	c0-6.215-5.035-11.25-11.25-11.25H19.375C13.159,31.625,8.125,36.66,8.125,42.875z"/>
<rect x="20" y="42.75" fill="#34A853" width="152.5" height="105.5"/>
<rect x="20" y="42.75" fill="#388E3C" width="152.5" height="9.167"/>
<g>
	<path fill="#FFFFFF" d="M69.868,118.683h62.084v3.056H62.657l49.863-51.477l2.2,2.126L69.868,118.683z"/>
	<path fill="#FFFFFF" d="M96.816,120.186l0.023,1.553H62.547L86.92,97.622l1.075,1.111c5.658,5.707,8.829,13.419,8.821,21.455
		V120.186z M93.706,118.481c-0.376-6.111-2.789-11.918-6.854-16.496l-16.875,16.697h23.74
		C93.714,118.615,93.71,118.549,93.706,118.481z"/>
</g>
</svg>
