<?xml version="1.0" encoding="utf-8"?>
<!-- Generator: Adobe Illustrator 16.0.0, SVG Export Plug-In . SVG Version: 6.00 Build 0)  -->
<!DOCTYPE svg PUBLIC "-//W3C//DTD SVG 1.1//EN" "http://www.w3.org/Graphics/SVG/1.1/DTD/svg11.dtd">
<svg version="1.1" id="图层_3" xmlns="http://www.w3.org/2000/svg" xmlns:xlink="http://www.w3.org/1999/xlink" x="0px" y="0px"
	 width="192px" height="192px" viewBox="0 0 192 192" enable-background="new 0 0 192 192" xml:space="preserve">
<path fill="#FBBC05" d="M8.125,43.625v104.75c0,6.216,5.034,11.25,11.25,11.25h153.25c6.215,0,11.25-5.034,11.25-11.25V43.625
	c0-6.215-5.035-11.25-11.25-11.25H19.375C13.159,32.375,8.125,37.41,8.125,43.625z"/>
<rect x="20" y="43.5" fill="#34A853" width="152.5" height="105.5"/>
<rect x="20" y="43.5" fill="#388E3C" width="152.5" height="9.167"/>
<g>
	<path fill="#FFFFFF" d="M69.004,104.794h0.128l8.013-22.989h8.163V113h-6.256V91.703l-0.129-0.021L71.211,113h-4.242l-7.713-21.361
		l-0.129,0.021V113h-6.256V81.805h8.206L69.004,104.794z"/>
	<path fill="#FFFFFF" d="M89.615,101.195c0-3.457,0.964-6.289,2.893-8.496c1.928-2.207,4.599-3.311,8.013-3.311
		c3.428,0,6.113,1.1,8.056,3.3s2.914,5.035,2.914,8.506v0.449c0,3.485-0.968,6.324-2.903,8.517s-4.609,3.289-8.023,3.289
		c-3.428,0-6.11-1.097-8.045-3.289c-1.936-2.192-2.903-5.031-2.903-8.517V101.195z M95.85,101.645c0,2.114,0.372,3.811,1.114,5.088
		c0.743,1.279,1.942,1.918,3.6,1.918c1.614,0,2.796-0.643,3.546-1.928s1.125-2.979,1.125-5.078v-0.449
		c0-2.058-0.379-3.736-1.136-5.035c-0.757-1.3-1.949-1.95-3.578-1.95c-1.614,0-2.796,0.653-3.546,1.96
		c-0.75,1.308-1.125,2.982-1.125,5.025V101.645z"/>
	<path fill="#FFFFFF" d="M114.383,101.602c0-3.656,0.789-6.606,2.367-8.849c1.578-2.242,3.804-3.364,6.674-3.364
		c1.157,0,2.2,0.25,3.129,0.75c0.928,0.5,1.742,1.214,2.442,2.143V79.577h6.277V113h-5.335l-0.535-2.85
		c-0.729,1.071-1.594,1.889-2.593,2.453c-1,0.564-2.143,0.847-3.428,0.847c-2.843,0-5.054-1.043-6.632-3.128
		c-1.578-2.086-2.367-4.843-2.367-8.271V101.602z M120.617,102.052c0,2.028,0.343,3.624,1.028,4.788s1.8,1.746,3.343,1.746
		c0.899,0,1.686-0.182,2.356-0.546c0.672-0.364,1.222-0.896,1.65-1.597v-9.877c-0.429-0.728-0.976-1.296-1.64-1.703
		c-0.664-0.407-1.438-0.61-2.324-0.61c-1.528,0-2.646,0.679-3.354,2.035c-0.707,1.357-1.061,3.128-1.061,5.313V102.052z"/>
</g>
</svg>
