<?xml version="1.0" encoding="utf-8"?>
<!-- Generator: Adobe Illustrator 16.0.0, SVG Export Plug-In . SVG Version: 6.00 Build 0)  -->
<!DOCTYPE svg PUBLIC "-//W3C//DTD SVG 1.1//EN" "http://www.w3.org/Graphics/SVG/1.1/DTD/svg11.dtd">
<svg version="1.1" id="图层_3" xmlns="http://www.w3.org/2000/svg" xmlns:xlink="http://www.w3.org/1999/xlink" x="0px" y="0px"
	 width="192px" height="192px" viewBox="0 0 192 192" enable-background="new 0 0 192 192" xml:space="preserve">
<path fill="#FBBC05" d="M8.125,43.625v104.75c0,6.215,5.034,11.25,11.25,11.25h153.25c6.215,0,11.25-5.035,11.25-11.25V43.625
	c0-6.215-5.035-11.25-11.25-11.25H19.375C13.159,32.375,8.125,37.41,8.125,43.625z"/>
<rect x="20" y="43.5" fill="#34A853" width="152.5" height="105.5"/>
<rect x="20" y="43.5" fill="#388E3C" width="152.5" height="9.167"/>
<g>
	<g>
		<path fill="#FFFFFF" d="M72.32,121.011c-11.605,0-21.047-9.441-21.047-21.047s9.442-21.047,21.047-21.047
			c11.605,0,21.047,9.441,21.047,21.047S83.925,121.011,72.32,121.011z M72.32,80.567c-10.695,0-19.396,8.701-19.396,19.396
			s8.701,19.396,19.396,19.396c10.695,0,19.396-8.701,19.396-19.396S83.015,80.567,72.32,80.567z"/>
		
			<rect x="52.218" y="98.951" transform="matrix(0.8511 0.5249 -0.5249 0.8511 63.1602 -23.1729)" fill="#FFFFFF" width="40.44" height="1.651"/>
		
			<rect x="71.008" y="79.275" transform="matrix(0.3878 0.9217 -0.9217 0.3878 136.0907 -5.0313)" fill="#FFFFFF" width="1.651" height="41.322"/>
		<rect x="71.495" y="79.742" fill="#FFFFFF" width="1.651" height="40.443"/>
	</g>
	<path opacity="0.5" fill="#FFFFFF" d="M71.838,120.176V79.752c-10.758,0.454-19.372,9.344-19.372,20.211
		C52.466,110.832,61.08,119.722,71.838,120.176z"/>
</g>
<g>
	<path fill="#FFFFFF" d="M124.473,78.917c-11.605,0-21.047,9.441-21.047,21.047s9.441,21.047,21.047,21.047
		s21.047-9.441,21.047-21.047S136.078,78.917,124.473,78.917z M105.076,99.964c0-10.419,8.257-18.941,18.571-19.375v38.75
		C113.333,118.904,105.076,110.383,105.076,99.964z M125.298,119.339v-38.75c10.314,0.435,18.571,8.957,18.571,19.375
		S135.612,118.904,125.298,119.339z"/>
	<path opacity="0.5" fill="#FFFFFF" d="M123.897,120.187V79.763c-10.758,0.453-19.371,9.343-19.371,20.211
		S113.14,119.732,123.897,120.187z"/>
</g>
</svg>
