<?xml version="1.0" encoding="utf-8"?>
<!-- Generator: Adobe Illustrator 16.0.0, SVG Export Plug-In . SVG Version: 6.00 Build 0)  -->
<!DOCTYPE svg PUBLIC "-//W3C//DTD SVG 1.1//EN" "http://www.w3.org/Graphics/SVG/1.1/DTD/svg11.dtd">
<svg version="1.1" id="图层_3" xmlns="http://www.w3.org/2000/svg" xmlns:xlink="http://www.w3.org/1999/xlink" x="0px" y="0px"
	 width="192px" height="192px" viewBox="0 0 192 192" enable-background="new 0 0 192 192" xml:space="preserve">
<path fill="#FBBC05" d="M8.125,42.875v104.75c0,6.215,5.034,11.25,11.25,11.25h153.25c6.215,0,11.25-5.035,11.25-11.25V42.875
	c0-6.215-5.035-11.25-11.25-11.25H19.375C13.159,31.625,8.125,36.66,8.125,42.875z"/>
<rect x="20" y="42.75" fill="#34A853" width="152.5" height="105.5"/>
<rect x="20" y="42.75" fill="#388E3C" width="152.5" height="9.167"/>
<path fill="#FFFFFF" d="M110.586,127.121c-14.709,0-26.635-11.926-26.635-26.635c0-14.708,11.926-26.634,26.635-26.634
	c14.708,0,26.634,11.926,26.634,26.634C137.22,115.195,125.294,127.121,110.586,127.121z M110.586,76.071
	c-13.484,0-24.415,10.931-24.415,24.415c0,13.484,10.931,24.414,24.415,24.414c13.483,0,24.414-10.93,24.414-24.414
	C135,87.002,124.069,76.071,110.586,76.071L110.586,76.071z"/>
<path fill="#FFFFFF" d="M79.512,127.121c-14.708,0-26.634-11.926-26.634-26.635c0-14.708,11.925-26.634,26.634-26.634
	c14.709,0,26.635,11.926,26.635,26.634C106.146,115.195,94.221,127.121,79.512,127.121z M79.512,76.072
	c-13.483,0-24.414,10.931-24.414,24.415c0,13.484,10.931,24.414,24.414,24.414c13.484,0,24.415-10.93,24.415-24.414
	C103.927,87.003,92.996,76.072,79.512,76.072L79.512,76.072z"/>
<path display="none" fill="#FFFFFF" d="M79.512,127.121c-14.709,0-26.634-11.926-26.634-26.635
	c0-14.708,11.925-26.634,26.634-26.634c14.708,0,26.634,11.926,26.634,26.634C106.146,115.195,94.221,127.121,79.512,127.121z
	 M79.512,76.071c-13.483,0-24.415,10.931-24.415,24.415c0,13.484,10.931,24.414,24.415,24.414s24.415-10.93,24.415-24.414
	C103.927,87.002,92.996,76.071,79.512,76.071L79.512,76.071z"/>
<path opacity="0.5" fill="#FFFFFF" d="M83.951,100.485c0-8.078,3.602-15.31,9.28-20.194c-3.91-2.662-8.633-4.219-13.72-4.219
	c-13.483,0-24.414,10.931-24.414,24.415c0,13.482,10.931,24.414,24.414,24.414c5.087,0,9.81-1.558,13.72-4.22
	C87.553,115.796,83.951,108.563,83.951,100.485z"/>
</svg>
