<?xml version="1.0" encoding="utf-8"?>
<!-- Generator: Adobe Illustrator 16.0.0, SVG Export Plug-In . SVG Version: 6.00 Build 0)  -->
<!DOCTYPE svg PUBLIC "-//W3C//DTD SVG 1.1//EN" "http://www.w3.org/Graphics/SVG/1.1/DTD/svg11.dtd">
<svg version="1.1" id="图层_3" xmlns="http://www.w3.org/2000/svg" xmlns:xlink="http://www.w3.org/1999/xlink" x="0px" y="0px"
	 width="192px" height="192px" viewBox="0 0 192 192" enable-background="new 0 0 192 192" xml:space="preserve">
<polygon fill="#4285F4" points="171.568,74.484 171.568,20.182 118.493,20.182 140.275,41.965 24.613,157.626 34.124,167.137 
	149.172,51.782 "/>
<path fill="#34A853" d="M54.668,20.807C35.521,20.807,20,36.328,20,55.475s15.521,34.668,34.668,34.668
	c19.147,0,34.668-15.521,34.668-34.668S73.815,20.807,54.668,20.807z M54.668,76.644c-11.691,0-21.169-9.478-21.169-21.169
	c0-11.691,9.478-21.169,21.169-21.169c11.691,0,21.169,9.478,21.169,21.169C75.837,67.166,66.359,76.644,54.668,76.644z"/>
<path fill="#34A853" d="M136.582,102.107c-19.147,0-34.668,15.521-34.668,34.668s15.521,34.668,34.668,34.668
	s34.668-15.521,34.668-34.668S155.729,102.107,136.582,102.107z M136.582,157.944c-11.691,0-21.169-9.478-21.169-21.169
	s9.478-21.169,21.169-21.169s21.169,9.478,21.169,21.169S148.273,157.944,136.582,157.944z"/>
</svg>
