<?xml version="1.0" encoding="utf-8"?>
<!-- Generator: Adobe Illustrator 16.0.0, SVG Export Plug-In . SVG Version: 6.00 Build 0)  -->
<!DOCTYPE svg PUBLIC "-//W3C//DTD SVG 1.1//EN" "http://www.w3.org/Graphics/SVG/1.1/DTD/svg11.dtd">
<svg version="1.1" id="图层_3" xmlns="http://www.w3.org/2000/svg" xmlns:xlink="http://www.w3.org/1999/xlink" x="0px" y="0px"
	 width="192px" height="192px" viewBox="0 0 192 192" enable-background="new 0 0 192 192" xml:space="preserve">
<g id="kity_g_4">
</g>
<path id="kity_path_5" display="none" d="M11.725,78.485h1.401v86.863h-1.401V78.485z"/>
<g id="kity_g_98">
	<g id="kity_g_100">
		<path id="kity_path_101" fill="none" d="M70.28,50.465L70.28,50.465L70.28,50.465L70.28,50.465z"/>
		<g id="kity_g_102">
		</g>
	</g>
</g>
<g id="kity_g_84" transform="matrix( 0.66 0 0 0.66 0 0 )">
	<path id="kity_path_85" d="M-148.884,90.262L-148.884,90.262L-148.884,90.262L-148.884,90.262z"/>
	<g id="kity_g_86">
	</g>
</g>
<path fill="#FBBC05" d="M8.125,43.625v104.75c0,6.215,5.034,11.25,11.25,11.25h153.25c6.215,0,11.25-5.035,11.25-11.25V43.625
	c0-6.215-5.035-11.25-11.25-11.25H19.375C13.159,32.375,8.125,37.41,8.125,43.625z"/>
<rect x="20" y="43.5" fill="#34A853" width="152.5" height="105.5"/>
<rect x="20" y="43.5" fill="#388E3C" width="152.5" height="9.167"/>
<g id="kity_g_90">
	<g id="kity_g_92">
		<path id="kity_path_93" fill="#FFFFFF" stroke="#FFFFFF" stroke-width="2" stroke-miterlimit="10" d="M68.137,68L68.137,68
			L68.137,68L68.137,68z"/>
		<g id="kity_g_94" transform="matrix( 1 0 0 1 0 0 )">
			<path id="kity_path_105" fill="#FFFFFF" stroke="#FFFFFF" stroke-width="2" stroke-miterlimit="10" d="M68.137,108.676
				l0.308,1.151l3.454-0.926l5.323,19.863l0.925-3.453l-5.141-19.863L68.137,108.676z"/>
			<path id="kity_path_106" fill="#FFFFFF" stroke="#FFFFFF" stroke-width="2" stroke-miterlimit="10" d="M91.592,68l-14.371,53.631
				l0.925,3.454L93.442,68H91.592z"/>
			<path id="kity_path_107" fill="#FFFFFF" stroke="#FFFFFF" stroke-width="2" stroke-miterlimit="10" d="M92.209,68h30.744v2.384
				H92.209V68z"/>
		</g>
	</g>
</g>
</svg>
