<?xml version="1.0" encoding="utf-8"?>
<!-- Generator: Adobe Illustrator 16.0.0, SVG Export Plug-In . SVG Version: 6.00 Build 0)  -->
<!DOCTYPE svg PUBLIC "-//W3C//DTD SVG 1.1//EN" "http://www.w3.org/Graphics/SVG/1.1/DTD/svg11.dtd">
<svg version="1.1" id="图层_3" xmlns="http://www.w3.org/2000/svg" xmlns:xlink="http://www.w3.org/1999/xlink" x="0px" y="0px"
	 width="192px" height="192px" viewBox="0 0 192 192" enable-background="new 0 0 192 192" xml:space="preserve">
<path fill="#FBBC05" d="M8.125,43.625v104.75c0,6.216,5.034,11.25,11.25,11.25h153.25c6.215,0,11.25-5.034,11.25-11.25V43.625
	c0-6.215-5.035-11.25-11.25-11.25H19.375C13.159,32.375,8.125,37.41,8.125,43.625z"/>
<rect x="20" y="43.5" fill="#34A853" width="152.5" height="105.5"/>
<rect x="20" y="43.5" fill="#388E3C" width="152.5" height="9.167"/>
<g>
	<path fill="#FFFFFF" d="M87.477,114h-6.256V80.577h6.256V114z"/>
	<path fill="#FFFFFF" d="M98.34,90.818l0.279,3.321c0.771-1.186,1.721-2.106,2.849-2.764c1.128-0.657,2.393-0.986,3.792-0.986
		c2.343,0,4.171,0.754,5.485,2.261c1.313,1.507,1.972,3.889,1.972,7.145V114h-6.278V99.816c0-1.656-0.289-2.832-0.868-3.524
		c-0.578-0.692-1.445-1.039-2.603-1.039c-0.929,0-1.746,0.175-2.453,0.525s-1.289,0.832-1.746,1.447V114h-6.256V90.818H98.34z"/>
</g>
</svg>
