<?xml version="1.0" encoding="utf-8"?>
<!-- Generator: Adobe Illustrator 16.0.0, SVG Export Plug-In . SVG Version: 6.00 Build 0)  -->
<!DOCTYPE svg PUBLIC "-//W3C//DTD SVG 1.1//EN" "http://www.w3.org/Graphics/SVG/1.1/DTD/svg11.dtd">
<svg version="1.1" id="图层_3" xmlns="http://www.w3.org/2000/svg" xmlns:xlink="http://www.w3.org/1999/xlink" x="0px" y="0px"
	 width="192px" height="192px" viewBox="0 0 192 192" enable-background="new 0 0 192 192" xml:space="preserve">
<path fill="#FBBC05" d="M8.125,42.875v104.75c0,6.215,5.034,11.25,11.25,11.25h153.25c6.215,0,11.25-5.035,11.25-11.25V42.875
	c0-6.215-5.035-11.25-11.25-11.25H19.375C13.159,31.625,8.125,36.66,8.125,42.875z"/>
<rect x="20" y="42.75" fill="#34A853" width="152.5" height="105.5"/>
<rect x="20" y="42.75" fill="#388E3C" width="152.5" height="9.167"/>
<g>
	
		<rect x="77.095" y="88.059" transform="matrix(-0.8788 0.4772 -0.4772 -0.8788 223.2294 122.8176)" fill="#FFFFFF" width="37.847" height="3.395"/>
	<polygon fill="#FFFFFF" points="118.348,77.633 109.102,74.881 111.547,79.383 101.03,85.093 102.658,88.092 113.174,82.382 
		115.619,86.883 	"/>
</g>
<g>
	<g>
		<rect x="96.076" y="100.063" fill="#FFFFFF" width="34.24" height="2.51"/>
		<polygon fill="#FFFFFF" points="135.113,101.318 130.074,96.268 130.074,100.057 121.223,100.057 121.223,102.58 130.074,102.58 
			130.074,106.369 		"/>
	</g>
	<g>
		<rect x="95.953" y="68.231" fill="#FFFFFF" width="2.51" height="34.241"/>
		<polygon fill="#FFFFFF" points="97.207,63.436 92.156,68.474 95.945,68.474 95.945,77.325 98.469,77.325 98.469,68.474 
			102.258,68.474 		"/>
	</g>
	<g>
		
			<rect x="68.349" y="111.802" transform="matrix(0.7071 -0.7071 0.7071 0.7071 -54.9096 93.548)" fill="#FFFFFF" width="34.241" height="2.51"/>
		<polygon fill="#FFFFFF" points="69.972,128.554 77.106,128.563 74.427,125.884 80.686,119.625 78.901,117.84 72.643,124.099 
			69.963,121.42 		"/>
	</g>
</g>
</svg>
