<?xml version="1.0" encoding="utf-8"?>
<!-- Generator: Adobe Illustrator 16.0.0, SVG Export Plug-In . SVG Version: 6.00 Build 0)  -->
<!DOCTYPE svg PUBLIC "-//W3C//DTD SVG 1.1//EN" "http://www.w3.org/Graphics/SVG/1.1/DTD/svg11.dtd">
<svg version="1.1" id="图层_3" xmlns="http://www.w3.org/2000/svg" xmlns:xlink="http://www.w3.org/1999/xlink" x="0px" y="0px"
	 width="192px" height="192px" viewBox="0 0 192 192" enable-background="new 0 0 192 192" xml:space="preserve">
<g id="kity_g_4">
</g>
<path id="kity_path_5" display="none" d="M11.725,78.485h1.401v86.863h-1.401V78.485z"/>
<g id="kity_g_98">
	<g id="kity_g_100">
		<path id="kity_path_101" fill="none" d="M70.28,50.465L70.28,50.465L70.28,50.465L70.28,50.465z"/>
		<g id="kity_g_102">
		</g>
	</g>
</g>
<g id="kity_g_84" transform="matrix( 0.66 0 0 0.66 0 0 )">
	<path id="kity_path_85" d="M-148.884,90.262L-148.884,90.262L-148.884,90.262L-148.884,90.262z"/>
	<g id="kity_g_86">
	</g>
</g>
<path fill="#4285F4" d="M59.255,97.801c0,6.396-1.479,11.536-4.437,15.425c-2.958,3.892-7.086,5.836-12.388,5.836
	c-2.265,0-4.276-0.418-6.036-1.259c-1.757-0.839-3.264-2.071-4.516-3.696v20.741H20.25V74.983h10.51l0.68,5.116
	c1.279-1.892,2.818-3.351,4.616-4.376c1.8-1.025,3.897-1.538,6.295-1.538c5.354,0,9.51,2.091,12.468,6.273
	c2.957,4.183,4.437,9.686,4.437,16.505V97.801z M47.586,96.963c0-4.076-0.679-7.38-2.038-9.911c-1.359-2.53-3.436-3.796-6.235-3.796
	c-1.757,0-3.257,0.36-4.496,1.08c-1.238,0.718-2.219,1.744-2.938,3.077v18.942c0.719,1.227,1.7,2.158,2.938,2.797
	c1.238,0.641,2.764,0.96,4.576,0.96c2.825,0,4.896-1.105,6.215-3.318c1.319-2.21,1.978-5.207,1.978-8.991V96.963z"/>
<rect x="67.046" y="55.88" fill="#FBBC05" width="11.669" height="8.752"/>
<rect x="67.046" y="74.983" fill="#4285F4" width="11.669" height="43.24"/>
<path fill="#4285F4" d="M98.979,74.983l0.521,6.194c1.438-2.211,3.209-3.929,5.313-5.155c2.104-1.225,4.463-1.838,7.073-1.838
	c4.369,0,7.779,1.405,10.231,4.216c2.449,2.811,3.676,7.253,3.676,13.328v26.495h-11.71V91.768c0-3.091-0.538-5.282-1.618-6.575
	c-1.078-1.292-2.696-1.938-4.855-1.938c-1.731,0-3.255,0.327-4.574,0.979c-1.319,0.653-2.405,1.553-3.258,2.697v31.291H88.109
	v-43.24H98.979z"/>
<path fill="#4285F4" d="M132.785,96.963c0-6.82,1.48-12.322,4.438-16.505c2.957-4.183,7.113-6.273,12.468-6.273
	c2.424,0,4.556,0.546,6.393,1.638c1.84,1.094,3.411,2.651,4.718,4.676l0.918-5.515h10.031v43.041c0,5.621-1.838,9.971-5.516,13.048
	c-3.677,3.076-8.804,4.615-15.384,4.615c-2.185,0-4.504-0.3-6.955-0.898c-2.452-0.6-4.714-1.419-6.792-2.46l1.957-8.711
	c1.785,0.853,3.629,1.5,5.535,1.938c1.905,0.439,3.962,0.658,6.174,0.658c3.197,0,5.549-0.664,7.053-1.998
	c1.506-1.332,2.259-3.41,2.259-6.233v-3.915c-1.278,1.625-2.784,2.863-4.516,3.715c-1.731,0.854-3.716,1.279-5.955,1.279
	c-5.302,0-9.431-1.944-12.388-5.836c-2.957-3.889-4.438-9.029-4.438-15.425V96.963z M144.454,97.801
	c0,3.784,0.634,6.762,1.899,8.933c1.266,2.172,3.337,3.256,6.214,3.256c1.784,0,3.297-0.325,4.536-0.979
	c1.238-0.651,2.231-1.604,2.978-2.856V87.412c-0.746-1.333-1.739-2.358-2.978-3.077c-1.239-0.72-2.724-1.08-4.455-1.08
	c-2.853,0-4.929,1.266-6.235,3.796c-1.305,2.531-1.959,5.835-1.959,9.911V97.801z"/>
</svg>
