<?xml version="1.0" encoding="utf-8"?>
<!-- Generator: Adobe Illustrator 16.0.0, SVG Export Plug-In . SVG Version: 6.00 Build 0)  -->
<!DOCTYPE svg PUBLIC "-//W3C//DTD SVG 1.1//EN" "http://www.w3.org/Graphics/SVG/1.1/DTD/svg11.dtd">
<svg version="1.1" id="图层_3" xmlns="http://www.w3.org/2000/svg" xmlns:xlink="http://www.w3.org/1999/xlink" x="0px" y="0px"
	 width="192px" height="192px" viewBox="0 0 192 192" enable-background="new 0 0 192 192" xml:space="preserve">
<path fill="#34A853" d="M79.919,90.583c0-5.984,4.818-10.833,10.833-10.833h70.414c5.986,0,10.834,4.82,10.834,10.833v70.414
	c0,5.986-4.818,10.834-10.834,10.834H90.752c-5.985,0-10.833-4.822-10.833-10.834V90.583z"/>
<path fill="#4285F4" d="M20.339,31.003c0-5.985,4.818-10.833,10.833-10.833h70.414c5.986,0,10.834,4.821,10.834,10.833v70.413
	c0,5.986-4.818,10.834-10.834,10.834H31.172c-5.985,0-10.833-4.822-10.833-10.834V31.003z"/>
<g>
	<path fill="#FFFFFF" d="M47.647,85.008h13.051c-1.127-0.992-2.336-2.027-3.625-3.102l1.813-1.773
		c1.691,1.289,3.344,2.594,4.955,3.908l-1.008,0.967h8.58l-0.684-0.686c1.447-1.154,3.008-2.578,4.672-4.27l2.215,1.73
		c-1.262,1.129-2.484,2.203-3.664,3.223h13.17v2.418H47.647V85.008z M51.272,57.535h14.582v-2.9H48.251v-2.416h17.604v-3.223h2.898
		v3.223H86.64v2.416H68.753v2.9h14.662v2.418H51.272V57.535L51.272,57.535z M48.937,62.289h36.816v7.412h-2.9v-4.996H51.835v4.996
		h-2.898V62.289z M53.892,71.715h26.906v9.627h-2.898v-1.369H56.792v1.369h-2.9V71.715L53.892,71.715z M54.897,67.002H79.63v2.416
		H54.897V67.002L54.897,67.002z M77.899,74.131H56.792v3.426h21.107V74.131z"/>
</g>
<g>
	<path fill="#FFFFFF" d="M133.283,148h-7.688v-31.757h-7.953v-5.893l15.641-1.373V148z"/>
</g>
</svg>
