<?xml version="1.0" encoding="utf-8"?>
<!-- Generator: Adobe Illustrator 16.0.0, SVG Export Plug-In . SVG Version: 6.00 Build 0)  -->
<!DOCTYPE svg PUBLIC "-//W3C//DTD SVG 1.1//EN" "http://www.w3.org/Graphics/SVG/1.1/DTD/svg11.dtd">
<svg version="1.1" id="图层_3" xmlns="http://www.w3.org/2000/svg" xmlns:xlink="http://www.w3.org/1999/xlink" x="0px" y="0px"
	 width="192px" height="192px" viewBox="0 0 192 192" enable-background="new 0 0 192 192" xml:space="preserve">
<line fill="none" x1="19" y1="73.362" x2="178.469" y2="73.362"/>
<path fill="none" d="M47.735,76.083h51v51h-51V76.083z"/>
<path fill="none" d="M71,69h97v97H71V69z"/>
<line fill="none" x1="18" y1="79.583" x2="177.469" y2="79.583"/>
<path fill="#4285F4" d="M123.481,20H68.183c-11.474,0-20.736,9.261-20.736,20.737v110.595c0,11.476,9.262,20.737,20.736,20.737
	h55.298c11.476,0,20.738-9.262,20.738-20.737V40.737C144.22,29.261,134.957,20,123.481,20z M109.656,158.244H82.007v-6.912h27.649
	V158.244z M132.123,137.509h-72.58V40.737h72.58V137.509z"/>
<path fill="none" d="M43,31.5h130.333v130.333H43V31.5z"/>
<path fill="none" d="M95.5,77.583h24v24h-24V77.583z"/>
<path fill="#34A853" d="M95.875,77.375c-10.28,0-18.625,8.344-18.625,18.625c0,10.28,8.345,18.625,18.625,18.625
	S114.5,106.28,114.5,96C114.5,85.719,106.155,77.375,95.875,77.375z M97.737,105.313h-3.725V94.138h3.725V105.313z M97.737,90.412
	h-3.725v-3.725h3.725V90.412z"/>
</svg>
