<?xml version="1.0" encoding="utf-8"?>
<!-- Generator: Adobe Illustrator 19.0.0, SVG Export Plug-In . SVG Version: 6.00 Build 0)  -->
<svg version="1.1" id="Layer_1" xmlns="http://www.w3.org/2000/svg" xmlns:xlink="http://www.w3.org/1999/xlink" x="0px" y="0px"
	 viewBox="-47 170.9 500 500" style="enable-background:new -47 170.9 500 500;" xml:space="preserve">
<style type="text/css">
	.st0{fill:#4285F4;}
	.st1{fill:#236EDB;}
	.st2{fill:#FFFFFF;}
</style>
<path class="st0" d="M319.7,221.1l-233.4-0.2c-18.3,0-33.3,15-33.3,33.4v333.3c0,18.4,14.9,33.3,33.3,33.3h233.3
	c18.4,0,33.3-14.9,33.3-33.3V254.3C353,235.9,338,221.1,319.7,221.1z"/>
<path class="st1" d="M53,254.3v333.3c0,18.4,14.9,33.3,33.3,33.3H103v-400H86.3C68,220.9,53,235.9,53,254.3z"/>
<path class="st2" d="M193.6,422.5c8.2,16,21.3,29.2,37.4,37.3l12.5-12.5c1.6-1.6,3.8-2,5.8-1.4c6.3,2.1,13.2,3.2,20.2,3.2
	c3.1,0,5.7,2.5,5.7,5.7v19.8c0,3.1-2.5,5.7-5.7,5.7c-53.2,0-96.4-43.1-96.4-96.4c0-3.1,2.6-5.7,5.7-5.7h19.8c3.1,0,5.7,2.5,5.7,5.7
	c0,7.1,1.1,13.9,3.2,20.2c0.6,2,0.2,4.2-1.4,5.8L193.6,422.5z"/>
</svg>
