<?xml version="1.0" encoding="utf-8"?>
<!-- Generator: Adobe Illustrator 16.0.0, SVG Export Plug-In . SVG Version: 6.00 Build 0)  -->
<!DOCTYPE svg PUBLIC "-//W3C//DTD SVG 1.1//EN" "http://www.w3.org/Graphics/SVG/1.1/DTD/svg11.dtd">
<svg version="1.1" id="图层_3" xmlns="http://www.w3.org/2000/svg" xmlns:xlink="http://www.w3.org/1999/xlink" x="0px" y="0px"
	 width="192px" height="192px" viewBox="0 0 192 192" enable-background="new 0 0 192 192" xml:space="preserve">
<path fill="none" d="M107,81h24v24h-24V81z"/>
<path fill="none" d="M24,8.667h89.667v89.667H24V8.667z"/>
<path fill="#4F8BF5" d="M148.375,8.125H43.625c-6.216,0-11.25,5.034-11.25,11.25v153.25c0,6.215,5.034,11.25,11.25,11.25h104.75
	c6.215,0,11.25-5.035,11.25-11.25V19.375C159.625,13.159,154.59,8.125,148.375,8.125z"/>
<path fill="#2D6FE4" d="M56,8.125H43.625c-6.216,0-11.25,5.034-11.25,11.25v153.25c0,6.215,5.034,11.25,11.25,11.25H56V8.125z"/>
<path fill="none" d="M121,72h74.5v74.5H121V72z"/>
<path fill="#FFFFFF" d="M94.444,93.114c4.03,7.92,10.521,14.384,18.441,18.442l6.158-6.157c0.754-0.754,1.876-1.006,2.853-0.672
	c3.137,1.039,6.522,1.596,9.993,1.596c1.539,0,2.798,1.26,2.798,2.799v9.767c0,1.54-1.259,2.8-2.798,2.8
	c-26.281,0-47.577-21.295-47.577-47.577c0-1.539,1.26-2.798,2.799-2.798h9.794c1.539,0,2.801,1.26,2.801,2.798
	c0,3.499,0.559,6.857,1.595,9.991c0.307,0.979,0.082,2.071-0.699,2.854L94.444,93.114z"/>
</svg>
