<?xml version="1.0" encoding="utf-8"?>
<!-- Generator: Adobe Illustrator 16.0.0, SVG Export Plug-In . SVG Version: 6.00 Build 0)  -->
<!DOCTYPE svg PUBLIC "-//W3C//DTD SVG 1.1//EN" "http://www.w3.org/Graphics/SVG/1.1/DTD/svg11.dtd">
<svg version="1.1" id="图层_3" xmlns="http://www.w3.org/2000/svg" xmlns:xlink="http://www.w3.org/1999/xlink" x="0px" y="0px"
	 width="192px" height="192px" viewBox="0 0 192 192" enable-background="new 0 0 192 192" xml:space="preserve">
<path fill="#FBBC05" d="M8.125,43.625v104.75c0,6.215,5.034,11.25,11.25,11.25h153.25c6.215,0,11.25-5.035,11.25-11.25V43.625
	c0-6.215-5.035-11.25-11.25-11.25H19.375C13.159,32.375,8.125,37.41,8.125,43.625z"/>
<rect x="20" y="43.5" fill="#34A853" width="152.5" height="105.5"/>
<rect x="20" y="43.5" fill="#388E3C" width="152.5" height="9.167"/>
<g>
	<path fill="#FFFFFF" d="M37.747,94.995h36.357v3.01H37.747V94.995z"/>
	<path fill="#FFFFFF" d="M37.805,94.995h36.126v3.01H37.805V94.995z"/>
	<path fill="#FFFFFF" d="M37.863,94.995h36.01v3.01h-36.01V94.995z"/>
	<path fill="#FFFFFF" d="M38.037,94.995h35.663v3.01H38.037V94.995z"/>
	<path fill="#FFFFFF" d="M120.073,94.995h36.242v3.01h-36.242V94.995z"/>
	<path fill="#FFFFFF" d="M118.452,88.395v16.211H75.61V88.395H118.452 M121.347,85.5H72.716v22h48.631V85.5L121.347,85.5z"/>
</g>
</svg>
