<?xml version="1.0" encoding="utf-8"?>
<!-- Generator: Adobe Illustrator 16.0.0, SVG Export Plug-In . SVG Version: 6.00 Build 0)  -->
<!DOCTYPE svg PUBLIC "-//W3C//DTD SVG 1.1//EN" "http://www.w3.org/Graphics/SVG/1.1/DTD/svg11.dtd">
<svg version="1.1" id="图层_3" xmlns="http://www.w3.org/2000/svg" xmlns:xlink="http://www.w3.org/1999/xlink" x="0px" y="0px"
	 width="192px" height="192px" viewBox="0 0 192 192" enable-background="new 0 0 192 192" xml:space="preserve">
<path fill="#FBBC05" d="M8.125,42.875v104.75c0,6.215,5.034,11.25,11.25,11.25h153.25c6.215,0,11.25-5.035,11.25-11.25V42.875
	c0-6.215-5.035-11.25-11.25-11.25H19.375C13.159,31.625,8.125,36.66,8.125,42.875z"/>
<rect x="20" y="42.75" fill="#34A853" width="152.5" height="105.5"/>
<rect x="20" y="42.75" fill="#388E3C" width="152.5" height="9.167"/>
<g>
	<path fill="#FFFFFF" d="M79.591,115.898l-0.277-0.502h-0.576l0.013-36.455h0.606l0.307-0.518l31.905,18.878l-0.31,0.52l0.29,0.531
		L79.591,115.898z M81.51,82.722l-0.011,28.981l25.411-13.951L81.51,82.722z"/>
	<rect x="108.314" y="80.68" fill="#FFFFFF" width="2.76" height="35.971"/>
	<rect x="58.311" y="95.979" fill="#FFFFFF" width="22.768" height="2.759"/>
	<rect x="108.333" y="96.314" fill="#FFFFFF" width="19.354" height="2.76"/>
</g>
</svg>
