<?xml version="1.0" encoding="utf-8"?>
<!-- Generator: Adobe Illustrator 16.0.0, SVG Export Plug-In . SVG Version: 6.00 Build 0)  -->
<!DOCTYPE svg PUBLIC "-//W3C//DTD SVG 1.1//EN" "http://www.w3.org/Graphics/SVG/1.1/DTD/svg11.dtd">
<svg version="1.1" id="图层_3" xmlns="http://www.w3.org/2000/svg" xmlns:xlink="http://www.w3.org/1999/xlink" x="0px" y="0px"
	 width="192px" height="192px" viewBox="0 0 192 192" enable-background="new 0 0 192 192" xml:space="preserve">
<g>
	<path fill="#F6E4B0" d="M168.197,152.844c0,6.494-5.021,11.811-11.516,11.811l0,0H35.629c-6.495,0-11.514-5.316-11.514-11.811l0,0
		V95.27c0-6.497,5.314-11.811,11.514-11.811h121.052c6.495,0,11.516,5.314,11.516,11.811V152.844z"/>
	<path fill="#5B4037" d="M156.682,167.9H35.629c-8.267,0-15.057-6.791-15.057-15.353V94.974c0-8.267,6.791-15.353,15.057-15.353
		h121.052c8.268,0,15.059,6.791,15.059,15.353v57.574C171.74,161.109,164.949,167.9,156.682,167.9z M35.629,86.707
		c-4.428,0-8.267,3.839-8.267,8.267v57.574c0,4.725,3.543,8.267,8.267,8.267h121.052c4.43,0,8.268-3.838,8.268-8.267V94.974
		c0-4.428-3.544-8.267-8.268-8.267H35.629z"/>
	<path fill="#6A5646" d="M56.297,102.061h8.267v38.678h-8.267V102.061z"/>
	<path fill="#3C2622" d="M52.164,102.061h8.267v38.678h-8.267V102.061z"/>
	<path fill="#6A5646" d="M73.717,102.061h8.267v38.678h-8.267V102.061z"/>
	<path fill="#3C2622" d="M69.584,102.061h8.267v38.678h-8.267V102.061z"/>
	<path fill="#6A5646" d="M91.137,102.061h8.266v38.678h-8.266V102.061z"/>
	<path fill="#3C2622" d="M87.003,102.061h8.267v38.678h-8.267V102.061z"/>
	<path fill="#6A5646" d="M117.709,102.061h8.268v38.678h-8.268V102.061z"/>
	<path fill="#3C2622" d="M113.576,102.061h8.267v38.678h-8.267V102.061z"/>
	<path fill="#6A5646" d="M135.129,102.061h8.269v38.678h-8.269V102.061z"/>
	<path fill="#3C2622" d="M130.994,102.061h8.268v38.678h-8.268V102.061z"/>
	<path fill="#5B4037" d="M20.572,58.954v60.524H171.74V85.821c0-10.923-9.152-19.487-20.668-19.487h-36.021l-14.763-22.142
		C93.499,30.905,89.07,25,78.146,25H40.059c-10.924,0-19.782,8.857-19.782,19.487L20.572,58.954"/>
</g>
</svg>
