<?xml version="1.0" encoding="utf-8"?>
<!-- Generator: Adobe Illustrator 19.0.0, SVG Export Plug-In . SVG Version: 6.00 Build 0)  -->
<svg version="1.1" id="Layer_1" xmlns="http://www.w3.org/2000/svg" xmlns:xlink="http://www.w3.org/1999/xlink" x="0px" y="0px"
	 viewBox="0 0 500 500" style="enable-background:new 0 0 500 500;" xml:space="preserve">
<style type="text/css">
	.st0{fill:#34A853;}
	.st1{fill:#FFFFFF;}
</style>
<path class="st0" d="M366.7,50.2L133.3,50C115,50,100,65,100,83.4v333.3c0,18.4,14.9,33.3,33.3,33.3h233.3
	c18.4,0,33.3-14.9,33.3-33.3V83.4C400,65,385,50.2,366.7,50.2z M350,124.8c-13.8,0-25-11.2-25-25s11.2-25,25-25s25,11.2,25,25
	S363.8,124.8,350,124.8z"/>
<g>
	<g>
		<path class="st1" d="M270.7,314.1c-0.6-1.2-1-2.6-1.4-4.4c-0.3-1.8-0.6-3.6-0.9-5.6c-1.5,1.6-3.2,3.1-5.1,4.5
			c-1.9,1.4-4,2.7-6.2,3.8c-2.2,1.1-4.7,1.9-7.3,2.5s-5.4,0.9-8.3,0.9c-4.8,0-9.2-0.7-13.2-2.2c-3.9-1.5-7.3-3.4-10.1-5.9
			c-2.8-2.5-4.9-5.5-6.4-8.9c-1.5-3.4-2.3-7.1-2.3-11c0-5.1,1-9.5,3-13.4c2-3.9,4.8-7.1,8.5-9.8c3.7-2.6,8.2-4.6,13.4-5.9
			c5.2-1.3,11.1-2,17.6-2h16.1v-7.4c0-5.7-1.7-10.2-5.1-13.5c-3.4-3.4-8.4-5-15-5c-3,0-5.8,0.4-8.3,1.2c-2.5,0.8-4.7,1.9-6.4,3.3
			c-1.8,1.4-3.2,3-4.2,4.8c-1,1.8-1.5,3.7-1.5,5.7h-16.3c0-3.4,0.9-6.7,2.7-10.1c1.8-3.3,4.3-6.3,7.6-9c3.3-2.7,7.2-4.8,11.9-6.5
			c4.6-1.7,9.8-2.5,15.5-2.5c5.1,0,9.9,0.7,14.2,2c4.3,1.3,8.1,3.3,11.2,5.9c3.1,2.7,5.5,6,7.3,9.9c1.7,4,2.6,8.6,2.6,13.9v44
			c0,3.2,0.3,6.6,0.8,10.1c0.6,3.5,1.4,6.6,2.5,9.1v1.4H270.7z M243.8,301.8c2.9,0,5.7-0.4,8.2-1.2c2.6-0.8,4.9-1.9,7-3.2
			c2.1-1.3,3.9-2.8,5.5-4.5c1.5-1.7,2.8-3.4,3.6-5.2v-19.4h-13.5c-9.3,0-16.4,1.4-21.4,4.3c-5,2.9-7.5,7.2-7.5,13.1
			c0,2.3,0.4,4.4,1.1,6.4c0.8,2,1.9,3.7,3.5,5.1c1.5,1.4,3.4,2.6,5.7,3.4C238.2,301.4,240.8,301.8,243.8,301.8z"/>
	</g>
	<g>
		<path class="st1" d="M281.3,203.2h-62.5v-19.3h62.5V203.2z"/>
	</g>
</g>
</svg>
