<?xml version="1.0" encoding="utf-8"?>
<!-- Generator: Adobe Illustrator 16.0.0, SVG Export Plug-In . SVG Version: 6.00 Build 0)  -->
<!DOCTYPE svg PUBLIC "-//W3C//DTD SVG 1.1//EN" "http://www.w3.org/Graphics/SVG/1.1/DTD/svg11.dtd">
<svg version="1.1" id="图层_3" xmlns="http://www.w3.org/2000/svg" xmlns:xlink="http://www.w3.org/1999/xlink" x="0px" y="0px"
	 width="192px" height="192px" viewBox="0 0 192 192" enable-background="new 0 0 192 192" xml:space="preserve">
<line fill="none" x1="18.435" y1="73.155" x2="177.904" y2="73.155"/>
<path fill="#34A853" d="M79.75,90.583c0-5.985,4.818-10.833,10.833-10.833h70.413c5.986,0,10.834,4.821,10.834,10.833v70.413
	c0,5.986-4.818,10.834-10.834,10.834H90.583c-5.985,0-10.833-4.822-10.833-10.834V90.583z"/>
<path fill="#4285F4" d="M20.17,31.003c0-5.985,4.818-10.833,10.833-10.833h70.413c5.986,0,10.834,4.821,10.834,10.833v70.413
	c0,5.986-4.818,10.834-10.834,10.834H31.003c-5.985,0-10.833-4.822-10.833-10.834V31.003z"/>
<path fill="#FFFFFF" d="M69.164,53.652v-4.614c0-1.354,0.186-2.521,0.558-3.507c0.097-0.172,0.159-0.361,0.181-0.559
	c0-0.121-0.43-0.24-1.289-0.365h-6.286v9.045H47.191v21.604h6.273v-3.325h9.051v15.881h6.648V71.932h9.23v2.771h6.834V53.65H69.164
	V53.652z M62.516,66.949h-9.047V58.83l-0.004-0.003h9.051V66.949z M78.396,66.949h-9.231V58.83h9.231V66.949z"/>
<g>
	<g>
		<path fill="#FFFFFF" d="M135.598,148.791c-0.211-0.424-0.353-0.918-0.494-1.552c-0.105-0.635-0.211-1.27-0.316-1.974
			c-0.53,0.564-1.126,1.091-1.799,1.586c-0.668,0.492-1.41,0.953-2.186,1.339c-0.774,0.388-1.656,0.67-2.574,0.882
			c-0.916,0.21-1.902,0.316-2.924,0.316c-1.691,0-3.242-0.249-4.654-0.775c-1.375-0.527-2.572-1.197-3.56-2.081
			c-0.985-0.88-1.727-1.937-2.255-3.136c-0.529-1.197-0.811-2.503-0.811-3.876c0-1.797,0.352-3.349,1.058-4.726
			c0.704-1.373,1.69-2.502,2.995-3.453c1.305-0.916,2.889-1.622,4.723-2.079c1.834-0.459,3.912-0.706,6.204-0.706h5.675v-2.608
			c0-2.009-0.599-3.595-1.797-4.758c-1.197-1.198-2.96-1.762-5.287-1.762c-1.059,0-2.045,0.14-2.926,0.423
			c-0.882,0.281-1.658,0.669-2.257,1.163c-0.634,0.493-1.126,1.057-1.479,1.692c-0.354,0.633-0.528,1.303-0.528,2.008h-5.746
			c0-1.199,0.317-2.361,0.953-3.561c0.634-1.164,1.515-2.221,2.68-3.173c1.163-0.951,2.538-1.69,4.194-2.29
			c1.621-0.6,3.453-0.881,5.463-0.881c1.798,0,3.488,0.247,5.004,0.705s2.855,1.164,3.949,2.08c1.091,0.951,1.938,2.115,2.572,3.488
			c0.599,1.41,0.916,3.032,0.916,4.899v15.509c0,1.129,0.104,2.327,0.281,3.562c0.211,1.231,0.493,2.325,0.883,3.208v0.492h-5.959
			v0.037H135.598z M126.116,144.457c1.022,0,2.009-0.144,2.891-0.425c0.917-0.282,1.728-0.67,2.468-1.128
			c0.739-0.459,1.375-0.986,1.938-1.586c0.529-0.6,0.986-1.197,1.27-1.833v-6.837h-4.76c-3.277,0-5.781,0.493-7.543,1.516
			c-1.762,1.021-2.645,2.537-2.645,4.617c0,0.813,0.142,1.551,0.389,2.254c0.282,0.709,0.669,1.307,1.234,1.801
			c0.527,0.494,1.197,0.916,2.008,1.197C124.141,144.313,125.059,144.457,126.116,144.457z"/>
	</g>
	<g>
		<path fill="#FFFFFF" d="M139.333,109.7h-22.03v-6.802h22.03V109.7z"/>
	</g>
</g>
</svg>
