<?xml version="1.0" encoding="utf-8"?>
<!-- Generator: Adobe Illustrator 16.0.0, SVG Export Plug-In . SVG Version: 6.00 Build 0)  -->
<!DOCTYPE svg PUBLIC "-//W3C//DTD SVG 1.1//EN" "http://www.w3.org/Graphics/SVG/1.1/DTD/svg11.dtd">
<svg version="1.1" id="图层_3" xmlns="http://www.w3.org/2000/svg" xmlns:xlink="http://www.w3.org/1999/xlink" x="0px" y="0px"
	 width="192px" height="192px" viewBox="0 0 192 192" enable-background="new 0 0 192 192" xml:space="preserve">
<path fill="#FFFFFF" d="M160.834,19.236h-129.5c-6.216,0-11.25,5.035-11.25,11.25v129.5c0,6.215,5.034,11.25,11.25,11.25h129.5
	c6.215,0,11.25-5.035,11.25-11.25v-129.5C172.084,24.271,167.049,19.236,160.834,19.236z"/>
<rect x="20.377" y="19.236" fill="#4E4E4E" width="150.76" height="3.498"/>
<rect x="20.377" y="68.793" opacity="0.3" fill="#4E4E4E" enable-background="new    " width="150.76" height="3.497"/>
<rect x="20" y="118.482" opacity="0.3" fill="#4E4E4E" enable-background="new    " width="152.084" height="3.497"/>
<rect x="20.813" y="168.253" fill="#4E4E4E" width="150.759" height="3.497"/>
<g>
	<path fill="#34A853" d="M86.131,93.82H50.093l-8.549,24.658H28.325L62.85,22.733h11.115l33.799,95.745H94.547L86.131,93.82z
		 M53.842,82.971h28.607l-13.944-41.1h-0.394L53.842,82.971z"/>
</g>
<g>
	<path fill="#34A853" d="M146.755,118.479c-0.328-1.606-0.582-3.024-0.765-4.256c-0.179-1.233-0.285-2.471-0.319-3.716
		c-1.804,2.56-4.16,4.698-7.064,6.423c-2.908,1.725-6.032,2.585-9.379,2.585c-5.549,0-9.776-1.42-12.68-4.26
		c-2.905-2.84-4.356-6.752-4.356-11.741c0-5.088,2.057-9.068,6.178-11.94c4.122-2.873,9.708-4.308,16.769-4.308h10.535v-5.268
		c0-3.119-0.952-5.589-2.855-7.41c-1.904-1.823-4.596-2.734-8.075-2.734c-3.149,0-5.694,0.787-7.633,2.363
		c-1.934,1.577-2.904,3.465-2.904,5.662L115,79.978l-0.1-0.295c-0.229-3.875,1.585-7.418,5.441-10.635
		c3.855-3.218,8.84-4.826,14.942-4.826c6.039,0,10.896,1.537,14.576,4.602c3.673,3.069,5.514,7.494,5.514,13.27v25.652
		c0,1.903,0.098,3.741,0.297,5.516c0.196,1.771,0.558,3.514,1.083,5.217H146.755z M130.654,111.39c3.515,0,6.683-0.905,9.503-2.708
		c2.824-1.806,4.661-3.874,5.516-6.205v-8.664h-10.881c-3.909,0-7.035,0.984-9.381,2.953c-2.348,1.969-3.521,4.284-3.521,6.942
		c0,2.364,0.74,4.236,2.217,5.613C125.583,110.7,127.765,111.39,130.654,111.39z"/>
</g>
</svg>
