<?xml version="1.0" encoding="utf-8"?>
<!-- Generator: Adobe Illustrator 16.0.0, SVG Export Plug-In . SVG Version: 6.00 Build 0)  -->
<!DOCTYPE svg PUBLIC "-//W3C//DTD SVG 1.1//EN" "http://www.w3.org/Graphics/SVG/1.1/DTD/svg11.dtd">
<svg version="1.1" id="图层_3" xmlns="http://www.w3.org/2000/svg" xmlns:xlink="http://www.w3.org/1999/xlink" x="0px" y="0px"
	 width="192px" height="192px" viewBox="0 0 192 192" enable-background="new 0 0 192 192" xml:space="preserve">
<g>
	<path fill="#FE82AA" d="M125.483,20H28.431C23.773,20,20,23.773,20,28.431v97.052c0,4.659,3.773,8.432,8.431,8.432h97.052
		c4.659,0,8.432-3.772,8.432-8.432V28.431C133.915,23.773,130.143,20,125.483,20z"/>
	<path fill="#FFFFFF" d="M66.264,48.17c0-4.178,3.353-7.53,7.529-7.53c4.176,0,7.529,3.352,7.529,7.53
		c0,4.178-3.353,7.529-7.529,7.529C69.617,55.699,66.264,52.348,66.264,48.17z M92.614,82.049
		c-0.035-5.044-3.125-9.448-7.527-11.294c0-6.249-5.044-11.292-11.293-11.292S62.5,64.506,62.5,70.755v26.351h7.529v18.822h11.293
		V97.106h11.292V82.049z"/>
</g>
<circle fill="#FBBC05" cx="133.875" cy="133.875" r="49.625"/>
<g>
	<rect x="113.475" y="121.164" fill="#FFFFFF" width="43.047" height="8.314"/>
	<rect x="113.475" y="138.329" fill="#FFFFFF" width="43.047" height="8.315"/>
</g>
</svg>
