<?xml version="1.0" encoding="utf-8"?>
<!-- Generator: Adobe Illustrator 16.0.0, SVG Export Plug-In . SVG Version: 6.00 Build 0)  -->
<!DOCTYPE svg PUBLIC "-//W3C//DTD SVG 1.1//EN" "http://www.w3.org/Graphics/SVG/1.1/DTD/svg11.dtd">
<svg version="1.1" id="图层_3" xmlns="http://www.w3.org/2000/svg" xmlns:xlink="http://www.w3.org/1999/xlink" x="0px" y="0px"
	 width="192px" height="192px" viewBox="0 0 192 192" enable-background="new 0 0 192 192" xml:space="preserve">
<path fill="#4285F4" d="M160.75,20H31.25C25.034,20,20,25.035,20,31.25v129.5c0,6.216,5.034,11.25,11.25,11.25h129.5
	c6.216,0,11.25-5.034,11.25-11.25V31.25C172,25.035,166.966,20,160.75,20z"/>
<path fill="#FFFFFF" d="M72.623,70.677c12.1,0,18.24,5.198,18.24,15.717c0,10.518-6.14,15.776-18.3,15.776h-17.48v23.227h-4.683
	v-54.72H72.623z M55.082,98.006h17.237c4.742,0,8.208-1.003,10.488-2.919c2.158-1.914,3.283-4.832,3.283-8.723
	c0-3.892-1.155-6.749-3.283-8.574c-2.311-2.006-5.837-2.978-10.488-2.978H55.082V98.006z M98.979,70.677l18.302,49.704h0.243
	l18.3-49.704h5.199l-20.611,54.689h-5.989L93.75,70.677H98.979L98.979,70.677z"/>
</svg>
