<?xml version="1.0" encoding="utf-8"?>
<!-- Generator: Adobe Illustrator 16.0.0, SVG Export Plug-In . SVG Version: 6.00 Build 0)  -->
<!DOCTYPE svg PUBLIC "-//W3C//DTD SVG 1.1//EN" "http://www.w3.org/Graphics/SVG/1.1/DTD/svg11.dtd">
<svg version="1.1" id="图层_3" xmlns="http://www.w3.org/2000/svg" xmlns:xlink="http://www.w3.org/1999/xlink" x="0px" y="0px"
	 width="192px" height="192px" viewBox="0 0 192 192" enable-background="new 0 0 192 192" xml:space="preserve">
<line fill="none" x1="17.705" y1="74.155" x2="177.174" y2="74.155"/>
<path fill="#FFFFFF" d="M138.438,90.455l-0.399-0.443L138.438,90.455z"/>
<path fill="#FFFFFF" d="M104.377,52.686l-0.399-0.443L104.377,52.686z"/>
<path fill="#4285F4" d="M30.857,30.857h32.571V20H20v43.429h10.857V30.857L30.857,30.857z M128.572,20v10.857h32.57v32.572H172V20
	H128.572z M30.857,128.571H20V172h43.428v-10.857H30.857V128.571z M161.143,161.143h-32.57V172H172v-43.429h-10.857V161.143z
	 M30.857,106.857h130.287V85.143H30.857V106.857z"/>
</svg>
