<?xml version="1.0" encoding="utf-8"?>
<!-- Generator: Adobe Illustrator 16.0.0, SVG Export Plug-In . SVG Version: 6.00 Build 0)  -->
<!DOCTYPE svg PUBLIC "-//W3C//DTD SVG 1.1//EN" "http://www.w3.org/Graphics/SVG/1.1/DTD/svg11.dtd">
<svg version="1.1" id="图层_3" xmlns="http://www.w3.org/2000/svg" xmlns:xlink="http://www.w3.org/1999/xlink" x="0px" y="0px"
	 width="192px" height="192px" viewBox="0 0 192 192" enable-background="new 0 0 192 192" xml:space="preserve">
<path fill="none" d="M107,81h24v24h-24V81z"/>
<path fill="none" d="M24,8.667h89.667v89.667H24V8.667z"/>
<path fill="#34A853" d="M79.75,90.583c0-5.985,4.818-10.833,10.833-10.833h70.413c5.986,0,10.834,4.821,10.834,10.833v70.413
	c0,5.986-4.818,10.834-10.834,10.834H90.583c-5.985,0-10.833-4.822-10.833-10.834V90.583z"/>
<path fill="#4285F4" d="M20.17,31.003c0-5.985,4.818-10.833,10.833-10.833h70.413c5.986,0,10.834,4.821,10.834,10.833v70.413
	c0,5.986-4.818,10.834-10.834,10.834H31.003c-5.985,0-10.833-4.822-10.833-10.834V31.003z"/>
<g>
	<path fill="#FFFFFF" d="M127.533,110.855c1.365,0,2.629,0.124,3.794,0.372c1.164,0.25,2.317,0.615,3.458,1.098l-1.254,5.156
		c-1.092-0.37-2.071-0.647-2.938-0.831c-0.868-0.185-1.872-0.277-3.013-0.277c-2.056,0-3.715,0.786-4.976,2.361
		c-1.262,1.574-1.891,3.768-1.891,6.578v1.132c0.931-0.915,2.044-1.627,3.336-2.132c1.293-0.506,2.735-0.76,4.325-0.76
		c3.004,0,5.35,1.065,7.037,3.192c1.686,2.13,2.529,4.904,2.529,8.326c0,3.518-1.092,6.377-3.276,8.577
		c-2.186,2.201-5.037,3.302-8.555,3.302c-3.662,0-6.646-1.253-8.951-3.76c-2.305-2.506-3.458-5.935-3.458-10.288v-7.35
		c0-4.449,1.305-8.011,3.915-10.687C120.228,112.192,123.533,110.855,127.533,110.855z M126.038,128.878
		c-1.269,0-2.35,0.206-3.241,0.615c-0.891,0.409-1.586,0.976-2.083,1.698v1.88c0,2.698,0.493,4.786,1.481,6.265
		c0.987,1.479,2.293,2.216,3.915,2.216c1.462,0,2.626-0.613,3.494-1.843c0.867-1.229,1.301-2.775,1.301-4.638
		c0-1.929-0.438-3.442-1.313-4.542C128.717,129.429,127.533,128.878,126.038,128.878z"/>
</g>
<g>
	<path fill="#FFFFFF" d="M59.998,72.537l0.386,1.714h0.128l0.364-1.65l6.792-22.796h6.599L63.662,81h-6.428L46.65,49.805h6.599
		L59.998,72.537z"/>
	<path fill="#FFFFFF" d="M83.973,81h-6.256V49.805h6.256V81z"/>
</g>
</svg>
