<?xml version="1.0" encoding="utf-8"?>
<!-- Generator: Adobe Illustrator 16.0.0, SVG Export Plug-In . SVG Version: 6.00 Build 0)  -->
<!DOCTYPE svg PUBLIC "-//W3C//DTD SVG 1.1//EN" "http://www.w3.org/Graphics/SVG/1.1/DTD/svg11.dtd">
<svg version="1.1" id="图层_3" xmlns="http://www.w3.org/2000/svg" xmlns:xlink="http://www.w3.org/1999/xlink" x="0px" y="0px"
	 width="192px" height="192px" viewBox="0 0 192 192" enable-background="new 0 0 192 192" xml:space="preserve">
<path fill="#4E4E4E" d="M169.853,63.628L62.549,170.934L19.9,128.28l107.299-107.3L169.853,63.628L169.853,63.628z M163.521,63.629
	l-36.321-36.317L26.229,128.28l36.32,36.322l10.089-10.089L61.493,143.37l3.166-3.165l11.143,11.143l9.747-9.744l-22.524-22.524
	l3.164-3.165l22.523,22.523l9.745-9.742L87.314,117.55l3.166-3.165l11.144,11.145l9.747-9.747L88.842,93.261l3.166-3.167
	l22.529,22.522l9.741-9.743l-11.142-11.14l3.165-3.167l11.142,11.142l9.747-9.747l-22.524-22.521l3.166-3.166l22.524,22.523
	l9.744-9.744l-11.145-11.144l3.165-3.164l11.146,11.141L163.521,63.629L163.521,63.629z"/>
</svg>
