<?xml version="1.0" encoding="utf-8"?>
<!-- Generator: Adobe Illustrator 16.0.0, SVG Export Plug-In . SVG Version: 6.00 Build 0)  -->
<!DOCTYPE svg PUBLIC "-//W3C//DTD SVG 1.1//EN" "http://www.w3.org/Graphics/SVG/1.1/DTD/svg11.dtd">
<svg version="1.1" id="图层_3" xmlns="http://www.w3.org/2000/svg" xmlns:xlink="http://www.w3.org/1999/xlink" x="0px" y="0px"
	 width="192px" height="192px" viewBox="0 0 192 192" enable-background="new 0 0 192 192" xml:space="preserve">
<circle fill="#FFFFFF" cx="75.166" cy="78.833" r="47.5"/>
<path fill="#4285F3" d="M129.41,115.695h-6.872l-2.439-2.346c8.53-9.922,13.661-22.798,13.661-36.803
	C133.76,45.317,108.443,20,77.212,20c-31.23,0-56.546,25.317-56.546,56.546c0,31.23,25.316,56.548,56.546,56.548
	c14.002,0,26.881-5.131,36.803-13.661l2.346,2.438v6.873l43.499,43.413l12.962-12.964L129.41,115.695z M77.212,115.695
	c-21.664,0-39.147-17.483-39.147-39.149c0-21.664,17.483-39.147,39.147-39.147c21.666,0,39.149,17.483,39.149,39.147
	C116.361,98.212,98.878,115.695,77.212,115.695z"/>
<g>
	<path fill="#EA4335" d="M60.976,82.002c0-0.952-0.332-1.716-0.995-2.294c-0.662-0.578-1.827-1.122-3.492-1.631
		c-2.855-0.861-5.022-1.875-6.501-3.042c-1.479-1.167-2.218-2.759-2.218-4.776c0-2.028,0.833-3.685,2.498-4.971
		c1.665-1.286,3.79-1.929,6.374-1.929c2.742,0,4.948,0.691,6.62,2.073c1.671,1.383,2.479,3.196,2.422,5.439l-0.034,0.102H60.84
		c0-1.235-0.375-2.184-1.122-2.847c-0.748-0.663-1.796-0.994-3.144-0.994c-1.224,0-2.17,0.295-2.838,0.884
		c-0.669,0.589-1.002,1.343-1.002,2.26c0,0.839,0.362,1.527,1.087,2.065c0.725,0.538,1.977,1.107,3.756,1.708
		c2.719,0.771,4.793,1.776,6.221,3.017c1.428,1.241,2.142,2.875,2.142,4.903c0,2.119-0.827,3.79-2.482,5.014
		c-1.654,1.224-3.841,1.835-6.561,1.835c-2.662,0-4.948-0.662-6.857-1.988s-2.836-3.303-2.779-5.932l0.034-0.103h4.811
		c0,1.461,0.43,2.539,1.291,3.229c0.861,0.691,2.028,1.037,3.501,1.037c1.326,0,2.337-0.277,3.034-0.833
		C60.626,83.673,60.976,82.931,60.976,82.002z"/>
	<path fill="#EA4335" d="M83.733,77.583h-9.178v7.07h10.911v3.807H69.593V63.714h15.84v3.824H74.556v6.221h9.178V77.583z"/>
	<path fill="#EA4335" d="M108.973,78.314c0,3.048-0.958,5.56-2.872,7.537c-1.916,1.979-4.408,2.966-7.479,2.966
		c-3.06,0-5.54-0.991-7.444-2.974c-1.903-1.982-2.855-4.492-2.855-7.529v-4.453c0-3.025,0.949-5.532,2.847-7.52
		c1.898-1.989,4.371-2.983,7.419-2.983c3.071,0,5.57,0.994,7.496,2.983c1.927,1.988,2.89,4.495,2.89,7.52V78.314z M104.026,73.827
		c0-1.926-0.482-3.507-1.445-4.742c-0.963-1.235-2.293-1.852-3.994-1.852c-1.677,0-2.982,0.617-3.917,1.852
		c-0.935,1.235-1.402,2.816-1.402,4.742v4.487c0,1.96,0.47,3.558,1.41,4.793s2.255,1.852,3.943,1.852c1.7,0,3.026-0.617,3.978-1.852
		c0.952-1.235,1.428-2.833,1.428-4.793V73.827z"/>
</g>
</svg>
