<?xml version="1.0" encoding="utf-8"?>
<!-- Generator: Adobe Illustrator 16.0.0, SVG Export Plug-In . SVG Version: 6.00 Build 0)  -->
<!DOCTYPE svg PUBLIC "-//W3C//DTD SVG 1.1//EN" "http://www.w3.org/Graphics/SVG/1.1/DTD/svg11.dtd">
<svg version="1.1" id="图层_3" xmlns="http://www.w3.org/2000/svg" xmlns:xlink="http://www.w3.org/1999/xlink" x="0px" y="0px"
	 width="192px" height="192px" viewBox="0 0 192 192" enable-background="new 0 0 192 192" xml:space="preserve">
<circle fill="#FBBC05" cx="122.375" cy="122.375" r="49.625"/>
<circle fill="#4285F4" cx="69.625" cy="69.445" r="49.625"/>
<path fill="#FFFFFF" d="M45,91.195h18v-6H45V91.195z M45,55.195v6h54v-6H45z M45,76.195h36v-6H45V76.195z"/>
<path fill="#FFFFFF" d="M121.064,119.845c-0.888,1.36-1.9,3.379-3.039,6.056c-0.325-0.666-0.6-1.202-0.821-1.608
	c-0.222-0.407-0.521-0.877-0.897-1.408c-0.378-0.533-0.754-0.951-1.133-1.255c-0.377-0.303-0.844-0.562-1.397-0.775
	s-1.156-0.321-1.807-0.321H107c-0.207,0-0.376-0.066-0.51-0.201c-0.133-0.134-0.2-0.303-0.2-0.51v-4.26
	c0-0.208,0.067-0.377,0.2-0.511c0.134-0.133,0.303-0.2,0.51-0.2h4.97c3.696,0,6.729,1.664,9.095,4.992V119.845z M146.04,137.568
	c0,0.207-0.066,0.377-0.2,0.511l-7.097,7.098c-0.134,0.134-0.304,0.2-0.512,0.2c-0.191,0-0.357-0.07-0.499-0.212
	c-0.141-0.14-0.211-0.307-0.211-0.499v-4.259c-0.473,0-1.102,0.004-1.885,0.011c-0.785,0.007-1.383,0.015-1.797,0.022
	c-0.413,0.008-0.954,0-1.62-0.022s-1.191-0.06-1.575-0.11c-0.384-0.052-0.856-0.129-1.419-0.233
	c-0.563-0.104-1.029-0.241-1.397-0.41c-0.369-0.169-0.798-0.38-1.287-0.633c-0.49-0.253-0.927-0.548-1.31-0.886
	c-0.384-0.339-0.79-0.735-1.221-1.188c-0.429-0.451-0.843-0.966-1.241-1.541c0.873-1.375,1.879-3.395,3.018-6.056
	c0.324,0.665,0.599,1.201,0.821,1.608c0.221,0.407,0.521,0.876,0.896,1.409c0.378,0.532,0.755,0.949,1.133,1.253
	c0.378,0.303,0.843,0.562,1.396,0.777c0.555,0.214,1.157,0.321,1.809,0.321h5.678v-4.26c0-0.207,0.066-0.377,0.2-0.511
	c0.133-0.134,0.303-0.2,0.511-0.2c0.177,0,0.354,0.074,0.532,0.222l7.076,7.076C145.973,137.191,146.039,137.361,146.04,137.568
	L146.04,137.568z M146.04,117.693c0,0.207-0.066,0.377-0.2,0.511l-7.097,7.098c-0.134,0.133-0.304,0.199-0.512,0.199
	c-0.191,0-0.357-0.069-0.499-0.211c-0.141-0.141-0.211-0.307-0.211-0.499v-4.259h-5.678c-0.71,0-1.354,0.11-1.932,0.333
	c-0.576,0.222-1.086,0.555-1.529,0.998s-0.82,0.899-1.131,1.364c-0.313,0.465-0.645,1.038-0.999,1.72
	c-0.474,0.916-1.05,2.181-1.731,3.793c-0.429,0.977-0.795,1.797-1.099,2.462c-0.303,0.665-0.701,1.441-1.197,2.329
	c-0.494,0.888-0.968,1.627-1.42,2.219c-0.451,0.592-0.998,1.205-1.64,1.841c-0.643,0.636-1.309,1.143-1.996,1.519
	c-0.688,0.378-1.477,0.688-2.362,0.933c-0.888,0.243-1.835,0.365-2.841,0.365h-4.968c-0.208,0-0.378-0.066-0.511-0.199
	c-0.134-0.133-0.2-0.304-0.2-0.511v-4.259c0-0.207,0.066-0.378,0.2-0.511c0.133-0.134,0.303-0.2,0.511-0.2h4.968
	c0.709,0,1.354-0.11,1.931-0.333c0.577-0.222,1.087-0.555,1.53-0.998c0.443-0.444,0.82-0.899,1.132-1.364
	c0.311-0.465,0.645-1.038,0.999-1.72c0.473-0.917,1.05-2.182,1.729-3.794c0.43-0.976,0.796-1.797,1.099-2.462
	c0.304-0.664,0.702-1.441,1.197-2.329s0.969-1.627,1.42-2.218c0.452-0.592,0.998-1.205,1.641-1.842
	c0.644-0.636,1.308-1.143,1.996-1.519c0.689-0.377,1.477-0.688,2.363-0.932c0.887-0.245,1.833-0.367,2.84-0.367h5.678v-4.259
	c0-0.207,0.067-0.377,0.2-0.511s0.303-0.2,0.51-0.2c0.178,0,0.355,0.073,0.533,0.222l7.075,7.076c0.134,0.134,0.2,0.304,0.2,0.511
	V117.693z"/>
</svg>
