<?xml version="1.0" encoding="utf-8"?>
<!-- Generator: Adobe Illustrator 16.0.0, SVG Export Plug-In . SVG Version: 6.00 Build 0)  -->
<!DOCTYPE svg PUBLIC "-//W3C//DTD SVG 1.1//EN" "http://www.w3.org/Graphics/SVG/1.1/DTD/svg11.dtd">
<svg version="1.1" id="图层_3" xmlns="http://www.w3.org/2000/svg" xmlns:xlink="http://www.w3.org/1999/xlink" x="0px" y="0px"
	 width="192px" height="192px" viewBox="0 0 192 192" enable-background="new 0 0 192 192" xml:space="preserve">
<line fill="none" x1="17.705" y1="74.155" x2="177.174" y2="74.155"/>
<path fill="#FFFFFF" d="M138.438,90.455l-0.399-0.443L138.438,90.455z"/>
<path fill="#FFFFFF" d="M104.377,52.686l-0.399-0.443L104.377,52.686z"/>
<path fill="#FBBC05" d="M96,138.995l46.946,28.339l-12.457-53.405L171.966,78l-54.615-4.636L96,23l-21.35,50.365L20.035,78
	l41.477,35.928l-12.455,53.405L96,138.995z"/>
<g>
	<path fill="#FFFFFF" d="M90.53,114.244h-3.85v-15.9h-3.981v-2.949l7.831-0.688V114.244z"/>
	<path fill="#FFFFFF" d="M110.016,114.244H97.092v-2.526l5.966-6.747c0.891-1.049,1.523-1.938,1.898-2.665s0.562-1.396,0.562-2.004
		c0-0.794-0.198-1.429-0.595-1.905c-0.396-0.476-0.992-0.714-1.786-0.714c-0.838,0-1.486,0.305-1.944,0.913
		c-0.459,0.608-0.688,1.38-0.688,2.314h-3.757l-0.026-0.079c-0.045-1.711,0.52-3.159,1.692-4.346
		c1.173-1.186,2.747-1.779,4.723-1.779s3.51,0.505,4.604,1.514c1.094,1.01,1.641,2.366,1.641,4.067c0,1.155-0.307,2.209-0.92,3.162
		c-0.612,0.952-1.669,2.271-3.168,3.955l-3.175,3.81l0.026,0.066h7.871V114.244z"/>
</g>
</svg>
