<?xml version="1.0" encoding="utf-8"?>
<!-- Generator: Adobe Illustrator 16.0.0, SVG Export Plug-In . SVG Version: 6.00 Build 0)  -->
<!DOCTYPE svg PUBLIC "-//W3C//DTD SVG 1.1//EN" "http://www.w3.org/Graphics/SVG/1.1/DTD/svg11.dtd">
<svg version="1.1" id="图层_3" xmlns="http://www.w3.org/2000/svg" xmlns:xlink="http://www.w3.org/1999/xlink" x="0px" y="0px"
	 width="192px" height="192px" viewBox="0 0 192 192" enable-background="new 0 0 192 192" xml:space="preserve">
<path fill="#4E4E4E" d="M153.175,20H37.64c-10.109,0-18.052,7.943-18.052,18.052v116.257c0,10.11,7.943,18.053,18.052,18.053
	h115.535c10.109,0,18.053-7.942,18.053-18.053V38.774C171.228,27.943,163.284,20,153.175,20z M75.189,27.221h41.158V68.38H75.189
	V27.221z M67.968,164.419H37.64c-5.776,0-10.831-5.056-10.831-10.833v-30.328h41.159V164.419L67.968,164.419z M67.968,116.037H26.81
	V74.879h41.159V116.037L67.968,116.037z M67.968,68.38H26.81V38.052c0-5.776,5.054-10.831,10.831-10.831h30.328V68.38L67.968,68.38z
	 M164.007,153.586c0,5.777-5.055,10.833-10.832,10.833H75.189V75.602h88.817V153.586z M164.007,68.38h-41.159V27.221h30.327
	c5.777,0,10.832,5.054,10.832,10.831V68.38z"/>
<g>
	<path fill="#FBBC05" d="M119.754,140.743c2.738,0,4.982-1.032,6.732-3.1c1.749-2.066,2.624-4.95,2.624-8.652v-3.576
		c-1.243,1.598-2.714,2.803-4.412,3.614s-3.524,1.217-5.477,1.217c-5.148,0-9.185-1.674-12.114-5.021
		c-2.929-3.348-4.393-7.898-4.393-13.654c0-5.553,1.737-10.155,5.211-13.807s7.911-5.477,13.312-5.477
		c5.578,0,10.13,1.877,13.654,5.629c3.523,3.753,5.287,8.951,5.287,15.595v14.908c0,6.391-1.921,11.462-5.763,15.214
		c-3.841,3.754-8.729,5.629-14.662,5.629c-1.927,0-3.911-0.208-5.952-0.627s-3.962-1.008-5.763-1.769l1.864-8.025
		c1.598,0.659,3.156,1.141,4.678,1.445C116.103,140.591,117.827,140.743,119.754,140.743z M121.086,122.107
		c1.8,0,3.385-0.367,4.753-1.104c1.369-0.734,2.46-1.724,3.271-2.967v-6.466c0-3.473-0.71-6.129-2.13-7.968
		s-3.322-2.758-5.705-2.758c-2.231,0-4.032,1.033-5.4,3.1c-1.369,2.067-2.055,4.609-2.055,7.626c0,3.171,0.622,5.719,1.863,7.646
		C116.927,121.144,118.727,122.107,121.086,122.107z"/>
</g>
</svg>
