<?xml version="1.0" encoding="utf-8"?>
<!-- Generator: Adobe Illustrator 16.0.0, SVG Export Plug-In . SVG Version: 6.00 Build 0)  -->
<!DOCTYPE svg PUBLIC "-//W3C//DTD SVG 1.1//EN" "http://www.w3.org/Graphics/SVG/1.1/DTD/svg11.dtd">
<svg version="1.1" id="图层_3" xmlns="http://www.w3.org/2000/svg" xmlns:xlink="http://www.w3.org/1999/xlink" x="0px" y="0px"
	 width="192px" height="192px" viewBox="0 0 192 192" enable-background="new 0 0 192 192" xml:space="preserve">
<path fill="none" d="M107,81h24v24h-24V81z"/>
<path fill="none" d="M24,8.667h89.667v89.667H24V8.667z"/>
<rect x="121" y="72" fill="none" width="74.5" height="74.5"/>
<path fill="#4285F4" d="M125.175,20.584H28.407c-4.645,0-8.407,3.763-8.407,8.406v96.769c0,4.646,3.762,8.407,8.406,8.407h96.768
	c4.646,0,8.407-3.762,8.407-8.407V28.99C133.582,24.347,129.82,20.584,125.175,20.584z"/>
<circle fill="#34A853" cx="133.875" cy="134.459" r="49.625"/>
<path fill="#FFFFFF" d="M120.874,131.403l-12.192,12.223l12.192,12.223v-9.166h21.419v-6.111h-21.419V131.403z M163.682,125.293
	L151.49,113.07v9.167h-21.42v6.109h21.419v9.168L163.682,125.293z"/>
<path fill="#FFFFFF" d="M80.003,86.564V66.581c0-1.786-1.46-3.247-3.25-3.247c-1.786,0-3.247,1.461-3.247,3.247v19.983
	c-3.738,1.299-6.498,4.874-6.498,9.259c0,5.362,4.386,9.749,9.745,9.749c5.363,0,9.749-4.387,9.749-9.749
	C86.502,91.601,83.741,88.027,80.003,86.564z M86.502,82.828V50.336c0-5.361-4.386-9.748-9.749-9.748
	c-5.359,0-9.745,4.386-9.745,9.748v32.492c-3.899,2.924-6.499,7.636-6.499,12.995c0,8.936,7.311,16.247,16.244,16.247
	c8.936,0,16.247-7.312,16.247-16.247C93,90.464,90.401,85.752,86.502,82.828z M76.753,108.82c-7.146,0-12.995-5.849-12.995-12.997
	c0-4.873,2.599-8.933,6.498-11.208V50.336c0-3.575,2.924-6.499,6.497-6.499c3.576,0,6.5,2.924,6.5,6.499v34.279
	c3.899,2.275,6.498,6.498,6.498,11.208C89.75,102.972,83.902,108.82,76.753,108.82z"/>
</svg>
