<?xml version="1.0" encoding="utf-8"?>
<!-- Generator: Adobe Illustrator 16.0.0, SVG Export Plug-In . SVG Version: 6.00 Build 0)  -->
<!DOCTYPE svg PUBLIC "-//W3C//DTD SVG 1.1//EN" "http://www.w3.org/Graphics/SVG/1.1/DTD/svg11.dtd">
<svg version="1.1" id="图层_3" xmlns="http://www.w3.org/2000/svg" xmlns:xlink="http://www.w3.org/1999/xlink" x="0px" y="0px"
	 width="192px" height="192px" viewBox="0 0 192 192" enable-background="new 0 0 192 192" xml:space="preserve">
<path fill="#4285F4" d="M125.174,20H28.407C23.762,20,20,23.763,20,28.406v96.769c0,4.646,3.762,8.407,8.406,8.407h96.768
	c4.646,0,8.406-3.763,8.406-8.407V28.406C133.582,23.763,129.82,20,125.174,20z"/>
<circle fill="#34A853" cx="133.875" cy="133.875" r="49.625"/>
<polygon fill="#FFFFFF" points="55.719,50.709 55.719,60.449 71.939,60.449 71.939,99.333 81.641,99.333 81.641,60.449 
	97.861,60.449 97.861,50.709 "/>
<path fill="#FFFFFF" d="M128.723,154.488h10.307v-41.226h-10.307V154.488z M113.263,154.488h10.307v-20.612h-10.307V154.488z
	 M144.182,126.146v28.343h10.307v-28.343H144.182z"/>
</svg>
