<?xml version="1.0" encoding="utf-8"?>
<!-- Generator: Adobe Illustrator 16.0.0, SVG Export Plug-In . SVG Version: 6.00 Build 0)  -->
<!DOCTYPE svg PUBLIC "-//W3C//DTD SVG 1.1//EN" "http://www.w3.org/Graphics/SVG/1.1/DTD/svg11.dtd">
<svg version="1.1" id="图层_3" xmlns="http://www.w3.org/2000/svg" xmlns:xlink="http://www.w3.org/1999/xlink" x="0px" y="0px"
	 width="192px" height="192px" viewBox="0 0 192 192" enable-background="new 0 0 192 192" xml:space="preserve">
<path fill="#EA4335" d="M160.75,20H31.25C25.034,20,20,25.035,20,31.25v129.5c0,6.216,5.034,11.25,11.25,11.25h129.5
	c6.216,0,11.25-5.034,11.25-11.25V31.25C172,25.035,166.966,20,160.75,20z"/>
<path fill="#FFFFFF" d="M79.198,78.786c0,3.523-2.391,5.789-5.664,5.789c-3.146,0-5.538-2.266-5.538-5.789
	c0-3.146,2.391-5.664,5.538-5.664C77.058,73.122,79.198,76.017,79.198,78.786z M68.123,120.568c0-3.146,2.391-5.789,5.538-5.789
	c3.272,0,5.663,2.643,5.663,5.789c0,3.398-2.391,5.664-5.663,5.664C70.136,126.107,68.123,123.715,68.123,120.568z"/>
<path fill="#FFFFFF" d="M97.069,43.393c18.753,11.704,26.934,30.96,26.934,52.734c0,21.52-8.181,40.775-26.934,52.48l-1.384-1.889
	c13.844-10.318,20.766-29.953,20.766-50.592c0-20.767-6.922-40.4-20.766-50.846L97.069,43.393z"/>
</svg>
