<?xml version="1.0" encoding="utf-8"?>
<!-- Generator: Adobe Illustrator 16.0.0, SVG Export Plug-In . SVG Version: 6.00 Build 0)  -->
<!DOCTYPE svg PUBLIC "-//W3C//DTD SVG 1.1//EN" "http://www.w3.org/Graphics/SVG/1.1/DTD/svg11.dtd">
<svg version="1.1" id="图层_3" xmlns="http://www.w3.org/2000/svg" xmlns:xlink="http://www.w3.org/1999/xlink" x="0px" y="0px"
	 width="192px" height="192px" viewBox="0 0 192 192" enable-background="new 0 0 192 192" xml:space="preserve">
<path fill="#4285F4" d="M125.174,20H28.407C23.762,20,20,23.763,20,28.406v96.769c0,4.646,3.762,8.407,8.406,8.407h96.768
	c4.646,0,8.406-3.763,8.406-8.407V28.406C133.582,23.763,129.82,20,125.174,20z"/>
<circle fill="#34A853" cx="133.875" cy="133.875" r="49.625"/>
<polygon fill="#FFFFFF" points="55.719,50.709 55.719,60.449 71.939,60.449 71.939,99.333 81.641,99.333 81.641,60.449 
	97.861,60.449 97.861,50.709 "/>
<path fill="#FFFFFF" d="M130.696,113.632h-11.121c-2.446,0-4.448,2.001-4.448,4.448v31.139c0,2.445,2.002,4.449,4.448,4.449h11.121
	v4.448h4.448v-48.934h-4.448V113.632z M130.696,146.994h-11.121l11.121-13.345V146.994z M150.715,113.632h-11.121v4.448h11.121
	v28.914l-11.121-13.345v20.019h11.121c2.446,0,4.448-2.004,4.448-4.449V118.08C155.163,115.633,153.161,113.632,150.715,113.632z"/>
</svg>
