<?xml version="1.0" encoding="utf-8"?>
<!-- Generator: Adobe Illustrator 16.0.0, SVG Export Plug-In . SVG Version: 6.00 Build 0)  -->
<!DOCTYPE svg PUBLIC "-//W3C//DTD SVG 1.1//EN" "http://www.w3.org/Graphics/SVG/1.1/DTD/svg11.dtd">
<svg version="1.1" id="图层_3" xmlns="http://www.w3.org/2000/svg" xmlns:xlink="http://www.w3.org/1999/xlink" x="0px" y="0px"
	 width="192px" height="192px" viewBox="0 0 192 192" enable-background="new 0 0 192 192" xml:space="preserve">
<path fill="#34A853" d="M79.75,90.583c0-5.985,4.818-10.833,10.833-10.833h70.413c5.986,0,10.834,4.821,10.834,10.833v70.413
	c0,5.986-4.818,10.834-10.834,10.834H90.583c-5.985,0-10.833-4.822-10.833-10.834V90.583z"/>
<path fill="#FFFFFF" d="M134.597,106h-11.144l-15.876,43.857h9.009l-0.007-0.005l3.321-9.248h17.306l3.319,9.248h9.479L134.597,106z
	 M122.274,133.256l6.399-18.723h0.238l5.921,18.723H122.274z"/>
<path fill="#4285F4" d="M20.17,31.003c0-5.985,4.818-10.833,10.833-10.833h70.413c5.986,0,10.834,4.821,10.834,10.833v70.413
	c0,5.986-4.818,10.834-10.834,10.834H31.003c-5.985,0-10.833-4.822-10.833-10.834V31.003z"/>
<path fill="#FFFFFF" d="M66.21,75.228c4.646,0,8.394-3.775,8.394-8.421l0.027-16.842c0-4.659-3.761-8.421-8.421-8.421
	c-4.646,0-8.421,3.762-8.421,8.421v16.842C57.789,71.453,61.563,75.228,66.21,75.228z M81.086,66.807
	c0,8.421-7.116,14.316-14.876,14.316c-7.747,0-14.876-5.895-14.876-14.316h-4.772c0,9.586,7.634,17.501,16.842,18.862v9.208h5.614
	v-9.208c9.208-1.361,16.842-9.276,16.842-18.862H81.086z"/>
</svg>
