<?xml version="1.0" encoding="utf-8"?>
<!-- Generator: Adobe Illustrator 19.0.0, SVG Export Plug-In . SVG Version: 6.00 Build 0)  -->
<svg version="1.1" id="Layer_1" xmlns="http://www.w3.org/2000/svg" xmlns:xlink="http://www.w3.org/1999/xlink" x="0px" y="0px"
	 viewBox="0 0 500 500" style="enable-background:new 0 0 500 500;" xml:space="preserve">
<style type="text/css">
	.st0{fill:#849AA5;}
	.st1{fill:#6A8692;}
	.st2{fill:#FBBC05;}
	.st3{fill:#4C6067;}
	.st4{fill:#FFFFFF;}
</style>
<rect x="0" y="0" class="st0" width="250" height="250"/>
<rect x="250" y="0" class="st1" width="250" height="250"/>
<rect x="250" y="250" class="st2" width="250" height="250"/>
<rect x="0" y="250" class="st3" width="250" height="250"/>
<path class="st4" d="M423.6,121.3h-38.1V83.2c0-4.3-3.6-7.9-7.9-7.9s-7.9,3.6-7.9,7.9v38.1h-38.1c-4.3,0-7.9,3.6-7.9,7.9
	c0,4.3,3.6,7.9,7.9,7.9h38.1v38.1c0,4.3,3.6,7.9,7.9,7.9s7.9-3.6,7.9-7.9v-38.1h38.1c4.3,0,7.9-3.6,7.9-7.9
	C431.5,124.9,427.9,121.3,423.6,121.3L423.6,121.3z"/>
<g>
	<path class="st4" d="M421.1,392.4H329c-4.3,0-7.9,3.6-7.9,7.9c0,4.3,3.6,7.9,7.9,7.9h92.1c4.3,0,7.9-3.6,7.9-7.9
		C429,395.9,425.4,392.4,421.1,392.4L421.1,392.4z"/>
	<path class="st4" d="M421.1,349H329c-4.3,0-7.9,3.6-7.9,7.9s3.6,7.9,7.9,7.9h92.1c4.3,0,7.9-3.6,7.9-7.9
		C429,352.6,425.4,349,421.1,349L421.1,349z"/>
</g>
<g>
	<path class="st2" d="M94.6,125c0,18.1,14.7,32.7,32.7,32.7S160,143.1,160,125s-14.7-32.7-32.7-32.7S94.6,106.9,94.6,125z"/>
	<path class="st2" d="M92.4,97.7c2.2,2.2,5.5,2.2,7.6,0c2.2-2.2,2.2-5.5,0-7.6L92.9,83c-2.2-2.2-5.5-2.2-7.6,0s-2.2,5.5,0,7.6
		C85.3,90.6,92.4,97.7,92.4,97.7z M127.3,86.3c3.3,0,5.5-2.2,5.5-5.5V70.5c0-3.3-2.2-5.5-5.5-5.5c-3.3,0-5.5,2.2-5.5,5.5v10.4
		C121.8,84.1,124,86.3,127.3,86.3z M162.2,97.7l7.1-7.1c2.2-2.2,2.2-5.5,0-7.6c-2.2-2.2-5.5-2.2-7.6,0l-7.1,7.1
		c-2.2,2.2-2.2,5.5,0,7.6C156.7,99.9,160,99.9,162.2,97.7z M88.6,125c0-3.3-2.2-5.5-5.5-5.5H72.7c-3.3,0-5.5,2.2-5.5,5.5
		s2.2,5.5,5.5,5.5h10.4C86.4,130.5,88.6,128.3,88.6,125z M162.2,152.3c-2.2-2.2-5.5-2.2-7.6,0c-2.2,2.2-2.2,5.5,0,7.6l7.1,7.1
		c2.2,2.2,5.5,2.2,7.6,0c2.2-2.2,2.2-5.5,0-7.6L162.2,152.3z M92.4,152.3l-7.1,7.1c-2.2,2.2-2.2,5.5,0,7.6c2.2,2.2,5.5,2.2,7.6,0
		l7.1-7.1c2.2-2.2,2.2-5.5,0-7.6C97.8,150.1,94.6,150.1,92.4,152.3z M181.8,119.6h-10.4c-3.3,0-5.5,2.2-5.5,5.5s2.2,5.5,5.5,5.5
		h10.4c3.3,0,5.5-2.2,5.5-5.5C187.3,121.7,185.1,119.6,181.8,119.6z M127.3,163.7c-3.3,0-5.5,2.2-5.5,5.5v10.4
		c0,3.3,2.2,5.5,5.5,5.5s5.5-2.2,5.5-5.5v-10.4C132.7,165.9,130.6,163.7,127.3,163.7z"/>
</g>
<path class="st2" d="M119.6,323.4c0-3.2-2.6-5.9-5.9-5.9c-8.8,0-41,24.6-41,58.5c0,33.9,27.5,61.5,61.5,61.5
	c33.9,0,58.5-32.4,58.5-41c0-3.2-2.6-5.9-5.9-5.9c-3.2,0-35.3,7.9-55.3-12.1C111.5,358.6,119.6,326.6,119.6,323.4z"/>
</svg>
