<?xml version="1.0" encoding="utf-8"?>
<!-- Generator: Adobe Illustrator 16.0.0, SVG Export Plug-In . SVG Version: 6.00 Build 0)  -->
<!DOCTYPE svg PUBLIC "-//W3C//DTD SVG 1.1//EN" "http://www.w3.org/Graphics/SVG/1.1/DTD/svg11.dtd">
<svg version="1.1" id="图层_3" xmlns="http://www.w3.org/2000/svg" xmlns:xlink="http://www.w3.org/1999/xlink" x="0px" y="0px"
	 width="192px" height="192px" viewBox="0 0 192 192" enable-background="new 0 0 192 192" xml:space="preserve">
<path fill="#4285F4" d="M160.75,20H31.25C25.034,20,20,25.035,20,31.25v129.5c0,6.216,5.034,11.25,11.25,11.25h129.5
	c6.216,0,11.25-5.034,11.25-11.25V31.25C172,25.035,166.966,20,160.75,20z"/>
<path fill="#FFFFFF" d="M109.333,52.668H82.667v8.889h26.666V52.668z M91.556,110.445h8.889V83.779h-8.889V110.445z M127.241,81.071
	l6.315-6.315c-1.915-2.266-4.001-4.397-6.268-6.263l-6.311,6.311c-6.887-5.512-15.556-8.802-24.979-8.802
	c-22.089,0-39.999,17.912-39.999,39.998c0,22.088,17.866,40,39.999,40c22.136,0,40-17.912,40-40
	C136,96.579,132.71,87.911,127.241,81.071z M96,137.111c-17.2,0-31.11-13.909-31.11-31.111C64.89,88.801,78.8,74.891,96,74.891
	c17.199,0,31.109,13.91,31.109,31.109C127.109,123.202,113.199,137.111,96,137.111z"/>
</svg>
