<?xml version="1.0" encoding="utf-8"?>
<!-- Generator: Adobe Illustrator 16.0.0, SVG Export Plug-In . SVG Version: 6.00 Build 0)  -->
<!DOCTYPE svg PUBLIC "-//W3C//DTD SVG 1.1//EN" "http://www.w3.org/Graphics/SVG/1.1/DTD/svg11.dtd">
<svg version="1.1" id="图层_3" xmlns="http://www.w3.org/2000/svg" xmlns:xlink="http://www.w3.org/1999/xlink" x="0px" y="0px"
	 width="192px" height="192px" viewBox="0 0 192 192" enable-background="new 0 0 192 192" xml:space="preserve">
<path fill="#4285F4" d="M125.215,19.366H28.448c-4.645,0-8.407,3.763-8.407,8.406v96.769c0,4.646,3.762,8.407,8.406,8.407h96.768
	c4.646,0,8.406-3.762,8.406-8.407V27.772C133.623,23.129,129.861,19.366,125.215,19.366z"/>
<circle fill="#34A853" cx="133.916" cy="133.241" r="49.625"/>
<g>
	<path fill="#FFFFFF" d="M76.426,46.742c-16.401,0-29.684,13.313-29.684,29.713c0,16.401,13.283,29.713,29.684,29.713
		c16.43,0,29.742-13.313,29.742-29.713C106.168,60.054,92.855,46.742,76.426,46.742z M76.454,100.225
		c-13.133,0-23.771-10.637-23.771-23.77c0-13.133,10.638-23.771,23.771-23.771c13.133,0,23.771,10.638,23.771,23.771
		C100.225,89.587,89.587,100.225,76.454,100.225z"/>
	<path fill="#FFFFFF" d="M77.94,61.597h-4.457v17.827l15.599,9.362l2.228-3.656l-13.37-7.934V61.597z"/>
</g>
<path fill="#FFFFFF" d="M125.84,143.005l-10.506-10.508l-3.577,3.555l14.083,14.083l30.235-30.235l-3.553-3.552L125.84,143.005z"/>
</svg>
