<?xml version="1.0" encoding="utf-8"?>
<!-- Generator: Adobe Illustrator 16.0.0, SVG Export Plug-In . SVG Version: 6.00 Build 0)  -->
<!DOCTYPE svg PUBLIC "-//W3C//DTD SVG 1.1//EN" "http://www.w3.org/Graphics/SVG/1.1/DTD/svg11.dtd">
<svg version="1.1" id="图层_3" xmlns="http://www.w3.org/2000/svg" xmlns:xlink="http://www.w3.org/1999/xlink" x="0px" y="0px"
	 width="192px" height="192px" viewBox="0 0 192 192" enable-background="new 0 0 192 192" xml:space="preserve">
<path fill="#4285F4" d="M45.557,154.519c0,9.244,7.569,16.815,16.814,16.815h67.258c9.245,0,16.813-7.571,16.813-16.815V53.629
	H45.557V154.519z"/>
<polygon fill="#4285F4" points="125.425,28.407 117.019,20 74.981,20 66.574,28.407 37.149,28.407 37.149,45.222 154.852,45.222 
	154.852,28.407 "/>
<g>
	<path fill="#FFFFFF" d="M103.983,132.752c0,0,4.223,1.149,7.437-0.214l6.915-12.548c0,0-1.52,1.196-5.157,0.878
		c-3.637-0.319-7.696-0.959-7.696-0.959l-0.24-5.019l-7.947,10.174l4.912,11.729L103.983,132.752z"/>
	<path fill="#FFFFFF" d="M114.089,102.012l6.178,10.697c0,0,1.257,1.813-0.008,3.941l-1.791,3.088c0,0-1.75,0.902-4.387,0.946
		c-1.568,0.024-3.868-0.653-3.868-0.653l-6.824-11.821L114.089,102.012z"/>
	<path fill="#FFFFFF" d="M110.938,95.049c0,0-1.116-4.232-3.904-6.334l-14.323,0.286c0,0,1.795,0.717,3.337,4.026
		c1.542,3.309,3.02,7.145,3.02,7.145l-4.227,2.719l12.784,1.796l7.701-10.119L110.938,95.049z"/>
	<path fill="#FFFFFF" d="M79.263,101.667l6.177-10.697c0,0,0.942-1.996,3.417-1.965l3.57,0.007c0,0,1.657,1.064,3.012,3.326
		c0.807,1.347,1.368,3.676,1.368,3.676l-6.824,11.821L79.263,101.667z"/>
	<path fill="#FFFFFF" d="M74.709,108.271c0,0-3.107,3.081-3.533,6.548l7.409,12.261c0,0-0.276-1.913,1.818-4.903
		c2.095-2.99,4.679-6.187,4.679-6.187l4.466,2.301l-4.837-11.969l-12.612-1.61L74.709,108.271z"/>
	<path fill="#FFFFFF" d="M96.277,132.395H83.926c0,0-2.2,0.181-3.41-1.979l-1.778-3.094c0,0,0.093-1.968,1.374-4.271
		c0.763-1.372,2.5-3.022,2.5-3.022h13.649L96.277,132.395z"/>
</g>
</svg>
