<?xml version="1.0" encoding="utf-8"?>
<!-- Generator: Adobe Illustrator 16.0.0, SVG Export Plug-In . SVG Version: 6.00 Build 0)  -->
<!DOCTYPE svg PUBLIC "-//W3C//DTD SVG 1.1//EN" "http://www.w3.org/Graphics/SVG/1.1/DTD/svg11.dtd">
<svg version="1.1" id="图层_1" xmlns="http://www.w3.org/2000/svg" xmlns:xlink="http://www.w3.org/1999/xlink" x="0px" y="0px"
	 width="1024px" height="1024px" viewBox="0 0 1024 1024" enable-background="new 0 0 1024 1024" xml:space="preserve">
<path fill="#1296DB" d="M896,128H128c-46.934,0-85.333,38.4-85.333,85.333v597.333C42.667,857.6,81.066,896,128,896h768
	c46.934,0,85.333-38.4,85.333-85.333V213.333C981.333,166.4,942.934,128,896,128z M896,810.667H512v-256h384V810.667z"/>
<rect x="567" y="-490.646" fill="none" stroke="#FFFFFF" stroke-width="0" stroke-miterlimit="1" width="80" height="100"/>
<line fill="none" stroke="#FFFFFF" stroke-width="20" stroke-miterlimit="10" x1="697" y1="-490.646" x2="697" y2="-390.646"/>
<line fill="none" stroke="#FFFFFF" stroke-width="20" stroke-miterlimit="10" x1="667" y1="-480.646" x2="727" y2="-480.646"/>
<polyline fill="none" stroke="#FFFFFF" stroke-width="20" stroke-miterlimit="10" points="757,-470.646 757,-360.646 537,-360.646 
	537,-520.646 707,-520.646 "/>
<polygon fill="#FFFFFF" points="537,302.501 527,302.501 527,322.501 507,322.501 507,332.501 537,332.501 "/>
<polygon fill="#FFFFFF" points="547,322.501 547,302.501 537,302.501 537,332.501 567,332.501 567,322.501 "/>
<rect x="-2478" y="-1430.386" fill="none" width="4956" height="2608"/>
<rect x="-210.122" y="558.838" fill="none" stroke="#FFFFFF" stroke-width="0" stroke-miterlimit="1" width="80" height="100"/>
<path fill="none" stroke="#FFFFFF" stroke-width="20" stroke-miterlimit="10" d="M3116.879,910.538v91c0,10.492-8.508,19-19,19h-182
	c-10.494,0-19-8.508-19-19v-122c0-10.494,8.506-19,19-19h151"/>
<line fill="none" stroke="#FFFFFF" stroke-width="20" stroke-miterlimit="10" x1="2654.879" y1="220.578" x2="2714.879" y2="220.578"/>
<line fill="none" stroke="#FFFFFF" stroke-width="20" stroke-miterlimit="10" x1="2684.879" y1="190.578" x2="2684.879" y2="250.578"/>
<path fill="none" stroke="#FFFFFF" stroke-width="20" stroke-miterlimit="10" d="M2504.879,350.578v-85.994
	c0-3.935,5.182-5.369,7.205-1.995l44.115,73.523c2.438,4.064,8.68,2.335,8.68-2.404v-83.13"/>
<rect x="2494.879" y="250.579" fill="none" stroke="#FFFFFF" stroke-width="0" stroke-miterlimit="1" width="80" height="100"/>
<line fill="none" stroke="#FFFFFF" stroke-width="20" stroke-miterlimit="10" x1="2624.879" y1="250.578" x2="2624.879" y2="350.578"/>
<line fill="none" stroke="#FFFFFF" stroke-width="20" stroke-miterlimit="10" x1="2594.879" y1="260.578" x2="2654.879" y2="260.578"/>
<path fill="none" stroke="#FFFFFF" stroke-width="20" stroke-miterlimit="10" d="M2684.879,270.578v91c0,10.494-8.508,19-19,19h-182
	c-10.494,0-19-8.506-19-19v-122c0-10.493,8.506-19,19-19h151"/>
<line fill="none" stroke="#FFFFFF" stroke-width="20" stroke-miterlimit="10" x1="2290.879" y1="245.578" x2="2350.879" y2="245.578"/>
<line fill="none" stroke="#FFFFFF" stroke-width="20" stroke-miterlimit="10" x1="2320.879" y1="215.578" x2="2320.879" y2="275.578"/>
<rect x="-914.122" y="-664.162" fill="none" width="4956" height="2608"/>
<g>
	<polygon fill="none" stroke="#FFFFFF" stroke-miterlimit="10" points="537,302.501 527,302.501 527,322.501 507,322.501 
		507,332.501 537,332.501 	"/>
	<g>
		<path fill="#FFFFFF" d="M527,472.5c0,5.514-4.486,10-10,10H217c-5.514,0-10-4.486-10-10v-120c0-5.514,4.486-10,10-10h270v-10H217
			c-11.046,0-20,8.955-20,20v120c0,11.046,8.954,20,20,20h300c11.046,0,20-8.954,20-20v-95.552V472.5c0,11.046-8.954,20-20,20H217
			c-11.046,0-20-8.954-20-20v-120c0-11.045,8.954-20,20-20h270v-10h-63v-9.772c0-16.542-13.458-30-30-30h-87v10h87
			c11.046,0,20,8.955,20,20V332.5v-19.772c0-11.045-8.954-20-20-20h-87v10h87c5.514,0,10,4.486,10,10v9.772H217
			c-16.542,0-30,13.458-30,30v120c0,16.542,13.458,30,30,30h300c16.542,0,30-13.458,30-30v-90h-20V472.5z"/>
		<polygon fill="none" stroke="#FFFFFF" stroke-miterlimit="10" points="547,322.501 547,302.501 537,302.501 537,332.501 
			567,332.501 567,322.501 		"/>
		<polygon fill="#FFFFFF" points="537,370.614 537,332.5 507,332.5 507,342.5 527,342.5 527,362.5 547,362.5 547,342.5 567,342.5 
			567,332.5 537,332.5 		"/>
		<line fill="none" stroke="#FFFFFF" stroke-width="20" stroke-miterlimit="10" x1="253.5" y1="367.614" x2="253.5" y2="467.614"/>
		<line fill="none" stroke="#FFFFFF" stroke-width="20" stroke-miterlimit="10" x1="223.5" y1="377.614" x2="283.5" y2="377.614"/>
		<polyline fill="none" stroke="#FFFFFF" stroke-width="20" stroke-miterlimit="10" points="465.5,365.614 465.5,455.614 
			495.5,455.614 		"/>
		<path fill="#FFFFFF" d="M330.5,462.614c-22.056,0-40-17.944-40-40s17.944-40,40-40s40,17.944,40,40S352.556,462.614,330.5,462.614
			z M330.5,398.614c-13.233,0-24,10.767-24,24s10.767,24,24,24s24-10.767,24-24S343.733,398.614,330.5,398.614z"/>
		<path fill="#FFFFFF" d="M409.123,462.614c-15.439,0-28-12.561-28-28s12.561-28,28-28s28,12.561,28,28
			S424.563,462.614,409.123,462.614z M409.123,417.814c-9.264,0-16.8,7.536-16.8,16.8s7.536,16.8,16.8,16.8s16.8-7.536,16.8-16.8
			S418.387,417.814,409.123,417.814z"/>
	</g>
</g>
</svg>
