<?xml version="1.0" encoding="utf-8"?>
<!-- Generator: Adobe Illustrator 16.0.0, SVG Export Plug-In . SVG Version: 6.00 Build 0)  -->
<!DOCTYPE svg PUBLIC "-//W3C//DTD SVG 1.1//EN" "http://www.w3.org/Graphics/SVG/1.1/DTD/svg11.dtd">
<svg version="1.1" id="图层_3" xmlns="http://www.w3.org/2000/svg" xmlns:xlink="http://www.w3.org/1999/xlink" x="0px" y="0px"
	 width="192px" height="192px" viewBox="0 0 192 192" enable-background="new 0 0 192 192" xml:space="preserve">
<line fill="none" x1="19" y1="73.362" x2="178.469" y2="73.362"/>
<path fill="none" d="M47.735,76.083h51v51h-51V76.083z"/>
<path fill="none" d="M71,69h97v97H71V69z"/>
<line fill="none" x1="18" y1="79.583" x2="177.469" y2="79.583"/>
<path fill="#4285F4" d="M121.771,110.748c1.554-2.47,2.472-5.327,2.472-8.43c0-8.783-7.088-15.87-15.87-15.87
	c-8.784,0-15.87,7.089-15.87,15.87c0,8.784,7.086,15.87,15.836,15.87c3.104,0,5.993-0.918,8.427-2.472l11.005,11.006l5.007-5.008
	L121.771,110.748z M108.372,111.135c-4.868,0-8.817-3.95-8.817-8.816s3.949-8.818,8.817-8.818c4.867,0,8.817,3.952,8.817,8.818
	S113.239,111.135,108.372,111.135z"/>
<path fill="#4E4E4E" d="M163.735,108.945c0-0.882-0.427-1.639-1.28-2.271c-0.854-0.634-2.437-1.188-4.749-1.666
	c-3.488-0.697-6.136-1.753-7.943-3.167c-1.808-1.413-2.712-3.331-2.712-5.754c0-2.551,1.083-4.727,3.249-6.526
	c2.165-1.798,5.048-2.698,8.646-2.698c3.763,0,6.777,0.9,9.045,2.698c2.266,1.799,3.354,4.038,3.262,6.718l-0.055,0.165h-7.765
	c0-1.193-0.385-2.166-1.156-2.918c-0.771-0.752-1.881-1.128-3.331-1.128c-1.285,0-2.305,0.321-3.058,0.963
	c-0.751,0.643-1.128,1.431-1.128,2.368c0,0.919,0.39,1.666,1.17,2.245c0.78,0.577,2.364,1.097,4.75,1.554
	c3.652,0.735,6.374,1.813,8.164,3.236c1.789,1.422,2.685,3.382,2.685,5.878c0,2.681-1.147,4.874-3.442,6.581
	c-2.294,1.708-5.324,2.561-9.086,2.561c-3.966,0-7.1-1.005-9.402-3.016c-2.304-2.009-3.401-4.299-3.291-6.869l0.056-0.165h7.351
	c0.056,1.598,0.578,2.754,1.57,3.469c0.991,0.716,2.285,1.074,3.882,1.074c1.487,0,2.621-0.298,3.401-0.896
	C163.346,110.785,163.735,109.974,163.735,108.945z"/>
<path fill="#4E4E4E" d="M141.02,80.282h-8.039v-6.03h8.039V80.282z M141.02,117.205h-8.039V87.414h8.039V117.205z"/>
<path fill="#4E4E4E" d="M71.932,91.186c0.937-1.358,2.083-2.418,3.441-3.18c1.359-0.762,2.864-1.143,4.516-1.143
	c3.102,0,5.539,1.032,7.31,3.097c1.771,2.065,2.657,5.255,2.657,9.567v17.678h-8.04V99.474c0-2.313-0.372-3.952-1.116-4.915
	c-0.743-0.964-1.858-1.446-3.344-1.446c-1.23,0-2.299,0.198-3.208,0.592c-0.908,0.395-1.647,0.96-2.216,1.693v21.807h-8.04V74.252
	h8.04V91.186z"/>
<path fill="#4E4E4E" d="M48.5,106.137h0.166l3.606-18.723h7.819l-7.572,29.792h-6.718l-5.535-17.182h-0.166l-5.534,17.182h-6.691
	l-7.572-29.792h7.82l3.662,18.641h0.166l5.562-18.641h5.369L48.5,106.137z"/>
</svg>
