<?xml version="1.0" encoding="utf-8"?>
<!-- Generator: Adobe Illustrator 16.0.0, SVG Export Plug-In . SVG Version: 6.00 Build 0)  -->
<!DOCTYPE svg PUBLIC "-//W3C//DTD SVG 1.1//EN" "http://www.w3.org/Graphics/SVG/1.1/DTD/svg11.dtd">
<svg version="1.1" id="图层_3" xmlns="http://www.w3.org/2000/svg" xmlns:xlink="http://www.w3.org/1999/xlink" x="0px" y="0px"
	 width="192px" height="192px" viewBox="0 0 192 192" enable-background="new 0 0 192 192" xml:space="preserve">
<path fill="#4185F4" d="M142.277,83.466C138,61.736,118.807,45.344,95.828,45.344c-18.248,0-34.071,10.374-42.021,25.478
	C34.84,72.865,20,88.955,20,108.489c0,20.935,16.96,37.894,37.895,37.894h82.111c17.452,0,31.572-14.159,31.572-31.572
	C171.616,98.154,158.632,84.639,142.277,83.466z"/>
<g>
	<path fill="#FFFFFF" d="M103.022,113.355H88.524l-3.01,9.646h-9.369l15.082-44.724h9.184l15.021,44.724h-9.369L103.022,113.355z
		 M90.736,106.321h10.106l-4.945-15.758h-0.185L90.736,106.321z"/>
</g>
</svg>
