<?xml version="1.0" encoding="utf-8"?>
<!-- Generator: Adobe Illustrator 19.0.0, SVG Export Plug-In . SVG Version: 6.00 Build 0)  -->
<svg version="1.1" id="Layer_1" xmlns="http://www.w3.org/2000/svg" xmlns:xlink="http://www.w3.org/1999/xlink" x="0px" y="0px"
	 viewBox="0 0 500 500" style="enable-background:new 0 0 500 500;" xml:space="preserve">
<style type="text/css">
	.st0{fill:#34A853;}
	.st1{fill:#FFFFFF;}
	.st2{fill:#1B8734;}
</style>
<path class="st0" d="M366.7,50.2L133.3,50C115,50,100,65,100,83.4v333.3c0,18.4,14.9,33.3,33.3,33.3h233.3
	c18.4,0,33.3-14.9,33.3-33.3V83.4C400,65,385,50.2,366.7,50.2z"/>
<g>
	<path class="st1" d="M218.9,209.4h45.1v-25.5h10.1v25.5h45.6v53.4h-9.6v-6.3h-36v43.6h-10.1v-43.6h-35.5v6.3h-9.6V209.4z
		 M228.5,247.8h35.5v-29.8h-35.5V247.8z M310.1,218.1h-36v29.8h36V218.1z"/>
</g>
<path class="st2" d="M100,83.4v333.3c0,18.4,14.9,33.3,33.3,33.3H150V50l-16.7,0C115,50,100,65,100,83.4z"/>
</svg>
