<?xml version="1.0" encoding="utf-8"?>
<!-- Generator: Adobe Illustrator 19.0.0, SVG Export Plug-In . SVG Version: 6.00 Build 0)  -->
<svg version="1.1" id="Layer_1" xmlns="http://www.w3.org/2000/svg" xmlns:xlink="http://www.w3.org/1999/xlink" x="0px" y="0px"
	 viewBox="0 0 500 500" style="enable-background:new 0 0 500 500;" xml:space="preserve">
<style type="text/css">
	.st0{fill:#34A853;}
	.st1{fill:#FFFFFF;}
	.st2{fill:#1B8734;}
</style>
<path class="st0" d="M366.7,50.2L133.3,50C115,50,100,65,100,83.4v333.3c0,18.4,14.9,33.3,33.3,33.3h233.3
	c18.4,0,33.3-14.9,33.3-33.3V83.4C400,65,385,50.2,366.7,50.2z"/>
<g>
	<path class="st1" d="M230.3,200.6c24.9-0.2,49.2-1.7,72.8-4.6l2.7,7.5c-21.7,1.9-44.4,3.2-68.3,3.8v15.9h64v6.9
		c-5.1,13.8-12.8,25.4-23.1,34.8c9.2,6.2,20.3,10.3,33.5,12.6c-2.3,2.9-4.2,5.7-5.9,8.3c-13.2-3.8-24.4-9.1-33.6-15.8
		c-9.6,7.3-21,12.9-34.4,17c-1.4-2.2-3.2-4.6-5.2-7.2c13-3.5,24.1-8.5,33.2-14.9c-10.2-9.3-17.3-20.8-21.3-34.7h-7.4v5.3
		c0,22.2-4.8,39.2-14.3,51.1c-1.6-2-3.4-4-5.3-6c8.2-10.1,12.3-25.2,12.3-45.1V200.6z M292.8,230.2h-40.3
		c4.3,12.3,10.9,22.3,19.7,30C281.7,252.1,288.6,242.1,292.8,230.2z"/>
</g>
<path class="st2" d="M100,83.4v333.3c0,18.4,14.9,33.3,33.3,33.3H150V50l-16.7,0C115,50,100,65,100,83.4z"/>
</svg>
