<?xml version="1.0" encoding="utf-8"?>
<!-- Generator: Adobe Illustrator 19.0.0, SVG Export Plug-In . SVG Version: 6.00 Build 0)  -->
<svg version="1.1" id="Layer_1" xmlns="http://www.w3.org/2000/svg" xmlns:xlink="http://www.w3.org/1999/xlink" x="0px" y="0px"
	 viewBox="0 0 500 500" style="enable-background:new 0 0 500 500;" xml:space="preserve">
<style type="text/css">
	.st0{fill:#34A853;}
	.st1{fill:#FFFFFF;}
	.st2{fill:#1B8734;}
</style>
<path class="st0" d="M366.7,50.2L133.3,50C115,50,100,65,100,83.4v333.3c0,18.4,14.9,33.3,33.3,33.3h233.3
	c18.4,0,33.3-14.9,33.3-33.3V83.4C400,65,385,50.2,366.7,50.2z"/>
<g>
	<path class="st1" d="M260.7,290.4c9-6.1,17.1-13.1,24.1-21.2c-4.5-11.5-7.2-30.1-8-55.8h-44.2v17.8h33.8
		c-0.5,14.9-1.1,27.5-1.9,37.6c-0.9,10.8-6.2,16.2-15.7,16.2c-3.2,0-7.5-0.2-12.8-0.5c-0.5-2.9-1.1-6.1-1.9-9.7
		c5.5,0.8,10,1.2,13.7,1.2c4.5,0,7.1-3.1,7.6-9.4c0.6-7.2,1.1-16.1,1.4-26.7h-24.3c-0.6,27.1-6.1,47.2-16.5,60.2
		c-2-2.7-4-5.4-6.1-8.1c8.8-11.7,13.2-30.2,13.2-55.5v-31.8h53.3c-0.3-6.2-0.5-12.9-0.8-20h9.7c0,5.5,0.1,12.2,0.3,20H326v8.7H286
		c0.8,21,2.7,36.7,5.8,47.1c7.6-10.3,13.8-21.9,18.7-34.9l9.3,3.9c-6.7,15.9-14.8,29.7-24.2,41.5c5.7,11.7,11.3,17.5,16.8,17.5
		c2,0,3.5-1.8,4.6-5.4c1.1-5.7,2-11.6,2.6-17.6c3.4,1.3,6.3,2.4,8.9,3.3c-1.2,8.4-2.5,15.2-3.9,20.5c-1.5,5.7-4.8,8.8-9.8,9.3
		c-4.8,0.3-9.3-1.3-13.7-4.8c-4.7-3.6-8.8-8.6-12.1-15c-6.6,7.1-13.8,13.4-21.6,18.8C265.3,295,263.1,292.7,260.7,290.4z
		 M294.3,190.4l4.9-6.1c6.6,3.8,12.7,7.7,18.4,11.7l-5.6,7C306.4,198.6,300.5,194.4,294.3,190.4z"/>
</g>
<path class="st2" d="M100,83.4v333.3c0,18.4,14.9,33.3,33.3,33.3H150V50l-16.7,0C115,50,100,65,100,83.4z"/>
</svg>
