<?xml version="1.0" encoding="utf-8"?>
<!-- Generator: Adobe Illustrator 19.0.0, SVG Export Plug-In . SVG Version: 6.00 Build 0)  -->
<svg version="1.1" id="Layer_1" xmlns="http://www.w3.org/2000/svg" xmlns:xlink="http://www.w3.org/1999/xlink" x="0px" y="0px"
	 viewBox="0 0 500 500" style="enable-background:new 0 0 500 500;" xml:space="preserve">
<style type="text/css">
	.st0{fill:#34A853;}
	.st1{fill:#FFFFFF;}
	.st2{fill:#1B8734;}
</style>
<path class="st0" d="M366.7,50.2L133.3,50C115,50,100,65,100,83.4v333.3c0,18.4,14.9,33.3,33.3,33.3h233.3
	c18.4,0,33.3-14.9,33.3-33.3V83.4C400,65,385,50.2,366.7,50.2z"/>
<g>
	<path class="st1" d="M225.6,230.8l7.6,2c-1.5,2.8-2.7,5-3.6,6.6h45c-0.4,15.3-0.9,27.1-1.4,35.5c-0.5,7.9-2.2,13.4-5.2,16.5
		c-3,3.1-8.1,4.7-15.2,4.7c-4.7,0-8.9-0.1-12.7-0.2c-0.5-2.9-1.1-5.7-2-8.4c4.8,0.5,9.8,0.8,15,0.8c7.2-0.2,11-3.8,11.5-10.8
		c0.8-7.2,1.3-17.5,1.6-31.1h-40.9c-1.7,2.7-3.4,5.1-5.2,7.4h5.5v22.1h30.9v6.8h-38.2v-26.6c-1.3,1.6-2.5,3-3.8,4.3
		c-1.3-1.9-2.9-3.9-4.8-6.2C215.8,248,221,240.2,225.6,230.8z M219.2,190.3h50.7v43.1h-8.1v-3.3h-42.7V190.3z M261.8,197.3h-34.5
		v9.5h34.5V197.3z M227.4,223.1h34.5v-9.5h-34.5V223.1z M227.8,268.3c6.6-5.4,12-12.1,16.2-20l7,2.3c-1.3,2.1-2.5,4.1-3.8,6
		c5.4,3.7,10.4,7.3,15,11l-4.9,5.9c-4.2-4-8.8-7.9-13.6-11.7c-3.4,4.5-7,8.4-10.5,11.6C231.7,271.8,229.9,270.1,227.8,268.3z
		 M302.8,218.2c0,4.2-0.1,8.4-0.2,12.5c1.7,28.9,10.2,49.3,25.4,61.1c-2,2.3-4.1,4.8-6.3,7.5c-11.4-9.9-18.9-24.2-22.5-42.8
		c-3.2,17.3-11.3,32-24.4,44.1c-1.8-2.3-3.8-4.5-6.1-6.6c13.5-11.9,21.6-26.8,24.3-44.9c0.9-7.1,1.3-17.4,1.2-30.9H302.8z
		 M271.9,232c6.6-13.7,11.5-29.5,14.6-47.6l8.9,1.9c-1.3,5.9-2.7,11.5-4.1,16.6h34.2v7l-7.3,25.4c-2.7-0.9-5.4-1.7-8.2-2.3l6.6-21.9
		H289c-2.7,9.5-5.6,17.6-8.7,24.5C278.2,234.5,275.4,233.3,271.9,232z"/>
</g>
<path class="st2" d="M100,83.4v333.3c0,18.4,14.9,33.3,33.3,33.3H150V50l-16.7,0C115,50,100,65,100,83.4z"/>
</svg>
