<?xml version="1.0" encoding="utf-8"?>
<!-- Generator: Adobe Illustrator 19.0.0, SVG Export Plug-In . SVG Version: 6.00 Build 0)  -->
<svg version="1.1" id="Layer_1" xmlns="http://www.w3.org/2000/svg" xmlns:xlink="http://www.w3.org/1999/xlink" x="0px" y="0px"
	 viewBox="0 0 500 500" style="enable-background:new 0 0 500 500;" xml:space="preserve">
<style type="text/css">
	.st0{fill:#34A853;}
	.st1{fill:#FFFFFF;}
	.st2{fill:#1B8734;}
</style>
<path class="st0" d="M366.7,50.2L133.3,50C115,50,100,65,100,83.4v333.3c0,18.4,14.9,33.3,33.3,33.3h233.3
	c18.4,0,33.3-14.9,33.3-33.3V83.4C400,65,385,50.2,366.7,50.2z"/>
<g>
	<path class="st1" d="M257.6,276.1l27.5,0.5l26.7-0.9c-1.1,2.5-2.1,5-3,7.4l-26.1,0.2l-25.9-0.4c-10.6-0.2-18.3-3.8-23.3-10.7
		c-1.8,1.4-5.4,5.3-10.9,11.8l-3.9-7.9c4.8-4.4,8.7-7.9,11.5-10.3v-32.2h-10.9v-6.8h18.1v40.7C242,272.9,248.7,275.8,257.6,276.1z
		 M229,194.7c4.4,5.3,9.2,11.2,14.2,17.7l-6.6,4.8c-5.4-7.9-9.8-14.1-13.3-18.4L229,194.7z M263.4,209.8v16.6h47.3v6.9H292v39.3
		h-7.4v-39.3h-21.2c-0.5,16.7-4.8,29.7-12.9,39.2c-1.8-1.6-3.8-3.2-6.1-5c7.9-9.1,11.8-21.6,11.8-37.4v-26.9
		c15.3-1,31.5-2.9,48.8-5.8l1.7,6.9C290.8,206.8,276.4,208.6,263.4,209.8z"/>
</g>
<path class="st2" d="M100,83.4v333.3c0,18.4,14.9,33.3,33.3,33.3H150V50l-16.7,0C115,50,100,65,100,83.4z"/>
</svg>
