<?xml version="1.0" encoding="utf-8"?>
<!-- Generator: Adobe Illustrator 19.0.0, SVG Export Plug-In . SVG Version: 6.00 Build 0)  -->
<svg version="1.1" id="图层_1" xmlns="http://www.w3.org/2000/svg" xmlns:xlink="http://www.w3.org/1999/xlink" x="0px" y="0px"
	 viewBox="-265 388.9 64 64" style="enable-background:new -265 388.9 64 64;" xml:space="preserve">
<style type="text/css">
	.st0{fill:#F6E4B0;}
	.st1{fill:#5B4037;}
	.st2{fill:#6A5646;}
	.st3{fill:#3C2622;}
</style>
<path class="st0" d="M-207.5,440.3c0,2.2-1.7,4-3.9,4c0,0,0,0,0,0h-41c-2.2,0-3.9-1.8-3.9-4c0,0,0,0,0,0v-19.5c0-2.2,1.8-4,3.9-4h41
	c2.2,0,3.9,1.8,3.9,4C-207.5,420.8-207.5,440.3-207.5,440.3z"/>
<path class="st1" d="M-211.4,445.4h-41c-2.8,0-5.1-2.3-5.1-5.2v-19.5c0-2.8,2.3-5.2,5.1-5.2h41c2.8,0,5.1,2.3,5.1,5.2v19.5
	C-206.3,443.1-208.6,445.4-211.4,445.4z M-252.4,417.9c-1.5,0-2.8,1.3-2.8,2.8v19.5c0,1.6,1.2,2.8,2.8,2.8h41c1.5,0,2.8-1.3,2.8-2.8
	v-19.5c0-1.5-1.2-2.8-2.8-2.8H-252.4z"/>
<path class="st2" d="M-245.4,423.1h2.8v13.1h-2.8V423.1z"/>
<path class="st3" d="M-246.8,423.1h2.8v13.1h-2.8V423.1z"/>
<path class="st2" d="M-239.5,423.1h2.8v13.1h-2.8V423.1z"/>
<path class="st3" d="M-240.9,423.1h2.8v13.1h-2.8V423.1z"/>
<path class="st2" d="M-233.6,423.1h2.8v13.1h-2.8V423.1z"/>
<path class="st3" d="M-235,423.1h2.8v13.1h-2.8V423.1z"/>
<path class="st2" d="M-224.6,423.1h2.8v13.1h-2.8V423.1z"/>
<path class="st3" d="M-226,423.1h2.8v13.1h-2.8V423.1z"/>
<path class="st2" d="M-218.7,423.1h2.8v13.1h-2.8V423.1z"/>
<path class="st3" d="M-220.1,423.1h2.8v13.1h-2.8V423.1z"/>
<path class="st1" d="M-257.5,408.5V429h51.2v-11.4c0-3.7-3.1-6.6-7-6.6h-12.2l-5-7.5c-2.3-4.5-3.8-6.5-7.5-6.5h-12.9
	c-3.7,0-6.7,3-6.7,6.6L-257.5,408.5"/>
</svg>
