<?xml version="1.0" encoding="utf-8"?>
<!-- Generator: Adobe Illustrator 16.0.0, SVG Export Plug-In . SVG Version: 6.00 Build 0)  -->
<!DOCTYPE svg PUBLIC "-//W3C//DTD SVG 1.1//EN" "http://www.w3.org/Graphics/SVG/1.1/DTD/svg11.dtd">
<svg version="1.1" id="图层_3" xmlns="http://www.w3.org/2000/svg" xmlns:xlink="http://www.w3.org/1999/xlink" x="0px" y="0px"
	 width="192px" height="192px" viewBox="0 0 192 192" enable-background="new 0 0 192 192" xml:space="preserve">
<path fill="#4285F4" d="M168.943,53.408c3.825,3.729,4.097,9.655,0.606,13.235l-79.915,81.992c-3.49,3.582-9.421,3.461-13.247-0.266
	l-30.017-29.26c-3.826-3.729-4.098-9.652-0.608-13.234l79.916-81.993c3.49-3.581,9.42-3.46,13.246,0.269L168.943,53.408z"/>
<path fill="#FFFFFF" d="M89.762,68.817l-39.536,40.564c-1.907,1.957-0.873,6.059,2.312,9.16l24.981,24.35
	c3.185,3.105,7.312,4.033,9.22,2.076l39.535-40.564L89.762,68.817z"/>
<rect x="41.5" y="156.428" fill="#4E4E4E" width="109" height="15.572"/>
</svg>
