<?xml version="1.0" encoding="utf-8"?>
<!-- Generator: Adobe Illustrator 16.0.0, SVG Export Plug-In . SVG Version: 6.00 Build 0)  -->
<!DOCTYPE svg PUBLIC "-//W3C//DTD SVG 1.1//EN" "http://www.w3.org/Graphics/SVG/1.1/DTD/svg11.dtd">
<svg version="1.1" id="图层_3" xmlns="http://www.w3.org/2000/svg" xmlns:xlink="http://www.w3.org/1999/xlink" x="0px" y="0px"
	 width="192px" height="192px" viewBox="0 0 192 192" enable-background="new 0 0 192 192" xml:space="preserve">
<path fill="#4285F4" d="M125.175,20H28.407C23.762,20,20,23.763,20,28.406v96.769c0,4.646,3.762,8.407,8.406,8.407h96.768
	c4.646,0,8.407-3.762,8.407-8.407V28.406C133.582,23.763,129.821,20,125.175,20z"/>
<polygon fill="#FFFFFF" points="60.847,65.881 72.236,79.569 88.18,59.046 108.682,86.38 44.901,86.38 "/>
<circle fill="#34A853" cx="133.875" cy="133.875" r="49.625"/>
<path fill="#FFFFFF" d="M160.077,116.128l-6.412-6.413c-1.068-1.069-2.797-1.069-3.864,0l-8.551,8.551l-5.29-5.234l-3.864,3.864
	l3.892,3.892l-24.445,24.445v13.019h13.019l24.445-24.445l3.891,3.891l3.864-3.864l-5.261-5.263l8.551-8.551
	C161.146,118.924,161.146,117.196,160.077,116.128z M122.285,152.77l-5.262-5.261l22.09-22.092l5.263,5.262L122.285,152.77z"/>
</svg>
