<?xml version="1.0" encoding="utf-8"?>
<!-- Generator: Adobe Illustrator 16.0.0, SVG Export Plug-In . SVG Version: 6.00 Build 0)  -->
<!DOCTYPE svg PUBLIC "-//W3C//DTD SVG 1.1//EN" "http://www.w3.org/Graphics/SVG/1.1/DTD/svg11.dtd">
<svg version="1.1" id="图层_3" xmlns="http://www.w3.org/2000/svg" xmlns:xlink="http://www.w3.org/1999/xlink" x="0px" y="0px"
	 width="192px" height="192px" viewBox="0 0 192 192" enable-background="new 0 0 192 192" xml:space="preserve">
<path fill="#4285F4" d="M160.75,20H31.25C25.034,20,20,25.035,20,31.25v129.5c0,6.216,5.034,11.25,11.25,11.25h129.5
	c6.215,0,11.25-5.034,11.25-11.25V31.25C172,25.035,166.965,20,160.75,20z"/>
<polygon fill="#FFFFFF" points="159.334,139.309 151.211,139.309 151.211,151.492 139.025,151.492 139.025,159.613 159.334,159.613 
	"/>
<polygon fill="#FFFFFF" points="40.927,41.123 53.113,41.123 53.113,33 32.805,33 32.805,53.308 40.927,53.308 "/>
<g>
	<path fill="#FFFFFF" d="M96.286,109.212H82.074l-2.951,9.455h-9.184l14.785-43.842h9.003l14.725,43.842h-9.184L96.286,109.212z
		 M84.242,102.316h9.906L89.3,86.87H89.12L84.242,102.316z"/>
	<path fill="#FFFFFF" d="M122.061,118.667h-8.792V74.825h8.792V118.667z"/>
</g>
</svg>
