<?xml version="1.0" encoding="utf-8"?>
<!-- Generator: Adobe Illustrator 16.0.0, SVG Export Plug-In . SVG Version: 6.00 Build 0)  -->
<!DOCTYPE svg PUBLIC "-//W3C//DTD SVG 1.1//EN" "http://www.w3.org/Graphics/SVG/1.1/DTD/svg11.dtd">
<svg version="1.1" id="图层_3" xmlns="http://www.w3.org/2000/svg" xmlns:xlink="http://www.w3.org/1999/xlink" x="0px" y="0px"
	 width="192px" height="192px" viewBox="0 0 192 192" enable-background="new 0 0 192 192" xml:space="preserve">
<path fill="#34A853" d="M79.75,90.583c0-5.985,4.818-10.833,10.833-10.833h70.413c5.986,0,10.834,4.821,10.834,10.833v70.413
	c0,5.986-4.818,10.834-10.834,10.834H90.583c-5.985,0-10.833-4.822-10.833-10.834V90.583z"/>
<path fill="#FFFFFF" d="M150.209,148.704v-34.74c0-2.743-2.22-4.964-4.962-4.964h-34.742c-2.741,0-4.962,2.221-4.962,4.964v34.74
	c0,2.742,2.221,4.962,4.962,4.962h34.742C147.989,153.666,150.209,151.446,150.209,148.704z M119.19,135.056l6.204,7.456
	l8.686-11.179l11.167,14.889h-34.742L119.19,135.056z"/>
<path fill="#4285F4" d="M20.17,31.003c0-5.985,4.818-10.833,10.833-10.833h70.413c5.986,0,10.834,4.821,10.834,10.833v70.413
	c0,5.986-4.818,10.834-10.834,10.834H31.003c-5.985,0-10.833-4.822-10.833-10.834V31.003z"/>
<path fill="#FFFFFF" d="M72.883,46.333h-10.89L46.48,89.19h8.803l-0.007-0.005l3.247-9.038h16.911l3.244,9.038h9.263L72.883,46.333z
	 M60.842,72.967l6.253-18.295h0.233l5.786,18.295H60.842z"/>
</svg>
