<?xml version="1.0" encoding="utf-8"?>
<!-- Generator: Adobe Illustrator 16.0.0, SVG Export Plug-In . SVG Version: 6.00 Build 0)  -->
<!DOCTYPE svg PUBLIC "-//W3C//DTD SVG 1.1//EN" "http://www.w3.org/Graphics/SVG/1.1/DTD/svg11.dtd">
<svg version="1.1" id="图层_3" xmlns="http://www.w3.org/2000/svg" xmlns:xlink="http://www.w3.org/1999/xlink" x="0px" y="0px"
	 width="192px" height="192px" viewBox="0 0 192 192" enable-background="new 0 0 192 192" xml:space="preserve">
<g>
	<path fill="#4285F4" d="M171.75,154.79V36.514c0-9.294-7.606-16.896-16.896-16.896H36.577c-9.29,0-16.896,7.603-16.896,16.896
		V154.79c0,9.29,7.607,16.896,16.896,16.896h118.276C164.144,171.687,171.75,164.08,171.75,154.79z"/>
	<polygon fill="#FFFFFF" points="74.54,111.057 91.107,131.002 114.301,101.115 144.122,140.877 51.346,140.877 	"/>
</g>
<path fill="#EA4335" d="M153.072,8.5c-16.768,0-30.329,13.561-30.329,30.329c0,22.746,30.329,56.323,30.329,56.323
	S183.4,61.575,183.4,38.829C183.4,22.061,169.839,8.5,153.072,8.5z"/>
<path fill="#FFFFFF" d="M153.072,49.66c-5.979,0-10.832-4.853-10.832-10.832s4.854-10.832,10.832-10.832
	c5.978,0,10.831,4.854,10.831,10.832S159.05,49.66,153.072,49.66z"/>
</svg>
