<?xml version="1.0" encoding="utf-8"?>
<!-- Generator: Adobe Illustrator 16.0.0, SVG Export Plug-In . SVG Version: 6.00 Build 0)  -->
<!DOCTYPE svg PUBLIC "-//W3C//DTD SVG 1.1//EN" "http://www.w3.org/Graphics/SVG/1.1/DTD/svg11.dtd">
<svg version="1.1" id="图层_3" xmlns="http://www.w3.org/2000/svg" xmlns:xlink="http://www.w3.org/1999/xlink" x="0px" y="0px"
	 width="192px" height="192px" viewBox="0 0 192 192" enable-background="new 0 0 192 192" xml:space="preserve">
<g>
	<path fill="#34A853" d="M79.75,90.583c0-5.985,4.818-10.833,10.833-10.833h70.413c5.986,0,10.834,4.821,10.834,10.833v70.413
		c0,5.986-4.818,10.834-10.834,10.834H90.583c-5.985,0-10.833-4.822-10.833-10.834V90.583z"/>
	<path fill="#FFFFFF" d="M132.363,102.211h-12.615l-17.971,49.646h10.197l-0.008-0.006l3.76-10.469h19.59l3.758,10.469h10.73
		L132.363,102.211z M118.414,133.064l7.244-21.193h0.27l6.703,21.193H118.414z"/>
</g>
<g>
	<path fill="#4285F4" d="M20.17,31.003c0-5.985,4.818-10.833,10.833-10.833h70.413c5.986,0,10.834,4.821,10.834,10.833v70.413
		c0,5.986-4.818,10.834-10.834,10.834H31.003c-5.985,0-10.833-4.822-10.833-10.834V31.003z"/>
	<path fill="#FFFFFF" d="M91.21,87.321V48.432c0-3.069-2.486-5.556-5.556-5.556h-38.89c-3.068,0-5.555,2.486-5.555,5.556v38.889
		c0,3.069,2.486,5.555,5.555,5.555h38.89C88.724,92.876,91.21,90.391,91.21,87.321z M56.487,72.043l6.945,8.347l9.722-12.514
		l12.5,16.667h-38.89L56.487,72.043z"/>
</g>
</svg>
