<?xml version="1.0" encoding="utf-8"?>
<!-- Generator: Adobe Illustrator 16.0.0, SVG Export Plug-In . SVG Version: 6.00 Build 0)  -->
<!DOCTYPE svg PUBLIC "-//W3C//DTD SVG 1.1//EN" "http://www.w3.org/Graphics/SVG/1.1/DTD/svg11.dtd">
<svg version="1.1" id="图层_3" xmlns="http://www.w3.org/2000/svg" xmlns:xlink="http://www.w3.org/1999/xlink" x="0px" y="0px"
	 width="192px" height="192px" viewBox="0 0 192 192" enable-background="new 0 0 192 192" xml:space="preserve">
<path fill="#34A853" d="M79.75,90.583c0-5.985,4.818-10.833,10.833-10.833h70.413c5.986,0,10.834,4.821,10.834,10.833v70.413
	c0,5.986-4.818,10.834-10.834,10.834H90.583c-5.985,0-10.833-4.822-10.833-10.834V90.583z"/>
<path fill="#FFFFFF" d="M134.598,106h-11.145l-15.876,43.857h9.009l-0.007-0.006l3.321-9.248h17.306l3.319,9.248h9.479L134.598,106z
	 M122.273,133.256l6.399-18.723h0.238l5.921,18.723H122.273z"/>
<path fill="#4285F4" d="M20.17,31.003c0-5.985,4.818-10.833,10.833-10.833h70.413c5.986,0,10.834,4.821,10.834,10.833v70.413
	c0,5.986-4.818,10.834-10.834,10.834H31.003c-5.985,0-10.833-4.822-10.833-10.834V31.003z"/>
<g>
	<path fill="#FFFFFF" d="M67.639,72.696c0,3.988-1.048,7.119-3.143,9.392c-2.095,2.276-4.872,3.412-8.33,3.412
		c-3.489,0-6.285-1.136-8.388-3.412c-2.103-2.274-3.154-5.404-3.154-9.392v-9.37c0-3.972,1.047-7.103,3.143-9.393
		c2.095-2.29,4.879-3.435,8.353-3.435c3.458,0,6.242,1.145,8.354,3.435c2.11,2.29,3.166,5.42,3.166,9.393V72.696L67.639,72.696z
		 M60.84,62.625c0-2.181-0.417-3.871-1.25-5.071c-0.833-1.2-1.99-1.8-3.47-1.8c-1.495,0-2.652,0.6-3.47,1.8
		c-0.818,1.2-1.227,2.89-1.227,5.071V73.35c0,2.229,0.413,3.938,1.239,5.129c0.825,1.192,1.994,1.788,3.504,1.788
		c1.48,0,2.628-0.595,3.447-1.788c0.818-1.191,1.227-2.9,1.227-5.129L60.84,62.625L60.84,62.625z"/>
	<path fill="#FFFFFF" d="M88.458,85.009H81.66V56.924h-7.035v-5.211l13.833-1.215V85.009z"/>
</g>
</svg>
