<?xml version="1.0" encoding="utf-8"?>
<!-- Generator: Adobe Illustrator 16.0.0, SVG Export Plug-In . SVG Version: 6.00 Build 0)  -->
<!DOCTYPE svg PUBLIC "-//W3C//DTD SVG 1.1//EN" "http://www.w3.org/Graphics/SVG/1.1/DTD/svg11.dtd">
<svg version="1.1" id="图层_3" xmlns="http://www.w3.org/2000/svg" xmlns:xlink="http://www.w3.org/1999/xlink" x="0px" y="0px"
	 width="192px" height="192px" viewBox="0 0 192 192" enable-background="new 0 0 192 192" xml:space="preserve">
<path fill="#4285F4" d="M103.341,54.494h-14.01l-2.909,9.32H77.37L91.943,20.6h8.874l14.514,43.214h-9.053L103.341,54.494z
	 M91.469,47.698h9.764l-4.778-15.227h-0.178L91.469,47.698z"/>
<path fill="#34A853" d="M83.145,116.865V73.65h14.158c5.086,0,9.051,0.994,11.903,2.983c2.849,1.987,4.271,4.941,4.271,8.859
	c0,1.979-0.514,3.749-1.543,5.313c-1.028,1.563-2.531,2.741-4.51,3.532c2.689,0.496,4.719,1.662,6.083,3.503
	c1.366,1.84,2.049,3.985,2.049,6.439c0,4.136-1.367,7.268-4.096,9.395c-2.731,2.126-6.601,3.191-11.606,3.191H83.145z
	 M91.812,91.755H97.6c2.314,0,4.095-0.475,5.342-1.425c1.246-0.95,1.87-2.334,1.87-4.155c0-1.999-0.627-3.473-1.884-4.423
	c-1.258-0.95-3.131-1.425-5.625-1.425h-5.491V91.755z M91.812,97.751v12.466h8.042c2.296,0,4.047-0.5,5.254-1.5
	c1.206-0.999,1.811-2.478,1.811-4.438c0-2.096-0.594-3.709-1.781-4.838c-1.187-1.127-2.978-1.69-5.372-1.69H91.812z"/>
<path fill="#CC483C" d="M114.015,156.071l0.06,0.177c0.077,4.61-1.327,8.222-4.216,10.833c-2.89,2.613-6.876,3.919-11.959,3.919
	c-5.186,0-9.37-1.666-12.557-5.002c-3.186-3.334-4.778-7.643-4.778-12.926v-8.576c0-5.265,1.552-9.572,4.66-12.927
	c3.104-3.354,7.182-5.03,12.227-5.03c5.264,0,9.379,1.286,12.347,3.858c2.97,2.571,4.413,6.193,4.333,10.863l-0.058,0.177h-8.43
	c0-2.77-0.669-4.831-2.004-6.188c-1.334-1.355-3.399-2.033-6.188-2.033c-2.592,0-4.614,1.044-6.068,3.131
	c-1.456,2.09-2.181,4.784-2.181,8.088v8.637c0,3.325,0.765,6.036,2.299,8.132c1.534,2.1,3.667,3.147,6.398,3.147
	c2.589,0,4.524-0.678,5.802-2.033c1.274-1.354,1.914-3.438,1.914-6.247H114.015z"/>
</svg>
