<?xml version="1.0" encoding="utf-8"?>
<!-- Generator: Adobe Illustrator 16.0.0, SVG Export Plug-In . SVG Version: 6.00 Build 0)  -->
<!DOCTYPE svg PUBLIC "-//W3C//DTD SVG 1.1//EN" "http://www.w3.org/Graphics/SVG/1.1/DTD/svg11.dtd">
<svg version="1.1" id="图层_3" xmlns="http://www.w3.org/2000/svg" xmlns:xlink="http://www.w3.org/1999/xlink" x="0px" y="0px"
	 width="192px" height="192px" viewBox="0 0 192 192" enable-background="new 0 0 192 192" xml:space="preserve">
<path fill="#4285F4" d="M156.273,112.275h-18.555l-3.852,12.345h-11.992l19.303-57.24h11.754l19.224,57.24h-11.988L156.273,112.275z
	 M140.55,103.272h12.934l-6.33-20.167h-0.235L140.55,103.272z"/>
<path fill="#34A853" d="M74.658,124.62V67.38h18.753c6.737,0,11.989,1.317,15.765,3.952c3.773,2.632,5.659,6.544,5.659,11.734
	c0,2.622-0.682,4.966-2.045,7.037c-1.362,2.07-3.354,3.63-5.974,4.677c3.563,0.657,6.252,2.202,8.058,4.64
	c1.81,2.437,2.713,5.279,2.713,8.529c0,5.479-1.81,9.626-5.424,12.443c-3.617,2.815-8.742,4.227-15.373,4.227H74.658z
	 M86.138,91.361h7.665c3.067,0,5.424-0.629,7.077-1.887c1.65-1.258,2.478-3.092,2.478-5.503c0-2.647-0.83-4.601-2.495-5.858
	c-1.667-1.258-4.147-1.888-7.451-1.888h-7.273V91.361z M86.138,99.303v16.512h10.653c3.042,0,5.359-0.662,6.959-1.987
	c1.598-1.323,2.398-3.281,2.398-5.877c0-2.775-0.787-4.913-2.359-6.409c-1.572-1.492-3.944-2.238-7.115-2.238H86.138z"/>
<path fill="#EA4335" d="M64.304,105.671l0.079,0.235c0.104,6.105-1.758,10.889-5.582,14.348c-3.827,3.462-9.108,5.191-15.842,5.191
	c-6.867,0-12.41-2.208-16.631-6.625C22.108,114.403,20,108.697,20,101.7V90.34c0-6.972,2.056-12.68,6.173-17.122
	c4.111-4.442,9.512-6.662,16.194-6.662c6.973,0,12.425,1.704,16.354,5.109c3.932,3.408,5.844,8.204,5.739,14.389l-0.078,0.235H53.22
	c0-3.669-0.889-6.401-2.656-8.196c-1.767-1.795-4.501-2.694-8.196-2.694c-3.434,0-6.111,1.383-8.037,4.148
	c-1.929,2.766-2.89,6.336-2.89,10.712v11.44c0,4.402,1.013,7.993,3.045,10.771c2.031,2.78,4.856,4.169,8.474,4.169
	c3.431,0,5.994-0.898,7.686-2.693c1.687-1.794,2.536-4.553,2.536-8.275H64.304z"/>
</svg>
