<?xml version="1.0" encoding="utf-8"?>
<!-- Generator: Adobe Illustrator 16.0.0, SVG Export Plug-In . SVG Version: 6.00 Build 0)  -->
<!DOCTYPE svg PUBLIC "-//W3C//DTD SVG 1.1//EN" "http://www.w3.org/Graphics/SVG/1.1/DTD/svg11.dtd">
<svg version="1.1" id="图层_3" xmlns="http://www.w3.org/2000/svg" xmlns:xlink="http://www.w3.org/1999/xlink" x="0px" y="0px"
	 width="192px" height="192px" viewBox="0 0 192 192" enable-background="new 0 0 192 192" xml:space="preserve">
<g>
	<g>
		<path fill="#27AE60" d="M112.885,316.605c-0.922-0.115-2.881-0.23-5.762-0.23h-3.918v11.149h4.379c3.111,0,5.301-0.23,6.338-0.691
			s1.844-1.037,2.535-1.959c0.576-0.922,0.922-1.959,0.922-3.111c0-1.498-0.461-2.535-1.268-3.572
			C115.305,317.412,114.268,316.836,112.885,316.605L112.885,316.605z"/>
		<path fill="#27AE60" d="M139.216,312.486c-2.305-5.531-5.762-10.573-9.996-14.722c-4.148-4.148-9.19-7.576-14.722-9.996
			c-5.531-2.305-11.725-3.688-18.063-3.688c-6.454,0-12.532,1.268-18.063,3.688c-5.531,2.305-10.573,5.762-14.721,9.996
			c-4.148,4.148-7.577,9.19-9.997,14.722s-3.688,11.609-3.688,18.063s1.268,12.532,3.688,18.063
			c1.383,3.342,3.111,6.338,5.301,9.305c0,0,33.13,38.979,33.591,39.555c0.461,0.461,1.152,0.922,1.729,1.268
			c0.691,0.346,1.498,0.461,2.189,0.461c0.807,0,1.498-0.115,2.189-0.461s1.268-0.691,1.729-1.268
			c0.461-0.461,33.591-39.555,33.591-39.555c2.074-2.88,3.918-5.991,5.301-9.305c2.305-5.531,3.688-11.726,3.688-18.063
			C142.903,324.211,141.521,317.988,139.216,312.486L139.216,312.486z M87.792,349.044H79.87v-39.438h7.922V349.044L87.792,349.044z
			 M124.265,327.87c-0.923,1.613-2.074,2.996-3.343,3.918c-1.383,0.922-2.765,1.498-4.147,1.844
			c-1.959,0.461-4.725,0.576-8.269,0.576h-5.186v14.951h-7.922v-39.438h12.762c4.84,0,7.922,0.115,9.421,0.576
			c2.305,0.576,4.147,1.844,5.646,3.918c1.499,2.074,2.306,4.494,2.306,7.691C125.646,324.211,125.187,326.285,124.265,327.87
			L124.265,327.87z"/>
	</g>
</g>
<path display="none" fill="#4285F4" d="M160.75,20H31.25C25.035,20,20,25.036,20,31.25v129.5c0,6.217,5.034,11.25,11.25,11.25h129.5
	c6.217,0,11.25-5.033,11.25-11.25V31.25C172,25.036,166.967,20,160.75,20z"/>
<g>
	<path fill="#4285F4" d="M109.379,106.747h-25.7l-6.097,17.585h-9.426l24.62-68.28h7.926l24.105,68.28h-9.427L109.379,106.747z
		 M86.352,99.008h20.401L96.81,69.699h-0.281L86.352,99.008z"/>
</g>
<g>
	<rect x="90.074" y="19.75" fill="#4E4E4E" width="11.5" height="17.25"/>
	<polygon fill="#4E4E4E" points="46.949,42.031 55.08,33.895 67.27,46.097 59.139,54.233 	"/>
	<polygon fill="#4E4E4E" points="124.344,46.113 136.551,33.923 144.682,42.054 132.48,54.25 	"/>
</g>
<g>
	<rect x="90.353" y="154.25" fill="#4E4E4E" width="11.5" height="17.25"/>
	<polygon fill="#4E4E4E" points="59.418,137.017 67.549,145.153 55.358,157.355 47.228,149.219 	"/>
	<polygon fill="#4E4E4E" points="132.759,137 144.961,149.196 136.83,157.327 124.622,145.137 	"/>
</g>
</svg>
