<?xml version="1.0" encoding="utf-8"?>
<!-- Generator: Adobe Illustrator 16.0.0, SVG Export Plug-In . SVG Version: 6.00 Build 0)  -->
<!DOCTYPE svg PUBLIC "-//W3C//DTD SVG 1.1//EN" "http://www.w3.org/Graphics/SVG/1.1/DTD/svg11.dtd">
<svg version="1.1" id="图层_3" xmlns="http://www.w3.org/2000/svg" xmlns:xlink="http://www.w3.org/1999/xlink" x="0px" y="0px"
	 width="192px" height="192px" viewBox="0 0 192 192" enable-background="new 0 0 192 192" xml:space="preserve">
<path fill="#4285F4" d="M125.175,20H28.407C23.762,20,20,23.763,20,28.406v96.769c0,4.646,3.762,8.407,8.406,8.407h96.768
	c4.646,0,8.407-3.762,8.407-8.407V28.406C133.582,23.763,129.82,20,125.175,20z"/>
<circle fill="#34A853" cx="133.875" cy="133.875" r="49.625"/>
<path fill="#FFFFFF" d="M111.543,147.682v10.297h9.902l29.184-30.334l-9.902-10.297L111.543,147.682z M158.229,119.715
	c1.021-1.086,1.021-2.797,0-3.882l-6.151-6.415c-1.021-1.086-2.698-1.086-3.718,0l-4.836,5.034l9.9,10.297
	C153.395,124.716,158.229,119.715,158.229,119.715z"/>
<polygon fill="#FFFFFF" points="55.719,50.709 55.719,60.449 71.94,60.449 71.94,99.333 81.641,99.333 81.641,60.449 97.861,60.449 
	97.861,50.709 "/>
</svg>
