<?xml version="1.0" encoding="utf-8"?>
<!-- Generator: Adobe Illustrator 16.0.0, SVG Export Plug-In . SVG Version: 6.00 Build 0)  -->
<!DOCTYPE svg PUBLIC "-//W3C//DTD SVG 1.1//EN" "http://www.w3.org/Graphics/SVG/1.1/DTD/svg11.dtd">
<svg version="1.1" id="图层_3" xmlns="http://www.w3.org/2000/svg" xmlns:xlink="http://www.w3.org/1999/xlink" x="0px" y="0px"
	 width="192px" height="192px" viewBox="0 0 192 192" enable-background="new 0 0 192 192" xml:space="preserve">
<path fill="#4285F4" d="M125.675,20H28.907c-4.645,0-8.407,3.763-8.407,8.406v96.769c0,4.646,3.762,8.407,8.406,8.407h96.768
	c4.646,0,8.407-3.762,8.407-8.407V28.406C134.082,23.763,130.32,20,125.675,20z"/>
<circle fill="#34A853" cx="134.375" cy="133.875" r="49.625"/>
<path fill="#FFFFFF" d="M121.374,130.819l-12.192,12.223l12.192,12.223v-9.166h21.419v-6.111h-21.419V130.819z M164.182,124.709
	l-12.191-12.223v9.167h-21.42v6.109h21.419v9.168L164.182,124.709z"/>
<path fill="#FFFFFF" d="M76.351,87.447c5.411,0,9.777-4.397,9.777-9.81l0.032-19.618c0-5.426-4.38-9.809-9.809-9.809
	c-5.411,0-9.809,4.382-9.809,9.809v19.618C66.542,83.049,70.937,87.447,76.351,87.447z M93.678,77.637
	c0,9.81-8.288,16.676-17.328,16.676c-9.024,0-17.328-6.866-17.328-16.676h-5.558c0,11.166,8.891,20.386,19.618,21.97v10.726h6.538
	V99.607c10.727-1.584,19.618-10.805,19.618-21.97H93.678z"/>
</svg>
