<?xml version="1.0" encoding="utf-8"?>
<!-- Generator: Adobe Illustrator 16.0.0, SVG Export Plug-In . SVG Version: 6.00 Build 0)  -->
<!DOCTYPE svg PUBLIC "-//W3C//DTD SVG 1.1//EN" "http://www.w3.org/Graphics/SVG/1.1/DTD/svg11.dtd">
<svg version="1.1" id="图层_3" xmlns="http://www.w3.org/2000/svg" xmlns:xlink="http://www.w3.org/1999/xlink" x="0px" y="0px"
	 width="192px" height="192px" viewBox="0 0 192 192" enable-background="new 0 0 192 192" xml:space="preserve">
<path fill="#34A853" d="M79.75,90.583c0-5.985,4.818-10.833,10.833-10.833h70.413c5.986,0,10.834,4.821,10.834,10.833v70.414
	c0,5.986-4.818,10.834-10.834,10.834H90.583c-5.985,0-10.833-4.822-10.833-10.834V90.583z"/>
<path fill="#4285F4" d="M20.17,31.002c0-5.985,4.818-10.833,10.833-10.833h70.413c5.986,0,10.834,4.821,10.834,10.833v70.414
	c0,5.986-4.818,10.834-10.834,10.834H31.003c-5.985,0-10.833-4.822-10.833-10.834V31.002z"/>
<path fill="#FFFFFF" d="M126.789,135.807c4.646,0,8.394-3.774,8.394-8.42l0.027-16.843c0-4.659-3.761-8.421-8.421-8.421
	c-4.646,0-8.421,3.762-8.421,8.421v16.843C118.368,132.032,122.143,135.807,126.789,135.807z M141.665,127.387
	c0,8.42-7.115,14.315-14.876,14.315c-7.747,0-14.876-5.896-14.876-14.315h-4.772c0,9.586,7.635,17.5,16.842,18.861v9.208h5.615
	v-9.208c9.208-1.361,16.841-9.275,16.841-18.861H141.665z"/>
<path fill="#FFFFFF" d="M72.051,44.281H60.906L45.03,88.138h9.009l-0.007-0.006l3.321-9.248h17.306l3.319,9.248h9.479L72.051,44.281
	z M59.727,71.537l6.399-18.723h0.238l5.921,18.723H59.727z"/>
</svg>
