<?xml version="1.0" encoding="utf-8"?>
<!-- Generator: Adobe Illustrator 16.0.0, SVG Export Plug-In . SVG Version: 6.00 Build 0)  -->
<!DOCTYPE svg PUBLIC "-//W3C//DTD SVG 1.1//EN" "http://www.w3.org/Graphics/SVG/1.1/DTD/svg11.dtd">
<svg version="1.1" id="图层_3" xmlns="http://www.w3.org/2000/svg" xmlns:xlink="http://www.w3.org/1999/xlink" x="0px" y="0px"
	 width="192px" height="192px" viewBox="0 0 192 192" enable-background="new 0 0 192 192" xml:space="preserve">
<path fill="#3385FF" d="M144.103,20H47.373c-7.596,0-13.75,6.218-13.75,13.818l-0.067,89.333c0,4.771,2.416,8.986,6.08,11.471
	L95.737,172l56.029-37.379c3.668-2.482,6.085-6.7,6.085-11.471l0.065-89.333C157.919,26.218,151.699,20,144.103,20z"/>
<g>
	<polygon fill="#FFFFFF" points="86.823,102.044 69.634,84.667 87.012,67.289 81.534,62 58.868,84.667 81.534,107.333 	"/>
	<polygon fill="#FFFFFF" points="106.467,102.044 123.846,84.667 106.467,67.289 111.757,62 134.422,84.667 111.757,107.333 	"/>
</g>
</svg>
