<?xml version="1.0" encoding="utf-8"?>
<!-- Generator: Adobe Illustrator 16.0.0, SVG Export Plug-In . SVG Version: 6.00 Build 0)  -->
<!DOCTYPE svg PUBLIC "-//W3C//DTD SVG 1.1//EN" "http://www.w3.org/Graphics/SVG/1.1/DTD/svg11.dtd">
<svg version="1.1" id="图层_3" xmlns="http://www.w3.org/2000/svg" xmlns:xlink="http://www.w3.org/1999/xlink" x="0px" y="0px"
	 width="192px" height="192px" viewBox="0 0 192 192" enable-background="new 0 0 192 192" xml:space="preserve">
<path fill="none" d="M107,81h24v24h-24V81z"/>
<path fill="#3385FF" d="M144.365,20H47.636c-7.596,0-13.75,6.218-13.75,13.818l-0.067,89.333c0,4.77,2.415,8.986,6.08,11.47L96,172
	l56.029-37.379c3.668-2.483,6.085-6.7,6.085-11.47l0.066-89.333C158.181,26.218,151.962,20,144.365,20z"/>
<path fill="none" d="M55.5,64.5H131V140H55.5V64.5z"/>
<g>
	<path fill="#FFFFFF" d="M74.764,74.856v13.5c0,2.323-0.77,4.142-2.309,5.454c-1.54,1.313-3.537,1.969-5.992,1.969
		c-2.446,0-4.432-0.656-5.957-1.969c-1.525-1.313-2.288-3.131-2.288-5.454v-13.5h4.151v13.5c0,1.379,0.368,2.432,1.105,3.159
		c0.736,0.727,1.733,1.091,2.989,1.091c1.275,0,2.286-0.364,3.032-1.091c0.746-0.727,1.119-1.78,1.119-3.159v-13.5H74.764z"/>
	<path fill="#FFFFFF" d="M92.726,78.043h-5.893v17.438h-4.137V78.043h-5.808v-3.188h15.837V78.043z"/>
	<path fill="#FFFFFF" d="M107.048,86.911h-7.919v8.57h-4.136V74.856h13.5v3.188h-9.364v5.68h7.919V86.911z"/>
	<path fill="#FFFFFF" d="M119.642,88.257h-8.344v-3.188h8.344V88.257z"/>
	<path fill="#FFFFFF" d="M136.824,80.21c0,1.02-0.265,1.925-0.793,2.713c-0.529,0.789-1.256,1.405-2.182,1.849
		c1.124,0.463,2.016,1.126,2.678,1.99c0.66,0.864,0.991,1.854,0.991,2.968c0,1.908-0.664,3.393-1.99,4.455
		c-1.327,1.063-3.024,1.594-5.093,1.594c-2.163,0-3.938-0.531-5.326-1.594c-1.389-1.062-2.083-2.547-2.083-4.455
		c0-1.114,0.343-2.104,1.027-2.968c0.685-0.864,1.612-1.527,2.784-1.99c-0.974-0.444-1.735-1.06-2.288-1.849
		c-0.553-0.788-0.829-1.693-0.829-2.713c0-1.813,0.619-3.208,1.856-4.186c1.236-0.978,2.847-1.466,4.83-1.466
		c1.898,0,3.442,0.489,4.632,1.466C136.229,77.002,136.824,78.397,136.824,80.21z M133.382,89.532c0-0.916-0.285-1.669-0.856-2.259
		c-0.572-0.59-1.277-0.885-2.118-0.885c-0.926,0-1.695,0.295-2.309,0.885c-0.614,0.59-0.921,1.343-0.921,2.259
		c0,0.935,0.305,1.681,0.913,2.238c0.609,0.557,1.391,0.836,2.345,0.836c0.85,0,1.554-0.279,2.11-0.836
		C133.104,91.213,133.382,90.467,133.382,89.532z M132.702,80.395c0-0.813-0.213-1.457-0.638-1.934
		c-0.425-0.477-0.978-0.716-1.657-0.716c-0.774,0-1.394,0.234-1.855,0.702c-0.463,0.467-0.694,1.117-0.694,1.948
		c0,0.84,0.236,1.518,0.708,2.033c0.473,0.515,1.096,0.772,1.87,0.772c0.68,0,1.228-0.255,1.644-0.765
		C132.494,81.925,132.702,81.245,132.702,80.395z"/>
</g>
</svg>
