<?xml version="1.0" encoding="utf-8"?>
<!-- Generator: Adobe Illustrator 16.0.0, SVG Export Plug-In . SVG Version: 6.00 Build 0)  -->
<!DOCTYPE svg PUBLIC "-//W3C//DTD SVG 1.1//EN" "http://www.w3.org/Graphics/SVG/1.1/DTD/svg11.dtd">
<svg version="1.1" id="图层_3" xmlns="http://www.w3.org/2000/svg" xmlns:xlink="http://www.w3.org/1999/xlink" x="0px" y="0px"
	 width="192px" height="192px" viewBox="0 0 192 192" enable-background="new 0 0 192 192" xml:space="preserve">
<path fill="none" d="M107,81h24v24h-24V81z"/>
<path fill="#3385FF" d="M144.365,20H47.636c-7.596,0-13.75,6.218-13.75,13.818l-0.067,89.333c0,4.77,2.415,8.986,6.08,11.47L96,172
	l56.029-37.379c3.668-2.483,6.085-6.7,6.085-11.47l0.066-89.333C158.181,26.218,151.962,20,144.365,20z"/>
<path fill="none" d="M55.5,64.5H131V140H55.5V64.5z"/>
<path fill="#FFFFFF" d="M71.938,76.958c-4.41,0-8.021,3.609-8.021,8.021c0,4.41,3.611,8.021,8.021,8.021
	c4.409,0,8.021-3.611,8.021-8.021C79.959,80.567,76.348,76.958,71.938,76.958z M120.062,76.958c-4.409,0-8.021,3.609-8.021,8.021
	c0,4.41,3.611,8.021,8.021,8.021c4.41,0,8.021-3.611,8.021-8.021C128.083,80.567,124.472,76.958,120.062,76.958z M96,76.958
	c-4.41,0-8.021,3.609-8.021,8.021C87.979,89.389,91.59,93,96,93c4.409,0,8.021-3.611,8.021-8.021
	C104.021,80.567,100.409,76.958,96,76.958z"/>
</svg>
