<?xml version="1.0" encoding="utf-8"?>
<!-- Generator: Adobe Illustrator 16.0.0, SVG Export Plug-In . SVG Version: 6.00 Build 0)  -->
<!DOCTYPE svg PUBLIC "-//W3C//DTD SVG 1.1//EN" "http://www.w3.org/Graphics/SVG/1.1/DTD/svg11.dtd">
<svg version="1.1" id="图层_3" xmlns="http://www.w3.org/2000/svg" xmlns:xlink="http://www.w3.org/1999/xlink" x="0px" y="0px"
	 width="192px" height="192px" viewBox="0 0 192 192" enable-background="new 0 0 192 192" xml:space="preserve">
<g>
	<g>
		<path fill="#27AE60" d="M112.885,316.605c-0.922-0.115-2.881-0.23-5.762-0.23h-3.918v11.149h4.379c3.111,0,5.301-0.23,6.338-0.691
			s1.844-1.037,2.535-1.959c0.576-0.922,0.922-1.959,0.922-3.111c0-1.498-0.461-2.535-1.268-3.572
			C115.305,317.412,114.268,316.836,112.885,316.605L112.885,316.605z"/>
		<path fill="#27AE60" d="M139.216,312.486c-2.305-5.531-5.762-10.573-9.996-14.722c-4.148-4.148-9.19-7.576-14.722-9.996
			c-5.531-2.305-11.725-3.688-18.063-3.688c-6.454,0-12.532,1.268-18.063,3.688c-5.531,2.305-10.573,5.762-14.721,9.996
			c-4.148,4.148-7.577,9.19-9.997,14.722s-3.688,11.609-3.688,18.063s1.268,12.532,3.688,18.063
			c1.383,3.342,3.111,6.338,5.301,9.305c0,0,33.13,38.979,33.591,39.555c0.461,0.461,1.152,0.922,1.729,1.268
			c0.691,0.346,1.498,0.461,2.189,0.461c0.807,0,1.498-0.115,2.189-0.461s1.268-0.691,1.729-1.268
			c0.461-0.461,33.591-39.555,33.591-39.555c2.074-2.88,3.918-5.991,5.301-9.305c2.305-5.531,3.688-11.726,3.688-18.063
			C142.903,324.211,141.521,317.988,139.216,312.486L139.216,312.486z M87.792,349.044H79.87v-39.438h7.922V349.044L87.792,349.044z
			 M124.265,327.87c-0.923,1.613-2.074,2.996-3.343,3.918c-1.383,0.922-2.765,1.498-4.147,1.844
			c-1.959,0.461-4.725,0.576-8.269,0.576h-5.186v14.951h-7.922v-39.438h12.762c4.84,0,7.922,0.115,9.421,0.576
			c2.305,0.576,4.147,1.844,5.646,3.918c1.499,2.074,2.306,4.494,2.306,7.691C125.646,324.211,125.187,326.285,124.265,327.87
			L124.265,327.87z"/>
	</g>
</g>
<path display="none" fill="#4285F4" d="M160.75,20H31.25C25.035,20,20,25.036,20,31.25v129.5c0,6.217,5.034,11.25,11.25,11.25h129.5
	c6.217,0,11.25-5.033,11.25-11.25V31.25C172,25.036,166.967,20,160.75,20z"/>
<path fill="none" d="M108,81h24v24h-24V81z"/>
<path fill="#3385FF" d="M145.365,20H48.636c-7.596,0-13.75,6.218-13.75,13.818l-0.067,89.333c0,4.771,2.415,8.986,6.08,11.471
	L97,172l56.029-37.379c3.668-2.482,6.085-6.7,6.085-11.471l0.065-89.333C159.182,26.218,152.962,20,145.365,20z"/>
<path fill="none" d="M56.5,64.5H132V140H56.5V64.5z"/>
<g>
	<rect x="90.208" y="106.167" fill="#FFFFFF" width="10.084" height="10.083"/>
	<path fill="#FFFFFF" d="M95.25,55.75c-11.143,0-20.167,9.024-20.167,20.167h10.084c0-5.543,4.539-10.083,10.083-10.083
		s10.083,4.54,10.083,10.083c0,10.083-15.125,8.823-15.125,25.208h10.084c0-11.344,15.125-12.604,15.125-25.208
		C115.417,64.774,106.392,55.75,95.25,55.75z"/>
</g>
</svg>
