<?xml version="1.0" encoding="utf-8"?>
<!-- Generator: Adobe Illustrator 16.0.0, SVG Export Plug-In . SVG Version: 6.00 Build 0)  -->
<!DOCTYPE svg PUBLIC "-//W3C//DTD SVG 1.1//EN" "http://www.w3.org/Graphics/SVG/1.1/DTD/svg11.dtd">
<svg version="1.1" id="图层_3" xmlns="http://www.w3.org/2000/svg" xmlns:xlink="http://www.w3.org/1999/xlink" x="0px" y="0px"
	 width="192px" height="192px" viewBox="0 0 192 192" enable-background="new 0 0 192 192" xml:space="preserve">
<g id="XMLID_1_">
	<g>
		<path fill="#037DD0" d="M158.765,33.893c15.709,15.912,25.407,37.776,25.407,61.902c0,48.674-39.455,88.131-88.129,88.131
			c-24.127,0-45.992-9.694-61.903-25.404L158.765,33.893z"/>
		<path fill="#037DD0" d="M96.043,7.667c24.545,0,46.747,10.034,62.722,26.226L34.14,158.522
			C17.948,142.546,7.912,120.344,7.912,95.795C7.912,47.124,47.368,7.667,96.043,7.667z"/>
	</g>
</g>
<g>
	<path opacity="0.1" enable-background="new    " d="M184.172,101.858l-48.684-48.683l-4.711,55.599l-56.07-55.599L68.583,139.4
		l55.594,40.007C157.329,168.34,181.707,138.107,184.172,101.858z"/>
	<g>
		<path fill="#FFFFFF" d="M135.635,110.201c0,27.674-12.552,41.509-37.653,41.509c-24.05,0-36.075-13.351-36.075-40.054V52.205
			h12.635v58.882c0,19.585,8.213,29.377,24.639,29.377c15.88,0,23.818-9.476,23.818-28.43V52.205h12.636V110.201L135.635,110.201z"
			/>
	</g>
</g>
</svg>
