<?xml version="1.0" encoding="utf-8"?>
<!-- Generator: Adobe Illustrator 16.0.0, SVG Export Plug-In . SVG Version: 6.00 Build 0)  -->
<!DOCTYPE svg PUBLIC "-//W3C//DTD SVG 1.1//EN" "http://www.w3.org/Graphics/SVG/1.1/DTD/svg11.dtd">
<svg version="1.1" id="图层_3" xmlns="http://www.w3.org/2000/svg" xmlns:xlink="http://www.w3.org/1999/xlink" x="0px" y="0px"
	 width="192px" height="192px" viewBox="0 0 192 192" enable-background="new 0 0 192 192" xml:space="preserve">
<path fill="none" d="M107,81h24v24h-24V81z"/>
<path fill="#3385FF" d="M144.365,20H47.636c-7.596,0-13.75,6.218-13.75,13.818l-0.067,89.333c0,4.77,2.415,8.986,6.08,11.47L96,172
	l56.029-37.379c3.668-2.483,6.085-6.7,6.085-11.47l0.066-89.333C158.181,26.218,151.962,20,144.365,20z"/>
<path fill="none" d="M55.5,64.5H131V140H55.5V64.5z"/>
<g>
	<path fill="#FFFFFF" d="M84.953,71.7v15.783c0,2.716-0.9,4.842-2.7,6.376c-1.8,1.535-4.135,2.302-7.005,2.302
		c-2.859,0-5.181-0.767-6.964-2.302c-1.784-1.534-2.675-3.66-2.675-6.376V71.7h4.853v15.783c0,1.612,0.43,2.844,1.292,3.693
		c0.861,0.85,2.026,1.275,3.494,1.275c1.49,0,2.672-0.425,3.544-1.275c0.872-0.85,1.309-2.081,1.309-3.693V71.7H84.953z"/>
	<path fill="#FFFFFF" d="M93.979,86.175v9.639h-4.836V71.7h8.347c2.749,0,4.899,0.627,6.45,1.88c1.552,1.253,2.328,3,2.328,5.242
		c0,1.236-0.328,2.305-0.986,3.205c-0.657,0.9-1.614,1.626-2.872,2.178c1.423,0.419,2.447,1.121,3.071,2.103
		c0.623,0.983,0.936,2.197,0.936,3.644v1.772c0,0.674,0.092,1.377,0.273,2.112c0.182,0.735,0.494,1.278,0.936,1.631v0.348h-4.985
		c-0.441-0.353-0.727-0.938-0.852-1.755c-0.128-0.817-0.192-1.606-0.192-2.369v-1.706c0-1.203-0.327-2.139-0.984-2.808
		c-0.657-0.668-1.587-1.001-2.79-1.001H93.979z M93.979,82.449h3.427c1.359,0,2.369-0.287,3.031-0.862
		c0.664-0.574,0.995-1.424,0.995-2.55c0-1.104-0.335-1.981-1.003-2.634c-0.668-0.651-1.648-0.977-2.939-0.977h-3.511V82.449z"/>
	<path fill="#FFFFFF" d="M115.592,92.104h10.799v3.71h-15.635V71.7h4.836V92.104z"/>
</g>
</svg>
