<?xml version="1.0" encoding="utf-8"?>
<!-- Generator: Adobe Illustrator 16.0.0, SVG Export Plug-In . SVG Version: 6.00 Build 0)  -->
<!DOCTYPE svg PUBLIC "-//W3C//DTD SVG 1.1//EN" "http://www.w3.org/Graphics/SVG/1.1/DTD/svg11.dtd">
<svg version="1.1" id="图层_3" xmlns="http://www.w3.org/2000/svg" xmlns:xlink="http://www.w3.org/1999/xlink" x="0px" y="0px"
	 width="192px" height="192px" viewBox="0 0 192 192" enable-background="new 0 0 192 192" xml:space="preserve">
<rect x="67" y="73" fill="none" width="67.667" height="41.333"/>
<path fill="none" d="M108.001,81h24v24h-24V81z"/>
<path fill="#3385FF" d="M145.366,20H48.637c-7.596,0-13.75,6.218-13.75,13.818L34.82,123.15c0,4.771,2.415,8.986,6.08,11.471
	L97.001,172l56.029-37.379c3.668-2.482,6.085-6.7,6.085-11.471l0.065-89.333C159.183,26.218,152.963,20,145.366,20z"/>
<path fill="none" d="M56.501,64.5h75.5V140h-75.5V64.5z"/>
<path fill="#FFFFFF" d="M96.25,123C75.71,123,59,106.29,59,85.75C59,65.21,75.71,48.5,96.25,48.5c20.54,0,37.25,16.71,37.25,37.25
	C133.5,106.29,116.79,123,96.25,123z M96.25,52.5C77.916,52.5,63,67.416,63,85.75S77.916,119,96.25,119s33.25-14.916,33.25-33.25
	S114.584,52.5,96.25,52.5z"/>
<circle fill="#FFFFFF" cx="96.25" cy="85.75" r="5.5"/>
</svg>
