<?xml version="1.0" encoding="utf-8"?>
<!-- Generator: Adobe Illustrator 16.0.0, SVG Export Plug-In . SVG Version: 6.00 Build 0)  -->
<!DOCTYPE svg PUBLIC "-//W3C//DTD SVG 1.1//EN" "http://www.w3.org/Graphics/SVG/1.1/DTD/svg11.dtd">
<svg version="1.1" id="图层_3" xmlns="http://www.w3.org/2000/svg" xmlns:xlink="http://www.w3.org/1999/xlink" x="0px" y="0px"
	 width="192px" height="192px" viewBox="0 0 192 192" enable-background="new 0 0 192 192" xml:space="preserve">
<line fill="none" x1="17.705" y1="74.155" x2="177.174" y2="74.155"/>
<path fill="#3385FF" d="M144.366,20.333H47.637c-7.596,0-13.75,6.218-13.75,13.818l-0.067,89.333c0,4.771,2.416,8.986,6.08,11.471
	l56.102,37.379l56.029-37.379c3.668-2.482,6.085-6.7,6.085-11.471l0.065-89.333C158.183,26.551,151.963,20.333,144.366,20.333z"/>
<g>
	<path fill="#FFFFFF" d="M97.855,84.952c0,1.688-0.235,3.275-0.702,4.76c-0.468,1.488-1.133,2.829-1.99,4.025l4.991,4.99
		l-4.393,3.589l-4.9-4.83c-1.027,0.552-2.127,0.969-3.299,1.252c-1.172,0.284-2.411,0.427-3.713,0.427
		c-4.141,0-7.498-1.344-10.073-4.026c-2.576-2.68-3.863-6.076-3.863-10.187v-6.025c0-4.092,1.283-7.484,3.851-10.176
		c2.567-2.689,5.915-4.036,10.038-4.036c4.155,0,7.536,1.346,10.142,4.036c2.606,2.691,3.909,6.083,3.909,10.176v6.026H97.855z
		 M91.162,78.88c0-2.606-0.651-4.743-1.955-6.416c-1.302-1.67-3.104-2.506-5.405-2.506c-2.269,0-4.036,0.836-5.301,2.506
		c-1.265,1.673-1.898,3.81-1.898,6.416v6.072c0,2.653,0.636,4.814,1.909,6.484c1.272,1.672,3.051,2.509,5.335,2.509
		c2.3,0,4.092-0.836,5.381-2.509c1.289-1.67,1.931-3.831,1.931-6.484V78.88H91.162z"/>
	<path fill="#FFFFFF" d="M110.619,86.54v12.141h-6.717V65.2h12.811c3.846,0,6.876,0.98,9.082,2.942
		c2.209,1.961,3.312,4.546,3.312,7.75c0,3.206-1.103,5.78-3.312,7.726c-2.209,1.948-5.236,2.921-9.082,2.921H110.619L110.619,86.54z
		 M110.619,81.362h6.094c1.868,0,3.288-0.51,4.253-1.527c0.967-1.02,1.448-2.319,1.448-3.899c0-1.608-0.479-2.939-1.437-3.991
		c-0.958-1.049-2.38-1.576-4.265-1.576h-6.094V81.362z"/>
</g>
</svg>
