<?xml version="1.0" encoding="utf-8"?>
<!-- Generator: Adobe Illustrator 16.0.0, SVG Export Plug-In . SVG Version: 6.00 Build 0)  -->
<!DOCTYPE svg PUBLIC "-//W3C//DTD SVG 1.1//EN" "http://www.w3.org/Graphics/SVG/1.1/DTD/svg11.dtd">
<svg version="1.1" id="图层_3" xmlns="http://www.w3.org/2000/svg" xmlns:xlink="http://www.w3.org/1999/xlink" x="0px" y="0px"
	 width="192px" height="192px" viewBox="0 0 192 192" enable-background="new 0 0 192 192" xml:space="preserve">
<path fill="#333333" d="M160.75,20H31.25C25.034,20,20,25.035,20,31.25v129.5c0,6.216,5.034,11.25,11.25,11.25h129.5
	c6.215,0,11.25-5.034,11.25-11.25V31.25C172,25.035,166.965,20,160.75,20z"/>
<path fill="#EA4335" d="M75.456,145.693c8.472-6.052,17.551-12.709,25.418-20.575c13.919-13.919,22.997-29.048,28.443-39.941
	c-8.474-18.761-21.182-33.89-26.628-39.942c-2.421-2.42-3.632-4.236-6.657-4.236s-4.841,1.815-6.657,3.631
	c-16.944,19.366-29.654,44.783-33.889,61.124C51.249,123.302,59.721,138.433,75.456,145.693L75.456,145.693z"/>
<path fill="#FFFFFF" d="M69.404,100.911c1.21-2.421,4.236-3.026,6.657-1.815c2.42,1.211,3.026,4.236,1.815,6.657
	c0,0.604-5.446,10.892,1.816,20.576c1.816,2.42,1.21,5.446-0.605,6.655c-1.211,1.211-4.842,1.816-7.262-0.604
	C60.932,117.251,68.799,101.516,69.404,100.911L69.404,100.911z"/>
<path fill="#E8281F" d="M135.368,100.911c-1.814-5.447-3.631-10.289-6.051-15.734c-5.446,10.894-13.92,24.813-27.839,39.336
	c-7.868,7.867-26.023,21.181-26.023,21.181s9.683,3.631,19.366,3.631C132.947,150.534,142.631,126.329,135.368,100.911
	L135.368,100.911z"/>
</svg>
