<?xml version="1.0" encoding="utf-8"?>
<!-- Generator: Adobe Illustrator 16.0.0, SVG Export Plug-In . SVG Version: 6.00 Build 0)  -->
<!DOCTYPE svg PUBLIC "-//W3C//DTD SVG 1.1//EN" "http://www.w3.org/Graphics/SVG/1.1/DTD/svg11.dtd">
<svg version="1.1" id="图层_3" xmlns="http://www.w3.org/2000/svg" xmlns:xlink="http://www.w3.org/1999/xlink" x="0px" y="0px"
	 width="192px" height="192px" viewBox="0 0 192 192" enable-background="new 0 0 192 192" xml:space="preserve">
<path fill="#4285F4" d="M159.849,32.462C152.052,24.656,140.928,20,130.083,20c-11.163,0-21.735,4.426-29.758,12.456L32.161,100.72
	c-7.987,7.943-12.432,18.772-12.326,30.037c0.075,11.106,4.45,21.451,12.317,29.112c7.794,7.806,18.92,12.464,29.765,12.464
	c11.17,0,21.737-4.427,29.76-12.457l68.164-68.27c7.986-7.943,12.431-18.773,12.324-30.037
	C172.09,50.474,167.716,40.128,159.849,32.462L159.849,32.462z"/>
<path fill="#4E4E4E" d="M125.667,125.667L66.333,66.333l-34.171,34.221c-7.987,7.943-12.432,18.772-12.326,30.037
	c0.075,11.106,4.45,21.451,12.317,29.112c7.794,7.806,18.92,12.464,29.765,12.464c11.17,0,21.737-4.427,29.76-12.457
	L125.667,125.667z"/>
<path fill="#FFFFFF" d="M130.534,36.953c-6.593-0.028-12.922,2.586-17.573,7.258c-1.479,1.415-1.531,3.761-0.115,5.24
	c0.037,0.04,0.076,0.078,0.115,0.116c1.391,1.477,3.715,1.547,5.191,0.156c0.054-0.05,0.105-0.103,0.156-0.156
	c3.139-3.145,7.595-4.949,12.222-4.949c4.628,0,9.083,1.805,12.224,4.949c1.392,1.476,3.716,1.545,5.191,0.155
	c0.054-0.05,0.104-0.102,0.155-0.155c1.479-1.415,1.532-3.761,0.117-5.24c-0.038-0.04-0.077-0.08-0.117-0.118
	C143.45,39.54,137.124,36.927,130.534,36.953z"/>
</svg>
