<?xml version="1.0" encoding="utf-8"?>
<!-- Generator: Adobe Illustrator 16.0.0, SVG Export Plug-In . SVG Version: 6.00 Build 0)  -->
<!DOCTYPE svg PUBLIC "-//W3C//DTD SVG 1.1//EN" "http://www.w3.org/Graphics/SVG/1.1/DTD/svg11.dtd">
<svg version="1.1" id="图层_3" xmlns="http://www.w3.org/2000/svg" xmlns:xlink="http://www.w3.org/1999/xlink" x="0px" y="0px"
	 width="192px" height="192px" viewBox="0 0 192 192" enable-background="new 0 0 192 192" xml:space="preserve">
<path fill="#333333" d="M160.75,20H31.25C25.034,20,20,25.035,20,31.25v129.5c0,6.216,5.034,11.25,11.25,11.25h129.5
	c6.215,0,11.25-5.034,11.25-11.25V31.25C172,25.035,166.965,20,160.75,20z"/>
<polygon fill="#FFFFFF" points="132.519,69.327 132.519,56 59.615,56 59.615,69.327 59.63,69.327 59.63,88.786 59.615,88.786 
	59.615,102.112 59.63,102.112 59.63,122.841 59.615,122.841 59.615,136.167 132.519,136.167 132.519,122.841 72.956,122.841 
	72.956,102.112 132.519,102.112 132.519,88.786 72.956,88.786 72.956,69.327 "/>
</svg>
