<?xml version="1.0" encoding="utf-8"?>
<!-- Generator: Adobe Illustrator 16.0.0, SVG Export Plug-In . SVG Version: 6.00 Build 0)  -->
<!DOCTYPE svg PUBLIC "-//W3C//DTD SVG 1.1//EN" "http://www.w3.org/Graphics/SVG/1.1/DTD/svg11.dtd">
<svg version="1.1" id="图层_3" xmlns="http://www.w3.org/2000/svg" xmlns:xlink="http://www.w3.org/1999/xlink" x="0px" y="0px"
	 width="192px" height="192px" viewBox="0 0 192 192" enable-background="new 0 0 192 192" xml:space="preserve">
<path fill="#FE82AA" d="M125.482,20H28.431C23.773,20,20,23.773,20,28.431v97.051c0,4.66,3.773,8.433,8.431,8.433h97.051
	c4.66,0,8.433-3.772,8.433-8.433V28.431C133.915,23.773,130.143,20,125.482,20z"/>
<path fill="#FFFFFF" d="M91.57,101.794c-1.353-0.34-2.751-0.874-3.93-1.698c-1.184-0.834-2.099-1.939-2.61-3.277
	c-1.058-2.66-0.632-6.219,0.37-9.595l0.852-2.64c0.366-1.183,0.661-2.424,0.774-3.721c0.259-2.579-0.135-5.322-1.076-7.68
	c-0.875-2.277-2.125-4.232-3.449-5.848c0.192-5.017-3.002-10.516-8.565-13.828c-7.451-4.434-16.325-3.268-19.821,2.6
	c-3.497,5.873-0.291,14.224,7.159,18.66c5.002,2.978,10.638,3.431,14.864,1.634c0.348,0.346,0.667,0.709,0.95,1.094
	c0.725,0.943,1.211,2.02,1.44,3.318c0.127,0.645,0.139,1.352,0.113,2.088c-0.095,1.045-0.2,1.954-0.272,3.154
	c-0.129,2.211-0.089,4.417,0.286,6.65c0.398,2.22,1.123,4.472,2.462,6.353c1.298,1.899,3.174,3.249,4.995,3.965
	c1.838,0.725,3.606,0.939,5.181,0.975c3.156,0.028,5.611-0.581,7.303-1.015c1.69-0.46,2.618-0.793,2.618-0.793
	s-0.987,0.119-2.709,0.188C96.799,102.433,94.305,102.452,91.57,101.794z"/>
<circle fill="#FBBC05" cx="133.875" cy="133.875" r="49.625"/>
<g>
	<rect x="113.475" y="121.164" fill="#FFFFFF" width="43.047" height="8.314"/>
	<rect x="113.475" y="138.329" fill="#FFFFFF" width="43.047" height="8.315"/>
</g>
</svg>
