<?xml version="1.0" encoding="utf-8"?>
<!-- Generator: Adobe Illustrator 16.0.0, SVG Export Plug-In . SVG Version: 6.00 Build 0)  -->
<!DOCTYPE svg PUBLIC "-//W3C//DTD SVG 1.1//EN" "http://www.w3.org/Graphics/SVG/1.1/DTD/svg11.dtd">
<svg version="1.1" id="图层_3" xmlns="http://www.w3.org/2000/svg" xmlns:xlink="http://www.w3.org/1999/xlink" x="0px" y="0px"
	 width="192px" height="192px" viewBox="0 0 192 192" enable-background="new 0 0 192 192" xml:space="preserve">
<path fill="#FFFFFF" d="M160.75,20H31.25C25.034,20,20,25.035,20,31.25v129.5c0,6.215,5.034,11.25,11.25,11.25h129.5
	c6.216,0,11.25-5.035,11.25-11.25V31.25C172,25.035,166.966,20,160.75,20z"/>
<path fill="#FBBC05" d="M96,37.632c-19.625-0.065-38.462,7.717-52.318,21.615c-1.234,1.138-1.312,3.062-0.173,4.295
	c0.056,0.06,0.113,0.118,0.173,0.173l23.104,23.104c1.138,1.234,3.062,1.312,4.296,0.173c0.06-0.055,0.118-0.113,0.173-0.173
	c13.676-13.616,35.785-13.616,49.461,0c1.129,1.242,3.053,1.334,4.295,0.205c0.07-0.065,0.139-0.133,0.203-0.205l23.105-23.104
	c1.234-1.139,1.311-3.062,0.172-4.296c-0.055-0.06-0.113-0.118-0.172-0.173C134.463,45.346,115.625,37.563,96,37.632z"/>
<g>
	<path fill="#4E4E4E" d="M167.684,113.449H24.225c-1.679,0-3.04-1.36-3.04-3.04c0-1.679,1.361-3.04,3.04-3.04h143.458
		c1.678,0,3.039,1.361,3.039,3.04C170.723,112.089,169.361,113.449,167.684,113.449z"/>
	<path fill="#4E4E4E" d="M160.704,20.027h-129.5c-6.216,0-11.25,5.035-11.25,11.25v129.5c0,6.215,5.034,11.25,11.25,11.25h129.5
		c6.216,0,11.25-5.035,11.25-11.25v-129.5C171.954,25.062,166.92,20.027,160.704,20.027z M165.352,154.325
		c0,5.596-4.562,10.129-10.193,10.129H37.795c-5.633,0-10.196-4.533-10.196-10.129V37.729c0-5.595,4.563-10.129,10.196-10.129
		h117.363c5.632,0,10.193,4.534,10.193,10.129V154.325z"/>
	<rect x="44.806" y="107.369" fill="#4E4E4E" width="6.08" height="17.207"/>
	<rect x="92.96" y="107.369" fill="#4E4E4E" width="6.079" height="17.207"/>
	<rect x="141.022" y="107.37" fill="#4E4E4E" width="6.079" height="17.207"/>
	<rect x="68.822" y="107.371" fill="#4E4E4E" width="6.08" height="25.899"/>
	<rect x="116.975" y="107.371" fill="#4E4E4E" width="6.08" height="25.899"/>
</g>
<path fill="#EA4335" d="M148.49,59.419c-0.055-0.06-0.113-0.118-0.172-0.173c-8.958-8.987-20.005-15.398-31.994-18.802
	l-10.291,37.629c5.37,1.602,10.434,4.516,14.682,8.746c1.129,1.242,3.053,1.334,4.295,0.204c0.07-0.064,0.139-0.133,0.203-0.204
	l23.105-23.104C149.553,62.577,149.629,60.653,148.49,59.419z"/>
<path fill="#34A853" d="M43.509,59.419c0.055-0.06,0.113-0.118,0.172-0.173c8.958-8.987,20.005-15.398,31.994-18.802l10.291,37.629
	c-5.37,1.602-10.434,4.516-14.682,8.746c-1.129,1.242-3.053,1.334-4.295,0.204c-0.07-0.064-0.139-0.133-0.203-0.204L43.681,63.715
	C42.446,62.577,42.37,60.653,43.509,59.419z"/>
</svg>
