<?xml version="1.0" encoding="utf-8"?>
<!-- Generator: Adobe Illustrator 16.0.0, SVG Export Plug-In . SVG Version: 6.00 Build 0)  -->
<!DOCTYPE svg PUBLIC "-//W3C//DTD SVG 1.1//EN" "http://www.w3.org/Graphics/SVG/1.1/DTD/svg11.dtd">
<svg version="1.1" id="图层_3" xmlns="http://www.w3.org/2000/svg" xmlns:xlink="http://www.w3.org/1999/xlink" x="0px" y="0px"
	 width="192px" height="192px" viewBox="0 0 192 192" enable-background="new 0 0 192 192" xml:space="preserve">
<path fill="#FE82AA" d="M160.75,20H31.25C25.034,20,20,25.035,20,31.25v129.5c0,6.216,5.034,11.25,11.25,11.25h129.5
	c6.216,0,11.25-5.034,11.25-11.25V31.25C172,25.035,166.966,20,160.75,20z"/>
<path fill="#FFFFFF" d="M81.731,57.588c0-5.575,4.474-10.046,10.045-10.046c5.573,0,10.046,4.471,10.046,10.046
	c0,5.574-4.474,10.046-10.046,10.046C86.205,67.634,81.731,63.162,81.731,57.588z M116.891,102.794
	c-0.047-6.73-4.169-12.606-10.044-15.069c0-8.339-6.73-15.068-15.07-15.068c-8.338,0-15.069,6.729-15.069,15.068v35.161h10.047V148
	h15.068v-25.114h15.067V102.794z"/>
</svg>
