<?xml version="1.0" encoding="utf-8"?>
<!-- Generator: Adobe Illustrator 16.0.0, SVG Export Plug-In . SVG Version: 6.00 Build 0)  -->
<!DOCTYPE svg PUBLIC "-//W3C//DTD SVG 1.1//EN" "http://www.w3.org/Graphics/SVG/1.1/DTD/svg11.dtd">
<svg version="1.1" id="图层_3" xmlns="http://www.w3.org/2000/svg" xmlns:xlink="http://www.w3.org/1999/xlink" x="0px" y="0px"
	 width="192px" height="192px" viewBox="0 0 192 192" enable-background="new 0 0 192 192" xml:space="preserve">
<path fill="#4285F4" d="M125.175,20H28.407C23.762,20,20,23.763,20,28.406v96.769c0,4.646,3.762,8.407,8.406,8.407h96.768
	c4.646,0,8.407-3.762,8.407-8.407V28.406C133.582,23.763,129.82,20,125.175,20z"/>
<circle fill="#FBBC05" cx="133.875" cy="133.875" r="49.625"/>
<g>
	<rect x="113.475" y="121.164" fill="#FFFFFF" width="43.047" height="8.314"/>
	<rect x="113.475" y="138.329" fill="#FFFFFF" width="43.047" height="8.315"/>
</g>
<path fill="#FFFFFF" d="M95.245,74.893c1.693-2.372,2.711-5.379,2.711-8.599c0-7.792-5.803-14.103-13.001-14.103h-2.077V41.266
	c0.003-0.629-0.505-1.141-1.134-1.144c-0.002,0-0.006,0-0.009,0h-3.77c-0.628-0.002-1.14,0.506-1.143,1.134c0,0.004,0,0.006,0,0.01
	v10.927h-6.014V41.266c0.003-0.629-0.505-1.141-1.135-1.144c-0.003,0-0.005,0-0.008,0h-3.77c-0.628-0.002-1.141,0.506-1.143,1.134
	c0,0.004,0,0.006,0,0.01v10.927H52.386c-0.629-0.003-1.142,0.505-1.144,1.133c0,0.003,0,0.006,0,0.011v3.81
	c0,0.594,0.424,1.102,1.017,1.144c4.235,0.381,6.521,3.22,6.521,6.734v23.334c0,3.134-1.61,5.633-5.166,5.971
	c-0.509,0.043-0.932,0.425-1.017,0.89l-0.72,3.853c-0.126,0.679,0.382,1.314,1.101,1.314h11.815v10.884
	c-0.002,0.629,0.506,1.143,1.135,1.144c0.003,0,0.007,0,0.009,0h3.769c0.63,0.001,1.142-0.506,1.145-1.134c0-0.004,0-0.008,0-0.01
	v-10.927h6.013v10.927c-0.001,0.629,0.505,1.141,1.135,1.144c0.004,0,0.006,0,0.01,0h3.77c0.629,0.001,1.14-0.506,1.144-1.135
	c0-0.003,0-0.007,0-0.011v-10.927h5.081c7.156,0,13.002-6.223,13.002-13.932C100.963,81.625,98.676,77.39,95.245,74.893
	L95.245,74.893z M70.852,61.171h9.232c3.431,0,6.226,2.795,6.226,6.225c0,3.431-2.796,6.226-6.226,6.226h-9.232V61.171
	L70.852,61.171z M83.048,91.705h-12.24V79.296h12.241c3.43,0,6.225,2.795,6.225,6.226C89.274,88.91,86.521,91.705,83.048,91.705
	L83.048,91.705z"/>
</svg>
