<?xml version="1.0" encoding="utf-8"?>
<!-- Generator: Adobe Illustrator 16.0.0, SVG Export Plug-In . SVG Version: 6.00 Build 0)  -->
<!DOCTYPE svg PUBLIC "-//W3C//DTD SVG 1.1//EN" "http://www.w3.org/Graphics/SVG/1.1/DTD/svg11.dtd">
<svg version="1.1" id="图层_3" xmlns="http://www.w3.org/2000/svg" xmlns:xlink="http://www.w3.org/1999/xlink" x="0px" y="0px"
	 width="192px" height="192px" viewBox="0 0 192 192" enable-background="new 0 0 192 192" xml:space="preserve">
<path fill="#FBBC05" d="M136.414,93.208c3.567-4.993,5.707-11.324,5.707-18.102c0-16.407-12.217-29.693-27.374-29.693h-4.371V22.408
	c0.007-1.324-1.063-2.402-2.388-2.408c-0.006,0-0.014,0-0.019,0h-7.937c-1.324-0.005-2.402,1.064-2.407,2.389
	c-0.001,0.007-0.001,0.013,0,0.019v23.006H84.964V22.408c0.005-1.324-1.065-2.402-2.389-2.408c-0.006,0-0.013,0-0.019,0H74.62
	c-1.324-0.005-2.402,1.064-2.408,2.389c0,0.007,0,0.013,0,0.019v23.006H46.174c-1.324-0.005-2.402,1.064-2.408,2.388
	c0,0.006,0,0.013,0,0.02v8.025c0,1.248,0.892,2.318,2.14,2.407c8.917,0.803,13.731,6.777,13.731,14.178v49.131
	c0,6.598-3.388,11.86-10.878,12.572c-1.071,0.089-1.961,0.892-2.141,1.873l-1.515,8.114c-0.267,1.427,0.803,2.765,2.318,2.765H72.3
	v22.916c-0.005,1.325,1.064,2.403,2.389,2.408c0.006,0,0.013,0,0.02,0h7.936c1.324,0.005,2.402-1.064,2.408-2.389
	c0-0.007,0-0.013,0-0.02v-23.006h12.661v23.006c-0.004,1.325,1.064,2.403,2.39,2.408c0.007,0,0.012,0,0.02,0h7.936
	c1.325,0.005,2.402-1.064,2.408-2.389c0-0.007,0-0.013,0-0.02v-23.006h10.699c15.07,0,27.376-13.107,27.376-29.337
	C148.451,107.385,143.636,98.468,136.414,93.208L136.414,93.208z M85.054,64.318h19.44c7.223,0,13.107,5.884,13.107,13.107
	c0,7.223-5.885,13.108-13.107,13.108h-19.44V64.318L85.054,64.318z M110.735,128.608H84.965v-26.126h25.771
	c7.223,0,13.107,5.884,13.107,13.107C123.843,122.723,118.047,128.608,110.735,128.608L110.735,128.608z"/>
</svg>
