<?xml version="1.0" encoding="utf-8"?>
<!-- Generator: Adobe Illustrator 16.0.0, SVG Export Plug-In . SVG Version: 6.00 Build 0)  -->
<!DOCTYPE svg PUBLIC "-//W3C//DTD SVG 1.1//EN" "http://www.w3.org/Graphics/SVG/1.1/DTD/svg11.dtd">
<svg version="1.1" id="图层_3" xmlns="http://www.w3.org/2000/svg" xmlns:xlink="http://www.w3.org/1999/xlink" x="0px" y="0px"
	 width="192px" height="192px" viewBox="0 0 192 192" enable-background="new 0 0 192 192" xml:space="preserve">
<path fill="#4285F4" d="M160.75,20H31.25C25.034,20,20,25.035,20,31.25v129.5c0,6.216,5.034,11.25,11.25,11.25h129.5
	c6.216,0,11.25-5.034,11.25-11.25V31.25C172,25.035,166.966,20,160.75,20z"/>
<path fill="#2D6FE4" d="M20,96v64.75c0,6.216,5.034,11.25,11.25,11.25h129.5c6.216,0,11.25-5.034,11.25-11.25V96H20z"/>
<path fill="#FBBC05" d="M86.444,59.334c-6.715,0-13.02,1.844-18.444,4.98c11.031,6.382,18.444,18.259,18.444,31.909
	c0,13.649-7.414,25.526-18.444,31.91c5.425,3.134,11.729,4.979,18.444,4.979c20.361,0,36.89-16.528,36.89-36.889
	C123.334,75.86,106.806,59.334,86.444,59.334z"/>
</svg>
