<?xml version="1.0" encoding="utf-8"?>
<!-- Generator: Adobe Illustrator 16.0.0, SVG Export Plug-In . SVG Version: 6.00 Build 0)  -->
<!DOCTYPE svg PUBLIC "-//W3C//DTD SVG 1.1//EN" "http://www.w3.org/Graphics/SVG/1.1/DTD/svg11.dtd">
<svg version="1.1" id="图层_3" xmlns="http://www.w3.org/2000/svg" xmlns:xlink="http://www.w3.org/1999/xlink" x="0px" y="0px"
	 width="192px" height="192px" viewBox="0 0 192 192" enable-background="new 0 0 192 192" xml:space="preserve">
<path fill="#FBBC05" d="M45.918,40.016l-8.099-8.056l-6.345,6.346l8.055,8.056L45.918,40.016z M33.5,65.486H20v9h13.5V65.486z
	 M73.999,20.711h-9v13.275h9V20.711z M107.525,38.306l-6.346-6.346l-8.055,8.056l6.346,6.346L107.525,38.306z M93.082,99.957
	l8.05,8.1l6.346-6.347l-8.095-8.054L93.082,99.957z M105.499,65.486v9H119v-9H105.499z M69.5,42.986c-14.896,0-27,12.103-27,27
	c0,14.898,12.104,27.001,27,27.001c14.897,0,27-12.103,27-27.001C96.5,55.089,84.397,42.986,69.5,42.986z M64.999,119.262h9v-13.274
	h-9V119.262z M31.475,101.666l6.345,6.347l8.056-8.1l-6.346-6.346L31.475,101.666z"/>
<path fill="#FBBC05" d="M139.473,105.945c-6.012,0-11.659,1.65-16.515,4.458c9.877,5.715,16.515,16.35,16.515,28.57
	c0,12.222-6.638,22.854-16.515,28.57c4.855,2.806,10.503,4.456,16.515,4.456c18.229,0,33.027-14.797,33.027-33.026
	C172.5,120.741,157.702,105.945,139.473,105.945z"/>
</svg>
