<?xml version="1.0" encoding="utf-8"?>
<!-- Generator: Adobe Illustrator 16.0.0, SVG Export Plug-In . SVG Version: 6.00 Build 0)  -->
<!DOCTYPE svg PUBLIC "-//W3C//DTD SVG 1.1//EN" "http://www.w3.org/Graphics/SVG/1.1/DTD/svg11.dtd">
<svg version="1.1" id="图层_3" xmlns="http://www.w3.org/2000/svg" xmlns:xlink="http://www.w3.org/1999/xlink" x="0px" y="0px"
	 width="192px" height="192px" viewBox="0 0 192 192" enable-background="new 0 0 192 192" xml:space="preserve">
<rect display="none" fill="#FFFFFF" width="192" height="192"/>
<path fill="#849AA5" d="M20,31.25V96h75.932V20H31.25C25.034,20,20,25.035,20,31.25z"/>
<path fill="#6A8692" d="M171.932,96V30.032C171.324,24.391,166.554,20,160.75,20H95.932v76H171.932z"/>
<path fill="#FBBC05" d="M171.932,161.969V96h-76v76h64.818C166.554,172,171.324,167.61,171.932,161.969z"/>
<path fill="#4C6067" d="M20,96v64.75c0,6.216,5.034,11.25,11.25,11.25h64.682V96H20z"/>
<path fill="#FFFFFF" d="M148.706,56.875h-11.582V45.292c0-1.307-1.095-2.401-2.402-2.401c-1.307,0-2.401,1.094-2.401,2.401v11.583
	h-11.583c-1.307,0-2.401,1.095-2.401,2.402c0,1.307,1.095,2.401,2.401,2.401h11.583v11.583c0,1.307,1.095,2.402,2.401,2.402
	c1.308,0,2.402-1.095,2.402-2.402V61.678h11.582c1.308,0,2.401-1.095,2.401-2.401C151.107,57.97,150.014,56.875,148.706,56.875
	L148.706,56.875z"/>
<g>
	<path fill="#FFFFFF" d="M147.946,139.29h-27.999c-1.308,0-2.4,1.094-2.4,2.401c0,1.307,1.093,2.401,2.4,2.401h27.999
		c1.308,0,2.402-1.095,2.402-2.401C150.349,140.354,149.254,139.29,147.946,139.29L147.946,139.29z"/>
	<path fill="#FFFFFF" d="M147.946,126.097h-27.999c-1.308,0-2.4,1.093-2.4,2.401c0,1.307,1.093,2.401,2.4,2.401h27.999
		c1.308,0,2.402-1.095,2.402-2.401C150.349,127.189,149.254,126.097,147.946,126.097L147.946,126.097z"/>
</g>
<g>
	<path fill="#FBBC05" d="M48.69,58c0,5.502,4.469,9.94,9.941,9.94c5.471,0,9.94-4.438,9.94-9.94s-4.469-9.94-9.94-9.94
		C53.159,48.06,48.69,52.498,48.69,58z"/>
	<path fill="#FBBC05" d="M48.021,49.701c0.668,0.668,1.672,0.668,2.311,0c0.668-0.669,0.668-1.672,0-2.311l-2.159-2.158
		c-0.668-0.669-1.672-0.669-2.311,0c-0.638,0.669-0.668,1.672,0,2.311L48.021,49.701z M58.631,46.235
		c1.003,0,1.672-0.669,1.672-1.672v-3.131c0-1.003-0.669-1.672-1.672-1.672c-1.003,0-1.672,0.669-1.672,1.672v3.162
		C56.959,45.566,57.628,46.235,58.631,46.235z M69.241,49.701l2.158-2.159c0.669-0.669,0.669-1.672,0-2.311
		c-0.668-0.669-1.671-0.669-2.31,0L66.93,47.39c-0.669,0.669-0.669,1.672,0,2.311C67.568,50.37,68.571,50.37,69.241,49.701z
		 M46.866,58c0-1.003-0.669-1.672-1.672-1.672h-3.162c-1.003,0-1.671,0.669-1.671,1.672s0.668,1.672,1.671,1.672h3.162
		C46.197,59.672,46.866,59.003,46.866,58z M69.241,66.299c-0.669-0.668-1.672-0.668-2.311,0c-0.669,0.669-0.669,1.672,0,2.311
		l2.159,2.158c0.668,0.669,1.671,0.669,2.31,0c0.669-0.669,0.669-1.672,0-2.311L69.241,66.299z M48.021,66.299l-2.159,2.159
		c-0.668,0.669-0.668,1.672,0,2.311c0.669,0.669,1.672,0.669,2.311,0l2.159-2.158c0.668-0.669,0.668-1.672,0-2.311
		C49.663,65.63,48.69,65.63,48.021,66.299z M75.199,56.358h-3.162c-1.003,0-1.672,0.669-1.672,1.672
		c0,1.003,0.669,1.672,1.672,1.672h3.162c1.003,0,1.672-0.668,1.672-1.672C76.871,56.997,76.202,56.358,75.199,56.358z
		 M58.631,69.765c-1.003,0-1.672,0.669-1.672,1.672v3.162c0,1.003,0.669,1.672,1.672,1.672c1.003,0,1.672-0.669,1.672-1.672v-3.162
		C60.272,70.434,59.634,69.765,58.631,69.765z"/>
</g>
<path fill="#FBBC05" d="M56.29,118.314c0-0.974-0.79-1.794-1.794-1.794c-2.675,0-12.464,7.479-12.464,17.784
	c0,10.305,8.36,18.695,18.696,18.695c10.306,0,17.784-9.85,17.784-12.464c0-0.973-0.791-1.794-1.794-1.794
	c-0.973,0-10.731,2.402-16.811-3.678C53.828,129.014,56.29,119.287,56.29,118.314z"/>
</svg>
