<?xml version="1.0" encoding="utf-8"?>
<!-- Generator: Adobe Illustrator 16.0.0, SVG Export Plug-In . SVG Version: 6.00 Build 0)  -->
<!DOCTYPE svg PUBLIC "-//W3C//DTD SVG 1.1//EN" "http://www.w3.org/Graphics/SVG/1.1/DTD/svg11.dtd">
<svg version="1.1" id="图层_3" xmlns="http://www.w3.org/2000/svg" xmlns:xlink="http://www.w3.org/1999/xlink" x="0px" y="0px"
	 width="192px" height="192px" viewBox="0 0 192 192" enable-background="new 0 0 192 192" xml:space="preserve">
<path fill="#4285F4" d="M160.75,20H31.25C25.034,20,20,25.035,20,31.25v129.5c0,6.216,5.034,11.25,11.25,11.25h129.5
	c6.216,0,11.25-5.034,11.25-11.25V31.25C172,25.035,166.966,20,160.75,20z"/>
<path fill="#2D6FE4" d="M20,96v64.75c0,6.216,5.034,11.25,11.25,11.25h129.5c6.216,0,11.25-5.034,11.25-11.25V96H20z"/>
<g>
	<path fill="#FFFFFF" d="M79.727,91.439c2.412,0,4.203-0.626,5.374-1.878c1.172-1.252,1.757-3.015,1.757-5.289
		c0-1.9-0.614-3.478-1.842-4.73c-1.23-1.252-2.946-1.879-5.149-1.879c-1.855,0-3.415,0.57-4.679,1.706
		c-1.264,1.136-1.895,2.585-1.895,4.348h-9.81l-0.07-0.208c-0.138-3.966,1.392-7.236,4.592-9.811
		c3.201-2.574,7.154-3.861,11.862-3.861c5.241,0,9.404,1.234,12.489,3.705c3.084,2.47,4.626,6.013,4.626,10.627
		c0,2.32-0.666,4.447-2,6.383c-1.334,1.937-3.16,3.462-5.479,4.575c2.645,0.999,4.686,2.511,6.123,4.54
		c1.438,2.029,2.156,4.481,2.156,7.356c0,4.639-1.675,8.287-5.026,10.941s-7.647,3.984-12.888,3.984
		c-4.615,0-8.65-1.253-12.105-3.758c-3.456-2.506-5.125-6.02-5.009-10.541l0.069-0.209H72.7c0,1.903,0.666,3.496,2,4.784
		c1.333,1.286,3.055,1.931,5.166,1.931c2.319,0,4.198-0.684,5.636-2.054c1.437-1.367,2.157-3.095,2.157-5.183
		c0-2.667-0.673-4.645-2.019-5.931c-1.345-1.287-3.315-1.931-5.913-1.931h-5.601v-7.619H79.727z"/>
	<path fill="#FFFFFF" d="M128.149,121.218h-10.123V79.403h-10.471v-7.758l20.594-1.808V121.218z"/>
</g>
</svg>
