<?xml version="1.0" encoding="utf-8"?>
<!-- Generator: Adobe Illustrator 16.0.0, SVG Export Plug-In . SVG Version: 6.00 Build 0)  -->
<!DOCTYPE svg PUBLIC "-//W3C//DTD SVG 1.1//EN" "http://www.w3.org/Graphics/SVG/1.1/DTD/svg11.dtd">
<svg version="1.1" id="图层_3" xmlns="http://www.w3.org/2000/svg" xmlns:xlink="http://www.w3.org/1999/xlink" x="0px" y="0px"
	 width="192px" height="192px" viewBox="0 0 192 192" enable-background="new 0 0 192 192" xml:space="preserve">
<path fill="#4285F4" d="M160.75,20H31.25C25.034,20,20,25.035,20,31.25v129.5c0,6.216,5.034,11.25,11.25,11.25h129.5
	c6.216,0,11.25-5.034,11.25-11.25V31.25C172,25.035,166.966,20,160.75,20z"/>
<g>
	<path fill="#FFFFFF" d="M95.961,56C73.882,56,56,73.921,56,96c0,22.079,17.882,40,39.961,40C118.079,136,136,118.079,136,96
		C136,73.921,118.079,56,95.961,56z M96,128.001c-17.68,0-32-14.321-32-32.001c0-17.68,14.32-32,32-32
		c17.68,0,32.001,14.32,32.001,32C128.001,113.68,113.68,128.001,96,128.001z"/>
	<path fill="#FFFFFF" d="M98.001,76h-6v23.999l21,12.603l2.998-4.922L98.001,97V76z"/>
</g>
</svg>
