<?xml version="1.0" encoding="utf-8"?>
<!-- Generator: Adobe Illustrator 16.0.0, SVG Export Plug-In . SVG Version: 6.00 Build 0)  -->
<!DOCTYPE svg PUBLIC "-//W3C//DTD SVG 1.1//EN" "http://www.w3.org/Graphics/SVG/1.1/DTD/svg11.dtd">
<svg version="1.1" id="图层_3" xmlns="http://www.w3.org/2000/svg" xmlns:xlink="http://www.w3.org/1999/xlink" x="0px" y="0px"
	 width="192px" height="192px" viewBox="0 0 192 192" enable-background="new 0 0 192 192" xml:space="preserve">
<path fill="#4E4E4E" d="M161.105,20h-129.5c-6.216,0-11.25,5.035-11.25,11.25v129.5c0,6.216,5.034,11.25,11.25,11.25h129.5
	c6.216,0,11.25-5.034,11.25-11.25V31.25C172.355,25.035,167.321,20,161.105,20z"/>
<polygon fill="#7C7C7C" points="116.319,88.637 123.369,96.538 114.781,104.047 76.442,104.047 69.232,96.533 77.791,88.632 
	116.319,88.632 "/>
<g>
	<path fill="#FFFFFF" d="M69.895,143.731l-9.501,8.094l-3.661-4.434c-1.063-1.156-1.779-2.698-1.929-4.43
		c-0.068-0.773,0.044-1.73,0.15-2.698l2.466-29.09c0.343-2.697,1.117-4.819,2.718-6.354l6.59-6.164l6.562,6.74L69.895,143.731z"/>
	<path fill="#FFFFFF" d="M74.942,86.901l-8.046,7.127l-3.82-4.042c-1.698-1.731-2.858-4.047-3.013-5.778
		c-0.082-0.962,0.01-2.119,0.082-3.472l2.331-26.198c0.256-3.66,1.083-5.198,3.738-7.896l4.768-5.008l7.272,8.283L74.942,86.901z"/>
	<path fill="#FFFFFF" d="M111.241,145.085l7.732,9.057l-3.937,3.467c-2.669,2.504-3.796,2.892-8.8,2.892H74.063
		c-4.815,0-6.793-0.581-8.728-2.892l-2.983-3.278l10.367-9.245H111.241z"/>
	<path fill="#FFFFFF" d="M81.122,47.416l-7.645-8.095l3.882-4.047C79.647,32.769,81.315,32,84.589,32h34.868
		c3.086,0,4.884,0.769,6.838,3.273l3.616,3.859l-10.067,8.284H81.122z"/>
	<path fill="#FFFFFF" d="M116.924,106.552l8.572-7.703l4.24,4.43c1.272,1.349,2.003,3.08,2.172,5.01
		c0.102,1.15,0.009,2.311-0.067,3.659l-2.515,28.511c-0.059,1.542-0.344,2.698-0.488,3.273c-0.286,1.155-0.968,2.122-2.936,3.854
		l-4.815,4.434l-7.467-8.287L116.924,106.552z"/>
	<path fill="#FFFFFF" d="M121.972,49.722l9.873-8.283l3.206,3.661c1.29,1.542,2.002,3.085,2.137,4.623
		c0.083,0.962-0.022,1.924-0.116,3.085l-2.353,28.123c-0.543,4.816-1.516,6.938-4.198,9.25l-4.638,4.235l-7.208-7.513
		L121.972,49.722z"/>
</g>
</svg>
