<?xml version="1.0" encoding="utf-8"?>
<!-- Generator: Adobe Illustrator 16.0.0, SVG Export Plug-In . SVG Version: 6.00 Build 0)  -->
<!DOCTYPE svg PUBLIC "-//W3C//DTD SVG 1.1//EN" "http://www.w3.org/Graphics/SVG/1.1/DTD/svg11.dtd">
<svg version="1.1" id="图层_3" xmlns="http://www.w3.org/2000/svg" xmlns:xlink="http://www.w3.org/1999/xlink" x="0px" y="0px"
	 width="192px" height="192px" viewBox="0 0 192 192" enable-background="new 0 0 192 192" xml:space="preserve">
<path fill="#4285F4" d="M160.75,20H31.25C25.034,20,20,25.035,20,31.25v129.5c0,6.216,5.034,11.25,11.25,11.25h129.5
	c6.216,0,11.25-5.034,11.25-11.25V31.25C172,25.035,166.966,20,160.75,20z"/>
<path fill="#2D6FE4" d="M20,96v64.75c0,6.216,5.034,11.25,11.25,11.25h129.5c6.216,0,11.25-5.034,11.25-11.25V96H20z"/>
<g>
	<path fill="#FFFFFF" d="M67.974,93.568c1.648,0,2.874-0.428,3.674-1.284c0.8-0.856,1.201-2.061,1.201-3.614
		c0-1.3-0.42-2.378-1.26-3.234s-2.013-1.284-3.52-1.284c-1.268,0-2.334,0.389-3.198,1.166c-0.865,0.777-1.296,1.768-1.296,2.972
		h-6.707l-0.047-0.143c-0.096-2.711,0.952-4.946,3.139-6.707c2.188-1.759,4.89-2.64,8.109-2.64c3.583,0,6.429,0.845,8.537,2.533
		c2.108,1.689,3.163,4.11,3.163,7.265c0,1.586-0.456,3.04-1.367,4.364c-0.912,1.324-2.159,2.366-3.745,3.126
		c1.807,0.683,3.203,1.717,4.186,3.104c0.983,1.388,1.475,3.064,1.475,5.03c0,3.171-1.146,5.663-3.437,7.479
		c-2.291,1.815-5.228,2.723-8.811,2.723c-3.155,0-5.914-0.855-8.276-2.567c-2.362-1.713-3.504-4.114-3.424-7.206l0.047-0.143h6.754
		c0,1.3,0.456,2.39,1.367,3.271c0.912,0.879,2.089,1.319,3.531,1.319c1.585,0,2.87-0.468,3.853-1.404
		c0.983-0.935,1.474-2.115,1.474-3.543c0-1.822-0.459-3.174-1.379-4.054c-0.919-0.881-2.267-1.32-4.043-1.32h-3.828v-5.208H67.974z"
		/>
	<path fill="#FFFFFF" d="M98.057,78.8c1.348,0,2.597,0.124,3.746,0.369s2.286,0.606,3.412,1.082l-1.236,5.089
		c-1.078-0.364-2.046-0.638-2.901-0.821c-0.856-0.182-1.848-0.273-2.973-0.273c-2.03,0-3.666,0.777-4.91,2.331
		c-1.245,1.555-1.867,3.718-1.867,6.492v1.118c0.919-0.904,2.018-1.605,3.294-2.105c1.275-0.499,2.699-0.749,4.269-0.749
		c2.964,0,5.279,1.05,6.943,3.151c1.665,2.101,2.497,4.839,2.497,8.216c0,3.472-1.078,6.293-3.233,8.467
		c-2.157,2.172-4.971,3.257-8.443,3.257c-3.613,0-6.559-1.236-8.834-3.71s-3.412-5.857-3.412-10.154v-7.253
		c0-4.391,1.288-7.907,3.864-10.546C90.848,80.121,94.109,78.8,98.057,78.8z M96.582,96.589c-1.252,0-2.318,0.202-3.198,0.606
		s-1.565,0.963-2.057,1.676v1.855c0,2.663,0.487,4.725,1.462,6.183c0.976,1.459,2.264,2.188,3.864,2.188
		c1.442,0,2.593-0.606,3.449-1.819c0.855-1.213,1.284-2.738,1.284-4.578c0-1.902-0.433-3.396-1.297-4.481
		C99.226,97.133,98.057,96.589,96.582,96.589z"/>
	<path fill="#FFFFFF" d="M113.396,98.658l1.998-19.358h19.311v5.565h-13.627l-0.95,8.085c0.648-0.476,1.466-0.868,2.449-1.177
		c0.981-0.31,2.052-0.479,3.209-0.511c3.219-0.047,5.711,0.947,7.479,2.984c1.768,2.037,2.651,4.896,2.651,8.573
		c0,3.393-0.958,6.174-2.877,8.348c-1.919,2.172-4.852,3.257-8.8,3.257c-3.186,0-5.912-0.844-8.18-2.532s-3.361-4.007-3.282-6.956
		l0.048-0.119l6.684-0.309c0,1.442,0.436,2.567,1.307,3.377c0.873,0.809,2.014,1.213,3.424,1.213c1.648,0,2.85-0.539,3.604-1.617
		c0.753-1.078,1.13-2.615,1.13-4.614c0-1.997-0.413-3.586-1.237-4.769c-0.824-1.18-2.045-1.771-3.662-1.771
		c-1.332,0-2.35,0.246-3.056,0.736c-0.705,0.492-1.208,1.158-1.509,1.998L113.396,98.658z"/>
</g>
</svg>
