<?xml version="1.0" encoding="utf-8"?>
<!-- Generator: Adobe Illustrator 16.0.0, SVG Export Plug-In . SVG Version: 6.00 Build 0)  -->
<!DOCTYPE svg PUBLIC "-//W3C//DTD SVG 1.1//EN" "http://www.w3.org/Graphics/SVG/1.1/DTD/svg11.dtd">
<svg version="1.1" id="图层_3" xmlns="http://www.w3.org/2000/svg" xmlns:xlink="http://www.w3.org/1999/xlink" x="0px" y="0px"
	 width="192px" height="192px" viewBox="0 0 192 192" enable-background="new 0 0 192 192" xml:space="preserve">
<path fill="#306CFF" d="M76.206,20.257c3.061-0.612,6.122,0.306,8.571,1.836c3.979,2.754,6.428,6.734,7.958,11.325
	c2.449,7.04,2.143,14.693-0.612,21.427c-1.224,3.367-3.367,6.427-6.122,8.877c-2.143,1.836-5.204,3.061-7.958,3.367
	c-3.061,0-5.816-0.918-8.265-2.754c-3.673-2.756-6.122-7.041-7.346-11.327c-1.837-6.427-1.837-13.773,0.612-20.202
	c1.53-3.979,3.673-7.347,7.04-9.795C72.227,21.481,74.063,20.563,76.206,20.257L76.206,20.257z"/>
<path fill="#306CFF" d="M120.284,23.624c2.143-0.306,4.284,0,6.121,0.918c2.754,1.224,4.896,3.368,6.733,5.816
	c2.448,3.366,4.284,7.346,4.898,11.325c0.307,3.061,0,5.816-0.918,8.571c-0.614,3.674-2.145,7.041-3.98,9.795
	c-1.837,2.45-3.979,4.898-6.733,6.428c-2.448,1.53-5.509,2.143-8.266,1.836c-3.367-0.306-7.039-1.53-9.488-3.979
	c-2.754-2.45-3.979-5.816-4.896-9.183c-0.612-3.674-0.612-7.346-0.306-11.02c0.611-3.367,1.836-6.427,3.672-9.183
	c1.837-3.061,3.979-5.509,6.428-7.959C115.385,25.766,117.833,24.235,120.284,23.624L120.284,23.624z"/>
<path fill="#306CFF" d="M41.005,55.151c3.061-0.612,6.428,0,9.489,1.53c4.285,2.449,7.346,6.123,9.489,10.407
	c0.612,1.836,1.531,3.674,1.531,5.816c0.612,4.897,0.306,10.101-0.918,14.692c-0.918,3.368-2.755,6.428-5.204,8.57
	c-3.061,2.756-7.347,4.286-11.631,4.286c-3.367,0-7.041-1.225-9.489-3.673c-3.367-3.062-5.51-7.346-6.734-11.632
	c-0.612-3.061-1.225-6.123-0.612-9.183c0.612-5.203,2.142-10.101,5.203-14.693C33.965,58.212,37.332,55.764,41.005,55.151
	L41.005,55.151z"/>
<path fill="#306CFF" d="M144.158,66.477c3.673-0.612,7.958,0,11.326,1.836c3.061,1.836,5.51,4.592,7.346,7.652
	c1.225,2.754,2.448,5.51,2.448,8.571c0,4.286,0.307,8.571-0.612,12.549c-0.611,2.756-1.836,5.816-3.672,7.959
	c-1.837,2.144-4.285,3.979-7.042,4.592c-2.754,0.612-5.814,0.918-8.569,0.612c-3.366-0.306-6.733-1.225-9.49-3.366
	c-2.448-1.838-3.979-4.593-4.896-7.347c-1.225-3.674-1.225-7.958-1.225-11.938c0-4.285,0.612-8.265,2.448-12.243
	c1.225-2.755,3.061-5.204,5.817-7.041C139.874,67.395,142.017,66.783,144.158,66.477L144.158,66.477z"/>
<path fill="#306CFF" d="M92.735,81.782c3.98-0.612,7.958,0.306,11.326,1.836c5.51,2.448,9.794,7.04,12.854,12.243
	c3.981,5.816,8.572,11.021,13.469,15.917c4.591,4.592,9.49,9.183,14.693,13.469c0.918,0.612,1.836,1.53,2.448,2.143
	c3.979,3.979,6.121,9.183,6.733,14.692c0.614,5.815-0.919,11.632-3.061,16.835c-1.837,3.979-4.897,7.04-8.57,9.184
	c-5.205,2.754-11.326,3.366-17.141,3.366c-5.817-0.306-11.326-1.225-16.836-3.061c-6.734-1.836-13.467-2.144-20.202-1.531
	c-3.061,0.307-6.122,1.226-9.489,1.837c-7.04,1.225-14.387,1.53-21.426,1.225c-5.816-0.306-11.632-3.062-15.305-7.959
	c-2.143-2.754-3.979-6.122-4.897-9.488c-0.918-3.368-1.53-6.734-1.53-10.101c0.306-3.98,1.224-7.959,3.367-11.327
	c2.755-5.202,7.346-9.488,11.938-13.161c1.224-1.224,2.755-1.836,3.979-3.366c2.143-2.144,4.591-3.98,6.734-6.122
	c3.979-3.98,7.958-8.265,11.019-12.857c0.918-1.224,1.53-2.754,2.755-3.979C79.573,86.373,86.001,82.394,92.735,81.782"/>
<path fill="#FFFFFF" d="M95.796,121.268v26.018c0,2.756,1.224,5.816,3.367,7.652c1.836,1.837,4.592,2.755,7.04,2.755h23.875v-36.425
	h-9.794v28.16h-10.408c-1.225,0-2.143-0.307-3.061-1.225c-0.612-0.918-0.918-1.836-0.918-2.754v-24.182H95.796L95.796,121.268z"/>
<path fill="#FFFFFF" d="M80.491,105.963v14.386H70.084c-1.225,0-2.449,0.307-3.367,0.612c-2.755,0.918-5.204,2.448-7.347,4.286
	c-2.449,2.448-4.285,5.509-5.203,8.877c-0.612,3.061-0.612,6.122,0,8.876c0.612,2.755,1.53,5.815,3.367,7.959
	c2.448,3.061,5.815,5.509,9.794,6.427c1.836,0.307,3.673,0.307,5.51,0.307h17.447v-51.729H80.491z M80.491,149.428h-7.958
	c-2.754,0-5.509-1.225-7.04-3.367c-1.225-1.836-2.143-4.284-1.836-6.428c0-1.837,0.306-3.673,0.918-5.509
	c1.224-2.45,3.061-3.674,4.897-4.593c0.612-0.306,1.225-0.611,2.143-0.611h8.876V149.428z"/>
</svg>
