<?xml version="1.0" encoding="utf-8"?>
<!-- Generator: Adobe Illustrator 16.0.0, SVG Export Plug-In . SVG Version: 6.00 Build 0)  -->
<!DOCTYPE svg PUBLIC "-//W3C//DTD SVG 1.1//EN" "http://www.w3.org/Graphics/SVG/1.1/DTD/svg11.dtd">
<svg version="1.1" id="图层_3" xmlns="http://www.w3.org/2000/svg" xmlns:xlink="http://www.w3.org/1999/xlink" x="0px" y="0px"
	 width="192px" height="192px" viewBox="0 0 192 192" enable-background="new 0 0 192 192" xml:space="preserve">
<path fill="#849AA5" d="M20.034,31.25V96h75.932V20H31.284C25.068,20,20.034,25.035,20.034,31.25z"/>
<path fill="#4C6067" d="M171.966,96V30.032C171.358,24.391,166.589,20,160.784,20H95.966v76H171.966z"/>
<path fill="#FBBC05" d="M171.966,161.969V96h-76v76h64.818C166.589,172,171.358,167.609,171.966,161.969z"/>
<path fill="#6A8692" d="M20.034,96v64.75c0,6.216,5.034,11.25,11.25,11.25h64.682V96H20.034z"/>
<g>
	<path fill="#FFFFFF" d="M147.979,139.29h-27.998c-1.309,0-2.4,1.094-2.4,2.401c0,1.307,1.094,2.4,2.4,2.4h27.998
		c1.309,0,2.402-1.095,2.402-2.4C150.384,140.354,149.288,139.29,147.979,139.29L147.979,139.29z"/>
	<path fill="#FFFFFF" d="M147.979,126.098h-27.998c-1.309,0-2.4,1.092-2.4,2.4c0,1.307,1.094,2.4,2.4,2.4h27.998
		c1.309,0,2.402-1.094,2.402-2.4C150.384,127.189,149.288,126.098,147.979,126.098L147.979,126.098z"/>
</g>
<path fill="#FFFFFF" d="M71.998,131.596H60.404v-11.593c0-1.321-1.082-2.403-2.403-2.403c-1.321,0-2.403,1.082-2.403,2.403v11.593
	H44.003c-1.319,0-2.403,1.083-2.403,2.404s1.083,2.403,2.403,2.403h11.595v11.594c0,1.321,1.082,2.403,2.403,2.403
	c1.321,0,2.403-1.082,2.403-2.403v-11.593h11.594c1.321,0,2.403-1.082,2.403-2.403C74.401,132.681,73.319,131.596,71.998,131.596
	L71.998,131.596z"/>
<path fill="#FFFFFF" d="M145.653,48.237c-0.938-0.936-2.47-0.936-3.405,0l-8.206,8.204l-8.206-8.204
	c-0.934-0.936-2.468-0.936-3.403,0c-0.935,0.936-0.935,2.466,0,3.404l8.205,8.206l-8.205,8.206c-0.935,0.936-0.935,2.47,0,3.407
	c0.936,0.936,2.47,0.936,3.403,0l8.206-8.208l8.206,8.208c0.936,0.936,2.468,0.936,3.405,0c0.933-0.936,0.933-2.47,0-3.407
	l-8.207-8.206l8.207-8.206C146.586,50.703,146.586,49.172,145.653,48.237L145.653,48.237z"/>
<g>
	<path fill="#F9F9F9" d="M71.984,56.481H44.016c-1.32,0-2.402,1.083-2.402,2.404c0,1.318,1.082,2.401,2.402,2.401h27.969
		c1.319,0,2.402-1.083,2.402-2.401C74.387,57.564,73.304,56.481,71.984,56.481L71.984,56.481z"/>
	<path display="none" fill="#F9F9F9" d="M55.368,69.171c0,1.453,1.179,2.633,2.633,2.633s2.632-1.18,2.632-2.633
		s-1.178-2.633-2.632-2.633S55.368,67.718,55.368,69.171"/>
	<path display="none" fill="#F9F9F9" d="M55.368,48.6c0,1.454,1.179,2.632,2.633,2.632s2.632-1.179,2.632-2.632
		c0-1.454-1.178-2.633-2.632-2.633S55.368,47.146,55.368,48.6"/>
</g>
</svg>
