<?xml version="1.0" encoding="utf-8"?>
<!-- Generator: Adobe Illustrator 16.0.0, SVG Export Plug-In . SVG Version: 6.00 Build 0)  -->
<!DOCTYPE svg PUBLIC "-//W3C//DTD SVG 1.1//EN" "http://www.w3.org/Graphics/SVG/1.1/DTD/svg11.dtd">
<svg version="1.1" id="图层_3" xmlns="http://www.w3.org/2000/svg" xmlns:xlink="http://www.w3.org/1999/xlink" x="0px" y="0px"
	 width="192px" height="192px" viewBox="0 0 192 192" enable-background="new 0 0 192 192" xml:space="preserve">
<rect x="67" y="73" fill="none" width="67.667" height="41.333"/>
<path fill="#EA4335" d="M96,63.347c12.263,0,21.959-9.696,21.959-21.673S107.978,20,96,20c-11.977,0-21.958,9.696-21.958,21.673
	S83.738,63.347,96,63.347z"/>
<path fill="#34A853" d="M96,117.53c12.263,0,21.959-9.695,21.959-21.674c0-11.978-9.981-21.673-21.959-21.673
	c-11.977,0-21.958,9.695-21.958,21.673C74.042,107.835,83.738,117.53,96,117.53z"/>
<path fill="#FBBC05" d="M96,172c12.263,0,21.959-9.697,21.959-21.674S107.978,128.652,96,128.652
	c-11.977,0-21.958,9.697-21.958,21.674S83.738,172,96,172z"/>
</svg>
