<?xml version="1.0" encoding="utf-8"?>
<!-- Generator: Adobe Illustrator 16.0.0, SVG Export Plug-In . SVG Version: 6.00 Build 0)  -->
<!DOCTYPE svg PUBLIC "-//W3C//DTD SVG 1.1//EN" "http://www.w3.org/Graphics/SVG/1.1/DTD/svg11.dtd">
<svg version="1.1" id="图层_3" xmlns="http://www.w3.org/2000/svg" xmlns:xlink="http://www.w3.org/1999/xlink" x="0px" y="0px"
	 width="192px" height="192px" viewBox="0 0 192 192" enable-background="new 0 0 192 192" xml:space="preserve">
<path fill="#EA4335" d="M116.595,154.173h-5.989c-0.531,0-0.961,0.431-0.961,0.962v2.979c0,0.53,0.43,0.96,0.961,0.96
	c0.108,0,0.213-0.017,0.312-0.051l5.98-1.995c0.386-0.131,0.657-0.488,0.657-0.911v-0.981
	C117.555,154.604,117.124,154.173,116.595,154.173L116.595,154.173z M171.508,49.614c0.117-0.285,0.185-0.615,0.185-0.959
	c0-1.425-1.156-2.582-2.581-2.582c-0.001,0-0.001,0-0.001,0h-5.664c-0.711-0.001-1.358-0.291-1.826-0.756l-11.393-11.392
	c-0.469-0.468-1.116-0.757-1.83-0.757c-0.224,0-0.438,0.028-0.646,0.081l-7.862,1.966c-0.844,0.217-1.511,0.827-1.803,1.619
	l-6.241,14.569c-0.133,0.3-0.209,0.65-0.209,1.018c0,1.134,0.731,2.098,1.746,2.444c1.055,0.357,1.786,1.321,1.786,2.455
	c0,0.925-0.488,1.736-1.22,2.192l-28.554,17.57c-0.383,0.24-0.852,0.383-1.353,0.383c-0.291,0-0.571-0.049-0.834-0.138l-22.13-7.379
	c-0.455-0.154-0.837-0.417-1.133-0.757l-11.753-9.347c-0.521-0.417-0.877-1.024-0.958-1.714l-1.839-9.188
	c-0.245-1.191-1.284-2.075-2.531-2.075c-0.292,0-0.573,0.049-0.834,0.138l-19.592,6.534c-0.876,0.3-1.53,1.033-1.715,1.936
	l-1.846,7.375c-0.264,1.032-1.125,1.805-2.184,1.936l-14.471,2.066c-1.26,0.187-2.217,1.259-2.222,2.556v5.056
	c0,0.422,0.101,0.819,0.279,1.171L25,85.077c0.172,0.336,0.273,0.733,0.273,1.154c0,0,0,0,0,0.001v11.401
	c0.001,0.774,0.342,1.469,0.88,1.942l19.481,17.046c0.452,0.397,1.048,0.639,1.7,0.639h11.431c0,0,0,0,0.001,0
	c0.534,0,1.029,0.163,1.44,0.44l6.361,4.24c0.403,0.272,0.899,0.436,1.435,0.436c0.182,0,0.36-0.019,0.532-0.056l9.029-1.806
	c0.152-0.033,0.328-0.051,0.507-0.051c1.425,0,2.582,1.156,2.582,2.581v0.001v6.328c-0.001,0.713-0.291,1.359-0.759,1.825
	l-0.245,0.247c-0.464,0.468-0.75,1.112-0.75,1.824c0,0.611,0.213,1.174,0.568,1.618l7.904,9.878c0.477,0.593,1.203,0.97,2.016,0.97
	c0.345,0,0.676-0.07,0.977-0.192l10.31-4.124c0.282-0.118,0.612-0.184,0.957-0.184c0.422,0,0.819,0.1,1.17,0.278l13.681,6.845
	c0.336,0.172,0.732,0.273,1.153,0.273c0.38,0,0.741-0.083,1.065-0.23l21.739-9.672c0.647-0.292,1.143-0.825,1.38-1.481l9.51-18.982
	c0.172-0.336,0.271-0.733,0.271-1.154c0-0.325-0.06-0.637-0.17-0.924l-7.11-18.967c-0.104-0.27-0.166-0.582-0.166-0.907
	c0-0.421,0.102-0.818,0.279-1.168l1.289-2.578c0.17-0.336,0.271-0.732,0.271-1.152c0-0.713-0.287-1.358-0.753-1.828l-4.486-4.5
	c-0.462-0.468-0.749-1.112-0.749-1.823c0-0.84,0.399-1.587,1.02-2.061l6.379-4.786c0.425-0.322,0.965-0.516,1.549-0.516
	c0.714,0,1.358,0.289,1.826,0.757l1.865,1.865c0.467,0.467,1.113,0.757,1.826,0.757s1.358-0.29,1.825-0.757l12.679-12.679
	c0.468-0.466,0.757-1.112,0.757-1.825c0-0.421-0.102-0.818-0.28-1.169l-1.279-2.557c-0.17-0.336-0.271-0.733-0.271-1.154
	c0-0.345,0.067-0.675,0.192-0.977L171.508,49.614z M143.882,146.228c-0.151-0.33-0.421-0.584-0.755-0.71
	c0.027,0.003-0.116-0.037-0.268-0.037c-0.126,0-0.246,0.026-0.354,0.074l-5.433,2.504c-0.255,0.127-0.436,0.365-0.482,0.648
	c-0.011,0.042-0.024,0.147-0.024,0.253c0,0.21,0.048,0.409,0.133,0.586l0.505,1.103c0.18,0.431,0.592,0.729,1.076,0.74l6.467-0.266
	c0.671-0.028,1.015-0.817,0.676-1.552L143.882,146.228z"/>
<path fill="#FBBC05" d="M97.299,95.985l2.777,8.332l8.793,0.069c0.65,0.006,1.173,0.535,1.173,1.185c0,0.389-0.187,0.734-0.477,0.95
	l-7.08,5.231l2.65,8.386c0.034,0.104,0.056,0.229,0.056,0.357c0,0.653-0.531,1.184-1.186,1.184c-0.259,0-0.497-0.082-0.691-0.224
	l-7.146-5.108l-7.153,5.112c-0.192,0.138-0.43,0.22-0.689,0.22c-0.654,0-1.185-0.53-1.185-1.184c0-0.129,0.021-0.253,0.058-0.367
	l2.648-8.376l-7.072-5.223c-0.292-0.218-0.479-0.563-0.479-0.953c0-0.649,0.524-1.178,1.173-1.185l8.792-0.067l2.779-8.333
	c0.161-0.474,0.604-0.809,1.124-0.809c0.52,0,0.961,0.334,1.12,0.8L97.299,95.985z M129.227,98.04l1.986,2.717l3.221-1.009
	c0.041-0.013,0.088-0.021,0.139-0.021c0.249,0,0.451,0.202,0.451,0.454c0,0.1-0.031,0.192-0.087,0.267l-1.971,2.735l1.953,2.757
	c0.054,0.072,0.085,0.164,0.085,0.264c0,0.251-0.201,0.454-0.454,0.454c-0.049,0-0.097-0.008-0.143-0.022l-3.21-1.027l-2.011,2.708
	c-0.084,0.111-0.217,0.184-0.365,0.184c-0.25,0-0.452-0.203-0.455-0.452l-0.014-3.373l-3.196-1.077
	c-0.184-0.062-0.313-0.231-0.313-0.432s0.13-0.37,0.311-0.432l3.206-1.056l0.038-3.371c0.002-0.25,0.204-0.449,0.452-0.449
	c0.15,0,0.283,0.071,0.367,0.186L129.227,98.04z M117.076,89.934l3.354,0.371l1.432-3.056c0.074-0.157,0.23-0.265,0.411-0.265
	c0.22,0,0.403,0.156,0.444,0.363l0.691,3.298l3.349,0.416c0.227,0.027,0.401,0.219,0.401,0.451c0,0.17-0.092,0.317-0.229,0.395
	l-2.93,1.677l0.64,3.314c0.004,0.025,0.008,0.056,0.008,0.086c0,0.251-0.203,0.454-0.452,0.454c-0.12,0-0.228-0.045-0.308-0.119
	l-2.499-2.267l-2.956,1.63c-0.064,0.035-0.141,0.058-0.22,0.058c-0.25,0-0.453-0.204-0.453-0.454c0-0.068,0.014-0.133,0.04-0.19
	l1.381-3.072l-2.461-2.306c-0.089-0.083-0.145-0.202-0.145-0.333c0-0.251,0.203-0.454,0.454-0.454c0.018,0,0.033,0.001,0.051,0.003
	H117.076z M122.378,122.621l-1.995,2.719l-3.22-1.005c-0.042-0.014-0.089-0.021-0.137-0.021c-0.252,0-0.454,0.204-0.454,0.453
	c0,0.102,0.032,0.193,0.087,0.27l1.971,2.734l-1.953,2.751c-0.054,0.074-0.085,0.165-0.085,0.265c0,0.251,0.203,0.454,0.454,0.454
	c0.05,0,0.099-0.01,0.145-0.023l3.207-1.019l2.014,2.707c0.084,0.111,0.217,0.184,0.364,0.184c0.25,0,0.454-0.203,0.454-0.452
	l0.015-3.373l3.195-1.077c0.184-0.061,0.313-0.232,0.313-0.431c0-0.2-0.13-0.371-0.309-0.433l-3.209-1.056l-0.034-3.371
	c-0.003-0.25-0.206-0.451-0.455-0.451c-0.149,0-0.283,0.072-0.365,0.184L122.378,122.621z M134.519,115.001l-3.354,0.37
	l-1.429-3.056c-0.074-0.157-0.229-0.264-0.411-0.264c-0.222,0-0.403,0.156-0.444,0.362l-0.69,3.304l-3.347,0.407
	c-0.228,0.027-0.401,0.219-0.401,0.45c0,0.17,0.093,0.318,0.229,0.395l2.931,1.678l-0.64,3.311
	c-0.005,0.027-0.008,0.058-0.008,0.088c0,0.251,0.203,0.454,0.452,0.454c0.119,0,0.227-0.047,0.308-0.121l2.497-2.264l2.954,1.628
	c0.064,0.035,0.141,0.058,0.22,0.058c0.251,0,0.454-0.203,0.454-0.454c0-0.068-0.016-0.133-0.041-0.189l-1.383-3.073l2.463-2.306
	c0.088-0.082,0.145-0.2,0.145-0.333c0-0.25-0.202-0.453-0.454-0.453c-0.017,0-0.034,0.003-0.053,0.004L134.519,115.001z"/>
</svg>
