<?xml version="1.0" encoding="utf-8"?>
<!-- Generator: Adobe Illustrator 16.0.0, SVG Export Plug-In . SVG Version: 6.00 Build 0)  -->
<!DOCTYPE svg PUBLIC "-//W3C//DTD SVG 1.1//EN" "http://www.w3.org/Graphics/SVG/1.1/DTD/svg11.dtd">
<svg version="1.1" id="图层_3" xmlns="http://www.w3.org/2000/svg" xmlns:xlink="http://www.w3.org/1999/xlink" x="0px" y="0px"
	 width="192px" height="192px" viewBox="0 0 192 192" enable-background="new 0 0 192 192" xml:space="preserve">
<path fill="#4285F4" d="M151.723,68.269h-20.798V40.538H33.866C26.243,40.538,20,46.776,20,54.404v76.261h13.866
	c0,11.507,9.289,20.797,20.798,20.797c11.51,0,20.797-9.29,20.797-20.797h41.598c0,11.507,9.288,20.797,20.799,20.797
	c11.509,0,20.799-9.29,20.799-20.797h13.864V96L151.723,68.269z M54.664,141.063c-5.755,0-10.398-4.644-10.398-10.398
	s4.643-10.402,10.398-10.402c5.755,0,10.4,4.647,10.4,10.402S60.418,141.063,54.664,141.063z M148.255,78.669L161.845,96h-30.92
	V78.669H148.255z M137.857,141.063c-5.756,0-10.4-4.644-10.4-10.398s4.645-10.402,10.4-10.402c5.754,0,10.397,4.647,10.397,10.402
	S143.611,141.063,137.857,141.063z"/>
<polygon fill="#FFFFFF" points="77.767,77.175 77.767,56.458 62.7,84.708 70.234,84.708 70.234,105.426 85.3,77.175 "/>
</svg>
