<?xml version="1.0" encoding="utf-8"?>
<!-- Generator: Adobe Illustrator 16.0.0, SVG Export Plug-In . SVG Version: 6.00 Build 0)  -->
<!DOCTYPE svg PUBLIC "-//W3C//DTD SVG 1.1//EN" "http://www.w3.org/Graphics/SVG/1.1/DTD/svg11.dtd">
<svg version="1.1" id="图层_3" xmlns="http://www.w3.org/2000/svg" xmlns:xlink="http://www.w3.org/1999/xlink" x="0px" y="0px"
	 width="192px" height="192px" viewBox="0 0 192 192" enable-background="new 0 0 192 192" xml:space="preserve">
<line fill="none" x1="17.705" y1="74.155" x2="177.174" y2="74.155"/>
<path fill="#FFFFFF" d="M138.438,90.455l-0.399-0.443L138.438,90.455z"/>
<path fill="#FFFFFF" d="M104.377,52.686l-0.399-0.443L104.377,52.686z"/>
<g>
	<g>
		<path fill="#4E4E4E" d="M155.077,32.85c-0.438-0.364-0.878-0.72-1.323-1.064l-90.086,81.239c0.447,0.343,0.891,0.696,1.331,1.058
			L155.077,32.85z"/>
		<path fill="#4E4E4E" d="M165.35,44.388c-0.371-0.572-0.756-1.14-1.153-1.704l-90.079,81.232c0.398,0.563,0.783,1.132,1.152,1.706
			L165.35,44.388z"/>
		<path fill="#4E4E4E" d="M169.095,51.357l-90.119,81.268c4.899,11.631,3.921,23.566-3.569,30.321l0,0l0.57,0.633l89.621-80.821
			C173.343,75.773,174.284,63.376,169.095,51.357z"/>
		<path fill="#4E4E4E" d="M56.938,108.748l90.13-81.28c-11.151-5.89-23.106-6.019-30.636,0.771L26.81,109.06l0.57,0.632l0,0
			C34.652,103.133,46.149,103.185,56.938,108.748z"/>
		<path fill="#4E4E4E" d="M70.811,118.808c-13.577-15.055-33.277-19.42-44.001-9.748c-10.725,9.671-8.412,29.716,5.165,44.771
			c13.577,15.054,33.277,19.417,44.001,9.748C86.7,153.906,84.388,133.862,70.811,118.808z M75.406,162.946
			c-10.476,9.446-29.719,5.184-42.981-9.522c-13.262-14.705-15.521-34.285-5.045-43.732s29.719-5.185,42.981,9.521
			C83.623,133.92,85.881,153.5,75.406,162.946z"/>
		<path fill="#4E4E4E" d="M116.42,28.25l0.569,0.632c10.477-9.447,29.719-5.184,42.981,9.522
			c13.262,14.707,15.521,34.287,5.045,43.733l0.569,0.632c10.725-9.671,8.411-29.715-5.165-44.771
			C146.844,22.943,127.145,18.578,116.42,28.25z"/>
		<path fill="#4E4E4E" d="M64.329,124.653c-9.044-10.031-22.17-12.938-29.314-6.495c-7.144,6.443-5.604,19.798,3.441,29.827
			c9.045,10.028,22.169,12.938,29.314,6.495C74.914,148.038,73.375,134.685,64.329,124.653z M51.865,136.844
			c-0.206,0.184-0.584,0.101-0.845-0.189c-0.261-0.287-0.306-0.674-0.099-0.857c0.207-0.188,0.584-0.104,0.845,0.186
			C52.027,136.272,52.071,136.657,51.865,136.844z"/>
	</g>
</g>
</svg>
