<?xml version="1.0" encoding="utf-8"?>
<!-- Generator: Adobe Illustrator 16.0.0, SVG Export Plug-In . SVG Version: 6.00 Build 0)  -->
<!DOCTYPE svg PUBLIC "-//W3C//DTD SVG 1.1//EN" "http://www.w3.org/Graphics/SVG/1.1/DTD/svg11.dtd">
<svg version="1.1" id="图层_3" xmlns="http://www.w3.org/2000/svg" xmlns:xlink="http://www.w3.org/1999/xlink" x="0px" y="0px"
	 width="192px" height="192px" viewBox="0 0 192 192" enable-background="new 0 0 192 192" xml:space="preserve">
<g>
	<path fill="#4285F4" d="M27.983,20h23.951c4.41,0,7.984,3.569,7.984,7.981v23.954c0,4.404-3.575,7.981-7.984,7.981H27.983
		c-4.407,0-7.983-3.577-7.983-7.981V27.983C20,23.571,23.577,20,27.983,20z"/>
	<path fill="#4285F4" d="M83.869,20h23.95c4.41,0,7.984,3.569,7.984,7.981v23.954c0,4.404-3.574,7.981-7.984,7.981h-23.95
		c-4.407,0-7.983-3.577-7.983-7.981V27.983C75.886,23.571,79.46,20,83.869,20z"/>
	<path fill="#4285F4" d="M139.755,20h23.95c4.409,0,7.981,3.569,7.981,7.981v23.954c0,4.404-3.572,7.981-7.981,7.981h-23.95
		c-4.413,0-7.983-3.577-7.983-7.981V27.983C131.771,23.571,135.342,20,139.755,20z"/>
	<path fill="#4285F4" d="M139.755,75.886h23.95c4.409,0,7.981,3.568,7.981,7.983v23.951c0,4.406-3.572,7.983-7.981,7.983h-23.95
		c-4.413,0-7.983-3.577-7.983-7.983V83.869C131.771,79.454,135.342,75.886,139.755,75.886z"/>
	<path fill="#4285F4" d="M83.869,75.886h23.95c4.41,0,7.984,3.568,7.984,7.983v23.951c0,4.406-3.574,7.983-7.984,7.983h-23.95
		c-4.407,0-7.983-3.577-7.983-7.983V83.869C75.886,79.454,79.46,75.886,83.869,75.886z"/>
	<path fill="#4285F4" d="M27.983,75.886h23.951c4.41,0,7.984,3.568,7.984,7.983v23.951c0,4.406-3.575,7.983-7.984,7.983H27.983
		c-4.407,0-7.983-3.577-7.983-7.983V83.869C20,79.454,23.577,75.886,27.983,75.886z"/>
	<path fill="#4285F4" d="M27.983,131.771h23.951c4.41,0,7.984,3.568,7.984,7.983v23.95c0,4.401-3.575,7.981-7.984,7.981H27.983
		c-4.407,0-7.983-3.58-7.983-7.981v-23.95C20,135.34,23.577,131.771,27.983,131.771z"/>
	<path fill="#4285F4" d="M83.869,131.771h23.95c4.41,0,7.984,3.568,7.984,7.983v23.95c0,4.401-3.574,7.981-7.984,7.981h-23.95
		c-4.407,0-7.983-3.58-7.983-7.981v-23.95C75.886,135.34,79.46,131.771,83.869,131.771z"/>
	<path fill="#4285F4" d="M139.755,131.771h23.95c4.409,0,7.981,3.568,7.981,7.983v23.95c0,4.401-3.572,7.981-7.981,7.981h-23.95
		c-4.413,0-7.983-3.58-7.983-7.981v-23.95C131.771,135.34,135.342,131.771,139.755,131.771z"/>
</g>
</svg>
