<?xml version="1.0" encoding="utf-8"?>
<!-- Generator: Adobe Illustrator 16.0.0, SVG Export Plug-In . SVG Version: 6.00 Build 0)  -->
<!DOCTYPE svg PUBLIC "-//W3C//DTD SVG 1.1//EN" "http://www.w3.org/Graphics/SVG/1.1/DTD/svg11.dtd">
<svg version="1.1" id="图层_3" xmlns="http://www.w3.org/2000/svg" xmlns:xlink="http://www.w3.org/1999/xlink" x="0px" y="0px"
	 width="192px" height="192px" viewBox="0 0 192 192" enable-background="new 0 0 192 192" xml:space="preserve">
<rect x="67" y="73" fill="none" width="67.667" height="41.333"/>
<path fill="none" d="M108.001,81h24v24h-24V81z"/>
<path fill="none" d="M56.501,64.5h75.5V140h-75.5V64.5z"/>
<line fill="none" x1="17" y1="74.738" x2="176.469" y2="74.738"/>
<path fill="#C9916B" d="M91.953,20.394c-2.188,0.049-3.949,1.852-3.918,4.046c0,12.165-4.65,15.788-10.592,21.125
	c-5.94,5.316-13.235,12.364-13.235,26.66c-0.017,1.434,0.728,2.767,1.974,3.5c1.243,0.717,2.767,0.717,4.014,0
	c1.243-0.733,1.991-2.071,1.975-3.5c0-11.882,4.619-15.383,10.593-20.735C88.736,46.138,96,38.966,96,24.44
	c0.029-2.206-1.735-4.018-3.94-4.046C92.023,20.393,91.989,20.393,91.953,20.394z"/>
<path fill="#C9916B" d="M111.896,40.303c-2.188,0.049-3.949,1.853-3.918,4.047c0,7.777-2.677,9.628-6.641,13.16
	c-3.967,3.524-9.319,8.789-9.319,18.695c-0.016,1.434,0.733,2.768,1.976,3.501c1.246,0.716,2.767,0.716,4.014,0
	c1.242-0.733,1.99-2.071,1.975-3.501c0-7.465,2.628-9.179,6.643-12.754c4.014-3.564,9.317-8.959,9.317-19.102
	c0.03-2.206-1.736-4.017-3.941-4.047C111.966,40.303,111.931,40.303,111.896,40.303z"/>
<path fill="#BF5710" d="M151.748,100.098h-11.946v-7.964c0-2.198-1.783-3.981-3.982-3.981H32.288c-2.199,0-3.982,1.783-3.982,3.981
	v47.785c0,13.033,6.316,24.593,16.036,31.856h79.426c7.854-5.872,13.267-14.436,15.196-24.051
	c9.098-0.744,15.755-4.712,19.551-10.807c4.093-6.627,5.073-15.041,5.116-24.188c0.016-0.03,0.016-0.064,0.016-0.095
	c0.031-0.194,0.049-0.393,0.049-0.591C163.694,105.493,158.299,100.098,151.748,100.098z M151.748,132.715
	c-2.381,3.827-5.738,6.25-11.946,6.956v-31.61h11.946c2.253,0,3.982,1.729,3.982,3.982
	C155.73,120.864,154.575,128.142,151.748,132.715z"/>
<path fill="#FCFCFC" d="M93.312,114.333H76.145v9.44h0.027l-0.027,0.026l7.701,7.701l-7.701,7.701l0.027,0.026h-0.027v9.44h20.59
	v-9.44h-0.027l0.027-0.026l-7.701-7.701l7.701-7.701l-0.027-0.026h0.027v-9.44H93.312z"/>
</svg>
