<?xml version="1.0" encoding="utf-8"?>
<!-- Generator: Adobe Illustrator 16.0.0, SVG Export Plug-In . SVG Version: 6.00 Build 0)  -->
<!DOCTYPE svg PUBLIC "-//W3C//DTD SVG 1.1//EN" "http://www.w3.org/Graphics/SVG/1.1/DTD/svg11.dtd">
<svg version="1.1" id="图层_3" xmlns="http://www.w3.org/2000/svg" xmlns:xlink="http://www.w3.org/1999/xlink" x="0px" y="0px"
	 width="192px" height="192px" viewBox="0 0 192 192" enable-background="new 0 0 192 192" xml:space="preserve">
<path fill="#4285F4" d="M160.75,20H31.25C25.034,20,20,25.035,20,31.25v129.5c0,6.216,5.034,11.25,11.25,11.25h129.5
	c6.215,0,11.25-5.034,11.25-11.25V31.25C172,25.035,166.965,20,160.75,20z"/>
<path fill="#FFFFFF" d="M98.887,99.892c14.248-8.216,26.371-19.297,33.445-33.465l-5.972-3.546l-1.403,0.46H94.679
	c2.064-2.424,3.928-4.929,5.691-7.454l-9.879-2.044C85,62.62,74.561,72.499,59.551,79.292c1.964,1.482,4.769,4.749,5.972,6.893
	c8.476-4.388,15.55-9.418,21.521-14.909h32.242c-5.21,7.274-12.483,13.706-21.061,19.017c-4.188-3.627-9.778-7.815-14.347-11.082
	l-6.713,5.03c4.188,3.167,9.137,7.074,13.045,10.62c-10.26,5.23-21.542,9.038-32.623,11.282c1.583,1.964,3.526,5.591,4.468,8.016
	c4.85-1.202,9.779-2.605,14.628-4.188v29.737h8.676v-4.469h38.394v4.469h8.938h0.02V99.892H98.887z M123.755,127.304H85.361v-19.577
	h38.394V127.304z"/>
</svg>
