<?xml version="1.0" encoding="utf-8"?>
<!-- Generator: Adobe Illustrator 16.0.0, SVG Export Plug-In . SVG Version: 6.00 Build 0)  -->
<!DOCTYPE svg PUBLIC "-//W3C//DTD SVG 1.1//EN" "http://www.w3.org/Graphics/SVG/1.1/DTD/svg11.dtd">
<svg version="1.1" id="图层_3" xmlns="http://www.w3.org/2000/svg" xmlns:xlink="http://www.w3.org/1999/xlink" x="0px" y="0px"
	 width="192px" height="192px" viewBox="0 0 192 192" enable-background="new 0 0 192 192" xml:space="preserve">
<path fill="none" d="M107,81h24v24h-24V81z"/>
<path fill="none" d="M24,8.667h89.667v89.667H24V8.667z"/>
<path fill="none" d="M121,72h74.5v74.5H121V72z"/>
<path fill="#FBBC05" d="M8.125,43.625v104.75c0,6.216,5.034,11.25,11.25,11.25h153.25c6.215,0,11.25-5.034,11.25-11.25V43.625
	c0-6.215-5.035-11.25-11.25-11.25H19.375C13.159,32.375,8.125,37.41,8.125,43.625z"/>
<rect x="15.333" y="40.333" fill="#4285F4" width="160.334" height="111.667"/>
<g>
	<polygon fill="#FFFFFF" points="58.391,105.042 58.391,78.328 66.267,78.328 66.267,118.331 57.759,118.331 40.809,92.24 
		40.809,118.331 32.951,118.331 32.951,78.328 41.202,78.328 58.4,105.042 	"/>
	<path fill="#FFFFFF" d="M108.57,83.127c-3.709-3.659-8.662-5.479-14.853-5.479c-3.42,0-6.438,0.526-9.054,1.58
		c-2.051,0.834-3.899,2.061-5.433,3.604c-1.648,1.62-2.951,3.449-3.909,5.489c-1.284,2.76-1.916,6.182-1.916,10.254
		c0,6.37,1.839,11.372,5.528,14.994c3.688,3.632,8.652,5.452,14.899,5.452c6.161,0,11.095-1.83,14.783-5.479
		c3.689-3.642,5.528-8.692,5.528-15.158C114.146,91.866,112.288,86.789,108.57,83.127z M102.13,108.634
		c-2.175,2.319-4.943,3.479-8.326,3.479c-3.382,0-6.17-1.168-8.363-3.506c-2.205-2.348-3.296-5.77-3.296-10.301
		c0-4.61,1.063-8.049,3.2-10.328c2.145-2.282,4.963-3.431,8.459-3.431c3.499,0,6.296,1.13,8.403,3.392
		c2.118,2.251,3.182,5.673,3.182,10.251C105.389,102.837,104.296,106.315,102.13,108.634z"/>
	<rect x="119.665" y="110.666" fill="#FFFFFF" width="8.049" height="7.665"/>
</g>
</svg>
