<?xml version="1.0" encoding="utf-8"?>
<!-- Generator: Adobe Illustrator 16.0.0, SVG Export Plug-In . SVG Version: 6.00 Build 0)  -->
<!DOCTYPE svg PUBLIC "-//W3C//DTD SVG 1.1//EN" "http://www.w3.org/Graphics/SVG/1.1/DTD/svg11.dtd">
<svg version="1.1" id="图层_3" xmlns="http://www.w3.org/2000/svg" xmlns:xlink="http://www.w3.org/1999/xlink" x="0px" y="0px"
	 width="192px" height="192px" viewBox="0 0 192 192" enable-background="new 0 0 192 192" xml:space="preserve">
<line fill="none" x1="19" y1="73.362" x2="178.469" y2="73.362"/>
<path fill="none" d="M47.735,76.083h51v51h-51V76.083z"/>
<path fill="none" d="M71,69h97v97H71V69z"/>
<line fill="none" x1="18" y1="79.583" x2="177.469" y2="79.583"/>
<rect x="23.705" y="27.144" fill="none" width="144.395" height="144.396"/>
<path fill="#4285F4" d="M140.932,117.89l-29.963-14.922c-1.121-0.456-2.307-0.721-3.562-0.721h-5.015V62.651
	c0-5.477-4.421-9.898-9.898-9.898c-5.478,0-9.899,4.421-9.899,9.898v70.879l-22.633-4.757c-0.529-0.064-0.993-0.193-1.586-0.193
	c-2.049,0-3.892,0.857-5.213,2.178l-5.213,5.277l32.596,32.605c1.786,1.778,4.292,2.899,6.999,2.899h44.81
	c4.95,0,8.778-3.629,9.506-8.449l4.949-34.775c0.064-0.464,0.129-0.921,0.129-1.32C146.938,122.902,144.431,119.339,140.932,117.89z
	"/>
<polygon fill="#4E4E4E" points="63.964,45.419 54.522,36.027 47.123,43.426 56.515,52.818 "/>
<rect x="84.749" y="20.549" fill="#4E4E4E" width="10.492" height="15.478"/>
<rect x="118.507" y="37.782" transform="matrix(0.7071 0.7071 -0.7071 0.7071 67.6579 -74.4872)" fill="#4E4E4E" width="10.463" height="13.282"/>
</svg>
