<?xml version="1.0" encoding="utf-8"?>
<!-- Generator: Adobe Illustrator 16.0.0, SVG Export Plug-In . SVG Version: 6.00 Build 0)  -->
<!DOCTYPE svg PUBLIC "-//W3C//DTD SVG 1.1//EN" "http://www.w3.org/Graphics/SVG/1.1/DTD/svg11.dtd">
<svg version="1.1" id="图层_3" xmlns="http://www.w3.org/2000/svg" xmlns:xlink="http://www.w3.org/1999/xlink" x="0px" y="0px"
	 width="192px" height="192px" viewBox="0 0 192 192" enable-background="new 0 0 192 192" xml:space="preserve">
<path fill="#4285F4" d="M125.175,20H28.407C23.762,20,20,23.763,20,28.406v96.769c0,4.646,3.762,8.407,8.406,8.407h96.768
	c4.646,0,8.407-3.762,8.407-8.407V28.406C133.582,23.763,129.82,20,125.175,20z"/>
<g>
	<path fill="#FFFFFF" d="M86.098,62.974c0,5.139-4.169,9.307-9.308,9.307s-9.308-4.168-9.308-9.307s4.169-9.308,9.308-9.308
		S86.098,57.835,86.098,62.974z"/>
	<path opacity="0.5" fill="#FFFFFF" d="M58.175,72.281c0,3.43-2.776,6.206-6.206,6.206c-3.43,0-6.205-2.775-6.205-6.206
		c0-3.429,2.775-6.205,6.205-6.205C55.399,66.077,58.175,68.852,58.175,72.281z"/>
	<path opacity="0.5" fill="#FFFFFF" d="M107.816,72.281c0,3.43-2.775,6.206-6.205,6.206c-3.431,0-6.206-2.775-6.206-6.206
		c0-3.429,2.775-6.205,6.206-6.205C105.041,66.077,107.816,68.852,107.816,72.281z"/>
	<path opacity="0.5" fill="#FFFFFF" d="M117.124,89.928c0-1.382-0.509-2.715-1.454-3.721c-2.146-2.291-6.727-4.618-14.059-4.618
		c-7.333,0-11.914,2.327-14.06,4.618c-0.945,1.006-1.454,2.339-1.454,3.721V94h31.026V89.928z"/>
	<path opacity="0.5" fill="#FFFFFF" d="M67.482,89.928c0-1.382-0.509-2.715-1.454-3.721c-2.145-2.291-6.726-4.618-14.059-4.618
		s-11.914,2.327-14.059,4.618c-0.945,1.006-1.454,2.339-1.454,3.721V94h31.026V89.928z"/>
	<path fill="#FFFFFF" d="M95.405,86.995c0-1.66-0.605-3.248-1.745-4.46c-2.581-2.751-8.071-7.15-16.87-7.15
		s-14.29,4.399-16.871,7.15c-1.139,1.2-1.745,2.8-1.745,4.46V94h37.23V86.995z"/>
</g>
<circle fill="#FBBC05" cx="133.875" cy="133.875" r="49.625"/>
<g>
	<rect x="113.474" y="121.164" fill="#FFFFFF" width="43.048" height="8.314"/>
	<rect x="113.474" y="138.329" fill="#FFFFFF" width="43.048" height="8.315"/>
</g>
</svg>
