<?xml version="1.0" encoding="utf-8"?>
<!-- Generator: Adobe Illustrator 16.0.0, SVG Export Plug-In . SVG Version: 6.00 Build 0)  -->
<!DOCTYPE svg PUBLIC "-//W3C//DTD SVG 1.1//EN" "http://www.w3.org/Graphics/SVG/1.1/DTD/svg11.dtd">
<svg version="1.1" id="图层_3" xmlns="http://www.w3.org/2000/svg" xmlns:xlink="http://www.w3.org/1999/xlink" x="0px" y="0px"
	 width="192px" height="192px" viewBox="0 0 192 192" enable-background="new 0 0 192 192" xml:space="preserve">
<line fill="none" x1="18.797" y1="72.809" x2="178.266" y2="72.809"/>
<path fill="none" d="M47.532,75.53h51v51h-51V75.53z"/>
<path fill="#3C8CEA" d="M117.422,8.125h-74c-6.216,0-11.25,5.034-11.25,11.25v153.25c0,6.215,5.034,11.25,11.25,11.25h104.75
	c6.215,0,11.25-5.035,11.25-11.25v-122.5L117.422,8.125z"/>
<polygon fill="#2D6FE4" points="119.404,48 158.964,84 159.422,50.125 "/>
<path fill="#A5C5F9" d="M117.422,8.125v35c0,3.866,3.134,7,7,7h35L117.422,8.125z"/>
<g>
	<g>
		<path fill="#EA4335" d="M99.815,94.813H87.08l-2.644,8.472h-8.228l13.247-39.282h8.067l13.192,39.282h-8.229L99.815,94.813z
			 M89.023,88.635h8.875l-4.343-13.84h-0.162L89.023,88.635z"/>
	</g>
	<g>
		<path fill="#EA4335" d="M114.16,63.73h4.07v2.85h-4.07v4.681h-3.12V66.58h-4.093v-2.85h4.093v-4.455h3.12V63.73z"/>
	</g>
</g>
<path fill="#FFFFFF" d="M69,154.861h18v-6H69V154.861z M69,118.861v6h54v-6H69z M69,139.861h36v-6H69V139.861z"/>
</svg>
