<?xml version="1.0" encoding="utf-8"?>
<!-- Generator: Adobe Illustrator 16.0.0, SVG Export Plug-In . SVG Version: 6.00 Build 0)  -->
<!DOCTYPE svg PUBLIC "-//W3C//DTD SVG 1.1//EN" "http://www.w3.org/Graphics/SVG/1.1/DTD/svg11.dtd">
<svg version="1.1" id="图层_3" xmlns="http://www.w3.org/2000/svg" xmlns:xlink="http://www.w3.org/1999/xlink" x="0px" y="0px"
	 width="192px" height="192px" viewBox="0 0 192 192" enable-background="new 0 0 192 192" xml:space="preserve">
<path fill="#34A853" d="M79.75,90.583c0-5.985,4.818-10.833,10.833-10.833h70.413c5.986,0,10.834,4.82,10.834,10.833v70.413
	c0,5.986-4.818,10.834-10.834,10.834H90.583c-5.985,0-10.833-4.822-10.833-10.834V90.583z"/>
<path fill="#4285F4" d="M20.17,31.003c0-5.985,4.818-10.833,10.833-10.833h70.413c5.986,0,10.834,4.821,10.834,10.833v70.413
	c0,5.986-4.818,10.834-10.834,10.834H31.003c-5.985,0-10.833-4.822-10.833-10.834V31.003z"/>
<g>
	<path fill="#FFFFFF" d="M109.81,145.006h13.052c-1.128-0.993-2.337-2.027-3.626-3.102l1.813-1.772
		c1.692,1.289,3.344,2.592,4.955,3.907l-1.007,0.967h8.58l-0.685-0.685c1.449-1.154,3.008-2.578,4.672-4.27l2.216,1.731
		c-1.263,1.128-2.484,2.202-3.665,3.223h13.171v2.417H109.81V145.006z M113.436,117.534h14.581v-2.9h-17.603v-2.417h17.603v-3.222
		h2.9v3.222h17.886v2.417h-17.886v2.9h14.662v2.417h-32.144V117.534z M111.099,122.287h36.817v7.412h-2.9v-4.995h-31.017v4.995h-2.9
		V122.287z M116.054,131.713h26.908v9.628h-2.9v-1.37h-21.107v1.37h-2.9V131.713z M117.061,127h24.733v2.417h-24.733V127z
		 M140.062,134.13h-21.107v3.424h21.107V134.13z"/>
</g>
<g>
	<path fill="#FFFFFF" d="M41.639,64.704h49.143v3.013H41.639V64.704z"/>
</g>
</svg>
