<?xml version="1.0" encoding="utf-8"?>
<!-- Generator: Adobe Illustrator 16.0.0, SVG Export Plug-In . SVG Version: 6.00 Build 0)  -->
<!DOCTYPE svg PUBLIC "-//W3C//DTD SVG 1.1//EN" "http://www.w3.org/Graphics/SVG/1.1/DTD/svg11.dtd">
<svg version="1.1" id="图层_3" xmlns="http://www.w3.org/2000/svg" xmlns:xlink="http://www.w3.org/1999/xlink" x="0px" y="0px"
	 width="192px" height="192px" viewBox="0 0 192 192" enable-background="new 0 0 192 192" xml:space="preserve">
<path fill="#EA4335" d="M168.878,87.398c-0.714,4.829-3.006,5.199-5.802,5.199c-3.058,0.217-5.715-2.085-5.932-5.143
	c-0.012-0.145-0.015-0.29-0.014-0.435c0.067-2.036,0.479-4.046,1.218-5.945c1.982-6.852,1.318-14.199-1.864-20.583
	c-6.062-10.37-17.585-16.282-29.543-15.158c-1.753,0.593-3.55,1.04-5.375,1.335c-3.34-0.037-6.017-2.773-5.98-6.112
	c0-0.017,0.001-0.035,0.001-0.052c-0.017-2.746,1.751-5.184,4.367-6.021l0.143-0.151c0.219,0,0.36-0.227,0.571-0.227
	c6.737-1.522,13.722-1.597,20.49-0.218C156.987,37.65,178.687,53.605,168.878,87.398L168.878,87.398z"/>
<path fill="#EA4335" d="M125.689,64.581c-2.272-0.063-4.082-1.925-4.081-4.199c-0.061-2.316,1.765-4.244,4.081-4.308
	c0,0,25.605-4.946,22.489,23.564c-0.097,2.202-1.879,3.955-4.082,4.014c-2.302-0.023-4.156-1.896-4.156-4.199
	C140.008,79.445,144.021,60.324,125.689,64.581L125.689,64.581z"/>
<path fill="#EA4335" d="M131.912,94.175c-5.869-1.192-3.006-4.46-3.006-4.46c3.252-5.375,2.795-12.21-1.142-17.105
	c-8.6-8.918-29.443,1.192-29.443,0.966c-7.953,2.57-5.87-1.117-4.728-7.508c0-7.507-2.502-20.28-23.707-12.705
	c-21.204,7.574-39.393,33.96-39.393,33.96c-7.187,8.775-11.065,19.797-10.959,31.139c3.149,29.946,33.809,38.191,57.6,40.125
	c25.068,2.082,58.876-8.994,69.122-31.584c1.348-2.198,2.296-4.618,2.799-7.146C151.413,108.03,143.737,96.533,131.912,94.175z"/>
<path fill="#FFFFFF" d="M78.981,150.263c-24.832,1.192-44.986-11.664-44.986-28.98c0-17.315,20.129-31.139,44.986-32.331
	c24.857-1.184,45.054,9.438,45.054,26.68C124.035,132.871,103.814,149.071,78.981,150.263z"/>
<path fill="#4E4E4E" d="M98.891,116.261c-2.48-11.284-13.639-18.42-24.923-15.938c-0.374,0.03-0.748,0.071-1.12,0.119
	c-13.337,1.74-22.738,13.962-20.999,27.3c0.058,4.773,2.605,9.171,6.718,11.597H58.55c12.395,7.566,28.502,4.551,37.32-6.986
	C99.021,127.62,100.111,121.812,98.891,116.261z M67.746,134.509c-0.36,0.082-0.726,0.134-1.093,0.157
	c-3.819,0.244-7.112-2.654-7.355-6.473c0.189-4.481,3.573-8.18,8.02-8.768c0.403-0.09,0.813-0.146,1.225-0.165
	c4.025-0.199,7.451,2.9,7.651,6.926C75.765,130.641,72.206,134.147,67.746,134.509z M82.5,121.434
	c-0.124,0.121-0.259,0.232-0.403,0.328c-1.309,0.881-3.083,0.536-3.963-0.773c-0.879-1.702-0.429-3.791,1.075-4.979
	c0.145-0.148,0.305-0.28,0.478-0.394c1.365-0.904,3.205-0.528,4.107,0.837C84.516,118.217,83.989,120.244,82.5,121.434z"/>
</svg>
