<?xml version="1.0" encoding="utf-8"?>
<!-- Generator: Adobe Illustrator 16.0.0, SVG Export Plug-In . SVG Version: 6.00 Build 0)  -->
<!DOCTYPE svg PUBLIC "-//W3C//DTD SVG 1.1//EN" "http://www.w3.org/Graphics/SVG/1.1/DTD/svg11.dtd">
<svg version="1.1" id="图层_3" xmlns="http://www.w3.org/2000/svg" xmlns:xlink="http://www.w3.org/1999/xlink" x="0px" y="0px"
	 width="192px" height="192px" viewBox="0 0 192 192" enable-background="new 0 0 192 192" xml:space="preserve">
<path fill="#FBBC05" d="M8.125,43.625v104.75c0,6.216,5.034,11.25,11.25,11.25h153.25c6.215,0,11.25-5.034,11.25-11.25V43.625
	c0-6.215-5.035-11.25-11.25-11.25H19.375C13.159,32.375,8.125,37.41,8.125,43.625z"/>
<rect x="20" y="43.5" fill="#34A853" width="152.5" height="105.5"/>
<rect x="20" y="43.5" fill="#388E3C" width="152.5" height="9.167"/>
<g>
	<path fill="#FFFFFF" d="M71.136,110.196H64.1V72.607h7.036V110.196z"/>
	<path fill="#FFFFFF" d="M75.835,96.92c0-3.887,1.084-7.072,3.253-9.554c2.169-2.482,5.172-3.724,9.012-3.724
		c3.856,0,6.875,1.237,9.061,3.711c2.183,2.474,3.277,5.662,3.277,9.566v0.505c0,3.921-1.09,7.112-3.267,9.579
		c-2.176,2.467-5.184,3.699-9.023,3.699c-3.855,0-6.872-1.232-9.048-3.699s-3.265-5.658-3.265-9.579V96.92z M82.847,97.425
		c0,2.379,0.417,4.285,1.252,5.725c0.835,1.437,2.185,2.157,4.048,2.157c1.815,0,3.145-0.726,3.988-2.171
		c0.843-1.445,1.265-3.35,1.265-5.711V96.92c0-2.313-0.426-4.201-1.277-5.663c-0.852-1.461-2.193-2.193-4.024-2.193
		c-1.815,0-3.145,0.735-3.988,2.205c-0.843,1.47-1.265,3.354-1.265,5.65V97.425z"/>
	<path fill="#FFFFFF" d="M103.738,97.377c0-4.111,0.892-7.429,2.674-9.951c1.783-2.521,4.29-3.783,7.519-3.783
		c1.461,0,2.746,0.33,3.855,0.988s2.056,1.599,2.842,2.819l0.556-3.325h6.048v25.952c0,3.388-1.107,6.01-3.326,7.866
		c-2.216,1.856-5.309,2.783-9.276,2.783c-1.317,0-2.715-0.181-4.193-0.543c-1.478-0.36-2.842-0.854-4.097-1.48l1.183-5.254
		c1.076,0.514,2.188,0.905,3.336,1.169c1.149,0.266,2.391,0.397,3.724,0.397c1.929,0,3.346-0.402,4.253-1.204
		c0.907-0.804,1.361-2.056,1.361-3.759v-2.361c-0.771,0.98-1.678,1.727-2.724,2.241c-1.043,0.514-2.24,0.771-3.589,0.771
		c-3.196,0-5.688-1.173-7.471-3.519c-1.782-2.346-2.674-5.445-2.674-9.301V97.377z M110.774,97.884c0,2.28,0.38,4.077,1.145,5.386
		c0.762,1.31,2.012,1.964,3.747,1.964c1.076,0,1.988-0.197,2.735-0.591c0.746-0.393,1.344-0.969,1.794-1.722V91.619
		c-0.45-0.803-1.048-1.422-1.794-1.855c-0.747-0.434-1.644-0.651-2.687-0.651c-1.721,0-2.973,0.763-3.761,2.289
		c-0.786,1.526-1.18,3.518-1.18,5.975V97.884z"/>
</g>
</svg>
