<?xml version="1.0" encoding="utf-8"?>
<!-- Generator: Adobe Illustrator 16.0.0, SVG Export Plug-In . SVG Version: 6.00 Build 0)  -->
<!DOCTYPE svg PUBLIC "-//W3C//DTD SVG 1.1//EN" "http://www.w3.org/Graphics/SVG/1.1/DTD/svg11.dtd">
<svg version="1.1" id="图层_3" xmlns="http://www.w3.org/2000/svg" xmlns:xlink="http://www.w3.org/1999/xlink" x="0px" y="0px"
	 width="192px" height="192px" viewBox="0 0 192 192" enable-background="new 0 0 192 192" xml:space="preserve">
<path fill="#FBBC05" d="M8.125,43.625v104.75c0,6.216,5.034,11.25,11.25,11.25h153.25c6.215,0,11.25-5.034,11.25-11.25V43.625
	c0-6.215-5.035-11.25-11.25-11.25H19.375C13.159,32.375,8.125,37.41,8.125,43.625z"/>
<rect x="20" y="43.5" fill="#34A853" width="152.5" height="105.5"/>
<rect x="20" y="43.5" fill="#388E3C" width="152.5" height="9.167"/>
<g>
	<path fill="#FFFFFF" d="M101.014,118.619c-5.372,0-9.567-1.648-12.585-4.944c-3.019-3.296-4.528-7.54-4.528-12.734v-1.332
		c0-5.394,1.464-9.811,4.395-13.251s6.958-5.149,12.086-5.127c4.839,0,8.551,1.481,11.138,4.445
		c2.585,2.963,3.878,6.953,3.878,11.97v5.026H93.921l-0.1,0.201c0.155,2.464,0.904,4.461,2.248,5.992
		c1.343,1.531,3.334,2.298,5.976,2.298c2.176,0,4.023-0.223,5.544-0.666c1.521-0.444,3.091-1.122,4.711-2.032l2.63,5.994
		c-1.442,1.176-3.396,2.163-5.859,2.962C106.606,118.22,103.921,118.619,101.014,118.619z M100.381,88.721
		c-1.953,0-3.457,0.672-4.512,2.015c-1.054,1.343-1.693,3.125-1.914,5.344l0.066,0.166h11.853v-0.732
		c0-2.108-0.432-3.767-1.299-4.977C103.71,89.326,102.313,88.721,100.381,88.721z"/>
</g>
</svg>
