<?xml version="1.0" encoding="utf-8"?>
<!-- Generator: Adobe Illustrator 16.0.0, SVG Export Plug-In . SVG Version: 6.00 Build 0)  -->
<!DOCTYPE svg PUBLIC "-//W3C//DTD SVG 1.1//EN" "http://www.w3.org/Graphics/SVG/1.1/DTD/svg11.dtd">
<svg version="1.1" id="图层_3" xmlns="http://www.w3.org/2000/svg" xmlns:xlink="http://www.w3.org/1999/xlink" x="0px" y="0px"
	 width="192px" height="192px" viewBox="0 0 192 192" enable-background="new 0 0 192 192" xml:space="preserve">
<path fill="#FBBC05" d="M8.125,43.625v104.75c0,6.216,5.034,11.25,11.25,11.25h153.25c6.215,0,11.25-5.034,11.25-11.25V43.625
	c0-6.215-5.035-11.25-11.25-11.25H19.375C13.159,32.375,8.125,37.41,8.125,43.625z"/>
<rect x="20" y="43.5" fill="#34A853" width="152.5" height="105.5"/>
<rect x="20" y="43.5" fill="#388E3C" width="152.5" height="9.167"/>
<g>
	<circle fill="#FFFFFF" cx="65.211" cy="85.333" r="6"/>
	<circle fill="#FFFFFF" cx="127.289" cy="114.334" r="6"/>
	
		<rect x="61.917" y="98.024" transform="matrix(0.9089 0.4171 -0.4171 0.9089 50.4916 -31.0296)" fill="#FFFFFF" width="68.667" height="4"/>
</g>
<g>
	<path fill="#FFFFFF" d="M97.01,85.304c0-1.934,0.417-3.494,1.252-4.681c0.835-1.186,2.012-1.779,3.53-1.779
		c0.612,0,1.163,0.132,1.654,0.397c0.491,0.264,0.922,0.642,1.292,1.133v-6.721h3.321v17.68h-2.822l-0.283-1.507
		c-0.386,0.567-0.843,1-1.371,1.298c-0.529,0.298-1.134,0.447-1.813,0.447c-1.504,0-2.673-0.551-3.508-1.654
		s-1.252-2.562-1.252-4.375V85.304z M100.308,85.542c0,1.073,0.181,1.917,0.544,2.533c0.362,0.616,0.952,0.924,1.768,0.924
		c0.476,0,0.892-0.097,1.247-0.289c0.354-0.193,0.646-0.474,0.872-0.844v-5.225c-0.227-0.385-0.516-0.686-0.867-0.901
		c-0.351-0.215-0.761-0.323-1.229-0.323c-0.809,0-1.399,0.359-1.773,1.077s-0.561,1.655-0.561,2.811V85.542z"/>
</g>
</svg>
