<?xml version="1.0" encoding="utf-8"?>
<!-- Generator: Adobe Illustrator 16.0.0, SVG Export Plug-In . SVG Version: 6.00 Build 0)  -->
<!DOCTYPE svg PUBLIC "-//W3C//DTD SVG 1.1//EN" "http://www.w3.org/Graphics/SVG/1.1/DTD/svg11.dtd">
<svg version="1.1" id="图层_3" xmlns="http://www.w3.org/2000/svg" xmlns:xlink="http://www.w3.org/1999/xlink" x="0px" y="0px"
	 width="192px" height="192px" viewBox="0 0 192 192" enable-background="new 0 0 192 192" xml:space="preserve">
<path fill="#FBBC05" d="M8.125,43.625v104.75c0,6.216,5.034,11.25,11.25,11.25h153.25c6.215,0,11.25-5.034,11.25-11.25V43.625
	c0-6.215-5.035-11.25-11.25-11.25H19.375C13.159,32.375,8.125,37.41,8.125,43.625z"/>
<rect x="20" y="43.5" fill="#34A853" width="152.5" height="105.5"/>
<rect x="20" y="43.5" fill="#388E3C" width="152.5" height="9.167"/>
<g>
	<rect x="63.742" y="69.667" fill="#FFFFFF" width="12.781" height="13.759"/>
	<polygon fill="#FFFFFF" points="114.857,93.752 127.638,93.752 127.638,107.511 114.857,107.511 114.857,93.752 	"/>
	<rect x="89.691" y="117.734" fill="#FFFFFF" width="12.781" height="13.759"/>
	<path fill="#FFFFFF" d="M89.304,76.446c0-3.744,3.032-6.779,6.778-6.779c3.738,0,6.778,3.036,6.778,6.779
		c0,3.741-3.04,6.776-6.778,6.776C92.335,83.222,89.304,80.187,89.304,76.446z"/>
	<polygon fill="#FFFFFF" points="121.867,69.667 113.396,83.222 130.339,83.222 	"/>
	<path fill="#FFFFFF" d="M63.354,100.631c0-3.743,3.032-6.778,6.778-6.778c3.739,0,6.779,3.035,6.779,6.778s-3.04,6.777-6.779,6.777
		C66.385,107.408,63.354,104.374,63.354,100.631z"/>
	<path fill="#FFFFFF" d="M115.09,124.613c0-3.743,3.031-6.779,6.777-6.779c3.739,0,6.779,3.036,6.779,6.779s-3.04,6.777-6.779,6.777
		C118.121,131.391,115.09,128.356,115.09,124.613z"/>
	<polygon fill="#FFFFFF" points="70.132,117.834 61.661,131.391 78.604,131.391 	"/>
	<polygon fill="#FFFFFF" points="96.082,93.853 87.611,107.408 104.555,107.408 	"/>
</g>
</svg>
