<?xml version="1.0" encoding="utf-8"?>
<!-- Generator: Adobe Illustrator 16.0.0, SVG Export Plug-In . SVG Version: 6.00 Build 0)  -->
<!DOCTYPE svg PUBLIC "-//W3C//DTD SVG 1.1//EN" "http://www.w3.org/Graphics/SVG/1.1/DTD/svg11.dtd">
<svg version="1.1" id="图层_3" xmlns="http://www.w3.org/2000/svg" xmlns:xlink="http://www.w3.org/1999/xlink" x="0px" y="0px"
	 width="192px" height="192px" viewBox="0 0 192 192" enable-background="new 0 0 192 192" xml:space="preserve">
<path fill="#FBBC05" d="M8.125,43.625v104.75c0,6.215,5.034,11.25,11.25,11.25h153.25c6.215,0,11.25-5.035,11.25-11.25V43.625
	c0-6.215-5.035-11.25-11.25-11.25H19.375C13.159,32.375,8.125,37.41,8.125,43.625z"/>
<rect x="20" y="43.5" fill="#34A853" width="152.5" height="105.5"/>
<rect x="20" y="43.5" fill="#388E3C" width="152.5" height="9.167"/>
<g>
	<path fill="#FFFFFF" d="M73.899,72.84c-14.061,0-25.5,11.439-25.5,25.5c0,3.027,0.533,5.932,1.505,8.627l-0.086,0.035l0.761,1.85
		l0.082-0.033c4.005,8.848,12.912,15.021,23.239,15.021c14.061,0,25.5-11.439,25.5-25.5C99.398,84.28,87.959,72.84,73.899,72.84z
		 M97.398,98.34c0,4.059-1.033,7.879-2.852,11.213L74.899,97.467V74.866C87.395,75.392,97.398,85.718,97.398,98.34z M50.399,98.34
		c0-12.622,10.004-22.948,22.5-23.474v22.636l-21.143,8.701C50.88,103.744,50.399,101.098,50.399,98.34z M73.899,121.84
		c-9.494,0-17.685-5.662-21.389-13.783l21.442-8.824l19.561,12.031C89.304,117.631,82.085,121.84,73.899,121.84z"/>
	<path opacity="0.5" fill="#FFFFFF" d="M50.399,98.092c0-12.758,10.111-23.194,22.739-23.726v22.878l-21.367,8.795
		C50.886,103.551,50.399,100.877,50.399,98.092z"/>
</g>
<g>
	<g>
		<path fill="#FFFFFF" d="M144.102,96.385v3.736h-28.238v-3.736H144.102z"/>
	</g>
	<g>
		<path fill="#FFFFFF" d="M131.693,89.792h-3.521V75.849h-3.644v-2.586l7.165-0.603V89.792z"/>
	</g>
	<g>
		<path fill="#FFFDFD" d="M129.792,113.012c0.856,0,1.491-0.223,1.908-0.668c0.415-0.445,0.623-1.068,0.623-1.877
			c0-0.674-0.218-1.234-0.655-1.68c-0.436-0.443-1.045-0.666-1.826-0.666c-0.659,0-1.213,0.201-1.662,0.605
			c-0.448,0.402-0.673,0.918-0.673,1.543h-3.481L124,110.195c-0.049-1.408,0.494-2.568,1.63-3.48
			c1.137-0.916,2.54-1.373,4.212-1.373c1.859,0,3.337,0.439,4.433,1.316c1.095,0.875,1.642,2.133,1.642,3.771
			c0,0.824-0.236,1.578-0.709,2.266c-0.474,0.688-1.122,1.229-1.945,1.625c0.938,0.354,1.663,0.891,2.174,1.611
			c0.51,0.721,0.766,1.59,0.766,2.611c0,1.646-0.595,2.941-1.785,3.885c-1.19,0.941-2.715,1.412-4.574,1.412
			c-1.639,0-3.071-0.443-4.298-1.332c-1.227-0.891-1.82-2.137-1.778-3.742l0.024-0.074h3.507c0,0.676,0.236,1.24,0.711,1.697
			c0.473,0.457,1.085,0.686,1.834,0.686c0.823,0,1.49-0.242,2-0.729s0.766-1.1,0.766-1.84c0-0.947-0.239-1.648-0.717-2.105
			s-1.178-0.686-2.099-0.686h-1.988v-2.703H129.792z"/>
	</g>
</g>
</svg>
