<?xml version="1.0" encoding="utf-8"?>
<!-- Generator: Adobe Illustrator 16.0.0, SVG Export Plug-In . SVG Version: 6.00 Build 0)  -->
<!DOCTYPE svg PUBLIC "-//W3C//DTD SVG 1.1//EN" "http://www.w3.org/Graphics/SVG/1.1/DTD/svg11.dtd">
<svg version="1.1" id="图层_3" xmlns="http://www.w3.org/2000/svg" xmlns:xlink="http://www.w3.org/1999/xlink" x="0px" y="0px"
	 width="192px" height="192px" viewBox="0 0 192 192" enable-background="new 0 0 192 192" xml:space="preserve">
<path fill="#FBBC05" d="M8.125,43.625v104.75c0,6.215,5.034,11.25,11.25,11.25h153.25c6.215,0,11.25-5.035,11.25-11.25V43.625
	c0-6.215-5.035-11.25-11.25-11.25H19.375C13.159,32.375,8.125,37.411,8.125,43.625z"/>
<rect x="20" y="43.5" fill="#34A853" width="152.5" height="105.5"/>
<rect x="20" y="43.5" fill="#388E3C" width="152.5" height="9.167"/>
<g>
	<g>
		<path fill="#FFFFFF" d="M77.982,90.68l4.489,6.771c1.17,1.763,2.148,3.378,3.185,5.142h0.193c1.037-1.882,2.089-3.512,3.125-5.202
			l4.431-6.696h6.179l-10.742,15.231l11.068,16.253h-6.505l-4.623-7.096c-1.229-1.823-2.282-3.586-3.377-5.468h-0.134
			c-1.037,1.882-2.149,3.586-3.318,5.468l-4.564,7.096h-6.312l11.201-16.075L71.61,90.68H77.982L77.982,90.68z"/>
	</g>
	<g>
		<g>
			<path fill="#FFFFFF" d="M110.354,91.332l2.949,7.957c0.311,0.889,0.637,1.94,0.859,2.756h0.059c0.252-0.8,0.534-1.837,0.86-2.814
				l2.667-7.898h2.593l-3.675,9.586c-1.749,4.607-2.949,6.978-4.608,8.43c-1.199,1.053-2.386,1.468-3.007,1.587l-0.607-2.061
				c0.607-0.192,1.422-0.578,2.133-1.201c0.667-0.533,1.497-1.466,2.06-2.726c0.118-0.252,0.192-0.444,0.192-0.577
				c0-0.134-0.06-0.341-0.162-0.637l-4.979-12.402H110.354L110.354,91.332z"/>
		</g>
		<g>
			<path fill="#FFFFFF" d="M108.651,82.353l6.089-7.926c0.578-0.726,1.142-1.364,1.749-2.09v-0.059H109.2v-1.956h10.252l-0.03,1.526
				l-5.985,7.807c-0.563,0.756-1.11,1.423-1.718,2.12v0.059h7.867v1.94h-10.92v-1.422H108.651z"/>
		</g>
		<g>
			<path fill="#FFFFFF" d="M121.423,86.96v1.808H105.94V86.96H121.423z"/>
		</g>
	</g>
</g>
</svg>
