<?xml version="1.0" encoding="utf-8"?>
<!-- Generator: Adobe Illustrator 16.0.0, SVG Export Plug-In . SVG Version: 6.00 Build 0)  -->
<!DOCTYPE svg PUBLIC "-//W3C//DTD SVG 1.1//EN" "http://www.w3.org/Graphics/SVG/1.1/DTD/svg11.dtd">
<svg version="1.1" id="图层_3" xmlns="http://www.w3.org/2000/svg" xmlns:xlink="http://www.w3.org/1999/xlink" x="0px" y="0px"
	 width="192px" height="192px" viewBox="0 0 192 192" enable-background="new 0 0 192 192" xml:space="preserve">
<path fill="#FBBC05" d="M8.125,43.625v104.75c0,6.216,5.034,11.25,11.25,11.25h153.25c6.215,0,11.25-5.034,11.25-11.25V43.625
	c0-6.215-5.035-11.25-11.25-11.25H19.375C13.159,32.375,8.125,37.41,8.125,43.625z"/>
<rect x="20" y="43.5" fill="#34A853" width="152.5" height="105.5"/>
<rect x="20" y="43.5" fill="#388E3C" width="152.5" height="9.167"/>
<g>
	<rect x="76.064" y="78.43" fill="#FFFFFF" width="8.076" height="8.693"/>
	<rect x="76.064" y="108.864" fill="#FFFFFF" width="8.076" height="8.692"/>
	<rect x="76.064" y="93.646" fill="#FFFFFF" width="8.076" height="8.693"/>
	<polygon fill="#FFFFFF" points="108.359,78.43 116.436,78.43 116.436,87.124 108.359,87.124 	"/>
	<polygon fill="#FFFFFF" points="108.359,93.646 116.436,93.646 116.436,102.341 108.359,102.341 	"/>
	<rect x="92.215" y="78.43" fill="#FFFFFF" width="8.076" height="8.693"/>
	<polygon fill="#FFFFFF" points="108.359,108.864 116.436,108.864 116.436,117.559 108.359,117.559 	"/>
	<rect x="92.215" y="93.646" fill="#FFFFFF" width="8.076" height="8.693"/>
	<rect x="92.215" y="108.864" fill="#FFFFFF" width="8.076" height="8.692"/>
</g>
<rect x="63.99" y="69.736" fill="#FFFFFF" width="4.01" height="56.521"/>
<rect x="124.473" y="69.74" fill="#FFFFFF" width="4.01" height="56.521"/>
</svg>
