<?xml version="1.0" encoding="utf-8"?>
<!-- Generator: Adobe Illustrator 16.0.0, SVG Export Plug-In . SVG Version: 6.00 Build 0)  -->
<!DOCTYPE svg PUBLIC "-//W3C//DTD SVG 1.1//EN" "http://www.w3.org/Graphics/SVG/1.1/DTD/svg11.dtd">
<svg version="1.1" id="图层_3" xmlns="http://www.w3.org/2000/svg" xmlns:xlink="http://www.w3.org/1999/xlink" x="0px" y="0px"
	 width="192px" height="192px" viewBox="0 0 192 192" enable-background="new 0 0 192 192" xml:space="preserve">
<path fill="#FBBC05" d="M8.125,43.625v104.75c0,6.216,5.034,11.25,11.25,11.25h153.25c6.215,0,11.25-5.034,11.25-11.25V43.625
	c0-6.215-5.035-11.25-11.25-11.25H19.375C13.159,32.375,8.125,37.41,8.125,43.625z"/>
<rect x="20" y="43.5" fill="#34A853" width="152.5" height="105.5"/>
<rect x="20" y="43.5" fill="#388E3C" width="152.5" height="9.167"/>
<g>
	<path fill="#FFFFFF" d="M69.402,117.334c-0.229-0.528-0.425-1.085-0.589-1.671c-0.165-0.586-0.282-1.186-0.354-1.8
		c-0.643,1.128-1.493,2.064-2.55,2.807c-1.057,0.742-2.314,1.114-3.771,1.114c-2.428,0-4.299-0.625-5.613-1.875
		c-1.314-1.25-1.971-2.953-1.971-5.11c0-2.271,0.875-4.031,2.625-5.281s4.303-1.875,7.66-1.875h3.514v-1.842
		c0-1.114-0.293-1.979-0.878-2.593c-0.586-0.614-1.457-0.921-2.614-0.921c-1.015,0-1.796,0.246-2.346,0.738
		c-0.55,0.494-0.825,1.168-0.825,2.025h-6.021l-0.043-0.129c-0.1-1.957,0.753-3.646,2.561-5.067
		c1.807-1.421,4.167-2.132,7.081-2.132c2.785,0,5.038,0.7,6.759,2.1c1.721,1.399,2.582,3.406,2.582,6.021v9.577
		c0,1.085,0.082,2.106,0.246,3.063s0.425,1.907,0.782,2.85H69.402z M63.682,113.156c1.085,0,2.057-0.271,2.914-0.814
		s1.442-1.171,1.757-1.886v-3.278h-3.514c-1.328,0-2.332,0.33-3.01,0.986c-0.679,0.657-1.018,1.465-1.018,2.421
		c0,0.786,0.253,1.411,0.76,1.875S62.782,113.156,63.682,113.156z"/>
	<path fill="#FFFFFF" d="M91.77,99.937h7.712v5.399H91.77v8.87h-5.914v-8.87h-7.756v-5.399h7.756v-8.441h5.914V99.937z"/>
	<path fill="#FFFFFF" d="M124.144,106.386c0,3.456-0.771,6.221-2.313,8.292c-1.543,2.07-3.771,3.106-6.685,3.106
		c-1.357,0-2.539-0.286-3.546-0.857c-1.008-0.571-1.861-1.406-2.561-2.507l-0.515,2.914h-5.292V83.911h6.235v12.705
		c0.671-0.928,1.475-1.642,2.41-2.142c0.936-0.5,2.01-0.75,3.225-0.75c2.942,0,5.185,1.111,6.728,3.332
		c1.542,2.222,2.313,5.182,2.313,8.881V106.386z M117.909,105.936c0-2.256-0.332-4.045-0.996-5.367
		c-0.665-1.32-1.797-1.981-3.396-1.981c-0.972,0-1.793,0.204-2.464,0.61c-0.672,0.407-1.199,0.989-1.585,1.746v9.813
		c0.386,0.699,0.917,1.235,1.596,1.606c0.679,0.372,1.511,0.557,2.496,0.557c1.614,0,2.742-0.567,3.385-1.703
		c0.644-1.135,0.965-2.746,0.965-4.831V105.936z"/>
	<path fill="#FFFFFF" d="M134.578,88.603h-6.257v-4.692h6.257V88.603z M134.578,117.334h-6.257V94.152h6.257V117.334z"/>
</g>
</svg>
