<?xml version="1.0" encoding="utf-8"?>
<!-- Generator: Adobe Illustrator 16.0.0, SVG Export Plug-In . SVG Version: 6.00 Build 0)  -->
<!DOCTYPE svg PUBLIC "-//W3C//DTD SVG 1.1//EN" "http://www.w3.org/Graphics/SVG/1.1/DTD/svg11.dtd">
<svg version="1.1" id="图层_3" xmlns="http://www.w3.org/2000/svg" xmlns:xlink="http://www.w3.org/1999/xlink" x="0px" y="0px"
	 width="192px" height="192px" viewBox="0 0 192 192" enable-background="new 0 0 192 192" xml:space="preserve">
<path fill="#FBBC05" d="M8.125,43.625v104.75c0,6.216,5.034,11.25,11.25,11.25h153.25c6.215,0,11.25-5.034,11.25-11.25V43.625
	c0-6.215-5.035-11.25-11.25-11.25H19.375C13.159,32.375,8.125,37.41,8.125,43.625z"/>
<rect x="20" y="43.5" fill="#34A853" width="152.5" height="105.5"/>
<rect x="20" y="43.5" fill="#388E3C" width="152.5" height="9.167"/>
<path fill="#FFFFFF" d="M64.358,119.195l30.084,15.042c0.425,0.217,0.924,0.217,1.348,0l30.085-15.042
	c0.507-0.264,0.833-0.779,0.833-1.349V81.743c-0.009-0.271-0.091-0.534-0.236-0.77c-0.045-0.082-0.117-0.118-0.171-0.189
	c-0.09-0.1-0.146-0.217-0.253-0.281c-0.056-0.036-0.128-0.036-0.182-0.072c-0.045-0.019-0.063-0.063-0.109-0.082L95.673,68.312
	c-0.362-0.135-0.751-0.135-1.122,0L64.466,80.35c-0.045,0.018-0.063,0.072-0.1,0.091c-0.063,0.026-0.126,0.026-0.181,0.063
	c-0.109,0.073-0.172,0.182-0.253,0.281c-0.055,0.063-0.127,0.108-0.172,0.189c-0.145,0.236-0.235,0.498-0.235,0.77v36.104
	C63.534,118.416,63.851,118.932,64.358,119.195L64.358,119.195z M66.539,83.969l27.08,10.826v35.659l-27.08-13.54V83.969z
	 M96.623,130.454V94.795l27.07-10.826v32.945L96.623,130.454z M95.112,71.334l26.038,10.409L95.112,92.16l-26.03-10.417
	L95.112,71.334z"/>
<polygon opacity="0.6" fill="#FFFFFF" points="66.539,83.969 93.619,94.795 93.619,130.454 66.539,116.914 "/>
<polygon opacity="0.6" fill="#FFFFFF" points="96.623,130.454 96.623,94.795 123.693,83.969 123.693,116.914 "/>
<polygon opacity="0.6" fill="#FFFFFF" points="95.112,71.334 121.15,81.743 95.112,92.16 69.082,81.743 "/>
</svg>
