<?xml version="1.0" encoding="utf-8"?>
<!-- Generator: Adobe Illustrator 16.0.0, SVG Export Plug-In . SVG Version: 6.00 Build 0)  -->
<!DOCTYPE svg PUBLIC "-//W3C//DTD SVG 1.1//EN" "http://www.w3.org/Graphics/SVG/1.1/DTD/svg11.dtd">
<svg version="1.1" id="图层_3" xmlns="http://www.w3.org/2000/svg" xmlns:xlink="http://www.w3.org/1999/xlink" x="0px" y="0px"
	 width="192px" height="192px" viewBox="0 0 192 192" enable-background="new 0 0 192 192" xml:space="preserve">
<path fill="#FBBC05" d="M8.125,42.875v104.75c0,6.215,5.034,11.25,11.25,11.25h153.25c6.215,0,11.25-5.035,11.25-11.25V42.875
	c0-6.215-5.035-11.25-11.25-11.25H19.375C13.159,31.625,8.125,36.66,8.125,42.875z"/>
<rect x="20" y="42.75" fill="#34A853" width="152.5" height="105.5"/>
<rect x="20" y="42.75" fill="#388E3C" width="152.5" height="9.167"/>
<g>
	<path fill="#FFFFFF" d="M91.92,78.43c0.038,3.174,2.642,5.715,5.816,5.678c3.172-0.038,5.715-2.642,5.676-5.815
		c-0.037-3.145-2.596-5.675-5.74-5.678c-3.184,0.007-5.759,2.594-5.751,5.777C91.92,78.405,91.92,78.418,91.92,78.43z"/>
	<polygon fill="#FFFFFF" points="68.697,95.987 68.697,101.494 126.635,101.494 126.635,95.987 68.697,95.987 	"/>
	<path fill="#FFFFFF" d="M91.92,119.045c-0.003,3.173,2.566,5.749,5.74,5.753c3.174,0.004,5.75-2.566,5.754-5.74
		s-2.566-5.749-5.74-5.753c0,0,0,0-0.002,0c-3.166,0.021-5.727,2.581-5.751,5.747V119.045z"/>
</g>
</svg>
