<?xml version="1.0" encoding="utf-8"?>
<!-- Generator: Adobe Illustrator 16.0.0, SVG Export Plug-In . SVG Version: 6.00 Build 0)  -->
<!DOCTYPE svg PUBLIC "-//W3C//DTD SVG 1.1//EN" "http://www.w3.org/Graphics/SVG/1.1/DTD/svg11.dtd">
<svg version="1.1" id="图层_3" xmlns="http://www.w3.org/2000/svg" xmlns:xlink="http://www.w3.org/1999/xlink" x="0px" y="0px"
	 width="192px" height="192px" viewBox="0 0 192 192" enable-background="new 0 0 192 192" xml:space="preserve">
<path fill="#FBBC05" d="M8.125,43.625v104.75c0,6.215,5.034,11.25,11.25,11.25h153.25c6.215,0,11.25-5.035,11.25-11.25V43.625
	c0-6.215-5.035-11.25-11.25-11.25H19.375C13.159,32.375,8.125,37.411,8.125,43.625z"/>
<rect x="20" y="43.5" fill="#34A853" width="152.5" height="105.5"/>
<rect x="20" y="43.5" fill="#388E3C" width="152.5" height="9.167"/>
<g>
	<path fill="#FFFFFF" d="M71.009,124.957l-1.775-2.991c0.124-0.073,12.674-7.764,12.674-22.851c0-15.1-12.482-21.971-12.608-22.039
		l1.644-3.064c0.59,0.316,14.442,7.945,14.442,25.104C85.386,116.225,71.596,124.608,71.009,124.957z"/>
	<path fill="#FFFFFF" d="M120.83,124.957l1.775-2.991c-0.125-0.073-12.676-7.764-12.676-22.851c0-15.1,12.483-21.971,12.609-22.039
		l-1.644-3.064c-0.591,0.316-14.443,7.945-14.443,25.104C106.452,116.225,120.242,124.608,120.83,124.957z"/>
</g>
</svg>
