<?xml version="1.0" encoding="utf-8"?>
<!-- Generator: Adobe Illustrator 16.0.0, SVG Export Plug-In . SVG Version: 6.00 Build 0)  -->
<!DOCTYPE svg PUBLIC "-//W3C//DTD SVG 1.1//EN" "http://www.w3.org/Graphics/SVG/1.1/DTD/svg11.dtd">
<svg version="1.1" id="图层_3" xmlns="http://www.w3.org/2000/svg" xmlns:xlink="http://www.w3.org/1999/xlink" x="0px" y="0px"
	 width="192px" height="192px" viewBox="0 0 192 192" enable-background="new 0 0 192 192" xml:space="preserve">
<path fill="#FBBC05" d="M8.378,43.875v104.75c0,6.216,5.034,11.25,11.25,11.25h153.25c6.215,0,11.25-5.034,11.25-11.25V43.875
	c0-6.215-5.035-11.25-11.25-11.25H19.628C13.412,32.625,8.378,37.66,8.378,43.875z"/>
<rect x="20.253" y="43.75" fill="#34A853" width="152.5" height="105.5"/>
<rect x="20.253" y="43.75" fill="#388E3C" width="152.5" height="9.167"/>
<rect x="64.243" y="69.986" fill="#FFFFFF" width="4.01" height="56.521"/>
<rect x="124.726" y="69.99" fill="#FFFFFF" width="4.01" height="56.521"/>
<g>
	<path fill="#FFFFFF" d="M102.549,108.097H89.931l-2.62,8.395h-8.153l13.126-38.924h7.993l13.072,38.924h-8.153L102.549,108.097z
		 M91.856,101.976h8.794l-4.304-13.715h-0.16L91.856,101.976z"/>
</g>
</svg>
