<?xml version="1.0" encoding="utf-8"?>
<!-- Generator: Adobe Illustrator 16.0.0, SVG Export Plug-In . SVG Version: 6.00 Build 0)  -->
<!DOCTYPE svg PUBLIC "-//W3C//DTD SVG 1.1//EN" "http://www.w3.org/Graphics/SVG/1.1/DTD/svg11.dtd">
<svg version="1.1" id="图层_3" xmlns="http://www.w3.org/2000/svg" xmlns:xlink="http://www.w3.org/1999/xlink" x="0px" y="0px"
	 width="192px" height="192px" viewBox="0 0 192 192" enable-background="new 0 0 192 192" xml:space="preserve">
<path fill="#FBBC05" d="M8.125,42.875v104.75c0,6.215,5.034,11.25,11.25,11.25h153.25c6.215,0,11.25-5.035,11.25-11.25V42.875
	c0-6.215-5.035-11.25-11.25-11.25H19.375C13.159,31.625,8.125,36.66,8.125,42.875z"/>
<rect x="20" y="42.75" fill="#34A853" width="152.5" height="105.5"/>
<rect x="20" y="42.75" fill="#388E3C" width="152.5" height="9.167"/>
<g>
	<circle fill="#FFFFFF" cx="67.309" cy="112.073" r="6"/>
	<circle fill="#FFFFFF" cx="95.495" cy="98.972" r="6"/>
	
		<rect x="48.084" y="96.453" transform="matrix(0.9068 -0.4215 0.4215 0.9068 -32.6003 49.757)" fill="#FFFFFF" width="96.333" height="4.333"/>
	<circle fill="#FFFFFF" cx="124.512" cy="85.483" r="5.999"/>
</g>
</svg>
