<?xml version="1.0" encoding="utf-8"?>
<!-- Generator: Adobe Illustrator 16.0.0, SVG Export Plug-In . SVG Version: 6.00 Build 0)  -->
<!DOCTYPE svg PUBLIC "-//W3C//DTD SVG 1.1//EN" "http://www.w3.org/Graphics/SVG/1.1/DTD/svg11.dtd">
<svg version="1.1" id="图层_3" xmlns="http://www.w3.org/2000/svg" xmlns:xlink="http://www.w3.org/1999/xlink" x="0px" y="0px"
	 width="192px" height="192px" viewBox="0 0 192 192" enable-background="new 0 0 192 192" xml:space="preserve">
<path fill="#FBBC05" d="M8.125,42.875v104.75c0,6.215,5.034,11.25,11.25,11.25h153.25c6.215,0,11.25-5.035,11.25-11.25V42.875
	c0-6.215-5.035-11.25-11.25-11.25H19.375C13.159,31.625,8.125,36.66,8.125,42.875z"/>
<rect x="20" y="42.75" fill="#34A853" width="152.5" height="105.5"/>
<rect x="20" y="42.75" fill="#388E3C" width="152.5" height="9.167"/>
<g>
	<g>
		<path fill="#FFFFFF" d="M54.585,112.786H49.24V90.71h-5.528v-4.096l10.874-0.955V112.786z"/>
	</g>
	<path fill="#FFFFFF" d="M75.892,90.569l-2.654-2.655L61.94,99.211l11.297,11.297l2.654-2.654l-8.623-8.643L75.892,90.569z"/>
	<g>
		<path fill="#FFFFFF" d="M104.486,112.786h-17.96v-3.511l8.291-9.375c1.236-1.458,2.116-2.693,2.638-3.703
			c0.521-1.011,0.78-1.939,0.78-2.785c0-1.103-0.274-1.985-0.827-2.647c-0.552-0.662-1.378-0.993-2.481-0.993
			c-1.164,0-2.065,0.423-2.702,1.269c-0.637,0.846-0.955,1.919-0.955,3.218h-5.222l-0.037-0.111
			c-0.061-2.377,0.724-4.391,2.353-6.04c1.629-1.647,3.817-2.472,6.563-2.472s4.877,0.702,6.396,2.105
			c1.519,1.403,2.279,3.288,2.279,5.652c0,1.605-0.426,3.07-1.277,4.394c-0.852,1.323-2.319,3.155-4.402,5.495l-4.413,5.294
			l0.037,0.092h10.938v4.117H104.486z"/>
	</g>
	<g>
		<path fill="#FFFFFF" d="M142.812,97.177c1.288,0,2.245-0.335,2.871-1.003c0.625-0.67,0.938-1.611,0.938-2.825
			c0-1.016-0.328-1.858-0.985-2.527c-0.656-0.669-1.572-1.003-2.75-1.003c-0.991,0-1.824,0.304-2.499,0.91
			c-0.676,0.607-1.014,1.382-1.014,2.323h-5.239l-0.037-0.111c-0.074-2.119,0.743-3.865,2.452-5.241
			c1.71-1.375,3.821-2.063,6.337-2.063c2.8,0,5.024,0.66,6.671,1.979c1.647,1.319,2.472,3.212,2.472,5.677
			c0,1.239-0.355,2.375-1.067,3.41c-0.714,1.033-1.688,1.848-2.927,2.442c1.411,0.533,2.501,1.343,3.27,2.425
			c0.769,1.085,1.152,2.395,1.152,3.932c0,2.479-0.895,4.426-2.686,5.844c-1.79,1.419-4.085,2.128-6.885,2.128
			c-2.465,0-4.621-0.669-6.467-2.008c-1.846-1.337-2.738-3.214-2.676-5.63l0.037-0.111h5.277c0,1.016,0.356,1.867,1.069,2.556
			c0.712,0.688,1.631,1.03,2.759,1.03c1.238,0,2.242-0.365,3.011-1.096s1.152-1.653,1.152-2.769c0-1.424-0.359-2.481-1.078-3.168
			c-0.719-0.688-1.771-1.033-3.159-1.033h-2.991v-4.068H142.812z"/>
	</g>
	<path fill="#FFFFFF" d="M125.94,90.913l-2.654-2.655l-11.297,11.296l11.297,11.298l2.654-2.656l-8.623-8.642L125.94,90.913z"/>
</g>
</svg>
