<?xml version="1.0" encoding="utf-8"?>
<!-- Generator: Adobe Illustrator 16.0.0, SVG Export Plug-In . SVG Version: 6.00 Build 0)  -->
<!DOCTYPE svg PUBLIC "-//W3C//DTD SVG 1.1//EN" "http://www.w3.org/Graphics/SVG/1.1/DTD/svg11.dtd">
<svg version="1.1" id="图层_3" xmlns="http://www.w3.org/2000/svg" xmlns:xlink="http://www.w3.org/1999/xlink" x="0px" y="0px"
	 width="192px" height="192px" viewBox="0 0 192 192" enable-background="new 0 0 192 192" xml:space="preserve">
<path fill="none" d="M47.532,75.53h51v51h-51V75.53L47.532,75.53z"/>
<path fill="#849AA5" d="M20.034,31.25V96h75.932V20H31.284C25.068,20,20.034,25.035,20.034,31.25z"/>
<path fill="#4C6067" d="M171.966,96V30.032C171.357,24.391,166.589,20,160.784,20H95.966v76H171.966z"/>
<path fill="#FBBC05" d="M171.966,161.969V96h-76v76h64.818C166.589,172,171.357,167.609,171.966,161.969z"/>
<path fill="#6A8692" d="M20.034,96v64.75c0,6.216,5.034,11.25,11.25,11.25h64.682V96H20.034z"/>
<g>
	<path fill="#FFFFFF" d="M147.979,139.29H119.98c-1.309,0-2.399,1.094-2.399,2.401c0,1.307,1.094,2.399,2.399,2.399h27.998
		c1.31,0,2.402-1.095,2.402-2.399C150.384,140.354,149.288,139.29,147.979,139.29L147.979,139.29z"/>
	<path fill="#FFFFFF" d="M147.979,126.098H119.98c-1.309,0-2.399,1.092-2.399,2.4c0,1.307,1.094,2.4,2.399,2.4h27.998
		c1.31,0,2.402-1.094,2.402-2.4C150.384,127.189,149.288,126.098,147.979,126.098L147.979,126.098z"/>
</g>
<g>
	<path fill="#FFFFFF" d="M57.83,53.824h0.158l4.361-9.038h8.67l-8.565,14.056l8.854,14.371h-8.644l-4.65-9.432l-4.65,9.432h-8.67
		l8.854-14.371l-8.591-14.056h8.618L57.83,53.824z"/>
</g>
<g>
	<path fill="#FFFFFF" d="M133.652,57.412l0.223,1.112h0.111l3.836-12.749h5.818l-8.135,23.052c-0.568,1.433-1.341,2.641-2.316,3.623
		s-2.439,1.473-4.392,1.473c-0.457,0-0.88-0.037-1.27-0.111s-0.861-0.179-1.417-0.315l0.629-3.947
		c0.161,0.024,0.334,0.049,0.52,0.074c0.186,0.025,0.352,0.037,0.5,0.037c0.89,0,1.576-0.219,2.057-0.658
		c0.482-0.438,0.854-0.985,1.112-1.64l0.63-1.556l-7.115-20.032h5.818L133.652,57.412z"/>
</g>
<g>
	<path fill="#FFFFFF" d="M56.226,142.465h14.312v5.981H46.532v-4.593l13.752-18.266H46.959v-6.035h23.125v4.459L56.226,142.465z"/>
</g>
</svg>
