<?xml version="1.0" encoding="utf-8"?>
<!-- Generator: Adobe Illustrator 16.0.0, SVG Export Plug-In . SVG Version: 6.00 Build 0)  -->
<!DOCTYPE svg PUBLIC "-//W3C//DTD SVG 1.1//EN" "http://www.w3.org/Graphics/SVG/1.1/DTD/svg11.dtd">
<svg version="1.1" id="图层_3" xmlns="http://www.w3.org/2000/svg" xmlns:xlink="http://www.w3.org/1999/xlink" x="0px" y="0px"
	 width="192px" height="192px" viewBox="0 0 192 192" enable-background="new 0 0 192 192" xml:space="preserve">
<path fill="#FBBC05" d="M8.125,43.625v104.75c0,6.216,5.034,11.25,11.25,11.25h153.25c6.215,0,11.25-5.034,11.25-11.25V43.625
	c0-6.215-5.035-11.25-11.25-11.25H19.375C13.159,32.375,8.125,37.41,8.125,43.625z"/>
<rect x="20" y="43.5" fill="#34A853" width="152.5" height="105.5"/>
<rect x="20" y="43.5" fill="#388E3C" width="152.5" height="9.167"/>
<g>
	<polygon fill="#FFFFFF" points="86.739,71.881 90.36,71.881 90.36,137.058 86.739,137.058 	"/>
	<polygon fill="#FFFFFF" points="55.6,103.021 120.775,103.021 120.775,106.642 55.6,106.642 55.6,103.021 	"/>
	<polygon fill="#FFFFFF" points="80.222,71.881 88.188,63.916 96.878,71.881 80.222,71.881 	"/>
	<polygon fill="#FFFFFF" points="120.775,96.503 129.466,104.469 120.775,112.436 120.775,96.503 	"/>
	<path fill="#FFFFFF" d="M100.499,119.677c-5.069,0-9.415-5.069-13.76-15.932c-5.793-12.311-9.414-13.759-10.138-13.759
		c-5.793,0.724-10.863,17.379-13.035,29.691l-3.621-0.724c0.724-5.069,5.793-31.14,15.932-32.588
		c5.069-0.724,9.414,4.345,13.759,15.208c3.621,8.69,7.242,13.76,10.863,13.76c6.518-0.725,12.311-16.656,15.208-26.794l3.62,0.724
		C118.604,92.882,111.361,118.953,100.499,119.677L100.499,119.677z"/>
	<g>
		<path fill="#FFFFFF" d="M108.162,65.797h0.067l1.878-3.892h3.732l-3.688,6.052l3.813,6.188h-3.722l-2.002-4.061l-2.003,4.061
			h-3.732l3.813-6.188l-3.699-6.052h3.71L108.162,65.797z"/>
	</g>
	<g>
		<path fill="#FFFFFF" d="M138.803,103.844l0.136,0.679h0.067l2.342-7.783h3.552l-4.966,14.072
			c-0.347,0.874-0.818,1.611-1.414,2.211s-1.489,0.899-2.681,0.899c-0.279,0-0.537-0.022-0.775-0.067
			c-0.237-0.046-0.525-0.11-0.865-0.192l0.385-2.41c0.098,0.016,0.204,0.03,0.317,0.046c0.112,0.015,0.215,0.022,0.305,0.022
			c0.543,0,0.962-0.134,1.256-0.401s0.521-0.602,0.679-1.001l0.385-0.95l-4.344-12.229h3.552L138.803,103.844z"/>
	</g>
</g>
</svg>
