<?xml version="1.0" encoding="utf-8"?>
<!-- Generator: Adobe Illustrator 16.0.0, SVG Export Plug-In . SVG Version: 6.00 Build 0)  -->
<!DOCTYPE svg PUBLIC "-//W3C//DTD SVG 1.1//EN" "http://www.w3.org/Graphics/SVG/1.1/DTD/svg11.dtd">
<svg version="1.1" id="图层_3" xmlns="http://www.w3.org/2000/svg" xmlns:xlink="http://www.w3.org/1999/xlink" x="0px" y="0px"
	 width="192px" height="192px" viewBox="0 0 192 192" enable-background="new 0 0 192 192" xml:space="preserve">
<path fill="#FBBC05" d="M8.125,43.625v104.75c0,6.216,5.034,11.25,11.25,11.25h153.25c6.215,0,11.25-5.034,11.25-11.25V43.625
	c0-6.215-5.035-11.25-11.25-11.25H19.375C13.159,32.375,8.125,37.41,8.125,43.625z"/>
<rect x="20" y="43.5" fill="#34A853" width="152.5" height="105.5"/>
<rect x="20" y="43.5" fill="#388E3C" width="152.5" height="9.167"/>
<g>
	<polygon fill="#FFFFFF" points="68.024,73.7 72.06,73.7 72.06,69.737 63.99,69.737 63.99,126.257 72.065,126.257 72.065,122.294 
		68.024,122.294 	"/>
	<polygon fill="#FFFFFF" points="120.436,73.7 124.47,73.7 124.47,122.3 120.436,122.3 120.436,126.263 128.511,126.263 
		128.511,69.737 120.436,69.737 	"/>
	<g>
		<rect x="76.065" y="78.43" fill="#FFFFFF" width="8.075" height="8.693"/>
		<rect x="76.065" y="108.864" fill="#FFFFFF" width="8.075" height="8.693"/>
		<rect x="76.065" y="93.647" fill="#FFFFFF" width="8.075" height="8.693"/>
		<polygon fill="#FFFFFF" points="108.36,78.43 116.436,78.43 116.436,87.124 108.36,87.124 108.36,78.43 		"/>
		<polygon fill="#FFFFFF" points="108.36,93.647 116.436,93.647 116.436,102.341 108.36,102.341 108.36,93.647 		"/>
		<rect x="92.216" y="78.43" fill="#FFFFFF" width="8.075" height="8.693"/>
		<polygon fill="#FFFFFF" points="108.36,108.864 116.436,108.864 116.436,117.558 108.36,117.558 108.36,108.864 		"/>
		<rect x="92.216" y="93.647" fill="#FFFFFF" width="8.075" height="8.693"/>
		<rect x="92.216" y="108.864" fill="#FFFFFF" width="8.075" height="8.693"/>
	</g>
</g>
</svg>
