<?xml version="1.0" encoding="utf-8"?>
<!-- Generator: Adobe Illustrator 16.0.0, SVG Export Plug-In . SVG Version: 6.00 Build 0)  -->
<!DOCTYPE svg PUBLIC "-//W3C//DTD SVG 1.1//EN" "http://www.w3.org/Graphics/SVG/1.1/DTD/svg11.dtd">
<svg version="1.1" id="图层_3" xmlns="http://www.w3.org/2000/svg" xmlns:xlink="http://www.w3.org/1999/xlink" x="0px" y="0px"
	 width="192px" height="192px" viewBox="0 0 192 192" enable-background="new 0 0 192 192" xml:space="preserve">
<path fill="#FBBC05" d="M8.125,43.625v104.75c0,6.215,5.034,11.25,11.25,11.25h153.25c6.215,0,11.25-5.035,11.25-11.25V43.625
	c0-6.215-5.035-11.25-11.25-11.25H19.375C13.159,32.375,8.125,37.41,8.125,43.625z"/>
<rect x="20" y="43.5" fill="#34A853" width="152.5" height="105.5"/>
<rect x="20" y="43.5" fill="#388E3C" width="152.5" height="9.167"/>
<path fill="#FFFFFF" d="M107.384,115.115c-7.696,0-13.936-6.239-13.936-13.936s6.239-13.936,13.936-13.936
	c7.695,0,13.936,6.239,13.936,13.936S115.079,115.115,107.384,115.115z M107.384,88.405c-7.056,0-12.774,5.719-12.774,12.774
	c0,7.055,5.719,12.773,12.774,12.773c7.054,0,12.773-5.719,12.773-12.773C120.157,94.124,114.438,88.405,107.384,88.405
	L107.384,88.405z"/>
<path fill="#FFFFFF" d="M95.938,133.632c-20.097,0-36.394-16.297-36.394-36.396s16.295-36.395,36.394-36.395
	s36.395,16.296,36.395,36.395S116.037,133.632,95.938,133.632z M95.938,63.875c-18.423,0-33.36,14.937-33.36,33.361
	c0,18.426,14.937,33.36,33.36,33.36c18.425,0,33.362-14.935,33.362-33.36C129.3,78.812,114.363,63.875,95.938,63.875L95.938,63.875z
	"/>
<circle opacity="0.5" fill="#FFFFFF" cx="107.303" cy="101.408" r="13.004"/>
</svg>
