<?xml version="1.0" encoding="utf-8"?>
<!-- Generator: Adobe Illustrator 16.0.0, SVG Export Plug-In . SVG Version: 6.00 Build 0)  -->
<!DOCTYPE svg PUBLIC "-//W3C//DTD SVG 1.1//EN" "http://www.w3.org/Graphics/SVG/1.1/DTD/svg11.dtd">
<svg version="1.1" id="图层_3" xmlns="http://www.w3.org/2000/svg" xmlns:xlink="http://www.w3.org/1999/xlink" x="0px" y="0px"
	 width="192px" height="192px" viewBox="0 0 192 192" enable-background="new 0 0 192 192" xml:space="preserve">
<path fill="#FBBC05" d="M8.125,43.625v104.75c0,6.216,5.034,11.25,11.25,11.25h153.25c6.215,0,11.25-5.034,11.25-11.25V43.625
	c0-6.215-5.035-11.25-11.25-11.25H19.375C13.159,32.375,8.125,37.41,8.125,43.625z"/>
<rect x="20" y="43.5" fill="#34A853" width="152.5" height="105.5"/>
<rect x="20" y="43.5" fill="#388E3C" width="152.5" height="9.167"/>
<g>
	<path fill="#FFFFFF" d="M116.489,109.271c-1.852-2.138-4.359-3.208-7.582-3.208c-2.152,0-4.029,0.494-5.634,1.508
		c-1.59,1.015-2.783,2.44-3.536,4.306c-0.755,1.851-1.151,3.824-1.151,5.908c0,2.083,0.383,4.058,1.151,5.895
		c0.753,1.851,1.946,3.276,3.536,4.291c1.591,1.015,3.469,1.521,5.634,1.521c3.209,0,5.73-1.083,7.582-3.208
		c1.851-2.139,2.769-4.977,2.769-8.513C119.258,114.247,118.326,111.396,116.489,109.271L116.489,109.271z M112.103,124.104
		c-0.699,0.795-1.714,1.192-3.044,1.192c-1.344,0-2.33-0.397-3.002-1.192c-1.069-1.233-1.591-3.207-1.591-5.936
		s0.535-4.717,1.591-5.949c0.672-0.81,1.672-1.221,3.002-1.221s2.345,0.384,3.044,1.193c1.068,1.26,1.604,3.248,1.604,5.977
		C113.706,120.882,113.171,122.87,112.103,124.104L112.103,124.104z"/>
	<path fill="#FFFFFF" d="M88.893,73.751c-1.851-2.139-4.373-3.208-7.581-3.208c-2.152,0-4.031,0.494-5.635,1.508
		c-1.59,1.015-2.783,2.44-3.537,4.305c-0.768,1.851-1.152,3.825-1.152,5.909c0,2.083,0.384,4.058,1.152,5.895
		c0.754,1.851,1.947,3.276,3.537,4.291c1.59,1.015,3.468,1.521,5.635,1.521c3.208,0,5.73-1.083,7.581-3.208
		c1.851-2.138,2.77-4.976,2.77-8.513C91.649,78.728,90.73,75.876,88.893,73.751L88.893,73.751z M84.507,88.57
		c-0.7,0.795-1.714,1.193-3.043,1.193c-1.344,0-2.331-0.398-3.002-1.193c-1.069-1.233-1.59-3.208-1.59-5.936
		c0-2.728,0.535-4.715,1.59-5.949c0.671-0.809,1.672-1.22,3.002-1.22c1.329,0,2.344,0.384,3.043,1.192
		c1.069,1.262,1.603,3.25,1.603,5.977C86.11,85.362,85.562,87.351,84.507,88.57L84.507,88.57z"/>
	<path fill="#FFFFFF" d="M114.281,70.557l-31.872,58.948h-7.883l31.805-58.948H114.281z"/>
</g>
</svg>
