<?xml version="1.0" encoding="utf-8"?>
<!-- Generator: Adobe Illustrator 16.0.0, SVG Export Plug-In . SVG Version: 6.00 Build 0)  -->
<!DOCTYPE svg PUBLIC "-//W3C//DTD SVG 1.1//EN" "http://www.w3.org/Graphics/SVG/1.1/DTD/svg11.dtd">
<svg version="1.1" id="图层_3" xmlns="http://www.w3.org/2000/svg" xmlns:xlink="http://www.w3.org/1999/xlink" x="0px" y="0px"
	 width="192px" height="192px" viewBox="0 0 192 192" enable-background="new 0 0 192 192" xml:space="preserve">
<g>
	<path fill="#3C8CEA" d="M117.189,8.125h-74c-6.216,0-11.25,5.034-11.25,11.25v153.25c0,6.215,5.034,11.25,11.25,11.25h104.75
		c6.215,0,11.25-5.035,11.25-11.25v-122.5L117.189,8.125z"/>
	<polygon fill="#2D6FE4" points="119.172,48 158.732,84 159.189,50.125 	"/>
	<path fill="#A5C5F9" d="M117.189,8.125v35c0,3.866,3.135,7,7,7h35L117.189,8.125z"/>
</g>
<g>
	<path fill="#FFFFFF" d="M68.093,126.644v9.481h-5.244v-26.147h10.003c3.005,0,5.37,0.767,7.093,2.299
		c1.724,1.533,2.586,3.55,2.586,6.052c0,2.503-0.862,4.514-2.586,6.034c-1.724,1.521-4.088,2.281-7.093,2.281H68.093z
		 M68.093,122.603h4.759c1.46,0,2.568-0.398,3.322-1.194s1.131-1.811,1.131-3.044c0-1.257-0.375-2.296-1.123-3.115
		c-0.748-0.82-1.858-1.23-3.331-1.23h-4.759V122.603z"/>
	<path fill="#FFFFFF" d="M99.916,129.301c0-1.006-0.352-1.813-1.051-2.424c-0.701-0.611-1.932-1.186-3.691-1.725
		c-3.017-0.909-5.307-1.981-6.869-3.214c-1.563-1.233-2.344-2.916-2.344-5.047c0-2.143,0.88-3.894,2.64-5.253
		c1.76-1.358,4.004-2.038,6.734-2.038c2.897,0,5.229,0.73,6.995,2.191c1.766,1.46,2.619,3.376,2.559,5.746l-0.035,0.108h-5.082
		c0-1.306-0.395-2.309-1.186-3.009c-0.789-0.7-1.896-1.05-3.322-1.05c-1.293,0-2.293,0.311-2.999,0.934
		c-0.707,0.622-1.06,1.419-1.06,2.389c0,0.886,0.383,1.613,1.149,2.182s2.089,1.17,3.97,1.805c2.873,0.814,5.063,1.877,6.572,3.188
		c1.508,1.311,2.262,3.038,2.262,5.181c0,2.239-0.873,4.005-2.621,5.298s-4.059,1.939-6.932,1.939c-2.813,0-5.229-0.7-7.246-2.101
		c-2.018-1.401-2.996-3.49-2.936-6.268l0.036-0.108h5.083c0,1.545,0.455,2.683,1.365,3.412c0.91,0.73,2.143,1.096,3.699,1.096
		c1.401,0,2.469-0.293,3.206-0.88C99.547,131.067,99.916,130.282,99.916,129.301z"/>
	<path fill="#FFFFFF" d="M109.02,136.125v-26.147h9.123c3.197,0,5.83,1.021,7.902,3.063c2.07,2.041,3.105,4.66,3.105,7.856v4.328
		c0,3.208-1.035,5.827-3.105,7.856c-2.072,2.029-4.705,3.044-7.902,3.044H109.02z M114.264,114.019v18.084h3.879
		c1.725,0,3.113-0.644,4.166-1.931c1.055-1.287,1.58-2.937,1.58-4.947v-4.364c0-1.999-0.525-3.64-1.58-4.92
		c-1.053-1.281-2.441-1.922-4.166-1.922H114.264z"/>
</g>
</svg>
