<?xml version="1.0" encoding="utf-8"?>
<!-- Generator: Adobe Illustrator 16.0.0, SVG Export Plug-In . SVG Version: 6.00 Build 0)  -->
<!DOCTYPE svg PUBLIC "-//W3C//DTD SVG 1.1//EN" "http://www.w3.org/Graphics/SVG/1.1/DTD/svg11.dtd">
<svg version="1.1" id="图层_3" xmlns="http://www.w3.org/2000/svg" xmlns:xlink="http://www.w3.org/1999/xlink" x="0px" y="0px"
	 width="192px" height="192px" viewBox="0 0 192 192" enable-background="new 0 0 192 192" xml:space="preserve">
<line fill="none" x1="19" y1="73.362" x2="178.469" y2="73.362"/>
<path fill="none" d="M47.735,76.083h51v51h-51V76.083z"/>
<path fill="#3C8CEA" d="M117.625,8.678h-74c-6.216,0-11.25,5.034-11.25,11.25v153.25c0,6.215,5.034,11.25,11.25,11.25h104.75
	c6.215,0,11.25-5.035,11.25-11.25v-122.5L117.625,8.678z"/>
<polygon fill="#2D6FE4" points="119.607,48.553 159.167,84.553 159.625,50.678 "/>
<path fill="#A5C5F9" d="M117.625,8.678v35c0,3.866,3.134,7,7,7h35L117.625,8.678z"/>
<path fill="#FFFFFF" d="M109.715,125.762c1.867-2.969,2.968-6.402,2.968-10.133c0-10.557-8.519-19.076-19.076-19.076
	c-10.556,0-19.076,8.52-19.076,19.076c0,10.558,8.52,19.076,19.035,19.076c3.73,0,7.204-1.101,10.13-2.968l13.228,13.228l6.019-6.02
	L109.715,125.762z M93.606,126.228c-5.849,0-10.598-4.749-10.598-10.599c0-5.849,4.749-10.598,10.598-10.598
	c5.851,0,10.599,4.749,10.599,10.598C104.205,121.479,99.457,126.228,93.606,126.228z"/>
</svg>
