<?xml version="1.0" encoding="utf-8"?>
<!-- Generator: Adobe Illustrator 16.0.0, SVG Export Plug-In . SVG Version: 6.00 Build 0)  -->
<!DOCTYPE svg PUBLIC "-//W3C//DTD SVG 1.1//EN" "http://www.w3.org/Graphics/SVG/1.1/DTD/svg11.dtd">
<svg version="1.1" id="图层_3" xmlns="http://www.w3.org/2000/svg" xmlns:xlink="http://www.w3.org/1999/xlink" x="0px" y="0px"
	 width="192px" height="192px" viewBox="0 0 192 192" enable-background="new 0 0 192 192" xml:space="preserve">
<g>
	<path fill="#FBBC05" d="M124.617,20.624H28.533c-4.611,0-8.347,3.736-8.347,8.347v96.083c0,4.611,3.736,8.348,8.347,8.348h96.084
		c4.613,0,8.347-3.736,8.347-8.348V28.97C132.964,24.36,129.23,20.624,124.617,20.624z"/>
	<path fill="#34A853" d="M122.247,20.624h-93.9c-4.611,0-8.347,3.736-8.347,8.347v94.133L122.247,20.624z"/>
	<polygon fill="#4285F4" points="77.072,89.358 32.407,133.773 121.488,133.773 	"/>
	<polygon fill="#C9C3B8" points="88.486,77.013 132.903,32.037 133.15,121.368 	"/>
	<path fill="#EAEAEA" d="M132.964,125.054v-3.87L88.486,77.013L77.072,89.358l44.044,44.043h3.501
		C129.23,133.401,132.964,129.665,132.964,125.054z"/>
	<g>
		<path fill="#EA4335" d="M117.022,14.693c-12.365,0-22.396,10.031-22.396,22.398c0,16.798,22.396,41.596,22.396,41.596
			s22.396-24.798,22.396-41.596C139.419,24.724,129.39,14.693,117.022,14.693z"/>
		<path fill="#FFFFFF" d="M117.022,45.09c-4.415,0-8-3.583-8-7.999c0-4.417,3.585-8,8-8s8.001,3.583,8.001,8
			S121.438,45.09,117.022,45.09z"/>
	</g>
</g>
<circle fill="#34A853" cx="133.875" cy="133.875" r="49.625"/>
<path fill="#FFFFFF" d="M115.048,144.268v7.776h7.478l22.037-22.905l-7.478-7.777L115.048,144.268z M150.302,123.149
	c0.77-0.819,0.77-2.111,0-2.931l-4.646-4.845c-0.771-0.82-2.038-0.82-2.808,0l-3.652,3.802l7.479,7.775
	C146.649,126.927,150.302,123.149,150.302,123.149z"/>
</svg>
