<?xml version="1.0" encoding="utf-8"?>
<!-- Generator: Adobe Illustrator 16.0.0, SVG Export Plug-In . SVG Version: 6.00 Build 0)  -->
<!DOCTYPE svg PUBLIC "-//W3C//DTD SVG 1.1//EN" "http://www.w3.org/Graphics/SVG/1.1/DTD/svg11.dtd">
<svg version="1.1" id="图层_3" xmlns="http://www.w3.org/2000/svg" xmlns:xlink="http://www.w3.org/1999/xlink" x="0px" y="0px"
	 width="192px" height="192px" viewBox="0 0 192 192" enable-background="new 0 0 192 192" xml:space="preserve">
<path fill="#FBBC05" d="M8.125,42.875v104.75c0,6.215,5.034,11.25,11.25,11.25h153.25c6.215,0,11.25-5.035,11.25-11.25V42.875
	c0-6.215-5.035-11.25-11.25-11.25H19.375C13.159,31.625,8.125,36.66,8.125,42.875z"/>
<rect x="20" y="42.75" fill="#34A853" width="152.5" height="105.5"/>
<rect x="20" y="42.75" fill="#388E3C" width="152.5" height="9.167"/>
<g>
	<path fill="#FFFFFF" d="M78.971,129.628c-5.478,0-8.397-5.04-9.26-8.016c-0.378-1.308,0.375-2.675,1.684-3.054
		c1.308-0.377,2.674,0.377,3.053,1.685c0.009,0.03,1.375,4.464,4.53,4.464c2.064,0,3.076-2.745,3.209-3.135
		c0.361-1.487,3.628-15.017,6.157-25.273h-7.399c-1.359,0.001-2.463-1.101-2.463-2.46c-0.001-1.36,1.101-2.463,2.46-2.464
		c0.001,0,0.002,0,0.003,0h8.617c0.811-3.247,1.434-5.669,1.67-6.456l0.197-0.671c1.163-3.978,3.586-12.251,10.041-12.251
		c5.703,0,7.646,5.678,7.877,8.678c0.107,1.356-0.905,2.543-2.262,2.65c-1.357,0.107-2.544-0.905-2.651-2.262l0,0
		c-0.015-0.191-0.397-4.139-2.964-4.139c-2.762,0-4.554,6.103-5.313,8.708l-0.209,0.698c-0.185,0.628-0.658,2.465-1.305,5.041h6.009
		c1.361,0,2.465,1.103,2.465,2.463c0,1.361-1.104,2.464-2.465,2.464h-7.232c-2.187,8.875-4.353,17.755-6.498,26.64
		c-0.735,2.484-3.233,6.689-7.942,6.689H78.971z"/>
	<path fill="#FFFFFF" d="M115.497,123.279c-1.145,0-1.946-0.534-2.712-1.488l-4.122-5.422l-4.121,5.42
		c-0.687,0.84-1.487,1.487-2.521,1.487c-1.523,0-2.708-1.065-2.708-2.52c0-0.8,0.304-1.41,0.802-1.983l5.229-6.182l-4.77-5.496
		c-0.65-0.765-0.954-1.451-0.954-2.216c0-1.64,1.221-2.672,2.672-2.672c1.145,0,1.943,0.537,2.709,1.487l3.777,5.041l3.855-5.038
		c0.689-0.841,1.488-1.487,2.521-1.487c1.526,0,2.708,1.066,2.708,2.52c0,0.799-0.344,1.412-0.799,1.983l-4.968,5.8l5.114,5.88
		c0.649,0.763,0.956,1.452,0.956,2.214c0,1.64-1.221,2.672-2.672,2.672H115.497z"/>
</g>
</svg>
