<?xml version="1.0" encoding="utf-8"?>
<!-- Generator: Adobe Illustrator 16.0.0, SVG Export Plug-In . SVG Version: 6.00 Build 0)  -->
<!DOCTYPE svg PUBLIC "-//W3C//DTD SVG 1.1//EN" "http://www.w3.org/Graphics/SVG/1.1/DTD/svg11.dtd">
<svg version="1.1" id="图层_3" xmlns="http://www.w3.org/2000/svg" xmlns:xlink="http://www.w3.org/1999/xlink" x="0px" y="0px"
	 width="192px" height="192px" viewBox="0 0 192 192" enable-background="new 0 0 192 192" xml:space="preserve">
<path fill="none" stroke="#000000" stroke-width="12" stroke-miterlimit="10" d="M27.998,50.975"/>
<path fill="#34A853" d="M96.949,147.93c-22.191,0-40.244-18.053-40.244-40.243c0-22.191,18.053-40.245,40.244-40.245
	c22.19,0,40.243,18.054,40.243,40.245C137.192,129.877,119.14,147.93,96.949,147.93z M96.949,77.828
	c-16.464,0-29.859,13.395-29.859,29.859c0,16.464,13.395,29.857,29.859,29.857c16.464,0,29.857-13.394,29.857-29.857
	C126.807,91.222,113.413,77.828,96.949,77.828z"/>
<path fill="#EA4335" d="M54.975,57.901c0,5.736-4.649,10.385-10.385,10.385l0,0c-5.736,0-10.386-4.649-10.386-10.385l0,0
	c0-5.736,4.65-10.386,10.386-10.386l0,0C50.325,47.515,54.975,52.165,54.975,57.901L54.975,57.901z"/>
<path fill="#4285F4" d="M96.517,31.093c-13.228,0-26.217,3.45-37.638,9.968l5.784,8.66c9.7-5.393,20.677-8.243,31.854-8.243
	c36.188,0,65.631,29.442,65.631,65.632c0,17.528-6.827,34.011-19.224,46.407l7.345,7.343c14.356-14.358,22.264-33.447,22.264-53.75
	C172.532,65.194,138.432,31.093,96.517,31.093z"/>
<path fill="#4285F4" d="M30.886,107.11c0-10.26,2.425-20.441,7.011-29.534l-8.635-5.929C23.53,82.498,20.5,94.76,20.5,107.11
	c0,20.347,7.936,39.465,22.345,53.831l7.333-7.354C37.737,141.183,30.886,124.677,30.886,107.11z"/>
</svg>
