<?xml version="1.0" encoding="utf-8"?>
<!-- Generator: Adobe Illustrator 16.0.0, SVG Export Plug-In . SVG Version: 6.00 Build 0)  -->
<!DOCTYPE svg PUBLIC "-//W3C//DTD SVG 1.1//EN" "http://www.w3.org/Graphics/SVG/1.1/DTD/svg11.dtd">
<svg version="1.1" id="图层_3" xmlns="http://www.w3.org/2000/svg" xmlns:xlink="http://www.w3.org/1999/xlink" x="0px" y="0px"
	 width="192px" height="192px" viewBox="0 0 192 192" enable-background="new 0 0 192 192" xml:space="preserve">
<path fill="#34A853" d="M79.749,90.583c0-5.984,4.817-10.833,10.833-10.833h70.414c5.986,0,10.834,4.82,10.834,10.833v70.414
	c0,5.985-4.818,10.834-10.834,10.834H90.582c-5.984,0-10.833-4.822-10.833-10.834V90.583z"/>
<path fill="#4285F4" d="M20.169,31.003c0-5.985,4.818-10.833,10.833-10.833h70.414c5.986,0,10.834,4.821,10.834,10.833v70.413
	c0,5.986-4.818,10.834-10.834,10.834H31.002c-5.985,0-10.833-4.822-10.833-10.834V31.003z"/>
<g>
	<path fill="#FFFFFF" d="M71.113,85.722h-7.688V53.965h-7.953v-5.894l15.641-1.373V85.722z"/>
</g>
<g>
	<path fill="#FFFFFF" d="M157.496,127.086c0.37,0.369,0.555,0.658,0.555,0.863c0,0.206-0.308,0.309-0.925,0.309h-50.259
		c-1.687,0-3.063,0.205-4.132,0.616l-1.727-2.282c1.974,0.165,3.474,0.247,4.502,0.247h45.017l2.775-4.132L157.496,127.086z"/>
</g>
</svg>
