<?xml version="1.0" encoding="utf-8"?>
<!-- Generator: Adobe Illustrator 16.0.0, SVG Export Plug-In . SVG Version: 6.00 Build 0)  -->
<!DOCTYPE svg PUBLIC "-//W3C//DTD SVG 1.1//EN" "http://www.w3.org/Graphics/SVG/1.1/DTD/svg11.dtd">
<svg version="1.1" id="图层_3" xmlns="http://www.w3.org/2000/svg" xmlns:xlink="http://www.w3.org/1999/xlink" x="0px" y="0px"
	 width="192px" height="192px" viewBox="0 0 192 192" enable-background="new 0 0 192 192" xml:space="preserve">
<path fill="#34A853" d="M79.75,90.583c0-5.985,4.818-10.833,10.833-10.833h70.413c5.986,0,10.834,4.821,10.834,10.833v70.413
	c0,5.986-4.818,10.834-10.834,10.834H90.583c-5.985,0-10.833-4.822-10.833-10.834V90.583z"/>
<path fill="#4285F4" d="M20.17,31.003c0-5.985,4.818-10.833,10.833-10.833h70.413c5.986,0,10.834,4.821,10.834,10.833v70.413
	c0,5.986-4.818,10.834-10.834,10.834H31.003c-5.985,0-10.833-4.822-10.833-10.834V31.003z"/>
<path fill="#FFFFFF" d="M132.244,115.693v-4.614c0-1.354,0.185-2.521,0.558-3.507c0.097-0.172,0.159-0.361,0.181-0.559
	c0-0.12-0.43-0.239-1.289-0.365h-6.287v9.045h-15.135v21.605h6.273v-3.326h9.05v15.882h6.649v-15.882h9.231v2.771h6.834v-21.051
	H132.244z M125.595,128.99h-9.046v-8.119l-0.004-0.003h9.05V128.99z M141.476,128.99h-9.231v-8.119h9.231V128.99z"/>
<g>
	<g>
		<path fill="#FFFFFF" d="M74.018,90.018c-0.212-0.423-0.353-0.917-0.494-1.551c-0.106-0.635-0.211-1.27-0.317-1.974
			c-0.53,0.564-1.126,1.091-1.799,1.586c-0.668,0.492-1.41,0.953-2.185,1.339c-0.775,0.387-1.656,0.67-2.574,0.882
			c-0.916,0.21-1.903,0.316-2.925,0.316c-1.691,0-3.242-0.249-4.653-0.775c-1.375-0.528-2.573-1.198-3.56-2.081
			c-0.986-0.88-1.727-1.937-2.255-3.136c-0.53-1.197-0.811-2.503-0.811-3.876c0-1.797,0.352-3.349,1.058-4.725
			c0.704-1.374,1.69-2.502,2.995-3.453c1.305-0.917,2.889-1.623,4.723-2.08c1.834-0.459,3.912-0.706,6.204-0.706H73.1v-2.608
			c0-2.009-0.599-3.595-1.797-4.758c-1.198-1.198-2.96-1.762-5.288-1.762c-1.058,0-2.044,0.14-2.925,0.423
			c-0.882,0.282-1.658,0.669-2.257,1.163c-0.634,0.493-1.126,1.057-1.479,1.692c-0.354,0.634-0.529,1.303-0.529,2.008h-5.746
			c0-1.199,0.318-2.361,0.953-3.56c0.634-1.164,1.515-2.221,2.68-3.173c1.163-0.951,2.538-1.691,4.194-2.29
			c1.621-0.6,3.454-0.881,5.463-0.881c1.798,0,3.489,0.247,5.004,0.705c1.515,0.458,2.856,1.164,3.949,2.08
			c1.091,0.952,1.938,2.115,2.572,3.489c0.599,1.41,0.917,3.032,0.917,4.899V82.72c0,1.128,0.104,2.327,0.281,3.561
			c0.211,1.231,0.493,2.325,0.882,3.208v0.492h-5.958V90.018L74.018,90.018z M64.536,85.684c1.022,0,2.009-0.143,2.891-0.424
			c0.917-0.283,1.727-0.67,2.467-1.128c0.74-0.459,1.375-0.987,1.938-1.586c0.529-0.6,0.987-1.198,1.269-1.833v-6.837h-4.759
			c-3.277,0-5.781,0.493-7.543,1.516c-1.762,1.021-2.644,2.537-2.644,4.617c0,0.812,0.141,1.551,0.388,2.254
			c0.282,0.708,0.669,1.306,1.234,1.801c0.528,0.493,1.198,0.916,2.008,1.197C62.561,85.541,63.479,85.684,64.536,85.684z"/>
	</g>
	<g>
		<path fill="#FFFFFF" d="M77.753,50.928h-22.03v-6.802h22.03V50.928z"/>
	</g>
</g>
</svg>
