<?xml version="1.0" encoding="utf-8"?>
<!-- Generator: Adobe Illustrator 19.0.0, SVG Export Plug-In . SVG Version: 6.00 Build 0)  -->
<svg version="1.1" id="Layer_1" xmlns="http://www.w3.org/2000/svg" xmlns:xlink="http://www.w3.org/1999/xlink" x="0px" y="0px"
	 viewBox="-47 170.9 500 500" style="enable-background:new -47 170.9 500 500;" xml:space="preserve">
<style type="text/css">
	.st0{fill:#34A853;}
	.st1{fill:#FFFFFF;}
</style>
<path class="st0" d="M319.7,221.1l-233.4-0.2c-18.3,0-33.3,15-33.3,33.4v333.3c0,18.4,14.9,33.3,33.3,33.3h233.3
	c18.4,0,33.3-14.9,33.3-33.3V254.3C353,235.9,338,221.1,319.7,221.1z M303,295.7c-13.8,0-25-11.2-25-25c0-13.8,11.2-25,25-25
	s25,11.2,25,25C328,284.5,316.8,295.7,303,295.7z"/>
<g>
	<path class="st1" d="M236.8,402.4h-16.3c-1.4,3.5-3.1,7.3-5.2,10.5c-3.5,6.3-7.3,12.2-11.8,17.4c-4.9-5.6-9-11.5-12.9-18.1
		c-2.1-3.1-3.5-6.3-5.2-9.8h-15.6c2.1,3.5,4.5,10.5,7.3,15.3c4.5,8,9.7,15.7,15.6,23c-6.6,5.9-13.5,11.2-21.2,15.7
		c-9,5.2-18.4,9.4-28.5,12.6l8,13.9c10.1-3.8,19.5-8.7,28.5-13.9c8.3-5.2,16.3-10.8,23.6-17.4c3.5,3.5,7.3,6.3,11.1,9.1
		c4.2,2.8,8.3,5.6,12.9,8c4.5,2.8,9,5.2,13.9,7.3c4.5,2.1,9.4,4.2,13.9,5.9l8-14.6c-4.2-1.4-8-2.8-12.5-4.5
		c-4.2-1.7-8.3-3.5-12.5-5.6c-4.5-2.4-8.7-4.9-12.5-7.3c-4.2-2.8-8-5.6-11.5-8.7c5.9-7,11.5-14.6,15.6-23
		C232.3,412.9,234.7,405.9,236.8,402.4z"/>
	<polygon class="st1" points="209.5,381.5 209.5,358.8 194.6,358.8 194.6,381.5 144.6,381.5 144.6,394.4 260.9,394.4 260.9,381.5 	
		"/>
</g>
</svg>
