<?xml version="1.0" encoding="utf-8"?>
<!-- Generator: Adobe Illustrator 16.0.0, SVG Export Plug-In . SVG Version: 6.00 Build 0)  -->
<!DOCTYPE svg PUBLIC "-//W3C//DTD SVG 1.1//EN" "http://www.w3.org/Graphics/SVG/1.1/DTD/svg11.dtd">
<svg version="1.1" id="图层_3" xmlns="http://www.w3.org/2000/svg" xmlns:xlink="http://www.w3.org/1999/xlink" x="0px" y="0px"
	 width="192px" height="192px" viewBox="0 0 192 192" enable-background="new 0 0 192 192" xml:space="preserve">
<path fill="#34A853" d="M148.375,8.125H43.625c-6.216,0-11.25,5.034-11.25,11.25v153.25c0,6.215,5.034,11.25,11.25,11.25h104.75
	c6.215,0,11.25-5.035,11.25-11.25V19.375C159.625,13.159,154.59,8.125,148.375,8.125z"/>
<path fill="#1B8734" d="M56,8.125H43.625c-6.216,0-11.25,5.034-11.25,11.25v153.25c0,6.215,5.034,11.25,11.25,11.25H56V8.125z"/>
<g>
	<path fill="#FFFFFF" d="M88.659,91.761l2.797,0.736c-0.552,1.03-0.993,1.84-1.325,2.429h16.561
		c-0.147,5.631-0.331,9.973-0.516,13.064c-0.184,2.907-0.81,4.932-1.913,6.072c-1.104,1.141-2.981,1.729-5.594,1.729
		c-1.729,0-3.275-0.037-4.674-0.074c-0.184-1.066-0.405-2.098-0.736-3.091c1.766,0.185,3.606,0.295,5.52,0.295
		c2.649-0.074,4.048-1.399,4.232-3.975c0.294-2.65,0.478-6.44,0.588-11.445H88.548c-0.625,0.993-1.251,1.877-1.914,2.724h2.024
		v8.132h11.372v2.503H85.973v-9.789c-0.479,0.589-0.92,1.104-1.399,1.583c-0.478-0.699-1.067-1.436-1.766-2.282
		C85.052,98.091,86.966,95.22,88.659,91.761z M86.304,76.856h18.658v15.861h-2.981v-1.215H86.267V76.856H86.304z M101.98,79.433
		H89.285v3.496h12.696V79.433z M89.321,88.928h12.696v-3.496H89.321V88.928z M89.468,105.561c2.429-1.986,4.417-4.452,5.962-7.359
		l2.577,0.847c-0.479,0.772-0.921,1.509-1.399,2.208c1.987,1.361,3.828,2.687,5.521,4.048l-1.804,2.171
		c-1.545-1.472-3.238-2.907-5.004-4.306c-1.251,1.656-2.576,3.092-3.864,4.269C90.904,106.85,90.241,106.224,89.468,105.561z
		 M117.069,87.124c0,1.546-0.037,3.092-0.074,4.601c0.626,10.635,3.754,18.143,9.348,22.484c-0.735,0.847-1.509,1.767-2.318,2.761
		c-4.195-3.644-6.955-8.906-8.28-15.751c-1.178,6.366-4.158,11.776-8.979,16.229c-0.662-0.847-1.398-1.656-2.244-2.429
		c4.968-4.38,7.948-9.863,8.942-16.524c0.331-2.612,0.479-6.402,0.441-11.371H117.069z M105.698,92.202
		c2.429-5.041,4.231-10.855,5.372-17.517l3.275,0.699c-0.479,2.171-0.993,4.231-1.509,6.108h12.586v2.576l-2.687,9.348
		c-0.993-0.331-1.987-0.626-3.018-0.847l2.429-8.059H111.99c-0.993,3.496-2.061,6.477-3.201,9.016
		C108.016,93.123,106.986,92.681,105.698,92.202z"/>
</g>
</svg>
