<?xml version="1.0" encoding="utf-8"?>
<!-- Generator: Adobe Illustrator 16.0.0, SVG Export Plug-In . SVG Version: 6.00 Build 0)  -->
<!DOCTYPE svg PUBLIC "-//W3C//DTD SVG 1.1//EN" "http://www.w3.org/Graphics/SVG/1.1/DTD/svg11.dtd">
<svg version="1.1" id="图层_3" xmlns="http://www.w3.org/2000/svg" xmlns:xlink="http://www.w3.org/1999/xlink" x="0px" y="0px"
	 width="192px" height="192px" viewBox="0 0 192 192" enable-background="new 0 0 192 192" xml:space="preserve">
<path fill="#34A853" d="M148.375,8.125H43.625c-6.216,0-11.25,5.034-11.25,11.25v153.25c0,6.215,5.034,11.25,11.25,11.25h104.75
	c6.215,0,11.25-5.035,11.25-11.25V19.375C159.625,13.159,154.59,8.125,148.375,8.125z"/>
<path fill="#1B8734" d="M56,8.125H43.625c-6.216,0-11.25,5.034-11.25,11.25v153.25c0,6.215,5.034,11.25,11.25,11.25H56V8.125z"/>
<g>
	<path fill="#FFFFFF" d="M100.589,112.563l12.626,0.229l12.257-0.413c-0.505,1.147-0.964,2.295-1.377,3.397l-11.982,0.092
		l-11.891-0.184c-4.866-0.092-8.401-1.745-10.697-4.912c-0.826,0.643-2.479,2.433-5.004,5.417l-1.791-3.627
		c2.204-2.02,3.994-3.627,5.28-4.729V93.053h-5.004v-3.122h8.31v18.685C93.427,111.095,96.503,112.426,100.589,112.563z
		 M87.459,75.194c2.02,2.433,4.224,5.142,6.52,8.125l-3.03,2.204c-2.479-3.627-4.499-6.473-6.106-8.448L87.459,75.194z
		 M103.252,82.126v7.621h21.715v3.168h-8.585v18.042h-3.397V92.915h-9.732c-0.229,7.666-2.204,13.635-5.923,17.996
		c-0.826-0.734-1.744-1.47-2.8-2.296c3.627-4.178,5.417-9.916,5.417-17.17V79.096c7.024-0.459,14.461-1.332,22.403-2.663l0.78,3.168
		C115.831,80.749,109.22,81.575,103.252,82.126z"/>
</g>
</svg>
