<?xml version="1.0" encoding="utf-8"?>
<!-- Generator: Adobe Illustrator 16.0.0, SVG Export Plug-In . SVG Version: 6.00 Build 0)  -->
<!DOCTYPE svg PUBLIC "-//W3C//DTD SVG 1.1//EN" "http://www.w3.org/Graphics/SVG/1.1/DTD/svg11.dtd">
<svg version="1.1" id="图层_3" xmlns="http://www.w3.org/2000/svg" xmlns:xlink="http://www.w3.org/1999/xlink" x="0px" y="0px"
	 width="192px" height="192px" viewBox="0 0 192 192" enable-background="new 0 0 192 192" xml:space="preserve">
<path fill="#34A853" d="M148.375,8.125H43.625c-6.216,0-11.25,5.034-11.25,11.25v153.25c0,6.215,5.034,11.25,11.25,11.25h104.75
	c6.215,0,11.25-5.035,11.25-11.25V19.375C159.625,13.159,154.59,8.125,148.375,8.125z"/>
<path fill="#1B8734" d="M56,8.125H43.625c-6.216,0-11.25,5.034-11.25,11.25v153.25c0,6.215,5.034,11.25,11.25,11.25H56V8.125z"/>
<path fill="#FFFFFF" d="M118.545,101.003c1.867-2.969,2.969-6.402,2.969-10.133c0-10.557-8.52-19.076-19.076-19.076
	S83.361,80.314,83.361,90.87c0,10.559,8.52,19.076,19.035,19.076c3.729,0,7.203-1.102,10.129-2.969l13.229,13.229l6.02-6.02
	L118.545,101.003z M102.436,101.47c-5.849,0-10.598-4.75-10.598-10.6c0-5.849,4.749-10.598,10.598-10.598
	c5.852,0,10.6,4.749,10.6,10.598C113.035,96.72,108.287,101.47,102.436,101.47z"/>
</svg>
