<?xml version="1.0" encoding="utf-8"?>
<!-- Generator: Adobe Illustrator 16.0.0, SVG Export Plug-In . SVG Version: 6.00 Build 0)  -->
<!DOCTYPE svg PUBLIC "-//W3C//DTD SVG 1.1//EN" "http://www.w3.org/Graphics/SVG/1.1/DTD/svg11.dtd">
<svg version="1.1" id="图层_3" xmlns="http://www.w3.org/2000/svg" xmlns:xlink="http://www.w3.org/1999/xlink" x="0px" y="0px"
	 width="192px" height="192px" viewBox="0 0 192 192" enable-background="new 0 0 192 192" xml:space="preserve">
<path fill="#34A853" d="M148.375,8.125H43.625c-6.216,0-11.25,5.034-11.25,11.25v153.25c0,6.215,5.034,11.25,11.25,11.25h104.75
	c6.215,0,11.25-5.035,11.25-11.25V19.375C159.625,13.159,154.59,8.125,148.375,8.125z"/>
<path fill="#1B8734" d="M56,8.125H43.625c-6.216,0-11.25,5.034-11.25,11.25v153.25c0,6.215,5.034,11.25,11.25,11.25H56V8.125z"/>
<g>
	<path fill="#FFFFFF" d="M101.211,113.288c3.317-2.249,6.305-4.83,8.885-7.815c-1.659-4.239-2.654-11.097-2.949-20.571H90.852v6.562
		h12.461c-0.185,5.493-0.405,10.139-0.701,13.862c-0.331,3.981-2.285,5.972-5.787,5.972c-1.18,0-2.765-0.073-4.719-0.184
		c-0.185-1.069-0.405-2.249-0.701-3.576c2.028,0.295,3.687,0.442,5.051,0.442c1.659,0,2.617-1.143,2.802-3.466
		c0.222-2.654,0.405-5.936,0.517-9.843h-8.959c-0.221,9.99-2.249,17.4-6.083,22.193c-0.737-0.996-1.475-1.991-2.249-2.986
		c3.244-4.313,4.866-11.134,4.866-20.461V81.693h19.65c-0.11-2.285-0.185-4.755-0.295-7.373h3.576c0,2.028,0.036,4.498,0.11,7.373
		h14.894v3.208h-14.746c0.295,7.741,0.995,13.529,2.139,17.363c2.801-3.797,5.087-8.073,6.894-12.866l3.429,1.438
		c-2.471,5.861-5.457,10.949-8.922,15.299c2.102,4.313,4.166,6.452,6.193,6.452c0.737,0,1.29-0.664,1.696-1.991
		c0.405-2.102,0.737-4.276,0.958-6.488c1.254,0.479,2.322,0.885,3.281,1.217c-0.442,3.097-0.922,5.604-1.438,7.558
		c-0.554,2.102-1.77,3.244-3.613,3.429c-1.77,0.11-3.429-0.479-5.051-1.771c-1.732-1.327-3.244-3.17-4.46-5.529
		c-2.434,2.617-5.088,4.94-7.964,6.931C102.907,114.984,102.096,114.136,101.211,113.288z M113.598,76.422l1.807-2.249
		c2.434,1.401,4.682,2.839,6.783,4.313l-2.064,2.581C118.059,79.445,115.884,77.896,113.598,76.422z"/>
</g>
</svg>
