<?xml version="1.0" encoding="utf-8"?>
<!-- Generator: Adobe Illustrator 16.0.0, SVG Export Plug-In . SVG Version: 6.00 Build 0)  -->
<!DOCTYPE svg PUBLIC "-//W3C//DTD SVG 1.1//EN" "http://www.w3.org/Graphics/SVG/1.1/DTD/svg11.dtd">
<svg version="1.1" id="图层_3" xmlns="http://www.w3.org/2000/svg" xmlns:xlink="http://www.w3.org/1999/xlink" x="0px" y="0px"
	 width="192px" height="192px" viewBox="0 0 192 192" enable-background="new 0 0 192 192" xml:space="preserve">
<path fill="#34A853" d="M148.375,8.125H43.625c-6.216,0-11.25,5.034-11.25,11.25v153.25c0,6.215,5.034,11.25,11.25,11.25h104.75
	c6.215,0,11.25-5.035,11.25-11.25V19.375C159.625,13.159,154.59,8.125,148.375,8.125z"/>
<path fill="#1B8734" d="M56,8.125H43.625c-6.216,0-11.25,5.034-11.25,11.25v153.25c0,6.215,5.034,11.25,11.25,11.25H56V8.125z"/>
<g>
	<path fill="#FFFFFF" d="M82.808,82.07h19.272V71.173h4.314V82.07h19.486v22.818h-4.103v-2.692h-15.384v18.631h-4.314v-18.631H86.91
		v2.692h-4.102V82.07z M86.91,98.479h15.17V85.744H86.91V98.479z M121.778,85.787h-15.384v12.734h15.384V85.787z"/>
</g>
</svg>
