<?xml version="1.0" encoding="utf-8"?>
<!-- Generator: Adobe Illustrator 16.0.0, SVG Export Plug-In . SVG Version: 6.00 Build 0)  -->
<!DOCTYPE svg PUBLIC "-//W3C//DTD SVG 1.1//EN" "http://www.w3.org/Graphics/SVG/1.1/DTD/svg11.dtd">
<svg version="1.1" id="图层_3" xmlns="http://www.w3.org/2000/svg" xmlns:xlink="http://www.w3.org/1999/xlink" x="0px" y="0px"
	 width="192px" height="192px" viewBox="0 0 192 192" enable-background="new 0 0 192 192" xml:space="preserve">
<path fill="#4285F4" d="M160.75,20H31.25C25.034,20,20,25.035,20,31.25v129.5c0,6.215,5.034,11.25,11.25,11.25h129.5
	c6.216,0,11.25-5.035,11.25-11.25V31.25C172,25.035,166.966,20,160.75,20z"/>
<g>
	<path fill="#FFFFFF" d="M76.292,91.785H61.118v13.22H78.88v3.907H56.119V71.967h22.482V75.9H61.118v11.951h15.175V91.785z"/>
	<path fill="#FFFFFF" d="M88.574,81.457l0.355,4.085c0.914-1.455,2.059-2.584,3.438-3.387c1.377-0.804,2.948-1.206,4.708-1.206
		c2.959,0,5.252,0.867,6.877,2.601c1.623,1.734,2.436,4.411,2.436,8.031v17.331h-5V91.684c0-2.419-0.478-4.137-1.434-5.151
		c-0.955-1.015-2.415-1.522-4.377-1.522c-1.539,0-2.846,0.309-3.921,0.926c-1.074,0.618-1.923,1.484-2.549,2.601v20.375h-5V81.457
		H88.574z"/>
	<path fill="#FFFFFF" d="M112.756,95.692c0-4.416,0.942-7.976,2.829-10.683s4.521-4.06,7.906-4.06c1.741,0,3.271,0.351,4.592,1.053
		c1.32,0.702,2.428,1.713,3.325,3.033l0.608-3.578H136v27.608c0,3.519-1.024,6.22-3.069,8.108c-2.048,1.885-5.002,2.826-8.857,2.826
		c-1.319,0-2.745-0.18-4.277-0.544c-1.529-0.363-2.877-0.858-4.046-1.484l0.762-3.883c0.965,0.508,2.127,0.918,3.489,1.232
		c1.361,0.312,2.703,0.468,4.021,0.468c2.437,0,4.21-0.553,5.317-1.661s1.662-2.796,1.662-5.063v-3.121
		c-0.896,1.15-1.972,2.021-3.223,2.613c-1.252,0.592-2.697,0.888-4.339,0.888c-3.351,0-5.968-1.213-7.854-3.641
		s-2.829-5.621-2.829-9.58V95.692z M117.755,96.225c0,2.76,0.567,4.974,1.7,6.648c1.134,1.675,2.883,2.512,5.254,2.512
		c1.505,0,2.765-0.342,3.78-1.026c1.015-0.686,1.853-1.653,2.512-2.905V88.816c-0.644-1.167-1.481-2.094-2.512-2.779
		c-1.031-0.685-2.275-1.027-3.731-1.027c-2.385,0-4.147,0.989-5.29,2.969c-1.142,1.979-1.713,4.551-1.713,7.714V96.225z"/>
</g>
</svg>
