<?xml version="1.0" encoding="utf-8"?>
<!-- Generator: Adobe Illustrator 16.0.0, SVG Export Plug-In . SVG Version: 6.00 Build 0)  -->
<!DOCTYPE svg PUBLIC "-//W3C//DTD SVG 1.1//EN" "http://www.w3.org/Graphics/SVG/1.1/DTD/svg11.dtd">
<svg version="1.1" id="图层_3" xmlns="http://www.w3.org/2000/svg" xmlns:xlink="http://www.w3.org/1999/xlink" x="0px" y="0px"
	 width="192px" height="192px" viewBox="0 0 192 192" enable-background="new 0 0 192 192" xml:space="preserve">
<path fill="#4285F4" d="M156.6,20.25H96c-42.573,0-75.75,35.3-75.75,77.873c0,39.54,34.013,73.627,73.63,73.627
	c42.954,0,77.87-33.178,77.87-75.75V35.4C171.75,27.066,164.929,20.25,156.6,20.25z"/>
<path fill="#FFFFFF" d="M65.025,75.513h5.425l-9.688,39.914h-5.425L65.025,75.513z M99.708,114.847h-6.781v-4.069
	c-2.326,3.101-5.232,4.649-8.72,4.649c-3.682,0-6.781-1.549-8.913-4.649c-1.938-2.713-2.907-6.007-2.907-10.076
	c0-4.068,0.969-7.556,2.712-10.075c2.132-2.906,5.039-4.457,9.107-4.457c3.101,0,5.813,1.356,8.138,3.875v-3.294h7.362V114.847z
	 M92.346,100.896c0-6.006-2.132-9.107-6.2-9.107c-2.132,0-3.682,0.969-4.844,2.713c-0.969,1.55-1.356,3.293-1.356,5.619
	c0,2.907,0.388,5.231,1.163,6.395c1.163,1.938,2.906,2.906,5.038,2.906c2.131,0,3.682-0.969,4.844-2.906
	C91.958,105.159,92.346,103.221,92.346,100.896z M106.49,86.945h11.433v10.657H106.49V86.945z M106.49,103.996h11.433v10.656H106.49
	V103.996z M130.904,75.513h5.425l-9.688,39.914h-5.425L130.904,75.513L130.904,75.513z"/>
</svg>
