<?xml version="1.0" encoding="utf-8"?>
<!-- Generator: Adobe Illustrator 16.0.0, SVG Export Plug-In . SVG Version: 6.00 Build 0)  -->
<!DOCTYPE svg PUBLIC "-//W3C//DTD SVG 1.1//EN" "http://www.w3.org/Graphics/SVG/1.1/DTD/svg11.dtd">
<svg version="1.1" id="图层_3" xmlns="http://www.w3.org/2000/svg" xmlns:xlink="http://www.w3.org/1999/xlink" x="0px" y="0px"
	 width="192px" height="192px" viewBox="0 0 192 192" enable-background="new 0 0 192 192" xml:space="preserve">
<g>
	<path fill="#4285F4" d="M143.577,39.019c-3.334-4.715-8.881-7.769-15.077-7.769L26.75,31.341c-10.171,0-18.5,8.238-18.5,18.409
		v92.5c0,10.171,8.329,18.409,18.5,18.409l101.75,0.091c6.196,0,11.743-3.053,15.077-7.769L184,96L143.577,39.019z"/>
	<g>
		<path fill="#FFFFFF" d="M77.986,79.897h7.534v26.021c0,3.729-1.144,6.697-3.43,8.906c-2.288,2.21-5.226,3.314-8.816,3.314
			c-3.987,0-7.146-0.984-9.476-2.952s-3.452-4.824-3.366-8.569l0.052-0.155h7.353c0,2.002,0.492,3.482,1.476,4.44
			s2.304,1.437,3.961,1.437c1.38,0,2.511-0.573,3.392-1.722c0.88-1.147,1.32-2.714,1.32-4.699V79.897z"/>
		<path fill="#FFFFFF" d="M99.968,103.925v13.67h-7.56V79.897h14.421c4.332,0,7.741,1.105,10.227,3.314
			c2.485,2.21,3.729,5.118,3.729,8.726s-1.243,6.507-3.729,8.7s-5.895,3.288-10.227,3.288H99.968z M99.968,98.1h6.861
			c2.105,0,3.702-0.574,4.789-1.722c1.088-1.149,1.632-2.612,1.632-4.389c0-1.813-0.54-3.31-1.618-4.492
			c-1.079-1.182-2.68-1.773-4.803-1.773h-6.861V98.1z"/>
	</g>
</g>
</svg>
