<?xml version="1.0" encoding="utf-8"?>
<!-- Generator: Adobe Illustrator 16.0.0, SVG Export Plug-In . SVG Version: 6.00 Build 0)  -->
<!DOCTYPE svg PUBLIC "-//W3C//DTD SVG 1.1//EN" "http://www.w3.org/Graphics/SVG/1.1/DTD/svg11.dtd">
<svg version="1.1" id="图层_3" xmlns="http://www.w3.org/2000/svg" xmlns:xlink="http://www.w3.org/1999/xlink" x="0px" y="0px"
	 width="192px" height="192px" viewBox="0 0 192 192" enable-background="new 0 0 192 192" xml:space="preserve">
<path fill="#4285F4" d="M160.75,20H31.25C25.034,20,20,25.035,20,31.25v129.5c0,6.216,5.034,11.25,11.25,11.25h129.5
	c6.215,0,11.25-5.034,11.25-11.25V31.25C172,25.035,166.965,20,160.75,20z"/>
<g>
	<path fill="#FFFFFF" d="M115.411,67.893v41.23c0,2.459,0.349,4.166,1.05,5.122c0.699,0.956,1.646,1.434,2.842,1.434
		c0.514,0,0.99-0.026,1.436-0.077c0.441-0.051,0.852-0.145,1.229-0.281l1.178,7.272c-0.991,0.683-1.998,1.144-3.021,1.383
		c-1.024,0.238-2.169,0.358-3.432,0.358c-2.562,0-4.696-0.546-6.401-1.639c-1.71-1.092-2.972-2.816-3.791-5.173
		c-1.879,2.254-4.123,3.952-6.735,5.097c-2.611,1.143-5.608,1.715-8.988,1.715c-6.761,0-12.054-2.449-15.878-7.35
		c-3.825-4.898-5.737-11.344-5.737-19.334v-1.076c0-8.912,1.904-16.099,5.711-21.562s9.143-8.195,16.006-8.195
		c3.448,0,6.495,0.615,9.141,1.844c2.646,1.229,4.909,3.005,6.788,5.326l2.611-6.094H115.411z M79.251,97.65
		c0,5.6,1.152,10.133,3.458,13.598c2.304,3.467,5.845,5.199,10.628,5.199c2.766,0,5.121-0.605,7.067-1.818
		c1.945-1.212,3.585-2.91,4.917-5.096v-0.41V81.414c-1.332-2.049-2.98-3.67-4.943-4.865c-1.964-1.195-4.275-1.793-6.94-1.793
		c-4.813,0-8.382,2.041-10.704,6.121c-2.322,4.081-3.483,9.313-3.483,15.697V97.65z"/>
</g>
</svg>
