<?xml version="1.0" encoding="utf-8"?>
<!-- Generator: Adobe Illustrator 16.0.0, SVG Export Plug-In . SVG Version: 6.00 Build 0)  -->
<!DOCTYPE svg PUBLIC "-//W3C//DTD SVG 1.1//EN" "http://www.w3.org/Graphics/SVG/1.1/DTD/svg11.dtd">
<svg version="1.1" id="图层_3" xmlns="http://www.w3.org/2000/svg" xmlns:xlink="http://www.w3.org/1999/xlink" x="0px" y="0px"
	 width="192px" height="192px" viewBox="0 0 192 192" enable-background="new 0 0 192 192" xml:space="preserve">
<path fill="#34A853" d="M79.75,90.582c0-5.984,4.817-10.833,10.833-10.833h70.414c5.986,0,10.834,4.82,10.834,10.833v70.414
	c0,5.985-4.818,10.834-10.834,10.834H90.583c-5.984,0-10.833-4.822-10.833-10.834V90.582z"/>
<path fill="#4285F4" d="M20.169,31.002c0-5.985,4.818-10.833,10.833-10.833h70.414c5.986,0,10.834,4.821,10.834,10.833v70.413
	c0,5.986-4.818,10.834-10.834,10.834H31.002c-5.985,0-10.833-4.822-10.833-10.834V31.002z"/>
<g>
	<path fill="#FFFFFF" d="M133.113,147.999h-7.688v-31.757h-7.953v-5.894l15.641-1.373V147.999z"/>
</g>
<g>
	<path fill="#FFFFFF" d="M74.224,80.457H59.432l-3.071,9.841h-9.559l15.388-45.631h9.371l15.325,45.631h-9.558L74.224,80.457z
		 M61.688,73.28h10.311l-5.046-16.078h-0.188L61.688,73.28z"/>
</g>
</svg>
