<?xml version="1.0" encoding="utf-8"?>
<!-- Generator: Adobe Illustrator 16.0.0, SVG Export Plug-In . SVG Version: 6.00 Build 0)  -->
<!DOCTYPE svg PUBLIC "-//W3C//DTD SVG 1.1//EN" "http://www.w3.org/Graphics/SVG/1.1/DTD/svg11.dtd">
<svg version="1.1" id="图层_3" xmlns="http://www.w3.org/2000/svg" xmlns:xlink="http://www.w3.org/1999/xlink" x="0px" y="0px"
	 width="192px" height="192px" viewBox="0 0 192 192" enable-background="new 0 0 192 192" xml:space="preserve">
<g>
	<path fill="#EA4335" d="M120.533,172H96.186V71.424H71v-18.66l49.534-4.35V172z"/>
</g>
<polygon fill="#FBBC05" points="142.002,44.667 145.864,36.198 154.335,32.333 145.864,28.469 142.002,20 138.14,28.469 
	129.668,32.333 138.14,36.198 "/>
<polygon fill="#FBBC05" points="41.584,69.084 36.445,57.778 31.306,69.084 20,74.223 31.306,79.361 36.445,90.667 41.584,79.361 
	52.89,74.223 "/>
<polygon fill="#FBBC05" points="160.695,83.084 155.557,71.778 150.416,83.084 139.111,88.223 150.416,93.361 155.557,104.667 
	160.695,93.361 172,88.223 "/>
</svg>
