<?xml version="1.0" encoding="utf-8"?>
<!-- Generator: Adobe Illustrator 16.0.0, SVG Export Plug-In . SVG Version: 6.00 Build 0)  -->
<!DOCTYPE svg PUBLIC "-//W3C//DTD SVG 1.1//EN" "http://www.w3.org/Graphics/SVG/1.1/DTD/svg11.dtd">
<svg version="1.1" id="图层_3" xmlns="http://www.w3.org/2000/svg" xmlns:xlink="http://www.w3.org/1999/xlink" x="0px" y="0px"
	 width="192px" height="192px" viewBox="0 0 192 192" enable-background="new 0 0 192 192" xml:space="preserve">
<rect display="none" fill="#FFFFFF" width="192" height="192"/>
<path fill="#34A853" d="M148.375,8.125H43.625c-6.216,0-11.25,5.034-11.25,11.25v153.25c0,6.215,5.034,11.25,11.25,11.25h104.75
	c6.215,0,11.25-5.035,11.25-11.25V19.375C159.625,13.159,154.59,8.125,148.375,8.125z"/>
<g>
	<g>
		<path fill="#FFFFFF" d="M104.804,122.695c-0.254-0.51-0.424-1.103-0.593-1.867c-0.128-0.764-0.255-1.528-0.382-2.376
			c-0.638,0.679-1.357,1.314-2.165,1.91c-0.805,0.592-1.697,1.146-2.631,1.611c-0.933,0.467-1.993,0.807-3.097,1.062
			c-1.103,0.255-2.291,0.381-3.522,0.381c-2.036,0-3.903-0.298-5.601-0.934c-1.655-0.635-3.098-1.441-4.285-2.504
			c-1.188-1.06-2.08-2.332-2.715-3.775c-0.638-1.441-0.977-3.014-0.977-4.666c0-2.164,0.424-4.031,1.273-5.687
			c0.848-1.655,2.036-3.013,3.606-4.157c1.571-1.104,3.479-1.953,5.686-2.504c2.207-0.552,4.709-0.849,7.468-0.849h6.831V95.2
			c0-2.418-0.721-4.328-2.164-5.728c-1.442-1.442-3.563-2.121-6.365-2.121c-1.272,0-2.461,0.169-3.521,0.509
			c-1.062,0.339-1.995,0.806-2.716,1.4c-0.764,0.594-1.357,1.272-1.782,2.037c-0.425,0.764-0.637,1.569-0.637,2.418H79.6
			c0-1.443,0.383-2.843,1.146-4.286c0.764-1.4,1.825-2.673,3.226-3.819c1.4-1.145,3.055-2.036,5.049-2.757
			c1.952-0.722,4.158-1.061,6.576-1.061c2.165,0,4.201,0.297,6.025,0.849s3.438,1.4,4.754,2.503c1.313,1.146,2.333,2.546,3.096,4.2
			c0.722,1.697,1.104,3.649,1.104,5.897v18.67c0,1.358,0.126,2.801,0.339,4.286c0.254,1.483,0.594,2.8,1.061,3.861v0.592h-7.172
			V122.695z M93.39,117.478c1.231,0,2.419-0.172,3.48-0.51c1.104-0.34,2.079-0.807,2.97-1.358c0.891-0.554,1.655-1.188,2.334-1.91
			c0.637-0.721,1.188-1.442,1.527-2.206v-8.23h-5.728c-3.946,0-6.959,0.594-9.08,1.825c-2.122,1.229-3.183,3.054-3.183,5.558
			c0,0.977,0.17,1.866,0.467,2.713c0.339,0.851,0.806,1.572,1.485,2.167c0.636,0.593,1.442,1.103,2.418,1.442
			C91.014,117.306,92.118,117.478,93.39,117.478z"/>
	</g>
	<g>
		<path fill="#FFFFFF" d="M109.302,75.64H82.783v-8.189h26.519V75.64z"/>
	</g>
</g>
</svg>
