<?xml version="1.0" encoding="utf-8"?>
<!-- Generator: Adobe Illustrator 16.0.0, SVG Export Plug-In . SVG Version: 6.00 Build 0)  -->
<!DOCTYPE svg PUBLIC "-//W3C//DTD SVG 1.1//EN" "http://www.w3.org/Graphics/SVG/1.1/DTD/svg11.dtd">
<svg version="1.1" id="图层_3" xmlns="http://www.w3.org/2000/svg" xmlns:xlink="http://www.w3.org/1999/xlink" x="0px" y="0px"
	 width="192px" height="192px" viewBox="0 0 192 192" enable-background="new 0 0 192 192" xml:space="preserve">
<line fill="none" x1="18.435" y1="73.155" x2="177.904" y2="73.155"/>
<path fill="#34A853" d="M95.875,10.581c-22.035,0-39.922,17.885-39.922,39.922V66h15.17V50.503
	c0-13.653,11.099-24.752,24.752-24.752c13.653,0,24.752,11.099,24.752,24.752V66h15.17V50.503
	C135.797,28.466,117.91,10.581,95.875,10.581z"/>
<path fill="#4285F4" d="M143.781,66.472h-7.984v-0.139h-15.17v0.139H71.123v-0.139h-15.17v0.139h-7.984
	C39.146,66.472,32,73.617,32,82.44v79.844c0,8.823,7.146,15.969,15.969,15.969h95.813c8.823,0,15.969-7.146,15.969-15.969V82.44
	C159.75,73.617,152.604,66.472,143.781,66.472z"/>
<g>
	<path fill="#FFFFFF" d="M65.999,124.949v12.295h-6.168v-30.758h10.647c3.507,0,6.25,0.8,8.228,2.397
		c1.979,1.599,2.968,3.827,2.968,6.687c0,1.577-0.419,2.939-1.257,4.088c-0.838,1.147-2.06,2.073-3.665,2.777
		c1.816,0.535,3.123,1.43,3.918,2.683c0.795,1.254,1.193,2.803,1.193,4.647v2.261c0,0.859,0.116,1.757,0.349,2.693
		s0.63,1.63,1.194,2.081v0.443h-6.359c-0.563-0.45-0.926-1.197-1.088-2.239c-0.162-1.042-0.243-2.049-0.243-3.021v-2.176
		c0-1.535-0.419-2.729-1.257-3.581c-0.838-0.852-2.024-1.278-3.56-1.278H65.999z M65.999,120.196h4.373
		c1.732,0,3.021-0.366,3.866-1.099c0.845-0.731,1.268-1.816,1.268-3.253c0-1.408-0.426-2.527-1.278-3.358
		c-0.853-0.831-2.102-1.247-3.75-1.247h-4.479V120.196z"/>
	<path fill="#FFFFFF" d="M110.467,127.062l0.042,0.127c0.057,3.282-0.943,5.852-2.999,7.711c-2.057,1.858-4.895,2.788-8.514,2.788
		c-3.689,0-6.669-1.186-8.936-3.56c-2.268-2.373-3.401-5.439-3.401-9.199v-6.105c0-3.746,1.105-6.813,3.316-9.2
		c2.211-2.387,5.112-3.58,8.704-3.58c3.745,0,6.675,0.915,8.787,2.746c2.113,1.831,3.141,4.408,3.085,7.731l-0.043,0.127h-5.999
		c0-1.972-0.476-3.439-1.426-4.404c-0.951-0.965-2.419-1.447-4.404-1.447c-1.846,0-3.285,0.743-4.32,2.229
		c-1.035,1.486-1.553,3.405-1.553,5.757v6.147c0,2.365,0.546,4.295,1.637,5.788c1.092,1.493,2.609,2.239,4.553,2.239
		c1.845,0,3.222-0.482,4.13-1.447s1.362-2.447,1.362-4.447H110.467z"/>
	<path fill="#FFFFFF" d="M132.268,125.795h3.465v4.773h-3.465v6.676H126.1v-6.676h-12.527l-0.296-3.696l12.76-20.386h6.231V125.795z
		 M118.875,125.795h7.225v-11.176l-0.127-0.021l-0.634,1.373L118.875,125.795z"/>
</g>
</svg>
