<?xml version="1.0" encoding="utf-8"?>
<!-- Generator: Adobe Illustrator 16.0.0, SVG Export Plug-In . SVG Version: 6.00 Build 0)  -->
<!DOCTYPE svg PUBLIC "-//W3C//DTD SVG 1.1//EN" "http://www.w3.org/Graphics/SVG/1.1/DTD/svg11.dtd">
<svg version="1.1" id="图层_3" xmlns="http://www.w3.org/2000/svg" xmlns:xlink="http://www.w3.org/1999/xlink" x="0px" y="0px"
	 width="192px" height="192px" viewBox="0 0 192 192" enable-background="new 0 0 192 192" xml:space="preserve">
<line fill="none" x1="17.705" y1="74.155" x2="177.174" y2="74.155"/>
<line fill="none" x1="17.705" y1="73.822" x2="177.174" y2="73.822"/>
<path fill="#34A853" d="M95.144,11.248c-22.035,0-39.922,17.885-39.922,39.922v15.497h15.17V51.169
	c0-13.653,11.101-24.752,24.752-24.752c13.653,0,24.752,11.099,24.752,24.752v15.497h15.17V51.169
	C135.066,29.132,117.18,11.248,95.144,11.248z"/>
<path fill="#4285F4" d="M144.051,67.14h-7.984V67h-15.17v0.14H71.392V67h-15.17v0.14h-7.983c-8.822,0-15.969,7.145-15.969,15.966
	v79.845c0,8.822,7.146,15.969,15.969,15.969h95.812c8.824,0,15.971-7.146,15.971-15.969V83.106
	C160.02,74.284,152.873,67.14,144.051,67.14z"/>
<path fill="#FFFFFF" d="M101.836,116.843c0-0.806-0.424-1.757-0.872-2.398c-3.487-4.994-9.615-6.393-13.3-6.668
	c-1.016-1.162-5.708-4.812-5.708-4.812c-2.48-1.919-2.466,0-2.466,0l0.002,6.001c-6.673,3.559-6.673,5.444-8.172,6.421
	c-1.499,0.976-3.066-1.604-5.519-3.765c-2.453-2.16-3.406-1.463-3.27,0.001c0.104,1.108,1.18,3.532,1.699,4.653
	c0.097,0.303,0.155,0.811-0.148,1.499c-0.553,1.212-1.454,3.32-1.545,4.331c-0.135,1.463,0.819,2.16,3.27-0.003
	c2.451-2.166,4.016-4.743,5.516-3.769c1.5,0.975,1.5,2.86,8.178,6.414l0.002,5.996c0,0-0.013,1.924,2.468-0.002
	c0,0,4.688-3.651,5.704-4.813c3.686-0.28,9.814-1.683,13.293-6.68c0.449-0.646,0.871-1.594,0.871-2.403l0,0l0,0V116.843
	L101.836,116.843z M95.051,118.947c-1.131,0-2.049-0.94-2.05-2.096c0-1.16,0.917-2.098,2.048-2.098s2.048,0.937,2.05,2.096
	C97.099,118.006,96.181,118.947,95.051,118.947L95.051,118.947z"/>
<path fill="#FFFFFF" d="M90.454,138.809l0,0.004l0,0l0,0c0,0.81,0.422,1.758,0.871,2.403c3.48,4.997,9.609,6.399,13.294,6.679
	c1.017,1.162,5.703,4.813,5.703,4.813c2.481,1.926,2.468,0.002,2.468,0.002l0.003-5.997c6.678-3.553,6.678-5.438,8.177-6.413
	c1.501-0.976,3.066,1.603,5.518,3.769c2.449,2.163,3.404,1.466,3.269,0.002c-0.092-1.01-0.992-3.118-1.545-4.331
	c-0.304-0.688-0.245-1.195-0.149-1.498c0.52-1.121,1.596-3.545,1.7-4.653c0.136-1.465-0.817-2.162-3.271-0.002
	c-2.451,2.162-4.02,4.741-5.519,3.766c-1.498-0.977-1.498-2.862-8.173-6.421l0.003-6.001c0,0,0.014-1.919-2.466,0
	c0,0-4.693,3.649-5.71,4.812c-3.686,0.275-9.813,1.674-13.299,6.667C90.876,137.051,90.453,138.002,90.454,138.809L90.454,138.809z
	 M97.239,140.911c-1.13,0-2.048-0.941-2.048-2.097c0.001-1.159,0.918-2.096,2.049-2.096c1.132,0,2.049,0.938,2.049,2.098
	C99.287,139.972,98.371,140.912,97.239,140.911L97.239,140.911z"/>
</svg>
