<?xml version="1.0" encoding="utf-8"?>
<!-- Generator: Adobe Illustrator 16.0.0, SVG Export Plug-In . SVG Version: 6.00 Build 0)  -->
<!DOCTYPE svg PUBLIC "-//W3C//DTD SVG 1.1//EN" "http://www.w3.org/Graphics/SVG/1.1/DTD/svg11.dtd">
<svg version="1.1" id="图层_3" xmlns="http://www.w3.org/2000/svg" xmlns:xlink="http://www.w3.org/1999/xlink" x="0px" y="0px"
	 width="192px" height="192px" viewBox="0 0 192 192" enable-background="new 0 0 192 192" xml:space="preserve">
<line fill="none" x1="17.705" y1="74.155" x2="177.174" y2="74.155"/>
<line fill="none" x1="17.705" y1="73.822" x2="177.174" y2="73.822"/>
<path fill="#34A853" d="M95.144,11.248c-22.035,0-39.922,17.885-39.922,39.922v15.497h15.17V51.169
	c0-13.653,11.101-24.752,24.752-24.752c13.653,0,24.752,11.099,24.752,24.752v15.497h15.17V51.169
	C135.066,29.132,117.18,11.248,95.144,11.248z"/>
<path fill="#4285F4" d="M144.051,67.14h-7.984V67h-15.17v0.14H71.392V67h-15.17v0.14h-7.983c-8.822,0-15.969,7.145-15.969,15.966
	v79.845c0,8.822,7.146,15.969,15.969,15.969h95.812c8.824,0,15.971-7.146,15.971-15.969V83.106
	C160.02,74.284,152.873,67.14,144.051,67.14z"/>
<g>
	<path fill="#FFFFFF" d="M78.962,125.105l0.034,0.101c0.044,2.614-0.752,4.661-2.39,6.142c-1.638,1.481-3.898,2.222-6.781,2.222
		c-2.939,0-5.312-0.945-7.118-2.836c-1.806-1.89-2.709-4.333-2.709-7.328v-4.863c0-2.983,0.88-5.427,2.642-7.328
		s4.072-2.852,6.933-2.852c2.984,0,5.317,0.729,7,2.188c1.683,1.458,2.501,3.511,2.457,6.158l-0.034,0.102h-4.779
		c0-1.571-0.378-2.74-1.136-3.509s-1.927-1.152-3.508-1.152c-1.47,0-2.617,0.592-3.441,1.774c-0.824,1.185-1.237,2.713-1.237,4.586
		v4.896c0,1.885,0.435,3.422,1.304,4.611c0.869,1.188,2.078,1.783,3.626,1.783c1.469,0,2.566-0.384,3.29-1.152
		s1.085-1.949,1.085-3.542H78.962z"/>
	<path fill="#FFFFFF" d="M92.878,133.216c-0.18-0.415-0.334-0.853-0.462-1.313c-0.13-0.46-0.222-0.931-0.278-1.413
		c-0.505,0.886-1.172,1.621-2.002,2.204c-0.831,0.583-1.817,0.875-2.962,0.875c-1.907,0-3.377-0.491-4.409-1.473
		s-1.548-2.319-1.548-4.014c0-1.783,0.688-3.166,2.062-4.147s3.38-1.473,6.016-1.473h2.76v-1.447c0-0.875-0.23-1.554-0.689-2.036
		c-0.461-0.481-1.145-0.724-2.054-0.724c-0.796,0-1.41,0.194-1.842,0.581c-0.433,0.387-0.648,0.917-0.648,1.59h-4.729l-0.033-0.101
		c-0.079-1.537,0.592-2.863,2.011-3.979s3.272-1.675,5.562-1.675c2.188,0,3.957,0.55,5.309,1.649s2.028,2.676,2.028,4.729v7.521
		c0,0.853,0.064,1.655,0.193,2.406c0.129,0.752,0.333,1.498,0.614,2.238H92.878z M88.386,129.935c0.853,0,1.615-0.213,2.288-0.64
		c0.673-0.426,1.133-0.92,1.38-1.48v-2.575h-2.76c-1.043,0-1.831,0.259-2.364,0.774c-0.533,0.517-0.799,1.15-0.799,1.901
		c0,0.617,0.198,1.108,0.597,1.473S87.679,129.935,88.386,129.935z"/>
	<path fill="#FFFFFF" d="M110.497,128.168c0-0.539-0.261-1.002-0.782-1.389s-1.489-0.727-2.902-1.018
		c-2.132-0.427-3.75-1.071-4.855-1.936c-1.104-0.863-1.657-2.036-1.657-3.517c0-1.56,0.662-2.889,1.985-3.988
		c1.324-1.1,3.085-1.649,5.284-1.649c2.3,0,4.142,0.55,5.527,1.649s2.051,2.468,1.994,4.105l-0.033,0.102h-4.745
		c0-0.729-0.236-1.324-0.707-1.784c-0.472-0.46-1.15-0.689-2.036-0.689c-0.785,0-1.408,0.196-1.868,0.589s-0.689,0.875-0.689,1.447
		c0,0.561,0.238,1.018,0.715,1.371s1.444,0.671,2.902,0.951c2.232,0.448,3.896,1.107,4.99,1.977c1.094,0.87,1.641,2.067,1.641,3.593
		c0,1.638-0.701,2.979-2.104,4.021c-1.402,1.044-3.254,1.565-5.554,1.565c-2.423,0-4.339-0.614-5.746-1.843
		c-1.408-1.229-2.078-2.628-2.011-4.198l0.033-0.102h4.493c0.033,0.977,0.354,1.684,0.959,2.121s1.396,0.656,2.373,0.656
		c0.908,0,1.601-0.183,2.078-0.547C110.259,129.292,110.497,128.796,110.497,128.168z"/>
	<path fill="#FFFFFF" d="M124.313,110.55v4.459h3.079v3.449h-3.079v9.272c0,0.706,0.148,1.211,0.445,1.514
		c0.298,0.304,0.688,0.455,1.17,0.455c0.258,0,0.482-0.015,0.673-0.042c0.19-0.028,0.409-0.076,0.656-0.144l0.404,3.551
		c-0.494,0.168-0.974,0.294-1.438,0.379c-0.466,0.084-0.974,0.126-1.523,0.126c-1.694,0-2.998-0.466-3.912-1.396
		c-0.915-0.932-1.371-2.406-1.371-4.426v-9.289h-2.659v-3.449h2.659v-4.459H124.313z"/>
</g>
</svg>
