<?xml version="1.0" encoding="utf-8"?>
<!-- Generator: Adobe Illustrator 16.0.0, SVG Export Plug-In . SVG Version: 6.00 Build 0)  -->
<!DOCTYPE svg PUBLIC "-//W3C//DTD SVG 1.1//EN" "http://www.w3.org/Graphics/SVG/1.1/DTD/svg11.dtd">
<svg version="1.1" id="图层_3" xmlns="http://www.w3.org/2000/svg" xmlns:xlink="http://www.w3.org/1999/xlink" x="0px" y="0px"
	 width="192px" height="192px" viewBox="0 0 192 192" enable-background="new 0 0 192 192" xml:space="preserve">
<line fill="none" x1="16.435" y1="73.155" x2="175.904" y2="73.155"/>
<path fill="#34A853" d="M93.875,10.581c-22.035,0-39.922,17.885-39.922,39.922V66h15.17V50.503
	c0-13.653,11.099-24.752,24.752-24.752c13.652,0,24.752,11.099,24.752,24.752V66h15.17V50.503
	C133.797,28.466,115.91,10.581,93.875,10.581z"/>
<path fill="#4285F4" d="M141.781,66.472h-7.984v-0.139h-15.17v0.139H69.123v-0.139h-15.17v0.139h-7.984
	C37.146,66.472,30,73.617,30,82.44v79.844c0,8.823,7.146,15.969,15.969,15.969h95.813c8.823,0,15.969-7.146,15.969-15.969V82.44
	C157.75,73.617,150.604,66.472,141.781,66.472z"/>
<g>
	<path fill="#FFFFFF" d="M70.278,135.505h-5.128L54.84,118.258l-0.105,0.018v17.229h-5.128v-25.571h5.128l10.309,17.229l0.105-0.018
		v-17.211h5.128V135.505z"/>
	<path fill="#FFFFFF" d="M92.302,113.885h-7.306v21.62h-5.128v-21.62h-7.201v-3.951h19.635V113.885z"/>
	<path fill="#FFFFFF" d="M100.24,131.57h11.451v3.935h-16.58v-25.571h5.128V131.57z"/>
	<path fill="#FFFFFF" d="M128.323,128.778h0.105l6.568-18.845h6.691v25.571h-5.128v-17.457l-0.105-0.018l-6.322,17.475h-3.478
		l-6.323-17.51l-0.105,0.018v17.492h-5.128v-25.571h6.727L128.323,128.778z"/>
</g>
</svg>
