<?xml version="1.0" encoding="utf-8"?>
<!-- Generator: Adobe Illustrator 16.0.0, SVG Export Plug-In . SVG Version: 6.00 Build 0)  -->
<!DOCTYPE svg PUBLIC "-//W3C//DTD SVG 1.1//EN" "http://www.w3.org/Graphics/SVG/1.1/DTD/svg11.dtd">
<svg version="1.1" id="图层_3" xmlns="http://www.w3.org/2000/svg" xmlns:xlink="http://www.w3.org/1999/xlink" x="0px" y="0px"
	 width="192px" height="192px" viewBox="0 0 192 192" enable-background="new 0 0 192 192" xml:space="preserve">
<path fill="#4285F4" d="M125.174,19.5H28.407C23.762,19.5,20,23.263,20,27.906v96.769c0,4.646,3.762,8.407,8.406,8.407h96.768
	c4.646,0,8.406-3.764,8.406-8.407V27.906C133.582,23.263,129.82,19.5,125.174,19.5z"/>
<circle fill="#34A853" cx="133.875" cy="133.375" r="49.625"/>
<path fill="#FFFFFF" d="M125.504,142.846l-10.506-10.508l-3.577,3.555l14.083,14.083l30.235-30.234l-3.554-3.553L125.504,142.846z"
	/>
<path fill="#FFFFFF" d="M71.152,75.176c-6.568,2.312-11.276,8.572-11.276,15.929c0,9.333,7.581,16.913,16.913,16.913
	c9.333,0,16.914-7.579,16.914-16.913c0-7.357-4.708-13.618-11.276-15.929V62.914h11.276V51.638H82.428V46H71.152V75.176z
	 M82.428,91.105c0,3.098-2.537,5.637-5.638,5.637s-5.637-2.54-5.637-5.637c0-3.103,2.536-5.639,5.637-5.639
	S82.428,88.002,82.428,91.105z"/>
</svg>
