<?xml version="1.0" encoding="utf-8"?>
<!-- Generator: Adobe Illustrator 16.0.0, SVG Export Plug-In . SVG Version: 6.00 Build 0)  -->
<!DOCTYPE svg PUBLIC "-//W3C//DTD SVG 1.1//EN" "http://www.w3.org/Graphics/SVG/1.1/DTD/svg11.dtd">
<svg version="1.1" id="图层_3" xmlns="http://www.w3.org/2000/svg" xmlns:xlink="http://www.w3.org/1999/xlink" x="0px" y="0px"
	 width="192px" height="192px" viewBox="0 0 192 192" enable-background="new 0 0 192 192" xml:space="preserve">
<rect x="67" y="73" fill="none" width="67.667" height="41.333"/>
<path fill="none" d="M108.001,81h24v24h-24V81z"/>
<path fill="none" d="M56.501,64.5h75.5V140h-75.5V64.5z"/>
<line fill="none" x1="17" y1="74.738" x2="176.469" y2="74.738"/>
<path fill="#34A853" d="M94.439,12.164c-22.035,0-39.921,17.885-39.921,39.922v15.497h15.17V52.085
	c0-13.653,11.1-24.752,24.751-24.752c13.652,0,24.752,11.099,24.752,24.752v15.497h15.17V52.085
	C134.361,30.048,116.475,12.164,94.439,12.164z"/>
<path fill="#4285F4" d="M143.346,68.056h-7.984v-0.14h-15.17v0.14H70.688v-0.14h-15.17v0.14h-7.984
	c-8.822,0-15.969,7.145-15.969,15.966v79.845c0,8.822,7.146,15.969,15.969,15.969h95.813c8.823,0,15.97-7.146,15.97-15.969V84.022
	C159.314,75.2,152.168,68.056,143.346,68.056z"/>
<polygon fill="#FFFFFF" points="109.898,122.006 100.342,112.426 100.342,119.609 83.551,119.609 83.551,124.4 100.339,124.4 
	100.339,131.588 "/>
<g>
	<path fill="#FFFFFF" d="M69.973,130.275h-8.11l-1.684,5.395h-5.241l8.437-25.018h5.137l8.401,25.018h-5.24L69.973,130.275z
		 M63.101,126.342h5.652l-2.766-8.814h-0.103L63.101,126.342z"/>
</g>
<g>
	<path fill="#FFFFFF" d="M124.177,132.101h11.629V136h-17.617v-2.646l11.28-18.784h-11.263v-3.917h17.304v2.542L124.177,132.101z"/>
</g>
</svg>
