<?xml version="1.0" encoding="utf-8"?>
<!-- Generator: Adobe Illustrator 16.0.0, SVG Export Plug-In . SVG Version: 6.00 Build 0)  -->
<!DOCTYPE svg PUBLIC "-//W3C//DTD SVG 1.1//EN" "http://www.w3.org/Graphics/SVG/1.1/DTD/svg11.dtd">
<svg version="1.1" id="图层_3" xmlns="http://www.w3.org/2000/svg" xmlns:xlink="http://www.w3.org/1999/xlink" x="0px" y="0px"
	 width="192px" height="192px" viewBox="0 0 192 192" enable-background="new 0 0 192 192" xml:space="preserve">
<line fill="none" x1="12.005" y1="73.714" x2="179.097" y2="73.714"/>
<path fill="#34A853" d="M93.146,8.148c-23.088,0-41.83,18.74-41.83,41.83v16.238h15.895V49.979
	c0-14.306,11.631-25.935,25.935-25.935c14.305,0,25.935,11.629,25.935,25.935v16.238h15.896V49.979
	C134.977,26.888,116.234,8.148,93.146,8.148z"/>
<path fill="#4285F4" d="M144.391,66.712h-8.366v-0.147h-15.896v0.147h-51.87v-0.147H52.364v0.147h-8.366
	c-9.244,0-16.732,7.486-16.732,16.73v83.661c0,9.244,7.487,16.732,16.732,16.732h100.393c9.245,0,16.732-7.488,16.732-16.732V83.441
	C161.122,74.198,153.634,66.712,144.391,66.712z"/>
<g>
	<path fill="#FFFFFF" d="M81.83,153.124c-0.377-0.871-0.701-1.79-0.972-2.759c-0.271-0.966-0.466-1.955-0.583-2.97
		c-1.061,1.862-2.463,3.407-4.208,4.632c-1.745,1.227-3.819,1.84-6.223,1.84c-4.008,0-7.096-1.031-9.264-3.095
		c-2.168-2.063-3.253-4.874-3.253-8.433c0-3.747,1.444-6.652,4.332-8.715c2.887-2.063,7.101-3.095,12.641-3.095h5.798v-3.041
		c0-1.839-0.483-3.264-1.45-4.278c-0.966-1.014-2.404-1.521-4.313-1.521c-1.674,0-2.965,0.408-3.872,1.221
		c-0.908,0.813-1.362,1.927-1.362,3.341h-9.935l-0.071-0.211c-0.165-3.229,1.243-6.016,4.225-8.363
		c2.981-2.345,6.877-3.518,11.686-3.518c4.597,0,8.315,1.156,11.156,3.465c2.84,2.311,4.261,5.622,4.261,9.937v15.804
		c0,1.792,0.135,3.478,0.406,5.058c0.271,1.579,0.701,3.146,1.29,4.702H81.83z M72.389,146.229c1.792,0,3.395-0.446,4.809-1.343
		c1.415-0.896,2.381-1.933,2.899-3.111v-5.411h-5.798c-2.192,0-3.848,0.544-4.968,1.628c-1.12,1.085-1.679,2.416-1.679,3.994
		c0,1.297,0.418,2.328,1.255,3.095C69.743,145.846,70.905,146.229,72.389,146.229z"/>
	<path fill="#FFFFFF" d="M132.674,135.057c0,5.703-1.273,10.265-3.819,13.684c-2.545,3.417-6.222,5.127-11.031,5.127
		c-2.238,0-4.188-0.473-5.85-1.415c-1.663-0.943-3.071-2.32-4.226-4.138l-0.849,4.81h-8.735V97.965h10.291v20.969
		c1.106-1.532,2.433-2.712,3.978-3.536c1.543-0.826,3.317-1.238,5.321-1.238c4.855,0,8.556,1.834,11.101,5.498
		c2.546,3.665,3.819,8.551,3.819,14.656V135.057z M122.385,134.313c0-3.724-0.548-6.677-1.644-8.858
		c-1.097-2.179-2.966-3.27-5.604-3.27c-1.604,0-2.959,0.336-4.066,1.009c-1.108,0.671-1.979,1.632-2.616,2.88v16.193
		c0.637,1.157,1.514,2.041,2.634,2.654c1.12,0.612,2.492,0.919,4.119,0.919c2.663,0,4.526-0.938,5.586-2.813
		c1.062-1.872,1.591-4.531,1.591-7.972V134.313z"/>
</g>
</svg>
