<?xml version="1.0" encoding="utf-8"?>
<!-- Generator: Adobe Illustrator 16.0.0, SVG Export Plug-In . SVG Version: 6.00 Build 0)  -->
<!DOCTYPE svg PUBLIC "-//W3C//DTD SVG 1.1//EN" "http://www.w3.org/Graphics/SVG/1.1/DTD/svg11.dtd">
<svg version="1.1" id="图层_3" xmlns="http://www.w3.org/2000/svg" xmlns:xlink="http://www.w3.org/1999/xlink" x="0px" y="0px"
	 width="192px" height="192px" viewBox="0 0 192 192" enable-background="new 0 0 192 192" xml:space="preserve">
<g>
	<path fill="#3C8CEA" d="M117.625,8.125h-74c-6.216,0-11.25,5.034-11.25,11.25v153.25c0,6.215,5.034,11.25,11.25,11.25h104.75
		c6.215,0,11.25-5.035,11.25-11.25v-122.5L117.625,8.125z"/>
	<polygon fill="#2D6FE4" points="119.607,48 159.167,84 159.625,50.125 	"/>
	<path fill="#A5C5F9" d="M117.625,8.125v35c0,3.866,3.134,7,7,7h35L117.625,8.125z"/>
</g>
<path fill="#FFFFFF" d="M120.287,105.718h-8.684l2.604-11.326c0.367-1.62-0.635-3.223-2.236-3.588
	c-1.621-0.367-3.225,0.636-3.59,2.237l0,0l-2.912,12.658H89.646l2.604-11.307c0.367-1.62-0.637-3.223-2.238-3.589
	c-1.62-0.367-3.222,0.637-3.588,2.238l0,0L83.51,105.7h-9.145c-1.66,0-2.991,1.35-2.991,2.99c0,1.658,1.351,2.989,2.991,2.989l0,0
	h7.756l-3.686,15.996H68.363c-1.659,0-2.991,1.351-2.991,2.991c0,1.639,1.35,2.99,2.991,2.99h8.683l-2.605,11.306
	c-0.347,1.622,0.675,3.224,2.296,3.57c1.583,0.349,3.164-0.636,3.551-2.219l2.913-12.657h15.823l-2.605,11.306
	c-0.367,1.622,0.637,3.224,2.236,3.59c1.621,0.365,3.223-0.637,3.59-2.238l2.914-12.657h9.145c1.66,0,2.99-1.352,2.99-2.99
	c0-1.641-1.35-2.991-2.99-2.991h-7.756l3.684-15.996h10.072c1.66,0,2.992-1.35,2.992-2.989
	C123.277,107.05,121.928,105.718,120.287,105.718L120.287,105.718z M100.373,127.695H84.552l3.685-15.997h15.822L100.373,127.695z"
	/>
</svg>
