<?xml version="1.0" encoding="utf-8"?>
<!-- Generator: Adobe Illustrator 16.0.0, SVG Export Plug-In . SVG Version: 6.00 Build 0)  -->
<!DOCTYPE svg PUBLIC "-//W3C//DTD SVG 1.1//EN" "http://www.w3.org/Graphics/SVG/1.1/DTD/svg11.dtd">
<svg version="1.1" id="图层_3" xmlns="http://www.w3.org/2000/svg" xmlns:xlink="http://www.w3.org/1999/xlink" x="0px" y="0px"
	 width="192px" height="192px" viewBox="0 0 192 192" enable-background="new 0 0 192 192" xml:space="preserve">
<line fill="none" x1="19" y1="73.362" x2="178.469" y2="73.362"/>
<path fill="#34A853" d="M96.439,11.788c-22.035,0-39.921,17.885-39.921,39.922v15.497h15.17V51.71
	c0-13.653,11.1-24.752,24.751-24.752c13.652,0,24.752,11.099,24.752,24.752v15.497h15.17V51.71
	C136.361,29.673,118.475,11.788,96.439,11.788z"/>
<path fill="#4285F4" d="M144.346,67.679h-7.984V67.54h-15.17v0.139H71.688V67.54h-15.17v0.139h-7.984
	c-8.823,0-15.969,7.145-15.969,15.968v79.844c0,8.823,7.146,15.969,15.969,15.969h95.814c8.822,0,15.969-7.146,15.969-15.969V83.647
	C160.314,74.824,153.168,67.679,144.346,67.679z"/>
<g>
	<path fill="#FFFFFF" d="M86.775,132.808c0-1.44-0.501-2.597-1.504-3.471s-2.764-1.697-5.283-2.468
		c-4.319-1.303-7.596-2.837-9.833-4.603c-2.236-1.765-3.355-4.173-3.355-7.224c0-3.067,1.26-5.574,3.779-7.52
		c2.519-1.944,5.733-2.918,9.64-2.918c4.147,0,7.485,1.046,10.014,3.137c2.527,2.091,3.749,4.833,3.663,8.227l-0.052,0.154h-7.275
		c0-1.868-0.565-3.304-1.696-4.307c-1.131-1.002-2.717-1.504-4.756-1.504c-1.851,0-3.282,0.446-4.293,1.337
		c-1.011,0.892-1.517,2.031-1.517,3.42c0,1.268,0.548,2.31,1.646,3.123c1.096,0.814,2.991,1.676,5.681,2.584
		c4.113,1.165,7.25,2.687,9.409,4.563c2.159,1.877,3.239,4.35,3.239,7.417c0,3.205-1.251,5.732-3.754,7.584
		c-2.502,1.851-5.81,2.776-9.923,2.776c-4.028,0-7.485-1.003-10.373-3.008c-2.888-2.006-4.289-4.996-4.203-8.973l0.051-0.153h7.275
		c0,2.21,0.651,3.839,1.954,4.884c1.302,1.046,3.067,1.568,5.296,1.568c2.005,0,3.535-0.42,4.589-1.26
		S86.775,134.213,86.775,132.808z"/>
	<path fill="#FFFFFF" d="M110.066,126.946h-2.751v15.63H99.81v-37.431h7.506v15.296h2.108l10.258-15.296h9.28l-12.957,17.404
		l13.959,20.026h-9.563L110.066,126.946z"/>
</g>
</svg>
