<?xml version="1.0" encoding="utf-8"?>
<!-- Generator: Adobe Illustrator 16.0.0, SVG Export Plug-In . SVG Version: 6.00 Build 0)  -->
<!DOCTYPE svg PUBLIC "-//W3C//DTD SVG 1.1//EN" "http://www.w3.org/Graphics/SVG/1.1/DTD/svg11.dtd">
<svg version="1.1" id="图层_3" xmlns="http://www.w3.org/2000/svg" xmlns:xlink="http://www.w3.org/1999/xlink" x="0px" y="0px"
	 width="192px" height="192px" viewBox="0 0 192 192" enable-background="new 0 0 192 192" xml:space="preserve">
<line fill="none" x1="19" y1="73.362" x2="178.469" y2="73.362"/>
<path fill="none" d="M47.735,76.083h51v51h-51V76.083z"/>
<path fill="#34A853" d="M96,11.747c-22.035,0-39.922,17.885-39.922,39.922v15.497h15.17V51.669
	c0-13.653,11.099-24.752,24.752-24.752s24.752,11.099,24.752,24.752v15.497h15.17V51.669C135.922,29.632,118.035,11.747,96,11.747z"
	/>
<path fill="#4285F4" d="M143.906,67.638h-7.984v-0.139h-15.17v0.139H71.248v-0.139h-15.17v0.139h-7.984
	c-8.823,0-15.969,7.145-15.969,15.968v79.844c0,8.823,7.146,15.969,15.969,15.969h95.813c8.824,0,15.969-7.146,15.969-15.969V83.606
	C159.875,74.783,152.729,67.638,143.906,67.638z"/>
<g>
	<path fill="#FFFFFF" d="M103.039,134.796c0-1.56-0.543-2.813-1.63-3.761c-1.086-0.947-2.994-1.838-5.725-2.674
		c-4.68-1.411-8.231-3.073-10.655-4.986c-2.423-1.913-3.635-4.522-3.635-7.828c0-3.324,1.365-6.04,4.095-8.148
		c2.73-2.107,6.212-3.161,10.446-3.161c4.494,0,8.11,1.133,10.851,3.398c2.739,2.266,4.063,5.236,3.97,8.914l-0.056,0.167h-7.884
		c0-2.024-0.613-3.58-1.839-4.666c-1.226-1.087-2.943-1.63-5.153-1.63c-2.006,0-3.557,0.483-4.652,1.449
		c-1.096,0.966-1.644,2.2-1.644,3.704c0,1.375,0.594,2.503,1.783,3.385c1.188,0.883,3.241,1.815,6.157,2.8
		c4.457,1.264,7.855,2.911,10.195,4.945c2.34,2.033,3.51,4.712,3.51,8.036c0,3.474-1.355,6.212-4.066,8.218
		c-2.712,2.006-6.296,3.009-10.753,3.009c-4.365,0-8.111-1.086-11.241-3.259s-4.647-5.414-4.555-9.723l0.056-0.167h7.883
		c0,2.396,0.706,4.16,2.117,5.293c1.411,1.133,3.324,1.699,5.739,1.699c2.173,0,3.83-0.455,4.973-1.365
		C102.468,137.536,103.039,136.319,103.039,134.796z"/>
</g>
</svg>
