<?xml version="1.0" encoding="utf-8"?>
<!-- Generator: Adobe Illustrator 16.0.0, SVG Export Plug-In . SVG Version: 6.00 Build 0)  -->
<!DOCTYPE svg PUBLIC "-//W3C//DTD SVG 1.1//EN" "http://www.w3.org/Graphics/SVG/1.1/DTD/svg11.dtd">
<svg version="1.1" id="图层_3" xmlns="http://www.w3.org/2000/svg" xmlns:xlink="http://www.w3.org/1999/xlink" x="0px" y="0px"
	 width="192px" height="192px" viewBox="0 0 192 192" enable-background="new 0 0 192 192" xml:space="preserve">
<line fill="none" x1="17.705" y1="74.155" x2="177.174" y2="74.155"/>
<line fill="none" x1="17.705" y1="73.822" x2="177.174" y2="73.822"/>
<path fill="#34A853" d="M95.144,11.248c-22.035,0-39.922,17.885-39.922,39.922v15.497h15.17V51.169
	c0-13.653,11.101-24.752,24.752-24.752c13.653,0,24.752,11.099,24.752,24.752v15.497h15.17V51.169
	C135.066,29.132,117.18,11.248,95.144,11.248z"/>
<path fill="#4285F4" d="M144.051,67.14h-7.984V67h-15.17v0.14H71.392V67h-15.17v0.14h-7.983c-8.822,0-15.969,7.145-15.969,15.966
	v79.845c0,8.822,7.146,15.969,15.969,15.969h95.812c8.824,0,15.971-7.146,15.971-15.969V83.106
	C160.02,74.284,152.873,67.14,144.051,67.14z"/>
<path fill="#FFFFFF" d="M124.265,124.775c0-1.052-0.553-2.293-1.14-3.131c-4.55-6.518-12.548-8.343-17.358-8.702
	c-1.326-1.517-7.45-6.279-7.45-6.279c-3.237-2.505-3.219,0-3.219,0l0.003,7.832c-8.71,4.645-8.71,7.105-10.666,8.38
	c-1.957,1.273-4.002-2.093-7.203-4.914c-3.202-2.819-4.446-1.909-4.268,0.002c0.136,1.446,1.541,4.61,2.217,6.073
	c0.126,0.396,0.202,1.058-0.194,1.956c-0.721,1.582-1.897,4.334-2.017,5.652c-0.177,1.91,1.069,2.82,4.267-0.003
	c3.199-2.827,5.241-6.191,7.2-4.919c1.958,1.272,1.958,3.733,10.673,8.371l0.003,7.826c0,0-0.017,2.511,3.221-0.002
	c0,0,6.118-4.766,7.444-6.282c4.811-0.365,12.809-2.195,17.351-8.717c0.586-0.843,1.137-2.08,1.137-3.137l0,0l0,0V124.775
	L124.265,124.775z M115.408,127.521c-1.477,0.001-2.674-1.227-2.676-2.734c0-1.515,1.197-2.738,2.673-2.738
	c1.477,0,2.674,1.223,2.675,2.735C118.081,126.293,116.883,127.521,115.408,127.521L115.408,127.521z"/>
</svg>
