<?xml version="1.0" encoding="utf-8"?>
<!-- Generator: Adobe Illustrator 16.0.0, SVG Export Plug-In . SVG Version: 6.00 Build 0)  -->
<!DOCTYPE svg PUBLIC "-//W3C//DTD SVG 1.1//EN" "http://www.w3.org/Graphics/SVG/1.1/DTD/svg11.dtd">
<svg version="1.1" id="图层_3" xmlns="http://www.w3.org/2000/svg" xmlns:xlink="http://www.w3.org/1999/xlink" x="0px" y="0px"
	 width="192px" height="192px" viewBox="0 0 192 192" enable-background="new 0 0 192 192" xml:space="preserve">
<line fill="none" x1="17.705" y1="74.155" x2="177.174" y2="74.155"/>
<line fill="none" x1="17.705" y1="73.822" x2="177.174" y2="73.822"/>
<path fill="#34A853" d="M95.144,11.248c-22.035,0-39.922,17.885-39.922,39.922v15.497h15.17V51.169
	c0-13.653,11.101-24.752,24.752-24.752c13.653,0,24.752,11.099,24.752,24.752v15.497h15.17V51.169
	C135.066,29.132,117.18,11.248,95.144,11.248z"/>
<path fill="#4285F4" d="M144.051,67.14h-7.984V67h-15.17v0.14H71.392V67h-15.17v0.14h-7.983c-8.822,0-15.969,7.145-15.969,15.966
	v79.845c0,8.822,7.146,15.969,15.969,15.969h95.812c8.824,0,15.971-7.146,15.971-15.969V83.106
	C160.02,74.284,152.873,67.14,144.051,67.14z"/>
<g>
	<path fill="#FFFFFF" d="M85.962,125.105l0.034,0.101c0.044,2.614-0.752,4.661-2.39,6.142c-1.638,1.481-3.898,2.222-6.781,2.222
		c-2.939,0-5.312-0.945-7.118-2.836c-1.806-1.89-2.709-4.333-2.709-7.328v-4.863c0-2.983,0.88-5.427,2.642-7.328
		s4.072-2.852,6.933-2.852c2.984,0,5.317,0.729,7,2.188c1.683,1.458,2.501,3.511,2.457,6.158l-0.034,0.102h-4.779
		c0-1.571-0.378-2.74-1.136-3.509s-1.927-1.152-3.508-1.152c-1.47,0-2.617,0.592-3.441,1.774c-0.824,1.185-1.237,2.713-1.237,4.586
		v4.896c0,1.885,0.435,3.422,1.304,4.611c0.869,1.188,2.078,1.783,3.626,1.783c1.469,0,2.566-0.384,3.29-1.152
		s1.085-1.949,1.085-3.542H85.962z"/>
	<path fill="#FFFFFF" d="M105.667,133.216h-16.44v-3.214l7.589-8.582c1.133-1.335,1.938-2.465,2.415-3.391s0.715-1.775,0.715-2.55
		c0-1.01-0.252-1.817-0.757-2.423s-1.262-0.908-2.271-0.908c-1.066,0-1.891,0.387-2.474,1.161c-0.584,0.773-0.875,1.755-0.875,2.944
		h-4.779l-0.033-0.101c-0.057-2.177,0.661-4.02,2.153-5.528s3.494-2.263,6.008-2.263c2.513,0,4.465,0.642,5.855,1.927
		c1.391,1.284,2.087,3.009,2.087,5.174c0,1.47-0.39,2.811-1.17,4.021c-0.779,1.212-2.123,2.889-4.03,5.031l-4.038,4.847l0.033,0.084
		h10.013V133.216z"/>
	<path fill="#FFFFFF" d="M125.204,124.348c0,2.872-0.755,5.127-2.264,6.765s-3.509,2.457-5.999,2.457
		c-2.513,0-4.526-0.819-6.041-2.457s-2.271-3.893-2.271-6.765V117.6c0-2.86,0.754-5.115,2.264-6.764
		c1.508-1.649,3.514-2.474,6.016-2.474c2.49,0,4.495,0.824,6.016,2.474c1.52,1.648,2.28,3.903,2.28,6.764V124.348z M120.307,117.096
		c0-1.571-0.3-2.788-0.899-3.652c-0.601-0.863-1.434-1.295-2.499-1.295c-1.077,0-1.91,0.432-2.499,1.295
		c-0.589,0.864-0.884,2.081-0.884,3.652v7.724c0,1.604,0.297,2.835,0.892,3.693s1.437,1.287,2.524,1.287
		c1.065,0,1.894-0.429,2.482-1.287s0.883-2.089,0.883-3.693V117.096z"/>
</g>
</svg>
