<?xml version="1.0" encoding="utf-8"?>
<!-- Generator: Adobe Illustrator 16.0.0, SVG Export Plug-In . SVG Version: 6.00 Build 0)  -->
<!DOCTYPE svg PUBLIC "-//W3C//DTD SVG 1.1//EN" "http://www.w3.org/Graphics/SVG/1.1/DTD/svg11.dtd">
<svg version="1.1" id="图层_3" xmlns="http://www.w3.org/2000/svg" xmlns:xlink="http://www.w3.org/1999/xlink" x="0px" y="0px"
	 width="192px" height="192px" viewBox="0 0 192 192" enable-background="new 0 0 192 192" xml:space="preserve">
<path fill="#34A853" d="M94.049,8.148c-23.088,0-41.831,18.74-41.831,41.83v16.238h15.895V49.979
	c0-14.306,11.631-25.935,25.936-25.935s25.935,11.629,25.935,25.935v16.238h15.896V49.979
	C135.879,26.888,117.137,8.148,94.049,8.148z"/>
<path fill="#4285F4" d="M145.293,66.712h-8.365v-0.147h-15.896v0.147h-51.87v-0.147H53.267v0.147H44.9
	c-9.244,0-16.732,7.486-16.732,16.73v83.662c0,9.244,7.487,16.731,16.732,16.731h100.393c9.245,0,16.732-7.487,16.732-16.731V83.441
	C162.024,74.198,154.536,66.712,145.293,66.712z"/>
<rect x="64.43" y="97" fill="#FFFFFF" width="27.333" height="27.334"/>
<rect x="98.43" y="97" fill="#FFFFFF" width="27.334" height="27.334"/>
<rect x="64.43" y="130.668" fill="#FFFFFF" width="27.333" height="27.333"/>
<rect x="98.43" y="130.668" fill="#FFFFFF" width="27.334" height="27.333"/>
</svg>
