<?xml version="1.0" encoding="utf-8"?>
<!-- Generator: Adobe Illustrator 16.0.0, SVG Export Plug-In . SVG Version: 6.00 Build 0)  -->
<!DOCTYPE svg PUBLIC "-//W3C//DTD SVG 1.1//EN" "http://www.w3.org/Graphics/SVG/1.1/DTD/svg11.dtd">
<svg version="1.1" id="图层_3" xmlns="http://www.w3.org/2000/svg" xmlns:xlink="http://www.w3.org/1999/xlink" x="0px" y="0px"
	 width="192px" height="192px" viewBox="0 0 192 192" enable-background="new 0 0 192 192" xml:space="preserve">
<line fill="none" x1="17.705" y1="74.155" x2="177.174" y2="74.155"/>
<line fill="none" x1="17.705" y1="73.822" x2="177.174" y2="73.822"/>
<path fill="#34A853" d="M95.144,11.248c-22.035,0-39.922,17.885-39.922,39.922v15.497h15.17V51.169
	c0-13.653,11.101-24.752,24.752-24.752c13.653,0,24.752,11.099,24.752,24.752v15.497h15.17V51.169
	C135.066,29.132,117.18,11.248,95.144,11.248z"/>
<path fill="#4285F4" d="M144.051,67.14h-7.984V67h-15.17v0.14H71.392V67h-15.17v0.14h-7.983c-8.822,0-15.969,7.145-15.969,15.966
	v79.845c0,8.822,7.146,15.969,15.969,15.969h95.812c8.824,0,15.971-7.146,15.971-15.969V83.106
	C160.02,74.284,152.873,67.14,144.051,67.14z"/>
<g>
	<path fill="#FFFFFF" d="M69.253,117.398l4.594-8.684h5.722l-7.27,12.149l7.69,12.352h-5.94l-4.729-8.834l-4.729,8.834h-5.738
		l7.455-12.352l-7.27-12.149h5.688L69.253,117.398z"/>
	<path fill="#FFFFFF" d="M99.593,112.501h-7.001v20.715h-4.913v-20.715h-6.899v-3.786h18.813V112.501z"/>
	<path fill="#FFFFFF" d="M108.309,133.569c-2.715,0-4.835-0.833-6.36-2.499s-2.289-3.812-2.289-6.437v-0.673
		c0-2.727,0.741-4.958,2.222-6.697s3.517-2.603,6.108-2.592c2.445,0,4.321,0.749,5.629,2.247c1.307,1.497,1.96,3.514,1.96,6.049
		v2.541h-10.854l-0.051,0.102c0.079,1.245,0.457,2.254,1.136,3.028s1.686,1.161,3.021,1.161c1.1,0,2.033-0.112,2.802-0.337
		c0.769-0.224,1.563-0.565,2.382-1.026l1.329,3.029c-0.729,0.595-1.717,1.094-2.962,1.498
		C111.136,133.367,109.778,133.569,108.309,133.569z M107.989,118.458c-0.987,0-1.747,0.34-2.28,1.019s-0.855,1.579-0.968,2.7
		l0.034,0.085h5.99v-0.371c0-1.065-0.219-1.903-0.656-2.516C109.672,118.764,108.965,118.458,107.989,118.458z"/>
	<path fill="#FFFFFF" d="M129.175,133.216c-0.18-0.415-0.334-0.853-0.462-1.313c-0.13-0.46-0.222-0.931-0.278-1.413
		c-0.505,0.886-1.172,1.621-2.002,2.204c-0.831,0.583-1.817,0.875-2.962,0.875c-1.907,0-3.377-0.491-4.409-1.473
		s-1.548-2.319-1.548-4.014c0-1.783,0.688-3.166,2.062-4.147s3.38-1.473,6.016-1.473h2.76v-1.447c0-0.875-0.23-1.554-0.689-2.036
		c-0.461-0.481-1.145-0.724-2.054-0.724c-0.796,0-1.41,0.194-1.842,0.581c-0.433,0.387-0.648,0.917-0.648,1.59h-4.729l-0.033-0.101
		c-0.079-1.537,0.592-2.863,2.011-3.979s3.272-1.675,5.562-1.675c2.188,0,3.957,0.55,5.309,1.649s2.028,2.676,2.028,4.729v7.521
		c0,0.853,0.064,1.655,0.193,2.406c0.129,0.752,0.333,1.498,0.614,2.238H129.175z M124.683,129.935c0.853,0,1.615-0.213,2.288-0.64
		c0.673-0.426,1.133-0.92,1.38-1.48v-2.575h-2.76c-1.043,0-1.831,0.259-2.364,0.774c-0.533,0.517-0.799,1.15-0.799,1.901
		c0,0.617,0.198,1.108,0.597,1.473S123.976,129.935,124.683,129.935z"/>
</g>
</svg>
