<?xml version="1.0" encoding="utf-8"?>
<!-- Generator: Adobe Illustrator 16.0.0, SVG Export Plug-In . SVG Version: 6.00 Build 0)  -->
<!DOCTYPE svg PUBLIC "-//W3C//DTD SVG 1.1//EN" "http://www.w3.org/Graphics/SVG/1.1/DTD/svg11.dtd">
<svg version="1.1" id="图层_3" xmlns="http://www.w3.org/2000/svg" xmlns:xlink="http://www.w3.org/1999/xlink" x="0px" y="0px"
	 width="192px" height="192px" viewBox="0 0 192 192" enable-background="new 0 0 192 192" xml:space="preserve">
<line fill="none" x1="19" y1="73.362" x2="178.469" y2="73.362"/>
<path fill="none" d="M47.735,76.083h51v51h-51V76.083z"/>
<path fill="#34A853" d="M142.22,99.26c10.378-3.654,17.818-13.545,17.818-25.167c0-14.747-11.979-26.726-26.727-26.726
	c-14.746,0-26.726,11.979-26.726,26.726c0,11.622,7.438,21.513,17.816,25.167v19.376h-17.816v17.817h17.816v8.908h17.817V99.26z
	 M124.402,74.093c0-4.898,4.013-8.909,8.909-8.909c4.9,0,8.908,4.01,8.908,8.909c0,4.898-4.008,8.908-8.908,8.908
	C128.415,83.001,124.402,78.991,124.402,74.093z"/>
<path fill="#4285F4" d="M49.987,92.071c-10.378,3.654-17.817,13.545-17.817,25.17c0,14.745,11.981,26.724,26.725,26.724
	c14.747,0,26.726-11.979,26.726-26.724c0-11.625-7.439-21.516-17.817-25.17V72.697h17.817V54.88H67.804v-8.909H49.987V92.071z
	 M67.804,117.241c0,4.895-4.01,8.907-8.909,8.907c-4.9,0-8.908-4.013-8.908-8.907c0-4.902,4.008-8.909,8.908-8.909
	C63.794,108.332,67.804,112.339,67.804,117.241z"/>
</svg>
