<?xml version="1.0" encoding="utf-8"?>
<!-- Generator: Adobe Illustrator 16.0.0, SVG Export Plug-In . SVG Version: 6.00 Build 0)  -->
<!DOCTYPE svg PUBLIC "-//W3C//DTD SVG 1.1//EN" "http://www.w3.org/Graphics/SVG/1.1/DTD/svg11.dtd">
<svg version="1.1" id="图层_3" xmlns="http://www.w3.org/2000/svg" xmlns:xlink="http://www.w3.org/1999/xlink" x="0px" y="0px"
	 width="192px" height="192px" viewBox="0 0 192 192" enable-background="new 0 0 192 192" xml:space="preserve">
<path fill="#4285F4" d="M160.75,20H31.25C25.034,20,20,25.035,20,31.25v129.5c0,6.216,5.034,11.25,11.25,11.25h129.5
	c6.216,0,11.25-5.034,11.25-11.25V31.25C172,25.035,166.966,20,160.75,20z"/>
<g>
	<path fill="#FFFFFF" d="M58.305,111.854c3.26,2.522,6.94,3.783,11.041,3.783c3.28,0,5.879-0.805,7.796-2.414
		s2.875-3.768,2.875-6.474c0-6.028-4.316-9.042-12.947-9.042h-3.967v-4.982h3.783c7.647,0,11.471-2.83,11.471-8.488
		c0-5.228-2.921-7.842-8.765-7.842c-3.342,0-6.489,1.128-9.441,3.383v-5.689c3.116-1.804,6.755-2.707,10.918-2.707
		c4.06,0,7.319,1.061,9.78,3.183c2.46,2.122,3.69,4.875,3.69,8.258c0,6.233-3.178,10.241-9.534,12.025v0.123
		c3.444,0.369,6.167,1.584,8.166,3.645s2.998,4.628,2.998,7.704c0,4.285-1.543,7.74-4.628,10.364
		c-3.086,2.624-7.192,3.937-12.317,3.937c-4.511,0-8.15-0.841-10.918-2.522V111.854z"/>
	<path fill="#FFFFFF" d="M96.994,119.819V72.181h13.593c7.217,0,13.22,2.102,18.007,6.305s7.182,9.841,7.182,16.915
		c0,7.381-2.395,13.296-7.182,17.745s-10.954,6.674-18.499,6.674H96.994z M103.145,77.655v36.721h6.92
		c6.048,0,10.769-1.65,14.162-4.952c3.394-3.301,5.09-7.924,5.09-13.869c0-5.946-1.742-10.416-5.228-13.41
		c-3.486-2.993-8.068-4.49-13.748-4.49H103.145z"/>
</g>
</svg>
