<?xml version="1.0" encoding="utf-8"?>
<!-- Generator: Adobe Illustrator 16.0.0, SVG Export Plug-In . SVG Version: 6.00 Build 0)  -->
<!DOCTYPE svg PUBLIC "-//W3C//DTD SVG 1.1//EN" "http://www.w3.org/Graphics/SVG/1.1/DTD/svg11.dtd">
<svg version="1.1" id="图层_3" xmlns="http://www.w3.org/2000/svg" xmlns:xlink="http://www.w3.org/1999/xlink" x="0px" y="0px"
	 width="192px" height="192px" viewBox="0 0 192 192" enable-background="new 0 0 192 192" xml:space="preserve">
<path fill="#3385FF" d="M160.75,20H31.25C25.034,20,20,25.035,20,31.25v129.5c0,6.216,5.034,11.25,11.25,11.25h129.5
	c6.215,0,11.25-5.034,11.25-11.25V31.25C172,25.035,166.965,20,160.75,20z"/>
<path fill="#FFFFFF" d="M67.309,96.328H97.14v17.965c0,1.031,0.83,1.865,1.856,1.865h0.001c1.026,0,1.86-0.834,1.86-1.865V96.328
	h29.835v19.83c0,1.027,0.834,1.865,1.861,1.865s1.867-0.838,1.867-1.865l0.001-20.488c0-1.695-1.378-3.075-3.068-3.075h-30.496
	v-8.137c0-1.03-0.834-1.864-1.861-1.864h0.001c-1.028,0-1.857,0.834-1.857,1.864v8.137H66.65c-1.698,0-3.075,1.38-3.075,3.075
	v20.488c0,1.027,0.838,1.865,1.868,1.865c1.027,0,1.865-0.838,1.865-1.865L67.309,96.328L67.309,96.328L67.309,96.328z
	 M74.764,121.029h-18.64c-1.033,0-1.865,0.834-1.865,1.861v18.074c0,1.027,0.832,1.869,1.865,1.869h18.64
	c1.03,0,1.864-0.842,1.864-1.869v-18.074C76.628,121.861,75.793,121.029,74.764,121.029L74.764,121.029z M108.323,121.029H89.681
	c-1.031,0-1.865,0.834-1.865,1.861v18.074c0,1.027,0.834,1.869,1.865,1.869h18.643c1.024,0,1.861-0.842,1.861-1.869v-18.074
	C110.182,121.861,109.348,121.029,108.323,121.029L108.323,121.029z M141.88,121.029H123.23c-1.021,0-1.858,0.834-1.858,1.861
	v18.074c0,1.027,0.837,1.869,1.858,1.869h18.649c1.024,0,1.864-0.842,1.864-1.869v-18.074
	C143.744,121.861,142.904,121.029,141.88,121.029z M84.087,79.548h29.827c1.027,0,1.865-0.834,1.865-1.864V55.366
	c0-1.03-0.838-1.865-1.865-1.865H84.087c-1.03,0-1.864,0.835-1.864,1.865v22.315C82.223,78.714,83.056,79.548,84.087,79.548z"/>
</svg>
