<?xml version="1.0" encoding="utf-8"?>
<!-- Generator: Adobe Illustrator 16.0.0, SVG Export Plug-In . SVG Version: 6.00 Build 0)  -->
<!DOCTYPE svg PUBLIC "-//W3C//DTD SVG 1.1//EN" "http://www.w3.org/Graphics/SVG/1.1/DTD/svg11.dtd">
<svg version="1.1" id="图层_3" xmlns="http://www.w3.org/2000/svg" xmlns:xlink="http://www.w3.org/1999/xlink" x="0px" y="0px"
	 width="192px" height="192px" viewBox="0 0 192 192" enable-background="new 0 0 192 192" xml:space="preserve">
<g id="kity_g_4">
</g>
<path id="kity_path_5" display="none" d="M11.725,78.485h1.401v86.863h-1.401V78.485z"/>
<g id="kity_g_98">
	<g id="kity_g_100">
		<path id="kity_path_101" fill="none" d="M70.28,50.465L70.28,50.465L70.28,50.465L70.28,50.465z"/>
		<g id="kity_g_102">
		</g>
	</g>
</g>
<g id="kity_g_84" transform="matrix( 0.66 0 0 0.66 0 0 )">
	<path id="kity_path_85" d="M-148.884,90.262L-148.884,90.262L-148.884,90.262L-148.884,90.262z"/>
	<g id="kity_g_86">
	</g>
</g>
<path fill="#EA4335" d="M160.75,20H31.25C25.034,20,20,25.035,20,31.25v129.5c0,6.216,5.034,11.25,11.25,11.25h129.5
	c6.216,0,11.25-5.034,11.25-11.25V31.25C172,25.035,166.966,20,160.75,20z"/>
<g>
	<defs>
		<path id="SVGID_1_" d="M160.75,20H31.25C25.034,20,20,25.035,20,31.25v129.5c0,6.216,5.034,11.25,11.25,11.25h129.5
			c6.216,0,11.25-5.034,11.25-11.25V31.25C172,25.035,166.966,20,160.75,20z"/>
	</defs>
	<clipPath id="SVGID_2_">
		<use xlink:href="#SVGID_1_"  overflow="visible"/>
	</clipPath>
	<g clip-path="url(#SVGID_2_)">
		<circle fill="#EF746F" cx="139.5" cy="136.956" r="126"/>
		<circle fill="#EF9292" cx="139.5" cy="136.956" r="88.794"/>
		<circle fill="#F7B2B2" cx="139.5" cy="136.956" r="54"/>
	</g>
</g>
<g>
	<path fill="#FAD6DE" d="M165.077,116.284c-1.752-1.001-3.565-1.818-5.38-2.503c1.814-0.685,3.628-1.502,5.38-2.503
		c12.007-6.938,18.692-19.505,18.76-32.451c-11.193-6.442-25.452-6.943-37.518,0c-1.754,1.002-3.378,2.187-4.88,3.376
		c0.316-1.934,0.5-3.939,0.5-5.941c0-13.88-7.565-25.952-18.759-32.45c-11.193,6.498-18.759,18.57-18.759,32.45
		c0,2.002,0.184,4.007,0.499,5.941c-1.502-1.251-3.125-2.436-4.877-3.437c-12.007-6.943-26.266-6.442-37.519,0
		c0,12.939,6.692,25.513,18.758,32.45c1.753,1.002,3.567,1.813,5.38,2.503c-1.813,0.685-3.627,1.502-5.38,2.504
		c-12.005,6.938-18.692,19.506-18.758,32.45c11.193,6.436,25.451,6.938,37.519,0c1.752-1.001,3.375-2.187,4.877-3.377
		c-0.315,1.997-0.499,4.001-0.499,6.003c0,13.881,7.565,25.953,18.759,32.45c11.193-6.497,18.759-18.569,18.759-32.45
		c0-2.002-0.184-4.006-0.5-5.941c1.502,1.252,3.126,2.375,4.88,3.377c12.005,6.943,26.262,6.442,37.518,0
		C183.77,135.79,177.084,123.223,165.077,116.284z"/>
	<g>
		<defs>
			<path id="SVGID_3_" d="M165.077,116.284c-1.752-1.001-3.565-1.818-5.38-2.503c1.814-0.685,3.628-1.502,5.38-2.503
				c12.007-6.938,18.692-19.505,18.76-32.451c-11.193-6.442-25.452-6.943-37.518,0c-1.754,1.002-3.378,2.187-4.88,3.376
				c0.316-1.934,0.5-3.939,0.5-5.941c0-13.88-7.565-25.952-18.759-32.45c-11.193,6.498-18.759,18.57-18.759,32.45
				c0,2.002,0.184,4.007,0.499,5.941c-1.502-1.251-3.125-2.436-4.877-3.437c-12.007-6.943-26.266-6.442-37.519,0
				c0,12.939,6.692,25.513,18.758,32.45c1.753,1.002,3.567,1.813,5.38,2.503c-1.813,0.685-3.627,1.502-5.38,2.504
				c-12.005,6.938-18.692,19.506-18.758,32.45c11.193,6.436,25.451,6.938,37.519,0c1.752-1.001,3.375-2.187,4.877-3.377
				c-0.315,1.997-0.499,4.001-0.499,6.003c0,13.881,7.565,25.953,18.759,32.45c11.193-6.497,18.759-18.569,18.759-32.45
				c0-2.002-0.184-4.006-0.5-5.941c1.502,1.252,3.126,2.375,4.88,3.377c12.005,6.943,26.262,6.442,37.518,0
				C183.77,135.79,177.084,123.223,165.077,116.284z"/>
		</defs>
		<clipPath id="SVGID_4_">
			<use xlink:href="#SVGID_3_"  overflow="visible"/>
		</clipPath>
		<path clip-path="url(#SVGID_4_)" fill="#FDC5CE" d="M123.181,160.244c-25.832,0-46.753-20.921-46.753-46.755
			c0-25.829,20.921-46.752,46.753-46.752c25.831,0,46.752,20.923,46.752,46.752C169.933,139.323,149.012,160.244,123.181,160.244z"
			/>
	</g>
	<path fill="#F7A6BD" d="M123.181,138.794c-13.819,0-25.012-11.193-25.012-25.013s11.192-25.012,25.012-25.012
		s25.012,11.193,25.012,25.012S137,138.794,123.181,138.794z"/>
</g>
</svg>
