<?xml version="1.0" encoding="utf-8"?>
<!-- Generator: Adobe Illustrator 16.0.0, SVG Export Plug-In . SVG Version: 6.00 Build 0)  -->
<!DOCTYPE svg PUBLIC "-//W3C//DTD SVG 1.1//EN" "http://www.w3.org/Graphics/SVG/1.1/DTD/svg11.dtd">
<svg version="1.1" id="图层_3" xmlns="http://www.w3.org/2000/svg" xmlns:xlink="http://www.w3.org/1999/xlink" x="0px" y="0px"
	 width="192px" height="192px" viewBox="0 0 192 192" enable-background="new 0 0 192 192" xml:space="preserve">
<g>
	<path fill="#FF0080" d="M82.15,33.788c-0.002,7.612,6.164,13.785,13.776,13.788c7.613,0.003,13.786-6.165,13.788-13.776
		c0-0.004,0-0.008,0-0.012c0.005-7.612-6.162-13.785-13.775-13.788c-7.612-0.003-13.785,6.164-13.789,13.776
		C82.15,33.78,82.15,33.784,82.15,33.788z"/>
	<path fill="#00FF80" d="M82.15,157.962c-0.002,7.611,6.164,13.784,13.776,13.788c7.613,0.004,13.786-6.164,13.788-13.776
		c0-0.004,0-0.007,0-0.012c0.005-7.611-6.162-13.784-13.775-13.788c-7.612-0.003-13.785,6.164-13.789,13.776
		C82.15,157.954,82.15,157.958,82.15,157.962z"/>
	<path fill="#00FF00" d="M113.303,149.886c-0.002,7.611,6.166,13.784,13.776,13.788c7.613,0.004,13.786-6.164,13.788-13.776
		c0-0.003,0-0.007,0-0.012c0.006-7.611-6.162-13.785-13.775-13.787c-7.611-0.004-13.784,6.164-13.789,13.775
		C113.303,149.878,113.303,149.882,113.303,149.886z"/>
	<path fill="#00FFFF" d="M50.845,149.886c0,7.611,6.17,13.782,13.782,13.782s13.782-6.171,13.782-13.782s-6.17-13.781-13.782-13.781
		S50.845,142.274,50.845,149.886L50.845,149.886L50.845,149.886z"/>
	<path fill="#0080FF" d="M27.801,126.978c-0.002,7.612,6.166,13.785,13.778,13.786c7.612,0.003,13.784-6.165,13.786-13.777
		c0-0.003,0-0.006,0-0.009c0-7.612-6.17-13.782-13.782-13.782C33.972,113.195,27.801,119.365,27.801,126.978z"/>
	<path fill="#80FF00" d="M136.212,126.978c-0.002,7.612,6.165,13.785,13.776,13.789c7.61,0.002,13.786-6.165,13.788-13.776
		c0-0.004,0-0.009,0-0.013c0.003-7.612-6.165-13.784-13.775-13.788c-7.611-0.003-13.786,6.165-13.789,13.775
		C136.212,126.971,136.212,126.974,136.212,126.978z"/>
	<path fill="#FFFF00" d="M144.593,96.146c-0.003,7.611,6.165,13.784,13.776,13.787c7.612,0.003,13.785-6.164,13.788-13.775
		c0-0.005,0-0.009,0-0.012c0.002-7.612-6.165-13.785-13.776-13.788c-7.61-0.004-13.783,6.164-13.788,13.775
		C144.593,96.139,144.593,96.143,144.593,96.146z"/>
	<path fill="#0000FF" d="M19.843,96.146c-0.002,7.611,6.166,13.783,13.778,13.785c7.611,0.003,13.784-6.166,13.786-13.777
		c0-0.003,0-0.006,0-0.008c0-7.612-6.17-13.783-13.781-13.783C26.014,82.364,19.843,88.534,19.843,96.146z"/>
	<path fill="#8000FF" d="M28.512,65.128c0,7.612,6.17,13.782,13.782,13.782c7.611,0,13.782-6.17,13.782-13.782
		s-6.17-13.782-13.782-13.782C34.683,51.346,28.512,57.516,28.512,65.128L28.512,65.128L28.512,65.128z"/>
	<path fill="#FF00FF" d="M51.556,42.084c-0.003,7.612,6.165,13.785,13.776,13.789s13.786-6.165,13.788-13.776
		c0-0.004,0-0.008,0-0.012c0-7.611-6.17-13.781-13.782-13.781S51.556,34.473,51.556,42.084z"/>
	<path fill="#FF0000" d="M113.593,42.084c-0.005,7.612,6.163,13.785,13.776,13.789c7.61,0.003,13.783-6.165,13.788-13.776
		c0-0.004,0-0.008,0-0.012c0.003-7.611-6.165-13.785-13.776-13.788c-7.613-0.003-13.786,6.165-13.788,13.776
		C113.593,42.076,113.593,42.081,113.593,42.084z"/>
	<path fill="#FF8000" d="M136.212,65.128c-0.002,7.612,6.165,13.784,13.776,13.788c7.61,0.003,13.786-6.165,13.788-13.776
		c0-0.004,0-0.008,0-0.012c0.003-7.612-6.165-13.785-13.775-13.788c-7.611-0.003-13.786,6.165-13.789,13.776
		C136.212,65.12,136.212,65.124,136.212,65.128z"/>
</g>
</svg>
