<?xml version="1.0" encoding="utf-8"?>
<!-- Generator: Adobe Illustrator 16.0.0, SVG Export Plug-In . SVG Version: 6.00 Build 0)  -->
<!DOCTYPE svg PUBLIC "-//W3C//DTD SVG 1.1//EN" "http://www.w3.org/Graphics/SVG/1.1/DTD/svg11.dtd">
<svg version="1.1" id="图层_3" xmlns="http://www.w3.org/2000/svg" xmlns:xlink="http://www.w3.org/1999/xlink" x="0px" y="0px"
	 width="192px" height="192px" viewBox="0 0 192 192" enable-background="new 0 0 192 192" xml:space="preserve">
<path fill="#4285F4" d="M160.75,20H31.25C25.035,20,20,25.035,20,31.25v129.5c0,6.216,5.034,11.25,11.25,11.25h129.5
	c6.217,0,11.25-5.034,11.25-11.25V31.25C172,25.035,166.967,20,160.75,20z"/>
<polygon fill="#FFFFFF" points="66.547,108.861 87.704,134.291 117.324,96.167 155.407,146.944 36.926,146.944 "/>
<g>
	<path fill="#FFFFFF" d="M75.647,63.94H65.538v8.808h11.834v2.604H62.207V50.737h14.979v2.62H65.538v7.963h10.109V63.94z"/>
	<path fill="#FFFFFF" d="M89.426,60.34l5.747-9.603h4.024l-7.811,12.206l7.979,12.409h-3.974l-5.899-9.771l-5.917,9.771h-4.023
		l7.979-12.409l-7.811-12.206h3.99L89.426,60.34z"/>
	<path fill="#FFFFFF" d="M106.89,75.352h-3.348V50.737h3.348V75.352z"/>
	<path fill="#FFFFFF" d="M126.703,64.465h-10.381v10.887h-3.33V50.737h15.435v2.62h-12.104v8.487h10.381V64.465z"/>
</g>
</svg>
