<?xml version="1.0" encoding="utf-8"?>
<!-- Generator: Adobe Illustrator 16.0.0, SVG Export Plug-In . SVG Version: 6.00 Build 0)  -->
<!DOCTYPE svg PUBLIC "-//W3C//DTD SVG 1.1//EN" "http://www.w3.org/Graphics/SVG/1.1/DTD/svg11.dtd">
<svg version="1.1" id="图层_3" xmlns="http://www.w3.org/2000/svg" xmlns:xlink="http://www.w3.org/1999/xlink" x="0px" y="0px"
	 width="192px" height="192px" viewBox="0 0 192 192" enable-background="new 0 0 192 192" xml:space="preserve">
<line fill="none" x1="19" y1="73.362" x2="178.469" y2="73.362"/>
<path fill="none" d="M47.735,76.083h51v51h-51V76.083z"/>
<path fill="none" d="M71,69h97v97H71V69z"/>
<line fill="none" x1="18" y1="79.583" x2="177.469" y2="79.583"/>
<rect x="23.705" y="27.144" fill="none" width="144.395" height="144.396"/>
<path fill="#4285F4" d="M8.027,43.625v104.75c0,6.215,5.034,11.25,11.25,11.25h153.25c6.215,0,11.25-5.035,11.25-11.25V43.625
	c0-6.215-5.035-11.25-11.25-11.25H19.277C13.061,32.375,8.027,37.41,8.027,43.625z"/>
<path fill="#FFFFFF" d="M93.724,76.929h6.536v26.143h-6.536V76.929z M82.831,76.929H69.76c-2.613,0-4.357,2.179-4.357,4.357v17.429
	c0,2.178,1.744,4.356,4.357,4.356h13.071c2.612,0,4.357-2.179,4.357-4.356V90h-6.536v6.536h-8.714V83.465h15.25v-2.179
	C87.188,79.107,85.443,76.929,82.831,76.929z M126.402,83.465v-6.536h-19.607v26.143h6.536v-8.714h8.714v-6.536h-8.714v-4.356
	H126.402z"/>
<path fill="#2D6FE4" d="M8.125,128.666v19.709c0,6.215,5.034,11.25,11.25,11.25h153.25c6.215,0,11.25-5.035,11.25-11.25v-19.709
	H8.125z"/>
<rect x="58.028" y="139.979" opacity="0.8" fill="#FFFFFF" width="75.75" height="8"/>
</svg>
