<?xml version="1.0" encoding="utf-8"?>
<!-- Generator: Adobe Illustrator 16.0.0, SVG Export Plug-In . SVG Version: 6.00 Build 0)  -->
<!DOCTYPE svg PUBLIC "-//W3C//DTD SVG 1.1//EN" "http://www.w3.org/Graphics/SVG/1.1/DTD/svg11.dtd">
<svg version="1.1" id="图层_3" xmlns="http://www.w3.org/2000/svg" xmlns:xlink="http://www.w3.org/1999/xlink" x="0px" y="0px"
	 width="192px" height="192px" viewBox="0 0 192 192" enable-background="new 0 0 192 192" xml:space="preserve">
<path fill="#FBBC05" d="M8.125,43.625v104.75c0,6.216,5.034,11.25,11.25,11.25h153.25c6.215,0,11.25-5.034,11.25-11.25V43.625
	c0-6.215-5.035-11.25-11.25-11.25H19.375C13.159,32.375,8.125,37.41,8.125,43.625z"/>
<g opacity="0.8">
	<path fill="#FFFFFF" d="M155.74,90.64h-40.857c-2.072,0-3.764-1.692-3.764-3.765c0-2.071,1.691-3.764,3.764-3.764h40.857
		c2.073,0,3.764,1.693,3.764,3.764C159.504,88.905,157.813,90.64,155.74,90.64z"/>
	<path fill="#FFFFFF" d="M155.74,114.832h-40.857c-2.072,0-3.764-1.691-3.764-3.765c0-2.072,1.691-3.763,3.764-3.763h40.857
		c2.073,0,3.764,1.69,3.764,3.763C159.504,113.141,157.813,114.832,155.74,114.832z"/>
</g>
<path opacity="0.8" fill="#FFFFFF" d="M82.147,63.401H40.656c-3.891,0-7.021,3.171-7.021,7.021v51.98
	c0,3.893,3.172,7.021,7.021,7.021h41.491c3.891,0,7.021-3.173,7.021-7.021v-51.98C89.21,66.573,86.038,63.401,82.147,63.401z
	 M61.591,78.036c5.076,0,9.179,4.145,9.179,9.177c0,5.076-4.145,9.177-9.179,9.177c-5.074,0-9.177-4.102-9.177-9.177
	C52.414,82.181,56.517,78.036,61.591,78.036z M79.99,114.832H43.194v-3.044c0-6.133,12.266-9.518,18.397-9.518
	c6.133,0,18.399,3.385,18.399,9.518V114.832z"/>
</svg>
