<?xml version="1.0" encoding="utf-8"?>
<!-- Generator: Adobe Illustrator 16.0.0, SVG Export Plug-In . SVG Version: 6.00 Build 0)  -->
<!DOCTYPE svg PUBLIC "-//W3C//DTD SVG 1.1//EN" "http://www.w3.org/Graphics/SVG/1.1/DTD/svg11.dtd">
<svg version="1.1" id="图层_3" xmlns="http://www.w3.org/2000/svg" xmlns:xlink="http://www.w3.org/1999/xlink" x="0px" y="0px"
	 width="192px" height="192px" viewBox="0 0 192 192" enable-background="new 0 0 192 192" xml:space="preserve">
<rect display="none" fill="#FFFFFF" width="192" height="192"/>
<path display="none" fill="#EA4335" d="M161.084,20h-129.5c-6.216,0-11.25,5.035-11.25,11.25v129.5c0,6.216,5.034,11.25,11.25,11.25
	h129.5c6.215,0,11.25-5.034,11.25-11.25V31.25C172.334,25.035,167.299,20,161.084,20z"/>
<path fill="#4285F4" d="M31.574,20c-6.211,0.005-11.24,5.038-11.24,11.25v129.5c0,6.215,5.034,11.25,11.25,11.25H96V20H31.574z"/>
<path fill="#EA4335" d="M160.426,20c6.211,0.005,11.24,5.038,11.24,11.25v129.5c0,6.215-5.033,11.25-11.25,11.25H96V20H160.426z"/>
<g>
	<path fill="#FFFFFF" d="M121.474,70.556c0,14.045-11.37,25.354-25.353,25.354c-13.985,0-25.355-11.34-25.355-25.354
		c0-13.984,11.37-25.354,25.355-25.354C110.104,45.201,121.474,56.571,121.474,70.556z"/>
	<path fill="#FFFFFF" d="M45.383,138.193c0-16.9,33.805-26.203,50.706-26.203c16.903,0,50.707,9.303,50.707,26.203v8.453H45.383
		V138.193z"/>
</g>
</svg>
