<?xml version="1.0" encoding="utf-8"?>
<!-- Generator: Adobe Illustrator 16.0.0, SVG Export Plug-In . SVG Version: 6.00 Build 0)  -->
<!DOCTYPE svg PUBLIC "-//W3C//DTD SVG 1.1//EN" "http://www.w3.org/Graphics/SVG/1.1/DTD/svg11.dtd">
<svg version="1.1" id="图层_3" xmlns="http://www.w3.org/2000/svg" xmlns:xlink="http://www.w3.org/1999/xlink" x="0px" y="0px"
	 width="192px" height="192px" viewBox="0 0 192 192" enable-background="new 0 0 192 192" xml:space="preserve">
<line fill="none" x1="17.705" y1="74.155" x2="177.174" y2="74.155"/>
<path fill="#FFFFFF" d="M138.438,90.455l-0.399-0.443L138.438,90.455z"/>
<path fill="#FFFFFF" d="M104.377,52.686l-0.399-0.443L104.377,52.686z"/>
<path fill="#333333" d="M20,91.528H91.53V20H20V91.528z M37.883,37.882h35.765v35.764H37.883V37.882z M100.471,20v71.529H172V20
	H100.471z M154.117,73.646h-35.765V37.882h35.765V73.646z M46.824,64.705h17.882V46.823H46.824V64.705z M20,171.999H91.53V100.47H20
	V171.999z M37.883,118.352h35.765v35.765H37.883V118.352z M145.177,46.823h-17.883v17.882h17.882L145.177,46.823L145.177,46.823z
	 M100.471,171.999h17.882v-17.883h-17.882V171.999z M118.353,118.352v35.765h17.883v-35.765H118.353z M154.117,154.116h-17.882
	v17.883H172v-35.765h-17.883V154.116z M154.117,118.352H172V100.47h-17.883V118.352z M100.471,100.47v17.882h17.882V100.47H100.471z
	 M46.824,145.175h17.882v-17.882H46.824V145.175z"/>
</svg>
