<?xml version="1.0" encoding="utf-8"?>
<!-- Generator: Adobe Illustrator 16.0.0, SVG Export Plug-In . SVG Version: 6.00 Build 0)  -->
<!DOCTYPE svg PUBLIC "-//W3C//DTD SVG 1.1//EN" "http://www.w3.org/Graphics/SVG/1.1/DTD/svg11.dtd">
<svg version="1.1" id="图层_3" xmlns="http://www.w3.org/2000/svg" xmlns:xlink="http://www.w3.org/1999/xlink" x="0px" y="0px"
	 width="192px" height="192px" viewBox="0 0 192 192" enable-background="new 0 0 192 192" xml:space="preserve">
<path fill="#34A853" d="M160.479,20H31.228C25.025,20,20,25.026,20,31.228v129.251c0,6.203,5.025,11.229,11.228,11.229h129.25
	c6.204,0,11.229-5.026,11.229-11.229V31.228C171.708,25.026,166.683,20,160.479,20z"/>
<path fill="#FFFFFF" d="M100.663,55.144c-22.564,0-40.856,18.296-40.856,40.857H46.188l17.662,17.662l0.314,0.634l18.341-18.296
	H68.886c0-17.569,14.209-31.778,31.777-31.778c17.569,0,31.778,14.209,31.778,31.778c0,17.568-14.209,31.777-31.778,31.777
	c-8.76,0-16.704-3.587-22.423-9.354l-6.446,6.446c7.395,7.403,17.564,11.987,28.869,11.987c22.565,0,40.857-18.296,40.857-40.856
	C141.521,73.439,123.229,55.144,100.663,55.144z M96.124,77.842v22.698l19.427,11.531l3.271-5.493l-15.889-9.442V77.842H96.124z"/>
</svg>
